0
SECTION
2
HEADER
9
$INSUNITS
70
4
9
$ACADVER
1
AC1014
9
$HANDSEED
5
FFFF
0
ENDSEC
0
SECTION
2
TABLES
0
TABLE
2
VPORT
5
8
100
AcDbSymbolTable
0
ENDTAB
0
TABLE
2
LTYPE
5
5
100
AcDbSymbolTable
0
LTYPE
5
14
100
AcDbSymbolTableRecord
100
AcDbLinetypeTableRecord
2
BYBLOCK
70
0
0
LTYPE
5
15
100
AcDbSymbolTableRecord
100
AcDbLinetypeTableRecord
2
BYLAYER
70
0
0
ENDTAB
0
TABLE
2
LAYER
5
2
100
AcDbSymbolTable
70
2
0
LAYER
5
50
100
AcDbSymbolTableRecord
100
AcDbLayerTableRecord
2
0
70
0
6
CONTINUOUS
0
ENDTAB
0
TABLE
2
STYLE
5
3
100
AcDbSymbolTable
70
1
0
STYLE
5
11
100
AcDbSymbolTableRecord
100
AcDbTextStyleTableRecord
2
STANDARD
70
0
0
ENDTAB
0
TABLE
2
VIEW
5
6
100
AcDbSymbolTable
70
0
0
ENDTAB
0
TABLE
2
UCS
5
7
100
AcDbSymbolTable
70
0
0
ENDTAB
0
TABLE
2
APPID
5
9
100
AcDbSymbolTable
70
2
0
APPID
5
12
100
AcDbSymbolTableRecord
100
AcDbRegAppTableRecord
2
ACAD
70
0
0
ENDTAB
0
TABLE
2
DIMSTYLE
5
A
100
AcDbSymbolTable
70
1
0
ENDTAB
0
TABLE
2
BLOCK_RECORD
5
1
100
AcDbSymbolTable
70
1
0
BLOCK_RECORD
5
1F
100
AcDbSymbolTableRecord
100
AcDbBlockTableRecord
2
*MODEL_SPACE
0
BLOCK_RECORD
5
1B
100
AcDbSymbolTableRecord
100
AcDbBlockTableRecord
2
*PAPER_SPACE
0
ENDTAB
0
ENDSEC
0
SECTION
2
BLOCKS
0
BLOCK
5
20
100
AcDbEntity
100
AcDbBlockBegin
2
*MODEL_SPACE
0
ENDBLK
5
21
100
AcDbEntity
100
AcDbBlockEnd
0
BLOCK
5
1C
100
AcDbEntity
100
AcDbBlockBegin
2
*PAPER_SPACE
0
ENDBLK
5
1D
100
AcDbEntity
100
AcDbBlockEnd
0
ENDSEC
0
SECTION
2
ENTITIES
0
LINE
5
100
100
AcDbEntity
8
0
100
AcDbLine
10
0
20
0
30
0
11
0
21
7
31
0
0
LINE
5
101
100
AcDbEntity
8
0
100
AcDbLine
10
-4.1666666666666661
20
0
30
0
11
-4.1666666666666661
21
3
31
0
0
LINE
5
102
100
AcDbEntity
8
0
100
AcDbLine
10
-8.3333333333333321
20
0
30
0
11
-8.3333333333333321
21
3
31
0
0
LINE
5
103
100
AcDbEntity
8
0
100
AcDbLine
10
-12.5
20
0
30
0
11
-12.5
21
3
31
0
0
LINE
5
104
100
AcDbEntity
8
0
100
AcDbLine
10
-16.666666666666664
20
0
30
0
11
-16.666666666666664
21
3
31
0
0
LINE
5
105
100
AcDbEntity
8
0
100
AcDbLine
10
-20.833333333333329
20
0
30
0
11
-20.833333333333329
21
5
31
0
0
LINE
5
106
100
AcDbEntity
8
0
100
AcDbLine
10
-25
20
0
30
0
11
-25
21
3
31
0
0
LINE
5
107
100
AcDbEntity
8
0
100
AcDbLine
10
-29.166666666666664
20
0
30
0
11
-29.166666666666664
21
3
31
0
0
LINE
5
108
100
AcDbEntity
8
0
100
AcDbLine
10
-33.333333333333329
20
0
30
0
11
-33.333333333333329
21
3
31
0
0
LINE
5
109
100
AcDbEntity
8
0
100
AcDbLine
10
-37.5
20
0
30
0
11
-37.5
21
3
31
0
0
LINE
5
110
100
AcDbEntity
8
0
100
AcDbLine
10
-41.666666666666657
20
0
30
0
11
-41.666666666666657
21
7
31
0
0
LINE
5
111
100
AcDbEntity
8
0
100
AcDbLine
10
-45.833333333333329
20
0
30
0
11
-45.833333333333329
21
3
31
0
0
LINE
5
112
100
AcDbEntity
8
0
100
AcDbLine
10
-50
20
0
30
0
11
-50
21
3
31
0
0
LINE
5
113
100
AcDbEntity
8
0
100
AcDbLine
10
-54.166666666666657
20
0
30
0
11
-54.166666666666657
21
3
31
0
0
LINE
5
114
100
AcDbEntity
8
0
100
AcDbLine
10
-58.333333333333329
20
0
30
0
11
-58.333333333333329
21
3
31
0
0
LINE
5
115
100
AcDbEntity
8
0
100
AcDbLine
10
-62.5
20
0
30
0
11
-62.5
21
5
31
0
0
LINE
5
116
100
AcDbEntity
8
0
100
AcDbLine
10
-66.666666666666657
20
0
30
0
11
-66.666666666666657
21
3
31
0
0
LINE
5
117
100
AcDbEntity
8
0
100
AcDbLine
10
-70.833333333333329
20
0
30
0
11
-70.833333333333329
21
3
31
0
0
LINE
5
118
100
AcDbEntity
8
0
100
AcDbLine
10
-75
20
0
30
0
11
-75
21
3
31
0
0
LINE
5
119
100
AcDbEntity
8
0
100
AcDbLine
10
-79.166666666666657
20
0
30
0
11
-79.166666666666657
21
3
31
0
0
LINE
5
120
100
AcDbEntity
8
0
100
AcDbLine
10
-83.333333333333314
20
0
30
0
11
-83.333333333333314
21
7
31
0
0
LINE
5
121
100
AcDbEntity
8
0
100
AcDbLine
10
-87.5
20
0
30
0
11
-87.5
21
3
31
0
0
LINE
5
122
100
AcDbEntity
8
0
100
AcDbLine
10
-91.666666666666657
20
0
30
0
11
-91.666666666666657
21
3
31
0
0
LINE
5
123
100
AcDbEntity
8
0
100
AcDbLine
10
-95.833333333333314
20
0
30
0
11
-95.833333333333314
21
3
31
0
0
LINE
5
124
100
AcDbEntity
8
0
100
AcDbLine
10
-100
20
0
30
0
11
-100
21
3
31
0
0
LINE
5
125
100
AcDbEntity
8
0
100
AcDbLine
10
-104.16666666666666
20
0
30
0
11
-104.16666666666666
21
5
31
0
0
LINE
5
126
100
AcDbEntity
8
0
100
AcDbLine
10
-108.33333333333331
20
0
30
0
11
-108.33333333333331
21
3
31
0
0
LINE
5
127
100
AcDbEntity
8
0
100
AcDbLine
10
-112.5
20
0
30
0
11
-112.5
21
3
31
0
0
LINE
5
128
100
AcDbEntity
8
0
100
AcDbLine
10
-116.66666666666666
20
0
30
0
11
-116.66666666666666
21
3
31
0
0
LINE
5
129
100
AcDbEntity
8
0
100
AcDbLine
10
-120.83333333333331
20
0
30
0
11
-120.83333333333331
21
3
31
0
0
LINE
5
130
100
AcDbEntity
8
0
100
AcDbLine
10
-125
20
0
30
0
11
-125
21
7
31
0
0
LINE
5
131
100
AcDbEntity
8
0
100
AcDbLine
10
-129.16666666666666
20
0
30
0
11
-129.16666666666666
21
3
31
0
0
LINE
5
132
100
AcDbEntity
8
0
100
AcDbLine
10
-133.33333333333331
20
0
30
0
11
-133.33333333333331
21
3
31
0
0
LINE
5
133
100
AcDbEntity
8
0
100
AcDbLine
10
-137.5
20
0
30
0
11
-137.5
21
3
31
0
0
LINE
5
134
100
AcDbEntity
8
0
100
AcDbLine
10
-141.66666666666666
20
0
30
0
11
-141.66666666666666
21
3
31
0
0
LINE
5
135
100
AcDbEntity
8
0
100
AcDbLine
10
-145.83333333333331
20
0
30
0
11
-145.83333333333331
21
5
31
0
0
LINE
5
136
100
AcDbEntity
8
0
100
AcDbLine
10
-150
20
0
30
0
11
-150
21
3
31
0
0
LINE
5
137
100
AcDbEntity
8
0
100
AcDbLine
10
-154.16666666666666
20
0
30
0
11
-154.16666666666666
21
3
31
0
0
LINE
5
138
100
AcDbEntity
8
0
100
AcDbLine
10
-158.33333333333331
20
0
30
0
11
-158.33333333333331
21
3
31
0
0
LINE
5
139
100
AcDbEntity
8
0
100
AcDbLine
10
-162.5
20
0
30
0
11
-162.5
21
3
31
0
0
LINE
5
140
100
AcDbEntity
8
0
100
AcDbLine
10
-166.66666666666663
20
0
30
0
11
-166.66666666666663
21
7
31
0
0
LINE
5
141
100
AcDbEntity
8
0
100
AcDbLine
10
-170.83333333333331
20
0
30
0
11
-170.83333333333331
21
3
31
0
0
LINE
5
142
100
AcDbEntity
8
0
100
AcDbLine
10
-175
20
0
30
0
11
-175
21
3
31
0
0
LINE
5
143
100
AcDbEntity
8
0
100
AcDbLine
10
-179.16666666666663
20
0
30
0
11
-179.16666666666663
21
3
31
0
0
LINE
5
144
100
AcDbEntity
8
0
100
AcDbLine
10
-183.33333333333331
20
0
30
0
11
-183.33333333333331
21
3
31
0
0
LINE
5
145
100
AcDbEntity
8
0
100
AcDbLine
10
-187.5
20
0
30
0
11
-187.5
21
5
31
0
0
LINE
5
146
100
AcDbEntity
8
0
100
AcDbLine
10
-191.66666666666663
20
0
30
0
11
-191.66666666666663
21
3
31
0
0
LINE
5
147
100
AcDbEntity
8
0
100
AcDbLine
10
-195.83333333333331
20
0
30
0
11
-195.83333333333331
21
3
31
0
0
LINE
5
148
100
AcDbEntity
8
0
100
AcDbLine
10
-200
20
0
30
0
11
-200
21
3
31
0
0
LINE
5
149
100
AcDbEntity
8
0
100
AcDbLine
10
-204.16666666666663
20
0
30
0
11
-204.16666666666663
21
3
31
0
0
LINE
5
150
100
AcDbEntity
8
0
100
AcDbLine
10
-208.33333333333331
20
0
30
0
11
-208.33333333333331
21
7
31
0
0
LINE
5
151
100
AcDbEntity
8
0
100
AcDbLine
10
-212.5
20
0
30
0
11
-212.5
21
3
31
0
0
LINE
5
152
100
AcDbEntity
8
0
100
AcDbLine
10
-216.66666666666663
20
0
30
0
11
-216.66666666666663
21
3
31
0
0
LINE
5
153
100
AcDbEntity
8
0
100
AcDbLine
10
-220.83333333333331
20
0
30
0
11
-220.83333333333331
21
3
31
0
0
LINE
5
154
100
AcDbEntity
8
0
100
AcDbLine
10
-225
20
0
30
0
11
-225
21
3
31
0
0
LINE
5
155
100
AcDbEntity
8
0
100
AcDbLine
10
-229.16666666666663
20
0
30
0
11
-229.16666666666663
21
5
31
0
0
LINE
5
156
100
AcDbEntity
8
0
100
AcDbLine
10
-233.33333333333331
20
0
30
0
11
-233.33333333333331
21
3
31
0
0
LINE
5
157
100
AcDbEntity
8
0
100
AcDbLine
10
-237.5
20
0
30
0
11
-237.5
21
3
31
0
0
LINE
5
158
100
AcDbEntity
8
0
100
AcDbLine
10
-241.66666666666663
20
0
30
0
11
-241.66666666666663
21
3
31
0
0
LINE
5
159
100
AcDbEntity
8
0
100
AcDbLine
10
-245.83333333333331
20
0
30
0
11
-245.83333333333331
21
3
31
0
0
LINE
5
160
100
AcDbEntity
8
0
100
AcDbLine
10
-250
20
0
30
0
11
-250
21
7
31
0
0
LINE
5
161
100
AcDbEntity
8
0
100
AcDbLine
10
-254.16666666666663
20
0
30
0
11
-254.16666666666663
21
3
31
0
0
LINE
5
162
100
AcDbEntity
8
0
100
AcDbLine
10
-258.33333333333331
20
0
30
0
11
-258.33333333333331
21
3
31
0
0
LINE
5
163
100
AcDbEntity
8
0
100
AcDbLine
10
-262.5
20
0
30
0
11
-262.5
21
3
31
0
0
LINE
5
164
100
AcDbEntity
8
0
100
AcDbLine
10
-266.66666666666663
20
0
30
0
11
-266.66666666666663
21
3
31
0
0
LINE
5
165
100
AcDbEntity
8
0
100
AcDbLine
10
-270.83333333333331
20
0
30
0
11
-270.83333333333331
21
5
31
0
0
LINE
5
166
100
AcDbEntity
8
0
100
AcDbLine
10
-275
20
0
30
0
11
-275
21
3
31
0
0
LINE
5
167
100
AcDbEntity
8
0
100
AcDbLine
10
-279.16666666666663
20
0
30
0
11
-279.16666666666663
21
3
31
0
0
LINE
5
168
100
AcDbEntity
8
0
100
AcDbLine
10
-283.33333333333331
20
0
30
0
11
-283.33333333333331
21
3
31
0
0
LINE
5
169
100
AcDbEntity
8
0
100
AcDbLine
10
-287.5
20
0
30
0
11
-287.5
21
3
31
0
0
LINE
5
170
100
AcDbEntity
8
0
100
AcDbLine
10
-291.66666666666663
20
0
30
0
11
-291.66666666666663
21
7
31
0
0
LINE
5
171
100
AcDbEntity
8
0
100
AcDbLine
10
-295.83333333333331
20
0
30
0
11
-295.83333333333331
21
3
31
0
0
LINE
5
172
100
AcDbEntity
8
0
100
AcDbLine
10
-300
20
0
30
0
11
-300
21
3
31
0
0
LINE
5
173
100
AcDbEntity
8
0
100
AcDbLine
10
-304.16666666666663
20
0
30
0
11
-304.16666666666663
21
3
31
0
0
LINE
5
174
100
AcDbEntity
8
0
100
AcDbLine
10
-308.33333333333331
20
0
30
0
11
-308.33333333333331
21
3
31
0
0
LINE
5
175
100
AcDbEntity
8
0
100
AcDbLine
10
-312.5
20
0
30
0
11
-312.5
21
5
31
0
0
LINE
5
176
100
AcDbEntity
8
0
100
AcDbLine
10
-316.66666666666663
20
0
30
0
11
-316.66666666666663
21
3
31
0
0
LINE
5
177
100
AcDbEntity
8
0
100
AcDbLine
10
-320.83333333333326
20
0
30
0
11
-320.83333333333326
21
3
31
0
0
LINE
5
178
100
AcDbEntity
8
0
100
AcDbLine
10
-325
20
0
30
0
11
-325
21
3
31
0
0
LINE
5
179
100
AcDbEntity
8
0
100
AcDbLine
10
-329.16666666666663
20
0
30
0
11
-329.16666666666663
21
3
31
0
0
LINE
5
180
100
AcDbEntity
8
0
100
AcDbLine
10
-333.33333333333326
20
0
30
0
11
-333.33333333333326
21
7
31
0
0
LINE
5
181
100
AcDbEntity
8
0
100
AcDbLine
10
-337.5
20
0
30
0
11
-337.5
21
3
31
0
0
LINE
5
182
100
AcDbEntity
8
0
100
AcDbLine
10
-341.66666666666663
20
0
30
0
11
-341.66666666666663
21
3
31
0
0
LINE
5
183
100
AcDbEntity
8
0
100
AcDbLine
10
-345.83333333333326
20
0
30
0
11
-345.83333333333326
21
3
31
0
0
LINE
5
184
100
AcDbEntity
8
0
100
AcDbLine
10
-350
20
0
30
0
11
-350
21
3
31
0
0
LINE
5
185
100
AcDbEntity
8
0
100
AcDbLine
10
-354.16666666666663
20
0
30
0
11
-354.16666666666663
21
5
31
0
0
LINE
5
186
100
AcDbEntity
8
0
100
AcDbLine
10
-358.33333333333326
20
0
30
0
11
-358.33333333333326
21
3
31
0
0
LINE
5
187
100
AcDbEntity
8
0
100
AcDbLine
10
-362.5
20
0
30
0
11
-362.5
21
3
31
0
0
LINE
5
188
100
AcDbEntity
8
0
100
AcDbLine
10
-366.66666666666663
20
0
30
0
11
-366.66666666666663
21
3
31
0
0
LINE
5
189
100
AcDbEntity
8
0
100
AcDbLine
10
-370.83333333333326
20
0
30
0
11
-370.83333333333326
21
3
31
0
0
LINE
5
190
100
AcDbEntity
8
0
100
AcDbLine
10
-375
20
0
30
0
11
-375
21
7
31
0
0
LINE
5
191
100
AcDbEntity
8
0
100
AcDbLine
10
-379.16666666666663
20
0
30
0
11
-379.16666666666663
21
3
31
0
0
LINE
5
192
100
AcDbEntity
8
0
100
AcDbLine
10
-383.33333333333326
20
0
30
0
11
-383.33333333333326
21
3
31
0
0
LINE
5
193
100
AcDbEntity
8
0
100
AcDbLine
10
-387.5
20
0
30
0
11
-387.5
21
3
31
0
0
LINE
5
194
100
AcDbEntity
8
0
100
AcDbLine
10
-391.66666666666663
20
0
30
0
11
-391.66666666666663
21
3
31
0
0
LINE
5
195
100
AcDbEntity
8
0
100
AcDbLine
10
-395.83333333333326
20
0
30
0
11
-395.83333333333326
21
5
31
0
0
LINE
5
196
100
AcDbEntity
8
0
100
AcDbLine
10
-400
20
0
30
0
11
-400
21
3
31
0
0
LINE
5
197
100
AcDbEntity
8
0
100
AcDbLine
10
-404.16666666666663
20
0
30
0
11
-404.16666666666663
21
3
31
0
0
LINE
5
198
100
AcDbEntity
8
0
100
AcDbLine
10
-408.33333333333326
20
0
30
0
11
-408.33333333333326
21
3
31
0
0
LINE
5
199
100
AcDbEntity
8
0
100
AcDbLine
10
-412.5
20
0
30
0
11
-412.5
21
3
31
0
0
LINE
5
200
100
AcDbEntity
8
0
100
AcDbLine
10
-416.66666666666663
20
0
30
0
11
-416.66666666666663
21
7
31
0
0
LINE
5
201
100
AcDbEntity
8
0
100
AcDbLine
10
0
20
0
30
0
11
30.759115964107888
21
0
31
0
0
LINE
5
202
100
AcDbEntity
8
0
100
AcDbLine
10
6.0320214615046908
20
15
30
0
11
28.156263911202277
21
15
31
0
0
LINE
5
203
100
AcDbEntity
8
0
100
AcDbLine
10
-287.5
20
30
30
0
11
-287.5
21
27
31
0
0
LINE
5
204
100
AcDbEntity
8
0
100
AcDbLine
10
-250
20
30
30
0
11
-250
21
23
31
0
0
LINE
5
205
100
AcDbEntity
8
0
100
AcDbLine
10
-279.16666666666663
20
30
30
0
11
-279.16666666666663
21
27
31
0
0
LINE
5
206
100
AcDbEntity
8
0
100
AcDbLine
10
-254.16666666666663
20
30
30
0
11
-254.16666666666663
21
27
31
0
0
LINE
5
207
100
AcDbEntity
8
0
100
AcDbLine
10
-229.16666666666663
20
30
30
0
11
-229.16666666666663
21
25
31
0
0
LINE
5
208
100
AcDbEntity
8
0
100
AcDbLine
10
-233.33333333333331
20
30
30
0
11
-233.33333333333331
21
27
31
0
0
LINE
5
209
100
AcDbEntity
8
0
100
AcDbLine
10
-275
20
30
30
0
11
-275
21
27
31
0
0
LINE
5
210
100
AcDbEntity
8
0
100
AcDbLine
10
-225
20
30
30
0
11
-225
21
27
31
0
0
LINE
5
211
100
AcDbEntity
8
0
100
AcDbLine
10
-354.16666666666674
20
30
30
0
11
-354.16666666666674
21
25
31
0
0
LINE
5
212
100
AcDbEntity
8
0
100
AcDbLine
10
-237.5
20
30
30
0
11
-237.5
21
27
31
0
0
LINE
5
213
100
AcDbEntity
8
0
100
AcDbLine
10
-312.5
20
30
30
0
11
-312.5
21
25
31
0
0
LINE
5
214
100
AcDbEntity
8
0
100
AcDbLine
10
-262.5
20
30
30
0
11
-262.5
21
27
31
0
0
LINE
5
215
100
AcDbEntity
8
0
100
AcDbLine
10
-266.66666666666663
20
30
30
0
11
-266.66666666666663
21
27
31
0
0
LINE
5
216
100
AcDbEntity
8
0
100
AcDbLine
10
-216.66666666666663
20
30
30
0
11
-216.66666666666663
21
27
31
0
0
LINE
5
217
100
AcDbEntity
8
0
100
AcDbLine
10
-412.5
20
30
30
0
11
-412.5
21
27
31
0
0
LINE
5
218
100
AcDbEntity
8
0
100
AcDbLine
10
-345.83333333333326
20
30
30
0
11
-345.83333333333326
21
27
31
0
0
LINE
5
219
100
AcDbEntity
8
0
100
AcDbLine
10
-291.66666666666663
20
30
30
0
11
-291.66666666666663
21
23
31
0
0
LINE
5
220
100
AcDbEntity
8
0
100
AcDbLine
10
-258.33333333333331
20
30
30
0
11
-258.33333333333331
21
27
31
0
0
LINE
5
221
100
AcDbEntity
8
0
100
AcDbLine
10
-404.16666666666674
20
30
30
0
11
-404.16666666666674
21
27
31
0
0
LINE
5
222
100
AcDbEntity
8
0
100
AcDbLine
10
-300
20
30
30
0
11
-300
21
27
31
0
0
LINE
5
223
100
AcDbEntity
8
0
100
AcDbLine
10
-304.16666666666663
20
30
30
0
11
-304.16666666666663
21
27
31
0
0
LINE
5
224
100
AcDbEntity
8
0
100
AcDbLine
10
-241.66666666666663
20
30
30
0
11
-241.66666666666663
21
27
31
0
0
LINE
5
225
100
AcDbEntity
8
0
100
AcDbLine
10
-408.33333333333326
20
30
30
0
11
-408.33333333333326
21
27
31
0
0
LINE
5
226
100
AcDbEntity
8
0
100
AcDbLine
10
-358.33333333333326
20
30
30
0
11
-358.33333333333326
21
27
31
0
0
LINE
5
227
100
AcDbEntity
8
0
100
AcDbLine
10
-395.83333333333326
20
30
30
0
11
-395.83333333333326
21
25
31
0
0
LINE
5
228
100
AcDbEntity
8
0
100
AcDbLine
10
-370.83333333333326
20
30
30
0
11
-370.83333333333326
21
27
31
0
0
LINE
5
229
100
AcDbEntity
8
0
100
AcDbLine
10
-350
20
30
30
0
11
-350
21
27
31
0
0
LINE
5
230
100
AcDbEntity
8
0
100
AcDbLine
10
-387.5
20
30
30
0
11
-387.5
21
27
31
0
0
LINE
5
231
100
AcDbEntity
8
0
100
AcDbLine
10
-379.16666666666674
20
30
30
0
11
-379.16666666666674
21
27
31
0
0
LINE
5
232
100
AcDbEntity
8
0
100
AcDbLine
10
-362.5
20
30
30
0
11
-362.5
21
27
31
0
0
LINE
5
233
100
AcDbEntity
8
0
100
AcDbLine
10
-320.83333333333326
20
30
30
0
11
-320.83333333333326
21
27
31
0
0
LINE
5
234
100
AcDbEntity
8
0
100
AcDbLine
10
-416.66666666666674
20
30
30
0
11
-416.66666666666674
21
23
31
0
0
LINE
5
235
100
AcDbEntity
8
0
100
AcDbLine
10
-400
20
30
30
0
11
-400
21
27
31
0
0
LINE
5
236
100
AcDbEntity
8
0
100
AcDbLine
10
-375
20
30
30
0
11
-375
21
23
31
0
0
LINE
5
237
100
AcDbEntity
8
0
100
AcDbLine
10
-337.5
20
30
30
0
11
-337.5
21
27
31
0
0
LINE
5
238
100
AcDbEntity
8
0
100
AcDbLine
10
-316.66666666666669
20
30
30
0
11
-316.66666666666669
21
27
31
0
0
LINE
5
239
100
AcDbEntity
8
0
100
AcDbLine
10
-391.66666666666674
20
30
30
0
11
-391.66666666666674
21
27
31
0
0
LINE
5
240
100
AcDbEntity
8
0
100
AcDbLine
10
-383.33333333333326
20
30
30
0
11
-383.33333333333326
21
27
31
0
0
LINE
5
241
100
AcDbEntity
8
0
100
AcDbLine
10
-366.66666666666674
20
30
30
0
11
-366.66666666666674
21
27
31
0
0
LINE
5
242
100
AcDbEntity
8
0
100
AcDbLine
10
-341.66666666666674
20
30
30
0
11
-341.66666666666674
21
27
31
0
0
LINE
5
243
100
AcDbEntity
8
0
100
AcDbLine
10
-333.33333333333326
20
30
30
0
11
-333.33333333333326
21
23
31
0
0
LINE
5
244
100
AcDbEntity
8
0
100
AcDbLine
10
-329.16666666666674
20
30
30
0
11
-329.16666666666674
21
27
31
0
0
LINE
5
245
100
AcDbEntity
8
0
100
AcDbLine
10
-325
20
30
30
0
11
-325
21
27
31
0
0
LINE
5
246
100
AcDbEntity
8
0
100
AcDbLine
10
-295.83333333333331
20
30
30
0
11
-295.83333333333331
21
27
31
0
0
LINE
5
247
100
AcDbEntity
8
0
100
AcDbLine
10
-220.83333333333331
20
30
30
0
11
-220.83333333333331
21
27
31
0
0
LINE
5
248
100
AcDbEntity
8
0
100
AcDbLine
10
-212.5
20
30
30
0
11
-212.5
21
27
31
0
0
LINE
5
249
100
AcDbEntity
8
0
100
AcDbLine
10
-283.33333333333331
20
30
30
0
11
-283.33333333333331
21
27
31
0
0
LINE
5
250
100
AcDbEntity
8
0
100
AcDbLine
10
-87.5
20
30
30
0
11
-87.5
21
27
31
0
0
LINE
5
251
100
AcDbEntity
8
0
100
AcDbLine
10
-75
20
30
30
0
11
-75
21
27
31
0
0
LINE
5
252
100
AcDbEntity
8
0
100
AcDbLine
10
-70.833333333333329
20
30
30
0
11
-70.833333333333329
21
27
31
0
0
LINE
5
253
100
AcDbEntity
8
0
100
AcDbLine
10
-45.833333333333329
20
30
30
0
11
-45.833333333333329
21
27
31
0
0
LINE
5
254
100
AcDbEntity
8
0
100
AcDbLine
10
-41.666666666666657
20
30
30
0
11
-41.666666666666657
21
23
31
0
0
LINE
5
255
100
AcDbEntity
8
0
100
AcDbLine
10
-20.833333333333329
20
30
30
0
11
-20.833333333333329
21
25
31
0
0
LINE
5
256
100
AcDbEntity
8
0
100
AcDbLine
10
-16.666666666666664
20
30
30
0
11
-16.666666666666664
21
27
31
0
0
LINE
5
257
100
AcDbEntity
8
0
100
AcDbLine
10
-95.833333333333314
20
30
30
0
11
-95.833333333333314
21
27
31
0
0
LINE
5
258
100
AcDbEntity
8
0
100
AcDbLine
10
-91.666666666666657
20
30
30
0
11
-91.666666666666657
21
27
31
0
0
LINE
5
259
100
AcDbEntity
8
0
100
AcDbLine
10
-83.333333333333314
20
30
30
0
11
-83.333333333333314
21
23
31
0
0
LINE
5
260
100
AcDbEntity
8
0
100
AcDbLine
10
-79.166666666666657
20
30
30
0
11
-79.166666666666657
21
27
31
0
0
LINE
5
261
100
AcDbEntity
8
0
100
AcDbLine
10
-66.666666666666657
20
30
30
0
11
-66.666666666666657
21
27
31
0
0
LINE
5
262
100
AcDbEntity
8
0
100
AcDbLine
10
-62.5
20
30
30
0
11
-62.5
21
25
31
0
0
LINE
5
263
100
AcDbEntity
8
0
100
AcDbLine
10
-54.166666666666657
20
30
30
0
11
-54.166666666666657
21
27
31
0
0
LINE
5
264
100
AcDbEntity
8
0
100
AcDbLine
10
-37.5
20
30
30
0
11
-37.5
21
27
31
0
0
LINE
5
265
100
AcDbEntity
8
0
100
AcDbLine
10
-29.166666666666664
20
30
30
0
11
-29.166666666666664
21
27
31
0
0
LINE
5
266
100
AcDbEntity
8
0
100
AcDbLine
10
-12.5
20
30
30
0
11
-12.5
21
27
31
0
0
LINE
5
267
100
AcDbEntity
8
0
100
AcDbLine
10
-100
20
30
30
0
11
-100
21
27
31
0
0
LINE
5
268
100
AcDbEntity
8
0
100
AcDbLine
10
-58.333333333333329
20
30
30
0
11
-58.333333333333329
21
27
31
0
0
LINE
5
269
100
AcDbEntity
8
0
100
AcDbLine
10
-50
20
30
30
0
11
-50
21
27
31
0
0
LINE
5
270
100
AcDbEntity
8
0
100
AcDbLine
10
-4.1666666666666652
20
30
30
0
11
-4.1666666666666652
21
27
31
0
0
LINE
5
271
100
AcDbEntity
8
0
100
AcDbLine
10
0
20
30
30
0
11
0
21
23
31
0
0
LINE
5
272
100
AcDbEntity
8
0
100
AcDbLine
10
-33.333333333333329
20
30
30
0
11
-33.333333333333329
21
27
31
0
0
LINE
5
273
100
AcDbEntity
8
0
100
AcDbLine
10
-25
20
30
30
0
11
-25
21
27
31
0
0
LINE
5
274
100
AcDbEntity
8
0
100
AcDbLine
10
-8.3333333333333321
20
30
30
0
11
-8.3333333333333321
21
27
31
0
0
LINE
5
275
100
AcDbEntity
8
0
100
AcDbLine
10
-179.16666666666663
20
30
30
0
11
-179.16666666666663
21
27
31
0
0
LINE
5
276
100
AcDbEntity
8
0
100
AcDbLine
10
-170.83333333333331
20
30
30
0
11
-170.83333333333331
21
27
31
0
0
LINE
5
277
100
AcDbEntity
8
0
100
AcDbLine
10
-162.5
20
30
30
0
11
-162.5
21
27
31
0
0
LINE
5
278
100
AcDbEntity
8
0
100
AcDbLine
10
-116.66666666666666
20
30
30
0
11
-116.66666666666666
21
27
31
0
0
LINE
5
279
100
AcDbEntity
8
0
100
AcDbLine
10
-108.33333333333331
20
30
30
0
11
-108.33333333333331
21
27
31
0
0
LINE
5
280
100
AcDbEntity
8
0
100
AcDbLine
10
-195.83333333333331
20
30
30
0
11
-195.83333333333331
21
27
31
0
0
LINE
5
281
100
AcDbEntity
8
0
100
AcDbLine
10
-183.33333333333331
20
30
30
0
11
-183.33333333333331
21
27
31
0
0
LINE
5
282
100
AcDbEntity
8
0
100
AcDbLine
10
-166.66666666666663
20
30
30
0
11
-166.66666666666663
21
23
31
0
0
LINE
5
283
100
AcDbEntity
8
0
100
AcDbLine
10
-158.33333333333331
20
30
30
0
11
-158.33333333333331
21
27
31
0
0
LINE
5
284
100
AcDbEntity
8
0
100
AcDbLine
10
-150
20
30
30
0
11
-150
21
27
31
0
0
LINE
5
285
100
AcDbEntity
8
0
100
AcDbLine
10
-145.83333333333331
20
30
30
0
11
-145.83333333333331
21
25
31
0
0
LINE
5
286
100
AcDbEntity
8
0
100
AcDbLine
10
-137.5
20
30
30
0
11
-137.5
21
27
31
0
0
LINE
5
287
100
AcDbEntity
8
0
100
AcDbLine
10
-129.16666666666666
20
30
30
0
11
-129.16666666666666
21
27
31
0
0
LINE
5
288
100
AcDbEntity
8
0
100
AcDbLine
10
-125
20
30
30
0
11
-125
21
23
31
0
0
LINE
5
289
100
AcDbEntity
8
0
100
AcDbLine
10
-204.16666666666663
20
30
30
0
11
-204.16666666666663
21
27
31
0
0
LINE
5
290
100
AcDbEntity
8
0
100
AcDbLine
10
-200
20
30
30
0
11
-200
21
27
31
0
0
LINE
5
291
100
AcDbEntity
8
0
100
AcDbLine
10
-191.66666666666663
20
30
30
0
11
-191.66666666666663
21
27
31
0
0
LINE
5
292
100
AcDbEntity
8
0
100
AcDbLine
10
-187.5
20
30
30
0
11
-187.5
21
25
31
0
0
LINE
5
293
100
AcDbEntity
8
0
100
AcDbLine
10
-175
20
30
30
0
11
-175
21
27
31
0
0
LINE
5
294
100
AcDbEntity
8
0
100
AcDbLine
10
-141.66666666666666
20
30
30
0
11
-141.66666666666666
21
27
31
0
0
LINE
5
295
100
AcDbEntity
8
0
100
AcDbLine
10
-120.83333333333331
20
30
30
0
11
-120.83333333333331
21
27
31
0
0
LINE
5
296
100
AcDbEntity
8
0
100
AcDbLine
10
-104.16666666666666
20
30
30
0
11
-104.16666666666666
21
25
31
0
0
LINE
5
297
100
AcDbEntity
8
0
100
AcDbLine
10
-208.33333333333331
20
30
30
0
11
-208.33333333333331
21
23
31
0
0
LINE
5
298
100
AcDbEntity
8
0
100
AcDbLine
10
-154.16666666666669
20
30
30
0
11
-154.16666666666669
21
27
31
0
0
LINE
5
299
100
AcDbEntity
8
0
100
AcDbLine
10
-133.33333333333331
20
30
30
0
11
-133.33333333333331
21
27
31
0
0
LINE
5
300
100
AcDbEntity
8
0
100
AcDbLine
10
-112.5
20
30
30
0
11
-112.5
21
27
31
0
0
LINE
5
301
100
AcDbEntity
8
0
100
AcDbLine
10
-308.33333333333331
20
30
30
0
11
-308.33333333333331
21
27
31
0
0
LINE
5
302
100
AcDbEntity
8
0
100
AcDbLine
10
-270.83333333333331
20
30
30
0
11
-270.83333333333331
21
25
31
0
0
LINE
5
303
100
AcDbEntity
8
0
100
AcDbLine
10
-245.83333333333331
20
30
30
0
11
-245.83333333333331
21
27
31
0
0
LWPOLYLINE
5
304
100
AcDbEntity
8
0
100
AcDbPolyline
90
6
70
1
43
0.0
10
-433.24711084659896
20
0
10
0
20
0
10
0
20
30
10
-433.24711084659896
20
29.999999999999979
42
0.41421356237309437
10
-443.24711084659896
20
20
10
-443.24711084659896
20
9.9999999999999964
42
0.41421356237309426
0
CIRCLE
5
305
100
AcDbEntity
8
0
100
AcDbCircle
10
-430.17799175608536
20
15
30
0
40
5.0000000000000009
210
0
220
0
230
1
0
LWPOLYLINE
5
306
100
AcDbEntity
8
0
100
AcDbPolyline
90
7
70
1
43
0.0
10
-419.45372448854403
20
10.322443270265707
10
-412.66720913945528
20
10.317038985106899
10
-412.66629649515016
20
11.463106300653696
10
-420.66629467386042
20
11.469476914909142
10
-420.66720731816542
20
10.323409599362343
10
-419.82542380124505
20
9.1766713711522137
10
-418.6119409716236
20
9.1757050420555792
0
SPLINE
5
307
100
AcDbEntity
8
0
100
AcDbSpline
70
0
71
2
72
6
73
3
74
0
42
0.000000001
43
0.0000000001
44
0.0000000001
40
0
40
0
40
0
40
1
40
1
40
1
10
-419.01327678343216
20
13.14231848407222
30
0
10
-419.41777105997267
20
13.142640593771098
30
0
10
-419.73227061459306
20
13.277722449920299
30
0
0
SPLINE
5
308
100
AcDbEntity
8
0
100
AcDbSpline
70
0
71
2
72
6
73
3
74
0
42
0.000000001
43
0.0000000001
44
0.0000000001
40
0
40
0
40
0
40
1
40
1
40
1
10
-419.73227061459306
20
13.277722449920299
30
0
10
-420.04676062558332
20
13.424040373618862
30
0
10
-420.27129170475183
20
13.660174069694843
30
0
0
SPLINE
5
309
100
AcDbEntity
8
0
100
AcDbSpline
70
0
71
2
72
6
73
3
74
0
42
0.000000001
43
0.0000000001
44
0.0000000001
40
0
40
0
40
0
40
1
40
1
40
1
10
-420.27129170475183
20
13.660174069694843
30
0
10
-420.49582278320838
20
13.896308659840212
30
0
10
-420.60794128548412
20
14.199768395575516
30
0
0
SPLINE
5
310
100
AcDbEntity
8
0
100
AcDbSpline
70
0
71
2
72
6
73
3
74
0
42
0.000000001
43
0.0000000001
44
0.0000000001
40
0
40
0
40
0
40
1
40
1
40
1
10
-420.60794128548412
20
14.199768395575516
30
0
10
-420.73128571563268
20
14.514473742015724
30
0
10
-420.73101729096271
20
14.851552206458418
30
0
0
SPLINE
5
311
100
AcDbEntity
8
0
100
AcDbSpline
70
0
71
2
72
6
73
3
74
0
42
0.000000001
43
0.0000000001
44
0.0000000001
40
0
40
0
40
0
40
1
40
1
40
1
10
-420.73101729096271
20
14.851552206458418
30
0
10
-420.73074886629274
20
15.188630670901112
30
0
10
-420.60691232377457
20
15.491903105318778
30
0
0
SPLINE
5
312
100
AcDbEntity
8
0
100
AcDbSpline
70
0
71
2
72
6
73
3
74
0
42
0.000000001
43
0.0000000001
44
0.0000000001
40
0
40
0
40
0
40
1
40
1
40
1
10
-420.60691232377457
20
15.491903105318778
30
0
10
-420.49430171007873
20
15.806419958348823
30
0
10
-420.26939483594504
20
16.042196648934247
30
0
0
SPLINE
5
313
100
AcDbEntity
8
0
100
AcDbSpline
70
0
71
2
72
6
73
3
74
0
42
0.000000001
43
0.0000000001
44
0.0000000001
40
0
40
0
40
0
40
1
40
1
40
1
10
-420.26939483594504
20
16.042196648934247
30
0
10
-420.04448796276063
20
16.277972147427157
30
0
10
-419.72977426430811
20
16.412553242120637
30
0
0
SPLINE
5
314
100
AcDbEntity
8
0
100
AcDbSpline
70
0
71
2
72
6
73
3
74
0
42
0.000000001
43
0.0000000001
44
0.0000000001
40
0
40
0
40
0
40
1
40
1
40
1
10
-419.72977426430811
20
16.412553242120637
30
0
10
-419.41505102270008
20
16.55836980831722
30
0
10
-419.01055674615952
20
16.558047698618342
30
0
0
LINE
5
315
100
AcDbEntity
8
0
100
AcDbLine
10
-419.01055674615952
20
16.558047698618342
30
0
11
-414.31392799582477
21
16.5543076465082
31
0
0
SPLINE
5
316
100
AcDbEntity
8
0
100
AcDbSpline
70
0
71
2
72
6
73
3
74
0
42
0.000000001
43
0.0000000001
44
0.0000000001
40
0
40
0
40
0
40
1
40
1
40
1
10
-414.31392799582483
20
16.5543076465082
30
0
10
-413.9094343153306
20
16.553985537283967
30
0
10
-413.5949437080568
20
16.407667911133888
30
0
0
SPLINE
5
317
100
AcDbEntity
8
0
100
AcDbSpline
70
0
71
2
72
6
73
3
74
0
42
0.000000001
43
0.0000000001
44
0.0000000001
40
0
40
0
40
0
40
1
40
1
40
1
10
-413.5949437080568
20
16.407667911133888
30
0
10
-413.28044415367367
20
16.272585756961561
30
0
10
-413.05591307426778
20
16.036452358908704
30
0
0
SPLINE
5
318
100
AcDbEntity
8
0
100
AcDbSpline
70
0
71
2
72
6
73
3
74
0
42
0.000000001
43
0.0000000001
44
0.0000000001
40
0
40
0
40
0
40
1
40
1
40
1
10
-413.05591307426778
20
16.036452358908704
30
0
10
-412.83138199581117
20
15.800317768763339
30
0
10
-412.70803696914174
20
15.485613017894744
30
0
0
SPLINE
5
319
100
AcDbEntity
8
0
100
AcDbSpline
70
0
71
2
72
6
73
3
74
0
42
0.000000001
43
0.0000000001
44
0.0000000001
40
0
40
0
40
0
40
1
40
1
40
1
10
-412.70803696914174
20
15.485613017894744
30
0
10
-412.59591906338699
20
15.182152686587829
30
0
10
-412.5961874880569
20
14.845074222145131
30
0
0
SPLINE
5
320
100
AcDbEntity
8
0
100
AcDbSpline
70
0
71
2
72
6
73
3
74
0
42
0.000000001
43
0.0000000001
44
0.0000000001
40
0
40
0
40
0
40
1
40
1
40
1
10
-412.5961874880569
20
14.845074222145131
30
0
10
-412.59645591272687
20
14.507995757702437
30
0
10
-412.70906593085124
20
14.193478308151484
30
0
0
SPLINE
5
321
100
AcDbEntity
8
0
100
AcDbSpline
70
0
71
2
72
6
73
3
74
0
42
0.000000001
43
0.0000000001
44
0.0000000001
40
0
40
0
40
0
40
1
40
1
40
1
10
-412.70906593085124
20
14.193478308151484
30
0
10
-412.83290306894094
20
13.890206470254727
30
0
10
-413.05780994307463
20
13.654429779669302
30
0
0
SPLINE
5
322
100
AcDbEntity
8
0
100
AcDbSpline
70
0
71
2
72
6
73
3
74
0
42
0.000000001
43
0.0000000001
44
0.0000000001
40
0
40
0
40
0
40
1
40
1
40
1
10
-413.05780994307463
20
13.654429779669302
30
0
10
-413.2827168164963
20
13.418653983153263
30
0
10
-413.5974400583417
20
13.272837118933552
30
0
0
SPLINE
5
323
100
AcDbEntity
8
0
100
AcDbSpline
70
0
71
2
72
6
73
3
74
0
42
0.000000001
43
0.0000000001
44
0.0000000001
40
0
40
0
40
0
40
1
40
1
40
1
10
-413.5974400583417
20
13.272837118933552
30
0
10
-413.91215435260324
20
13.138256322737849
30
0
10
-414.31664803309741
20
13.138578431962081
30
0
0
LINE
5
324
100
AcDbEntity
8
0
100
AcDbLine
10
-414.31664803309741
20
13.138578431962081
30
0
11
-419.01327678343216
21
13.14231848407222
31
0
0
SPLINE
5
325
100
AcDbEntity
8
0
100
AcDbSpline
70
0
71
2
72
6
73
3
74
0
42
0.000000001
43
0.0000000001
44
0.0000000001
40
0
40
0
40
0
40
1
40
1
40
1
10
-414.31573538879235
20
14.284645747508877
30
0
10
-414.06854487249547
20
14.284448903035699
30
0
10
-413.89988037552308
20
14.441617854898059
30
0
0
SPLINE
5
326
100
AcDbEntity
8
0
100
AcDbSpline
70
0
71
2
72
6
73
3
74
0
42
0.000000001
43
0.0000000001
44
0.0000000001
40
0
40
0
40
0
40
1
40
1
40
1
10
-413.89988037552308
20
14.441617854898059
30
0
10
-413.7424519465747
20
14.598795754344348
30
0
10
-413.74225510162688
20
14.845986866687495
30
0
0
SPLINE
5
327
100
AcDbEntity
8
0
100
AcDbSpline
70
0
71
2
72
6
73
3
74
0
42
0.000000001
43
0.0000000001
44
0.0000000001
40
0
40
0
40
0
40
1
40
1
40
1
10
-413.74225510162688
20
14.845986866687495
30
0
10
-413.742058256679
20
15.093177979030642
30
0
10
-413.89923615612531
20
15.250606407979033
30
0
0
SPLINE
5
328
100
AcDbEntity
8
0
100
AcDbSpline
70
0
71
2
72
6
73
3
74
0
42
0.000000001
43
0.0000000001
44
0.0000000001
40
0
40
0
40
0
40
1
40
1
40
1
10
-413.89923615612531
20
15.250606407979033
30
0
10
-414.06765012359563
20
15.408043784511349
30
0
10
-414.31484063989251
20
15.408240628984531
30
0
0
LINE
5
329
100
AcDbEntity
8
0
100
AcDbLine
10
-414.31484063989251
20
15.408240628984531
30
0
11
-419.01146939022732
21
15.411980681094672
31
0
0
SPLINE
5
330
100
AcDbEntity
8
0
100
AcDbSpline
70
0
71
2
72
6
73
3
74
0
42
0.000000001
43
0.0000000001
44
0.0000000001
40
0
40
0
40
0
40
1
40
1
40
1
10
-419.01146939022726
20
15.41198068109467
30
0
10
-419.25866050257042
20
15.412177526042502
30
0
10
-419.4160889315188
20
15.254999626596211
30
0
0
SPLINE
5
331
100
AcDbEntity
8
0
100
AcDbSpline
70
0
71
2
72
6
73
3
74
0
42
0.000000001
43
0.0000000001
44
0.0000000001
40
0
40
0
40
0
40
1
40
1
40
1
10
-419.4160889315188
20
15.254999626596211
30
0
10
-419.58475342849118
20
15.097830674733849
30
0
10
-419.58495027343901
20
14.850639562390704
30
0
0
SPLINE
5
332
100
AcDbEntity
8
0
100
AcDbSpline
70
0
71
2
72
6
73
3
74
0
42
0.000000001
43
0.0000000001
44
0.0000000001
40
0
40
0
40
0
40
1
40
1
40
1
10
-419.58495027343901
20
14.850639562390704
30
0
10
-419.58514711838689
20
14.603448450047555
30
0
10
-419.41673315091657
20
14.446011073515237
30
0
0
SPLINE
5
333
100
AcDbEntity
8
0
100
AcDbSpline
70
0
71
2
72
6
73
3
74
0
42
0.000000001
43
0.0000000001
44
0.0000000001
40
0
40
0
40
0
40
1
40
1
40
1
10
-419.41673315091657
20
14.446011073515237
30
0
10
-419.25955525147026
20
14.288582644566848
30
0
10
-419.01236413912716
20
14.288385799619018
30
0
0
LINE
5
334
100
AcDbEntity
8
0
100
AcDbLine
10
-419.01236413912716
20
14.288385799619018
30
0
11
-414.31573538879235
21
14.284645747508877
31
0
0
LWPOLYLINE
5
335
100
AcDbEntity
8
0
100
AcDbPolyline
90
4
70
1
43
0.0
10
-413.80763028942727
20
17.407837834680272
10
-412.66156327190356
20
17.406925190612558
10
-412.66065062783588
20
18.552992208136224
10
-413.80671764535964
20
18.553904852203939
0
SPLINE
5
336
100
AcDbEntity
8
0
100
AcDbSpline
70
0
71
2
72
6
73
3
74
0
42
0.000000001
43
0.0000000001
44
0.0000000001
40
0
40
0
40
0
40
1
40
1
40
1
10
-419.00828408357421
20
19.411979174403506
30
0
10
-419.41277836011466
20
19.412301284102387
30
0
10
-419.72727791449779
20
19.547383438274718
30
0
0
SPLINE
5
337
100
AcDbEntity
8
0
100
AcDbSpline
70
0
71
2
72
6
73
3
74
0
42
0.000000001
43
0.0000000001
44
0.0000000001
40
0
40
0
40
0
40
1
40
1
40
1
10
-419.72727791449779
20
19.547383438274718
30
0
10
-420.04176792477602
20
19.69370225604267
30
0
10
-420.26629900418192
20
19.92983565409552
30
0
0
SPLINE
5
338
100
AcDbEntity
8
0
100
AcDbSpline
70
0
71
2
72
6
73
3
74
0
42
0.000000001
43
0.0000000001
44
0.0000000001
40
0
40
0
40
0
40
1
40
1
40
1
10
-420.26629900418192
20
19.92983565409552
30
0
10
-420.49083008358775
20
20.16596905214837
30
0
10
-420.6029485849142
20
20.469429979976191
30
0
0
SPLINE
5
339
100
AcDbEntity
8
0
100
AcDbSpline
70
0
71
2
72
6
73
3
74
0
42
0.000000001
43
0.0000000001
44
0.0000000001
40
0
40
0
40
0
40
1
40
1
40
1
10
-420.6029485849142
20
20.469429979976191
30
0
10
-420.72629301458801
20
20.784135922462657
30
0
10
-420.7260245899181
20
21.121214386905351
30
0
0
SPLINE
5
340
100
AcDbEntity
8
0
100
AcDbSpline
70
0
71
2
72
6
73
3
74
0
42
0.000000001
43
0.0000000001
44
0.0000000001
40
0
40
0
40
0
40
1
40
1
40
1
10
-420.7260245899181
20
21.121214386905351
30
0
10
-420.72575616524819
20
21.458292851348048
30
0
10
-420.60191962273001
20
21.761565285765712
30
0
0
SPLINE
5
341
100
AcDbEntity
8
0
100
AcDbSpline
70
0
71
2
72
6
73
3
74
0
42
0.000000001
43
0.0000000001
44
0.0000000001
40
0
40
0
40
0
40
1
40
1
40
1
10
-420.60191962273001
20
21.761565285765712
30
0
10
-420.48930900998334
20
22.07608094670324
30
0
10
-420.26440213584971
20
22.311857637288668
30
0
0
SPLINE
5
342
100
AcDbEntity
8
0
100
AcDbSpline
70
0
71
2
72
6
73
3
74
0
42
0.000000001
43
0.0000000001
44
0.0000000001
40
0
40
0
40
0
40
1
40
1
40
1
10
-420.26440213584971
20
22.311857637288668
30
0
10
-420.03949526171601
20
22.547634327874093
30
0
10
-419.72478156421283
20
22.682214230475051
30
0
0
SPLINE
5
343
100
AcDbEntity
8
0
100
AcDbSpline
70
0
71
2
72
6
73
3
74
0
42
0.000000001
43
0.0000000001
44
0.0000000001
40
0
40
0
40
0
40
1
40
1
40
1
10
-419.72478156421283
20
22.682214230475051
30
0
10
-419.41005832260475
20
22.828030796671641
30
0
10
-419.00556404606425
20
22.827708686972763
30
0
0
LINE
5
344
100
AcDbEntity
8
0
100
AcDbLine
10
-419.00556404606425
20
22.827708686972755
30
0
11
-414.3089352957295
21
22.82396863486262
31
0
0
SPLINE
5
345
100
AcDbEntity
8
0
100
AcDbSpline
70
0
71
2
72
6
73
3
74
0
42
0.000000001
43
0.0000000001
44
0.0000000001
40
0
40
0
40
0
40
1
40
1
40
1
10
-414.3089352957295
20
22.823968634862617
30
0
10
-413.90444161523527
20
22.823646525638388
30
0
10
-413.58995100796142
20
22.677328899488309
30
0
0
SPLINE
5
346
100
AcDbEntity
8
0
100
AcDbSpline
70
0
71
2
72
6
73
3
74
0
42
0.000000001
43
0.0000000001
44
0.0000000001
40
0
40
0
40
0
40
1
40
1
40
1
10
-413.58995100796142
20
22.677328899488309
30
0
10
-413.275451452629
20
22.542247937408494
30
0
10
-413.05092037417245
20
22.306113347263121
30
0
0
SPLINE
5
347
100
AcDbEntity
8
0
100
AcDbSpline
70
0
71
2
72
6
73
3
74
0
42
0.000000001
43
0.0000000001
44
0.0000000001
40
0
40
0
40
0
40
1
40
1
40
1
10
-413.05092037417245
20
22.306113347263121
30
0
10
-412.8263892957159
20
22.069978757117752
30
0
10
-412.70304426809719
20
21.755275198341678
30
0
0
SPLINE
5
348
100
AcDbEntity
8
0
100
AcDbSpline
70
0
71
2
72
6
73
3
74
0
42
0.000000001
43
0.0000000001
44
0.0000000001
40
0
40
0
40
0
40
1
40
1
40
1
10
-412.70304426809719
20
21.755275198341678
30
0
10
-412.59092636234237
20
21.451814867034763
30
0
10
-412.59119478701234
20
21.114736402592065
30
0
0
SPLINE
5
349
100
AcDbEntity
8
0
100
AcDbSpline
70
0
71
2
72
6
73
3
74
0
42
0.000000001
43
0.0000000001
44
0.0000000001
40
0
40
0
40
0
40
1
40
1
40
1
10
-412.59119478701234
20
21.114736402592065
30
0
10
-412.59146321168231
20
20.777657938149368
30
0
10
-412.70407323028121
20
20.46313989255216
30
0
0
SPLINE
5
350
100
AcDbEntity
8
0
100
AcDbSpline
70
0
71
2
72
6
73
3
74
0
42
0.000000001
43
0.0000000001
44
0.0000000001
40
0
40
0
40
0
40
1
40
1
40
1
10
-412.70407323028121
20
20.46313989255216
30
0
10
-412.82791036932031
20
20.159866862562886
30
0
10
-413.05281724250472
20
19.924091364069977
30
0
0
SPLINE
5
351
100
AcDbEntity
8
0
100
AcDbSpline
70
0
71
2
72
6
73
3
74
0
42
0.000000001
43
0.0000000001
44
0.0000000001
40
0
40
0
40
0
40
1
40
1
40
1
10
-413.05281724250472
20
19.924091364069977
30
0
10
-413.27772411568907
20
19.688315865577067
30
0
10
-413.59244735824643
20
19.542498107287969
30
0
0
SPLINE
5
352
100
AcDbEntity
8
0
100
AcDbSpline
70
0
71
2
72
6
73
3
74
0
42
0.000000001
43
0.0000000001
44
0.0000000001
40
0
40
0
40
0
40
1
40
1
40
1
10
-413.59244735824643
20
19.542498107287969
30
0
10
-413.90716165274517
20
19.407917013069135
30
0
10
-414.3116553332394
20
19.408239122293367
30
0
0
LINE
5
353
100
AcDbEntity
8
0
100
AcDbLine
10
-414.3116553332394
20
19.408239122293367
30
0
11
-419.00828408357421
21
19.411979174403506
31
0
0
SPLINE
5
354
100
AcDbEntity
8
0
100
AcDbSpline
70
0
71
2
72
6
73
3
74
0
42
0.000000001
43
0.0000000001
44
0.0000000001
40
0
40
0
40
0
40
1
40
1
40
1
10
-414.31074268774779
20
20.554307927955811
30
0
10
-414.06355217145091
20
20.554111083482631
30
0
10
-413.89488767590245
20
20.711278247206216
30
0
0
SPLINE
5
355
100
AcDbEntity
8
0
100
AcDbSpline
70
0
71
2
72
6
73
3
74
0
42
0.000000001
43
0.0000000001
44
0.0000000001
40
0
40
0
40
0
40
1
40
1
40
1
10
-413.89488767590245
20
20.711278247206216
30
0
10
-413.73745924647943
20
20.868456742698768
30
0
10
-413.73726240058227
20
21.115649047134433
30
0
0
SPLINE
5
356
100
AcDbEntity
8
0
100
AcDbSpline
70
0
71
2
72
6
73
3
74
0
42
0.000000001
43
0.0000000001
44
0.0000000001
40
0
40
0
40
0
40
1
40
1
40
1
10
-413.73726240058227
20
21.115649047134433
30
0
10
-413.73706555658373
20
21.362838967385063
30
0
10
-413.8942434555554
20
21.520267992379708
30
0
0
SPLINE
5
357
100
AcDbEntity
8
0
100
AcDbSpline
70
0
71
2
72
6
73
3
74
0
42
0.000000001
43
0.0000000001
44
0.0000000001
40
0
40
0
40
0
40
1
40
1
40
1
10
-413.8942434555554
20
21.520267992379708
30
0
10
-414.06265742255101
20
21.677705964958285
30
0
10
-414.30984793884789
20
21.677902809431462
30
0
0
LINE
5
358
100
AcDbEntity
8
0
100
AcDbLine
10
-414.30984793884789
20
21.677902809431462
30
0
11
-419.0064766891827
21
21.681642861541604
31
0
0
SPLINE
5
359
100
AcDbEntity
8
0
100
AcDbSpline
70
0
71
2
72
6
73
3
74
0
42
0.000000001
43
0.0000000001
44
0.0000000001
40
0
40
0
40
0
40
1
40
1
40
1
10
-419.0064766891827
20
21.681642861541608
30
0
10
-419.25366780152581
20
21.681839706489434
30
0
10
-419.41109623094889
20
21.524661210996886
30
0
0
SPLINE
5
360
100
AcDbEntity
8
0
100
AcDbSpline
70
0
71
2
72
6
73
3
74
0
42
0.000000001
43
0.0000000001
44
0.0000000001
40
0
40
0
40
0
40
1
40
1
40
1
10
-419.41109623094889
20
21.524661210996886
30
0
10
-419.57976072839591
20
21.367491663088266
30
0
10
-419.57995757239445
20
21.120301742837636
30
0
0
SPLINE
5
361
100
AcDbEntity
8
0
100
AcDbSpline
70
0
71
2
72
6
73
3
74
0
42
0.000000001
43
0.0000000001
44
0.0000000001
40
0
40
0
40
0
40
1
40
1
40
1
10
-419.57995757239445
20
21.120301742837636
30
0
10
-419.58015441829156
20
20.873109438401972
30
0
10
-419.41174045129594
20
20.715671465823394
30
0
0
SPLINE
5
362
100
AcDbEntity
8
0
100
AcDbSpline
70
0
71
2
72
6
73
3
74
0
42
0.000000001
43
0.0000000001
44
0.0000000001
40
0
40
0
40
0
40
1
40
1
40
1
10
-419.41174045129594
20
20.715671465823394
30
0
10
-419.2545625504257
20
20.55824482501378
30
0
10
-419.0073714380826
20
20.55804798006595
30
0
0
LINE
5
363
100
AcDbEntity
8
0
100
AcDbLine
10
-419.0073714380826
20
20.558047980065947
30
0
11
-414.31074268774779
21
20.554307927955811
31
0
0
LWPOLYLINE
5
364
100
AcDbEntity
8
0
100
AcDbPolyline
90
7
70
1
43
0.0
10
-403.39592971056271
20
20.98401355588458
10
-403.39592971056271
20
12.500867126822692
10
-401.96334548443127
20
12.500867126822692
10
-401.96334548443127
20
22.500867126822691
10
-403.39592971056271
20
22.500867126822691
10
-404.82851408570576
20
21.447496293425779
10
-404.82851408570576
20
19.930642722487669
0
LWPOLYLINE
5
365
100
AcDbEntity
8
0
100
AcDbPolyline
90
4
70
1
43
0.0
10
-399.75828893631268
20
13.933451650977355
10
-399.75828893631268
20
12.500867126822692
10
-398.32570500820447
20
12.500867126822692
10
-398.32570500820447
20
13.933451650977355
0
LWPOLYLINE
5
366
100
AcDbEntity
8
0
100
AcDbPolyline
90
4
70
1
43
0.0
10
-399.75828893631268
20
17.121654032111387
10
-399.75828893631268
20
15.689069507956726
10
-398.32570500820447
20
15.689069507956726
10
-398.32570500820447
20
17.121654032111387
0
LINE
5
367
100
AcDbEntity
8
0
100
AcDbLine
10
-397.25828953235913
20
12.500867126822692
30
0
11
-397.25828953235913
21
13.84918200814746
31
0
0
LINE
5
368
100
AcDbEntity
8
0
100
AcDbLine
10
-397.25828953235913
20
13.84918200814746
30
0
11
-394.67401988952923
21
18.72277784192584
31
0
0
SPLINE
5
369
100
AcDbEntity
8
0
100
AcDbSpline
70
0
71
2
72
6
73
3
74
0
42
0.000000001
43
0.0000000001
44
0.0000000001
40
0
40
0
40
0
40
1
40
1
40
1
10
-394.67401988952923
20
18.72277784192584
30
0
10
-394.47739131897259
20
19.087946294188718
30
0
10
-394.44930084198285
20
19.354800461173276
30
0
0
SPLINE
5
370
100
AcDbEntity
8
0
100
AcDbSpline
70
0
71
2
72
6
73
3
74
0
42
0.000000001
43
0.0000000001
44
0.0000000001
40
0
40
0
40
0
40
1
40
1
40
1
10
-394.44930084198285
20
19.354800461173276
30
0
10
-394.4212103649931
20
19.63569927060626
30
0
10
-394.4212103649931
20
20.04300284230731
30
0
0
SPLINE
5
371
100
AcDbEntity
8
0
100
AcDbSpline
70
0
71
2
72
6
73
3
74
0
42
0.000000001
43
0.0000000001
44
0.0000000001
40
0
40
0
40
0
40
1
40
1
40
1
10
-394.4212103649931
20
20.04300284230731
30
0
10
-394.4212103649931
20
20.225586770415525
30
0
10
-394.43525560348797
20
20.422215937018613
30
0
0
SPLINE
5
372
100
AcDbEntity
8
0
100
AcDbSpline
70
0
71
2
72
6
73
3
74
0
42
0.000000001
43
0.0000000001
44
0.0000000001
40
0
40
0
40
0
40
1
40
1
40
1
10
-394.43525560348797
20
20.422215937018613
30
0
10
-394.43525560348797
20
20.632890342116575
30
0
10
-394.50548060386944
20
20.78738498532794
30
0
0
SPLINE
5
373
100
AcDbEntity
8
0
100
AcDbSpline
70
0
71
2
72
6
73
3
74
0
42
0.000000001
43
0.0000000001
44
0.0000000001
40
0
40
0
40
0
40
1
40
1
40
1
10
-394.50548060386944
20
20.78738498532794
30
0
10
-394.57570560425091
20
20.941879032492857
30
0
10
-394.71615441292096
20
21.040193913817625
30
0
0
SPLINE
5
374
100
AcDbEntity
8
0
100
AcDbSpline
70
0
71
2
72
6
73
3
74
0
42
0.000000001
43
0.0000000001
44
0.0000000001
40
0
40
0
40
0
40
1
40
1
40
1
10
-394.71615441292096
20
21.040193913817625
30
0
10
-394.8566044136839
20
21.152553437590818
30
0
10
-395.12345798462201
20
21.152553437590818
30
0
0
SPLINE
5
375
100
AcDbEntity
8
0
100
AcDbSpline
70
0
71
2
72
6
73
3
74
0
42
0.000000001
43
0.0000000001
44
0.0000000001
40
0
40
0
40
0
40
1
40
1
40
1
10
-395.12345798462201
20
21.152553437590818
30
0
10
-395.44649131744671
20
21.152553437590818
30
0
10
-395.64312108009625
20
20.969968913436155
30
0
0
SPLINE
5
376
100
AcDbEntity
8
0
100
AcDbSpline
70
0
71
2
72
6
73
3
74
0
42
0.000000001
43
0.0000000001
44
0.0000000001
40
0
40
0
40
0
40
1
40
1
40
1
10
-395.64312108009625
20
20.969968913436155
30
0
10
-395.82570500820447
20
20.78738498532794
30
0
10
-395.82570500820447
20
20.436261175513486
30
0
0
LINE
5
377
100
AcDbEntity
8
0
100
AcDbLine
10
-395.82570500820447
20
20.436261175513486
30
0
11
-395.82570500820447
21
19.621654032111387
31
0
0
LINE
5
378
100
AcDbEntity
8
0
100
AcDbLine
10
-395.82570500820447
20
19.621654032111387
30
0
11
-397.25828953235913
21
19.621654032111387
31
0
0
LINE
5
379
100
AcDbEntity
8
0
100
AcDbLine
10
-397.25828953235913
20
19.621654032111387
30
0
11
-397.25828953235913
21
20.408171294570188
31
0
0
SPLINE
5
380
100
AcDbEntity
8
0
100
AcDbSpline
70
0
71
2
72
6
73
3
74
0
42
0.000000001
43
0.0000000001
44
0.0000000001
40
0
40
0
40
0
40
1
40
1
40
1
10
-397.25828953235913
20
20.408171294570188
30
0
10
-397.25828953235913
20
20.857609389662962
30
0
10
-397.08975024669934
20
21.250867722869138
30
0
0
SPLINE
5
381
100
AcDbEntity
8
0
100
AcDbSpline
70
0
71
2
72
6
73
3
74
0
42
0.000000001
43
0.0000000001
44
0.0000000001
40
0
40
0
40
0
40
1
40
1
40
1
10
-397.08975024669934
20
21.250867722869138
30
0
10
-396.92121096103955
20
21.644126652121763
30
0
10
-396.62626691311169
20
21.939070104003171
30
0
0
SPLINE
5
382
100
AcDbEntity
8
0
100
AcDbSpline
70
0
71
2
72
6
73
3
74
0
42
0.000000001
43
0.0000000001
44
0.0000000001
40
0
40
0
40
0
40
1
40
1
40
1
10
-396.62626691311169
20
21.939070104003171
30
0
10
-396.34536810367871
20
22.234014151931028
30
0
10
-395.95210977047253
20
22.402553437590818
30
0
0
SPLINE
5
383
100
AcDbEntity
8
0
100
AcDbSpline
70
0
71
2
72
6
73
3
74
0
42
0.000000001
43
0.0000000001
44
0.0000000001
40
0
40
0
40
0
40
1
40
1
40
1
10
-395.95210977047253
20
22.402553437590818
30
0
10
-395.55885084121991
20
22.585137365699033
30
0
10
-395.10941274612713
20
22.585137365699033
30
0
0
SPLINE
5
384
100
AcDbEntity
8
0
100
AcDbSpline
70
0
71
2
72
6
73
3
74
0
42
0.000000001
43
0.0000000001
44
0.0000000001
40
0
40
0
40
0
40
1
40
1
40
1
10
-395.10941274612713
20
22.585137365699033
30
0
10
-394.54761512726117
20
22.585137365699033
30
0
10
-394.15435679405499
20
22.37446355664752
30
0
0
SPLINE
5
385
100
AcDbEntity
8
0
100
AcDbSpline
70
0
71
2
72
6
73
3
74
0
42
0.000000001
43
0.0000000001
44
0.0000000001
40
0
40
0
40
0
40
1
40
1
40
1
10
-394.15435679405499
20
22.37446355664752
30
0
10
-393.74705322235394
20
22.177834390044431
30
0
10
-393.48019965141583
20
21.826710580229978
30
0
0
SPLINE
5
386
100
AcDbEntity
8
0
100
AcDbSpline
70
0
71
2
72
6
73
3
74
0
42
0.000000001
43
0.0000000001
44
0.0000000001
40
0
40
0
40
0
40
1
40
1
40
1
10
-393.48019965141583
20
21.826710580229978
30
0
10
-393.2273901268797
20
21.475586770415525
30
0
10
-393.1150306031065
20
21.026148675322752
30
0
0
SPLINE
5
387
100
AcDbEntity
8
0
100
AcDbSpline
70
0
71
2
72
6
73
3
74
0
42
0.000000001
43
0.0000000001
44
0.0000000001
40
0
40
0
40
0
40
1
40
1
40
1
10
-393.1150306031065
20
21.026148675322752
30
0
10
-392.98862703293133
20
20.576710580229978
30
0
10
-392.98862703293133
20
20.071092723250608
30
0
0
SPLINE
5
388
100
AcDbEntity
8
0
100
AcDbSpline
70
0
71
2
72
6
73
3
74
0
42
0.000000001
43
0.0000000001
44
0.0000000001
40
0
40
0
40
0
40
1
40
1
40
1
10
-392.98862703293133
20
20.071092723250608
30
0
10
-392.98862703293133
20
19.70592427098773
30
0
10
-393.00267107933331
20
19.453114746451597
30
0
0
SPLINE
5
389
100
AcDbEntity
8
0
100
AcDbSpline
70
0
71
2
72
6
73
3
74
0
42
0.000000001
43
0.0000000001
44
0.0000000001
40
0
40
0
40
0
40
1
40
1
40
1
10
-393.00267107933331
20
19.453114746451597
30
0
10
-393.01671631782818
20
19.214351056456785
30
0
10
-393.05885084121991
20
18.989632008910398
30
0
0
SPLINE
5
390
100
AcDbEntity
8
0
100
AcDbSpline
70
0
71
2
72
6
73
3
74
0
42
0.000000001
43
0.0000000001
44
0.0000000001
40
0
40
0
40
0
40
1
40
1
40
1
10
-393.05885084121991
20
18.989632008910398
30
0
10
-393.10098655670453
20
18.764912365317564
30
0
10
-393.19930084198285
20
18.540193317771177
30
0
0
SPLINE
5
391
100
AcDbEntity
8
0
100
AcDbSpline
70
0
71
2
72
6
73
3
74
0
42
0.000000001
43
0.0000000001
44
0.0000000001
40
0
40
0
40
0
40
1
40
1
40
1
10
-393.19930084198285
20
18.540193317771177
30
0
10
-393.29761512726117
20
18.31547427022479
30
0
10
-393.46615441292096
20
17.992440937400083
30
0
0
LINE
5
392
100
AcDbEntity
8
0
100
AcDbLine
10
-393.46615441292096
20
17.992440937400083
30
0
11
-395.57289607971478
21
13.933451650977355
31
0
0
LINE
5
393
100
AcDbEntity
8
0
100
AcDbLine
10
-395.57289607971478
20
13.933451650977355
30
0
11
-392.98862703293133
21
13.933451650977355
31
0
0
LINE
5
394
100
AcDbEntity
8
0
100
AcDbLine
10
-392.98862703293133
20
13.933451650977355
30
0
11
-392.98862703293133
21
12.500867126822692
31
0
0
LINE
5
395
100
AcDbEntity
8
0
100
AcDbLine
10
-392.98862703293133
20
12.500867126822692
30
0
11
-397.25828953235913
21
12.500867126822692
31
0
0
LWPOLYLINE
5
396
100
AcDbEntity
8
0
100
AcDbPolyline
90
15
70
1
43
0.0
10
-389.53356988876629
20
13.989631412863952
10
-389.53356988876629
20
12.500867126822692
10
-388.10098655670453
20
12.500867126822692
10
-388.10098655670453
20
13.989631412863952
10
-387.41278417557049
20
13.989631412863952
10
-387.41278417557049
20
15.337945698142272
10
-388.10098655670453
20
15.337945698142272
10
-388.10098655670453
20
18.189069507956724
10
-389.53356988876629
20
18.189069507956724
10
-389.53356988876629
20
15.337945698142272
10
-390.95210917442608
20
15.337945698142272
10
-388.80323298424054
20
22.500867126822691
10
-390.32008655517865
20
22.500867126822691
10
-392.38469369858075
20
15.337945698142272
10
-392.38469369858075
20
13.989631412863952
0
LINE
5
397
100
AcDbEntity
8
0
100
AcDbLine
10
-372.49822247856451
20
11.731154848346089
30
0
11
-374.59729246519026
21
12.547433498038988
31
0
0
LINE
5
398
100
AcDbEntity
8
0
100
AcDbLine
10
-374.59729246519026
20
12.547433498038988
30
0
11
-374.61134858580726
21
12.53339944835866
31
0
0
SPLINE
5
399
100
AcDbEntity
8
0
100
AcDbSpline
70
0
71
2
72
6
73
3
74
0
42
0.000000001
43
0.0000000001
44
0.0000000001
40
0
40
0
40
0
40
1
40
1
40
1
10
-374.61134858580726
20
12.53339944835866
30
0
10
-374.58328667455481
20
12.498264888601614
30
0
10
-374.56228093364422
20
12.421000815065387
30
0
0
SPLINE
5
400
100
AcDbEntity
8
0
100
AcDbSpline
70
0
71
2
72
6
73
3
74
0
42
0.000000001
43
0.0000000001
44
0.0000000001
40
0
40
0
40
0
40
1
40
1
40
1
10
-374.56228093364422
20
12.421000815065387
30
0
10
-374.54829162140891
20
12.350764950374586
30
0
10
-374.54838668836084
20
12.231383143229362
30
0
0
SPLINE
5
401
100
AcDbEntity
8
0
100
AcDbSpline
70
0
71
2
72
6
73
3
74
0
42
0.000000001
43
0.0000000001
44
0.0000000001
40
0
40
0
40
0
40
1
40
1
40
1
10
-374.54838668836084
20
12.231383143229362
30
0
10
-374.54853767735636
20
12.041776357968782
30
0
10
-374.63995853076085
20
11.880332143211866
30
0
0
SPLINE
5
402
100
AcDbEntity
8
0
100
AcDbSpline
70
0
71
2
72
6
73
3
74
0
42
0.000000001
43
0.0000000001
44
0.0000000001
40
0
40
0
40
0
40
1
40
1
40
1
10
-374.63995853076085
20
11.880332143211866
30
0
10
-374.73137938392802
20
11.718888226478082
30
0
10
-374.87190144246057
20
11.627707985970668
30
0
0
SPLINE
5
403
100
AcDbEntity
8
0
100
AcDbSpline
70
0
71
2
72
6
73
3
74
0
42
0.000000001
43
0.0000000001
44
0.0000000001
40
0
40
0
40
0
40
1
40
1
40
1
10
-374.87190144246057
20
11.627707985970668
30
0
10
-374.94216496979402
20
11.578606631475026
30
0
10
-375.01943463562952
20
11.55057827354366
30
0
0
SPLINE
5
404
100
AcDbEntity
8
0
100
AcDbSpline
70
0
71
2
72
6
73
3
74
0
42
0.000000001
43
0.0000000001
44
0.0000000001
40
0
40
0
40
0
40
1
40
1
40
1
10
-375.01943463562952
20
11.55057827354366
30
0
10
-375.10372662046274
20
11.522555507674259
30
0
10
-375.23014252701307
20
11.508611231144371
30
0
0
SPLINE
5
405
100
AcDbEntity
8
0
100
AcDbSpline
70
0
71
2
72
6
73
3
74
0
42
0.000000001
43
0.0000000001
44
0.0000000001
40
0
40
0
40
0
40
1
40
1
40
1
10
-375.23014252701307
20
11.508611231144371
30
0
10
-375.35656372783967
20
11.487644337356373
30
0
10
-375.54617580725778
20
11.48077285810534
30
0
0
SPLINE
5
406
100
AcDbEntity
8
0
100
AcDbSpline
70
0
71
2
72
6
73
3
74
0
42
0.000000001
43
0.0000000001
44
0.0000000001
40
0
40
0
40
0
40
1
40
1
40
1
10
-375.54617580725778
20
11.48077285810534
30
0
10
-375.74281080171971
20
11.473906971390914
30
0
10
-376.03775445810709
20
11.474141842977128
30
0
0
SPLINE
5
407
100
AcDbEntity
8
0
100
AcDbSpline
70
0
71
2
72
6
73
3
74
0
42
0.000000001
43
0.0000000001
44
0.0000000001
40
0
40
0
40
0
40
1
40
1
40
1
10
-376.03775445810709
20
11.474141842977128
30
0
10
-376.28354098744148
20
11.474337569417635
30
0
10
-376.43802969146373
20
11.481483065400585
30
0
0
SPLINE
5
408
100
AcDbEntity
8
0
100
AcDbSpline
70
0
71
2
72
6
73
3
74
0
42
0.000000001
43
0.0000000001
44
0.0000000001
40
0
40
0
40
0
40
1
40
1
40
1
10
-376.43802969146373
20
11.481483065400585
30
0
10
-376.59954101250673
20
11.488634153682826
30
0
10
-376.71188372399388
20
11.509791181612046
30
0
0
SPLINE
5
409
100
AcDbEntity
8
0
100
AcDbSpline
70
0
71
2
72
6
73
3
74
0
42
0.000000001
43
0.0000000001
44
0.0000000001
40
0
40
0
40
0
40
1
40
1
40
1
10
-376.71188372399388
20
11.509791181612046
30
0
10
-376.81720941075935
20
11.523920000221191
30
0
10
-376.89443433914988
20
11.552071386363609
30
0
0
SPLINE
5
410
100
AcDbEntity
8
0
100
AcDbSpline
70
0
71
2
72
6
73
3
74
0
42
0.000000001
43
0.0000000001
44
0.0000000001
40
0
40
0
40
0
40
1
40
1
40
1
10
-376.89443433914988
20
11.552071386363609
30
0
10
-376.97165337745531
20
11.587245091266363
30
0
10
-377.05588414620604
20
11.636469622747301
30
0
0
SPLINE
5
411
100
AcDbEntity
8
0
100
AcDbSpline
70
0
71
2
72
6
73
3
74
0
42
0.000000001
43
0.0000000001
44
0.0000000001
40
0
40
0
40
0
40
1
40
1
40
1
10
-377.05588414620604
20
11.636469622747301
30
0
10
-377.2875135978864
20
11.777103524773691
30
0
10
-377.41373347997308
20
12.008945777340843
30
0
0
SPLINE
5
412
100
AcDbEntity
8
0
100
AcDbSpline
70
0
71
2
72
6
73
3
74
0
42
0.000000001
43
0.0000000001
44
0.0000000001
40
0
40
0
40
0
40
1
40
1
40
1
10
-377.41373347997308
20
12.008945777340843
30
0
10
-377.53994776999787
20
12.247810348905654
30
0
10
-377.53971289841166
20
12.542754005293013
30
0
0
SPLINE
5
413
100
AcDbEntity
8
0
100
AcDbSpline
70
0
71
2
72
6
73
3
74
0
42
0.000000001
43
0.0000000001
44
0.0000000001
40
0
40
0
40
0
40
1
40
1
40
1
10
-377.53971289841166
20
12.542754005293013
30
0
10
-377.53947802682546
20
12.837697661680371
30
0
10
-377.4058667415826
20
13.069333003683091
30
0
0
SPLINE
5
414
100
AcDbEntity
8
0
100
AcDbSpline
70
0
71
2
72
6
73
3
74
0
42
0.000000001
43
0.0000000001
44
0.0000000001
40
0
40
0
40
0
40
1
40
1
40
1
10
-377.4058667415826
20
13.069333003683091
30
0
10
-377.2792777755746
20
13.300973639724647
30
0
10
-377.054446955667
20
13.441244050129132
30
0
0
SPLINE
5
415
100
AcDbEntity
8
0
100
AcDbSpline
70
0
71
2
72
6
73
3
74
0
42
0.000000001
43
0.0000000001
44
0.0000000001
40
0
40
0
40
0
40
1
40
1
40
1
10
-377.054446955667
20
13.441244050129132
30
0
10
-376.9701378959129
20
13.490334666823573
30
0
10
-376.89286293603851
20
13.525385343989919
30
0
0
SPLINE
5
416
100
AcDbEntity
8
0
100
AcDbSpline
70
0
71
2
72
6
73
3
74
0
42
0.000000001
43
0.0000000001
44
0.0000000001
40
0
40
0
40
0
40
1
40
1
40
1
10
-376.89286293603851
20
13.525385343989919
30
0
10
-376.81558767814101
20
13.560436020918942
30
0
10
-376.71023403035372
20
13.581419691367476
30
0
0
SPLINE
5
417
100
AcDbEntity
8
0
100
AcDbSpline
70
0
71
2
72
6
73
3
74
0
42
0.000000001
43
0.0000000001
44
0.0000000001
40
0
40
0
40
0
40
1
40
1
40
1
10
-376.71023403035372
20
13.581419691367476
30
0
10
-376.59786335784486
20
13.595375152495935
30
0
10
-376.43634085232191
20
13.602269149243707
30
0
0
SPLINE
5
418
100
AcDbEntity
8
0
100
AcDbSpline
70
0
71
2
72
6
73
3
74
0
42
0.000000001
43
0.0000000001
44
0.0000000001
40
0
40
0
40
0
40
1
40
1
40
1
10
-376.43634085232191
20
13.602269149243707
30
0
10
-376.28184096405704
20
13.609168440267634
30
0
10
-376.0360544347227
20
13.608972713827129
30
0
0
SPLINE
5
419
100
AcDbEntity
8
0
100
AcDbSpline
70
0
71
2
72
6
73
3
74
0
42
0.000000001
43
0.0000000001
44
0.0000000001
40
0
40
0
40
0
40
1
40
1
40
1
10
-376.0360544347227
20
13.608972713827129
30
0
10
-375.80431284140678
20
13.60878817174787
30
0
10
-375.6498241372658
20
13.60164282477648
30
0
0
SPLINE
5
420
100
AcDbEntity
8
0
100
AcDbSpline
70
0
71
2
72
6
73
3
74
0
42
0.000000001
43
0.0000000001
44
0.0000000001
40
0
40
0
40
0
40
1
40
1
40
1
10
-375.6498241372658
20
13.60164282477648
30
0
10
-375.5023577523599
20
13.594502771843926
30
0
10
-375.39703206559437
20
13.58037395323478
30
0
0
SPLINE
5
421
100
AcDbEntity
8
0
100
AcDbSpline
70
0
71
2
72
6
73
3
74
0
42
0.000000001
43
0.0000000001
44
0.0000000001
40
0
40
0
40
0
40
1
40
1
40
1
10
-375.39703206559437
20
13.58037395323478
30
0
10
-375.28468935410734
20
13.559216925305559
30
0
10
-375.19341948969839
20
13.531054354801896
30
0
0
SPLINE
5
422
100
AcDbEntity
8
0
100
AcDbSpline
70
0
71
2
72
6
73
3
74
0
42
0.000000001
43
0.0000000001
44
0.0000000001
40
0
40
0
40
0
40
1
40
1
40
1
10
-375.19341948969839
20
13.531054354801896
30
0
10
-375.10916665001093
20
13.509919993618301
30
0
10
-375.01088005890358
20
13.474729214031884
30
0
0
LINE
5
423
100
AcDbEntity
8
0
100
AcDbLine
10
-375.01088005890369
20
13.474729214031886
30
0
11
-372.49758496997339
21
12.53171620139749
31
0
0
LINE
5
424
100
AcDbEntity
8
0
100
AcDbLine
10
-372.49758496997339
20
12.53171620139749
30
0
11
-372.49822247856451
21
11.731154848346089
31
0
0
SPLINE
5
425
100
AcDbEntity
8
0
100
AcDbSpline
70
0
71
2
72
6
73
3
74
0
42
0.000000001
43
0.0000000001
44
0.0000000001
40
0
40
0
40
0
40
1
40
1
40
1
10
-375.53858867777967
20
12.190036832998013
30
0
10
-375.37707176455604
20
12.189908212724996
30
0
10
-375.27867332983618
20
12.295166793323036
30
0
0
SPLINE
5
426
100
AcDbEntity
8
0
100
AcDbSpline
70
0
71
2
72
6
73
3
74
0
42
0.000000001
43
0.0000000001
44
0.0000000001
40
0
40
0
40
0
40
1
40
1
40
1
10
-375.27867332983618
20
12.295166793323036
30
0
10
-375.18027489487906
20
12.400425671944205
30
0
10
-375.18016305126656
20
12.540875032128662
30
0
0
SPLINE
5
427
100
AcDbEntity
8
0
100
AcDbSpline
70
0
71
2
72
6
73
3
74
0
42
0.000000001
43
0.0000000001
44
0.0000000001
40
0
40
0
40
0
40
1
40
1
40
1
10
-375.18016305126656
20
12.540875032128662
30
0
10
-375.18005120765406
20
12.681324392313119
30
0
10
-375.27828187719251
20
12.786739553968633
30
0
0
SPLINE
5
428
100
AcDbEntity
8
0
100
AcDbSpline
70
0
71
2
72
6
73
3
74
0
42
0.000000001
43
0.0000000001
44
0.0000000001
40
0
40
0
40
0
40
1
40
1
40
1
10
-375.27828187719251
20
12.786739553968633
30
0
10
-375.37651254625632
20
12.892155311670408
30
0
10
-375.53802945948001
20
12.892283931943425
30
0
0
LINE
5
429
100
AcDbEntity
8
0
100
AcDbLine
10
-375.53802945948001
20
12.892283931943426
30
0
11
-376.46499553472052
21
12.893022100023133
31
0
0
SPLINE
5
430
100
AcDbEntity
8
0
100
AcDbSpline
70
0
71
2
72
6
73
3
74
0
42
0.000000001
43
0.0000000001
44
0.0000000001
40
0
40
0
40
0
40
1
40
1
40
1
10
-376.46499553472052
20
12.893022100023131
30
0
10
-376.62651244794415
20
12.893150720296148
30
0
10
-376.7249108831387
20
12.787891543651849
30
0
0
SPLINE
5
431
100
AcDbEntity
8
0
100
AcDbSpline
70
0
71
2
72
6
73
3
74
0
42
0.000000001
43
0.0000000001
44
0.0000000001
40
0
40
0
40
0
40
1
40
1
40
1
10
-376.7249108831387
20
12.787891543651849
30
0
10
-376.8233093178585
20
12.682632963053809
30
0
10
-376.82342116147095
20
12.542183602869352
30
0
0
SPLINE
5
432
100
AcDbEntity
8
0
100
AcDbSpline
70
0
71
2
72
6
73
3
74
0
42
0.000000001
43
0.0000000001
44
0.0000000001
40
0
40
0
40
0
40
1
40
1
40
1
10
-376.82342116147095
20
12.542183602869352
30
0
10
-376.82353300508345
20
12.401734242684896
30
0
10
-376.72530233578237
20
12.296318783006249
30
0
0
SPLINE
5
433
100
AcDbEntity
8
0
100
AcDbSpline
70
0
71
2
72
6
73
3
74
0
42
0.000000001
43
0.0000000001
44
0.0000000001
40
0
40
0
40
0
40
1
40
1
40
1
10
-376.72530233578237
20
12.296318783006249
30
0
10
-376.62707166624392
20
12.190903621350735
30
0
10
-376.46555475302023
20
12.190775001077721
30
0
0
LINE
5
434
100
AcDbEntity
8
0
100
AcDbLine
10
-376.46555475302023
20
12.190775001077721
30
0
11
-375.53858867777967
21
12.190036832998013
31
0
0
LWPOLYLINE
5
435
100
AcDbEntity
8
0
100
AcDbPolyline
90
4
70
1
43
0.0
10
-373.21259639498095
20
14.140432523228325
10
-372.49630436001712
20
14.139862120567342
10
-372.49573395735615
20
14.8561541555312
10
-373.21202599231992
20
14.856724558192184
0
SPLINE
5
436
100
AcDbEntity
8
0
100
AcDbSpline
70
0
71
2
72
6
73
3
74
0
42
0.000000001
43
0.0000000001
44
0.0000000001
40
0
40
0
40
0
40
1
40
1
40
1
10
-376.46300442039518
20
15.393020711069134
30
0
10
-376.71581326872729
20
15.393222029571604
30
0
10
-376.9123752663433
20
15.477648822786012
30
0
0
SPLINE
5
437
100
AcDbEntity
8
0
100
AcDbSpline
70
0
71
2
72
6
73
3
74
0
42
0.000000001
43
0.0000000001
44
0.0000000001
40
0
40
0
40
0
40
1
40
1
40
1
10
-376.9123752663433
20
15.477648822786012
30
0
10
-377.1089316726094
20
15.569097040928689
30
0
10
-377.24926389490525
20
15.71668086198374
30
0
0
SPLINE
5
438
100
AcDbEntity
8
0
100
AcDbSpline
70
0
71
2
72
6
73
3
74
0
42
0.000000001
43
0.0000000001
44
0.0000000001
40
0
40
0
40
0
40
1
40
1
40
1
10
-377.24926389490525
20
15.71668086198374
30
0
10
-377.389595819178
20
15.864264682801466
30
0
10
-377.45966951003737
20
16.053927687891417
30
0
0
SPLINE
5
439
100
AcDbEntity
8
0
100
AcDbSpline
70
0
71
2
72
6
73
3
74
0
42
0.000000001
43
0.0000000001
44
0.0000000001
40
0
40
0
40
0
40
1
40
1
40
1
10
-377.45966951003737
20
16.053927687891417
30
0
10
-377.53675963052126
20
16.250617709734279
30
0
10
-377.53659186486522
20
16.461292048034093
30
0
0
SPLINE
5
440
100
AcDbEntity
8
0
100
AcDbSpline
70
0
71
2
72
6
73
3
74
0
42
0.000000001
43
0.0000000001
44
0.0000000001
40
0
40
0
40
0
40
1
40
1
40
1
10
-377.53659186486522
20
16.461292048034093
30
0
10
-377.53642409968387
20
16.671965790287647
30
0
10
-377.45902640938425
20
16.861511359940479
30
0
0
SPLINE
5
441
100
AcDbEntity
8
0
100
AcDbSpline
70
0
71
2
72
6
73
3
74
0
42
0.000000001
43
0.0000000001
44
0.0000000001
40
0
40
0
40
0
40
1
40
1
40
1
10
-377.45902640938425
20
16.861511359940479
30
0
10
-377.38864514823456
20
17.058084542392479
30
0
10
-377.24807835213829
20
17.205444675985238
30
0
0
SPLINE
5
442
100
AcDbEntity
8
0
100
AcDbSpline
70
0
71
2
72
6
73
3
74
0
42
0.000000001
43
0.0000000001
44
0.0000000001
40
0
40
0
40
0
40
1
40
1
40
1
10
-377.24807835213829
20
17.205444675985238
30
0
10
-377.10751125849356
20
17.352804213294419
30
0
10
-376.91081504759325
20
17.436917844393879
30
0
0
SPLINE
5
443
100
AcDbEntity
8
0
100
AcDbSpline
70
0
71
2
72
6
73
3
74
0
42
0.000000001
43
0.0000000001
44
0.0000000001
40
0
40
0
40
0
40
1
40
1
40
1
10
-376.91081504759325
20
17.436917844393879
30
0
10
-376.71411324534284
20
17.528052900421606
30
0
10
-376.46130439701085
20
17.527851581919137
30
0
0
LINE
5
444
100
AcDbEntity
8
0
100
AcDbLine
10
-376.46130439701085
20
17.527851581919137
30
0
11
-373.52591217310942
21
17.525514049943606
31
0
0
SPLINE
5
445
100
AcDbEntity
8
0
100
AcDbSpline
70
0
71
2
72
6
73
3
74
0
42
0.000000001
43
0.0000000001
44
0.0000000001
40
0
40
0
40
0
40
1
40
1
40
1
10
-373.52591217310942
20
17.525514049943606
30
0
10
-373.27310302675426
20
17.525312731203815
30
0
10
-373.07654662048822
20
17.433864513061138
30
0
0
SPLINE
5
446
100
AcDbEntity
8
0
100
AcDbSpline
70
0
71
2
72
6
73
3
74
0
42
0.000000001
43
0.0000000001
44
0.0000000001
40
0
40
0
40
0
40
1
40
1
40
1
10
-373.07654662048822
20
17.433864513061138
30
0
10
-372.87998462287203
20
17.34943771984673
30
0
10
-372.7396526981247
20
17.20185449507526
30
0
0
SPLINE
5
447
100
AcDbEntity
8
0
100
AcDbSpline
70
0
71
2
72
6
73
3
74
0
42
0.000000001
43
0.0000000001
44
0.0000000001
40
0
40
0
40
0
40
1
40
1
40
1
10
-372.7396526981247
20
17.20185449507526
30
0
10
-372.59932077385201
20
17.054270674257538
30
0
10
-372.52223005779649
20
16.85758005589377
30
0
0
SPLINE
5
448
100
AcDbEntity
8
0
100
AcDbSpline
70
0
71
2
72
6
73
3
74
0
42
0.000000001
43
0.0000000001
44
0.0000000001
40
0
40
0
40
0
40
1
40
1
40
1
10
-372.52223005779649
20
16.85758005589377
30
0
10
-372.45215606891401
20
16.667917050566491
30
0
10
-372.45232383409535
20
16.457243308312936
30
0
0
SPLINE
5
449
100
AcDbEntity
8
0
100
AcDbSpline
70
0
71
2
72
6
73
3
74
0
42
0.000000001
43
0.0000000001
44
0.0000000001
40
0
40
0
40
0
40
1
40
1
40
1
10
-372.45232383409535
20
16.457243308312936
30
0
10
-372.45249159975145
20
16.246568970013122
30
0
10
-372.52287315844961
20
16.049996383844707
30
0
0
SPLINE
5
450
100
AcDbEntity
8
0
100
AcDbSpline
70
0
71
2
72
6
73
3
74
0
42
0.000000001
43
0.0000000001
44
0.0000000001
40
0
40
0
40
0
40
1
40
1
40
1
10
-372.52287315844961
20
16.049996383844707
30
0
10
-372.60027144479545
20
15.860450814666525
30
0
10
-372.74083824089166
20
15.71309068107376
30
0
0
SPLINE
5
451
100
AcDbEntity
8
0
100
AcDbSpline
70
0
71
2
72
6
73
3
74
0
42
0.000000001
43
0.0000000001
44
0.0000000001
40
0
40
0
40
0
40
1
40
1
40
1
10
-372.74083824089166
20
15.71309068107376
30
0
10
-372.88140503698793
20
15.565730547480999
30
0
10
-373.07810683923827
20
15.474595491453274
30
0
0
SPLINE
5
452
100
AcDbEntity
8
0
100
AcDbSpline
70
0
71
2
72
6
73
3
74
0
42
0.000000001
43
0.0000000001
44
0.0000000001
40
0
40
0
40
0
40
1
40
1
40
1
10
-373.07810683923827
20
15.474595491453274
30
0
10
-373.27480305013864
20
15.390481860353816
30
0
10
-373.52761219649381
20
15.390683179093607
30
0
0
LINE
5
453
100
AcDbEntity
8
0
100
AcDbLine
10
-373.52761219649375
20
15.390683179093607
30
0
11
-376.46300442039518
21
15.393020711069134
31
0
0
SPLINE
5
454
100
AcDbEntity
8
0
100
AcDbSpline
70
0
71
2
72
6
73
3
74
0
42
0.000000001
43
0.0000000001
44
0.0000000001
40
0
40
0
40
0
40
1
40
1
40
1
10
-373.52704179335819
20
16.106975810103723
30
0
10
-373.3725471991321
20
16.10685278189267
30
0
10
-373.26713203771396
20
16.205083153407962
30
0
0
SPLINE
5
455
100
AcDbEntity
8
0
100
AcDbSpline
70
0
71
2
72
6
73
3
74
0
42
0.000000001
43
0.0000000001
44
0.0000000001
40
0
40
0
40
0
40
1
40
1
40
1
10
-373.26713203771396
20
16.205083153407962
30
0
10
-373.16873919529343
20
16.303319116985215
30
0
10
-373.1686161670824
20
16.457813711211244
30
0
0
SPLINE
5
456
100
AcDbEntity
8
0
100
AcDbSpline
70
0
71
2
72
6
73
3
74
0
42
0.000000001
43
0.0000000001
44
0.0000000001
40
0
40
0
40
0
40
1
40
1
40
1
10
-373.1686161670824
20
16.457813711211244
30
0
10
-373.16849313934597
20
16.612307709391018
30
0
10
-373.26672940070898
20
16.710700850072005
30
0
0
SPLINE
5
457
100
AcDbEntity
8
0
100
AcDbSpline
70
0
71
2
72
6
73
3
74
0
42
0.000000001
43
0.0000000001
44
0.0000000001
40
0
40
0
40
0
40
1
40
1
40
1
10
-373.26672940070898
20
16.710700850072005
30
0
10
-373.37198798106976
20
16.809099582814952
30
0
10
-373.52648257529574
20
16.809222611026009
30
0
0
LINE
5
458
100
AcDbEntity
8
0
100
AcDbLine
10
-373.52648257529563
20
16.809222611026009
30
0
11
-376.46187479919712
21
16.811560143001536
31
0
0
SPLINE
5
459
100
AcDbEntity
8
0
100
AcDbSpline
70
0
71
2
72
6
73
3
74
0
42
0.000000001
43
0.0000000001
44
0.0000000001
40
0
40
0
40
0
40
1
40
1
40
1
10
-376.46187479919718
20
16.811560143001536
30
0
10
-376.61636909540005
20
16.811683170975268
30
0
10
-376.71476193829528
20
16.713446611351756
30
0
0
SPLINE
5
460
100
AcDbEntity
8
0
100
AcDbSpline
70
0
71
2
72
6
73
3
74
0
42
0.000000001
43
0.0000000001
44
0.0000000001
40
0
40
0
40
0
40
1
40
1
40
1
10
-376.71476193829528
20
16.713446611351756
30
0
10
-376.82017739821117
20
16.615215644027529
30
0
10
-376.82030042594761
20
16.460721645847759
30
0
0
SPLINE
5
461
100
AcDbEntity
8
0
100
AcDbSpline
70
0
71
2
72
6
73
3
74
0
42
0.000000001
43
0.0000000001
44
0.0000000001
40
0
40
0
40
0
40
1
40
1
40
1
10
-376.82030042594761
20
16.460721645847759
30
0
10
-376.82042345415869
20
16.306227051621725
30
0
10
-376.71516457530015
20
16.207828914687713
30
0
0
SPLINE
5
462
100
AcDbEntity
8
0
100
AcDbSpline
70
0
71
2
72
6
73
3
74
0
42
0.000000001
43
0.0000000001
44
0.0000000001
40
0
40
0
40
0
40
1
40
1
40
1
10
-376.71516457530015
20
16.207828914687713
30
0
10
-376.61692831346249
20
16.109436370052983
30
0
10
-376.46243401725951
20
16.109313342079254
30
0
0
LINE
5
463
100
AcDbEntity
8
0
100
AcDbLine
10
-376.46243401725962
20
16.109313342079254
30
0
11
-373.52704179335819
21
16.106975810103723
31
0
0
SPLINE
5
464
100
AcDbEntity
8
0
100
AcDbSpline
70
0
71
2
72
6
73
3
74
0
42
0.000000001
43
0.0000000001
44
0.0000000001
40
0
40
0
40
0
40
1
40
1
40
1
10
-334.80535088902826
20
12.89302769184777
30
0
10
-334.95282286623353
20
12.893145127759539
30
0
10
-335.05122130142797
20
12.787885951115239
30
0
0
SPLINE
5
465
100
AcDbEntity
8
0
100
AcDbSpline
70
0
71
2
72
6
73
3
74
0
42
0.000000001
43
0.0000000001
44
0.0000000001
40
0
40
0
40
0
40
1
40
1
40
1
10
-335.05122130142797
20
12.787885951115239
30
0
10
-335.15664235316854
20
12.682632962816488
30
0
10
-335.15675419678104
20
12.542183602632029
30
0
0
SPLINE
5
466
100
AcDbEntity
8
0
100
AcDbSpline
70
0
71
2
72
6
73
3
74
0
42
0.000000001
43
0.0000000001
44
0.0000000001
40
0
40
0
40
0
40
1
40
1
40
1
10
-335.15675419678104
20
12.542183602632029
30
0
10
-335.15686604039354
20
12.401734242447572
30
0
10
-335.0516127540717
20
12.296313190469641
30
0
0
SPLINE
5
467
100
AcDbEntity
8
0
100
AcDbSpline
70
0
71
2
72
6
73
3
74
0
42
0.000000001
43
0.0000000001
44
0.0000000001
40
0
40
0
40
0
40
1
40
1
40
1
10
-335.0516127540717
20
12.296313190469641
30
0
10
-334.95338208453325
20
12.190898028814125
30
0
10
-334.80591010732803
20
12.190780592902357
30
0
0
LINE
5
468
100
AcDbEntity
8
0
100
AcDbLine
10
-334.80591010732803
20
12.190780592902357
30
0
11
-334.07557343436883
21
12.190199006117448
31
0
0
SPLINE
5
469
100
AcDbEntity
8
0
100
AcDbSpline
70
0
71
2
72
6
73
3
74
0
42
0.000000001
43
0.0000000001
44
0.0000000001
40
0
40
0
40
0
40
1
40
1
40
1
10
-334.07557343436883
20
12.190199006117449
30
0
10
-333.92810145716362
20
12.190081570205681
30
0
10
-333.82268070344605
20
12.295334558741759
30
0
0
SPLINE
5
470
100
AcDbEntity
8
0
100
AcDbSpline
70
0
71
2
72
6
73
3
74
0
42
0.000000001
43
0.0000000001
44
0.0000000001
40
0
40
0
40
0
40
1
40
1
40
1
10
-333.82268070344605
20
12.295334558741759
30
0
10
-333.72428197046582
20
12.400593437125604
30
0
10
-333.72417012685332
20
12.541042797310062
30
0
0
SPLINE
5
471
100
AcDbEntity
8
0
100
AcDbSpline
70
0
71
2
72
6
73
3
74
0
42
0.000000001
43
0.0000000001
44
0.0000000001
40
0
40
0
40
0
40
1
40
1
40
1
10
-333.72417012685332
20
12.541042797310062
30
0
10
-333.72405828324082
20
12.681492157494517
30
0
10
-333.82228925080244
20
12.786907319387357
30
0
0
SPLINE
5
472
100
AcDbEntity
8
0
100
AcDbSpline
70
0
71
2
72
6
73
3
74
0
42
0.000000001
43
0.0000000001
44
0.0000000001
40
0
40
0
40
0
40
1
40
1
40
1
10
-333.82228925080244
20
12.786907319387357
30
0
10
-333.92754223886385
20
12.892328669151091
30
0
10
-334.07501421606912
20
12.892446105062859
30
0
0
LINE
5
473
100
AcDbEntity
8
0
100
AcDbLine
10
-334.07501421606912
20
12.892446105062859
30
0
11
-334.80535088902826
21
12.89302769184777
31
0
0
SPLINE
5
474
100
AcDbEntity
8
0
100
AcDbSpline
70
0
71
2
72
6
73
3
74
0
42
0.000000001
43
0.0000000001
44
0.0000000001
40
0
40
0
40
0
40
1
40
1
40
1
10
-334.52558178962011
20
11.474264870713535
30
0
10
-334.72923351089912
20
11.474427044070294
30
0
10
-334.86967168672231
20
11.488583823701223
30
0
0
SPLINE
5
475
100
AcDbEntity
8
0
100
AcDbSpline
70
0
71
2
72
6
73
3
74
0
42
0.000000001
43
0.0000000001
44
0.0000000001
40
0
40
0
40
0
40
1
40
1
40
1
10
-334.86967168672231
20
11.488583823701223
30
0
10
-335.01713247956627
20
11.502746195631437
30
0
10
-335.12244138967128
20
11.537942567279817
30
0
0
SPLINE
5
476
100
AcDbEntity
8
0
100
AcDbSpline
70
0
71
2
72
6
73
3
74
0
42
0.000000001
43
0.0000000001
44
0.0000000001
40
0
40
0
40
0
40
1
40
1
40
1
10
-335.12244138967128
20
11.537942567279817
30
0
10
-335.22775059803678
20
11.573138641142391
30
0
10
-335.31198666094502
20
11.615340704376781
30
0
0
SPLINE
5
477
100
AcDbEntity
8
0
100
AcDbSpline
70
0
71
2
72
6
73
3
74
0
42
0.000000001
43
0.0000000001
44
0.0000000001
40
0
40
0
40
0
40
1
40
1
40
1
10
-335.31198666094502
20
11.615340704376781
30
0
10
-335.39621713179133
20
11.664565086608828
30
0
10
-335.48745314509341
20
11.734862464930508
30
0
0
SPLINE
5
478
100
AcDbEntity
8
0
100
AcDbSpline
70
0
71
2
72
6
73
3
74
0
42
0.000000001
43
0.0000000001
44
0.0000000001
40
0
40
0
40
0
40
1
40
1
40
1
10
-335.48745314509341
20
11.734862464930508
30
0
10
-335.66992576774385
20
11.875457222048517
30
0
10
-335.76807255445425
20
12.086209552853939
30
0
0
SPLINE
5
479
100
AcDbEntity
8
0
100
AcDbSpline
70
0
71
2
72
6
73
3
74
0
42
0.000000001
43
0.0000000001
44
0.0000000001
40
0
40
0
40
0
40
1
40
1
40
1
10
-335.76807255445425
20
12.086209552853939
30
0
10
-335.87324136213914
20
12.296967475484003
30
0
10
-335.87304563569865
20
12.542754004818363
30
0
0
SPLINE
5
480
100
AcDbEntity
8
0
100
AcDbSpline
70
0
71
2
72
6
73
3
74
0
42
0.000000001
43
0.0000000001
44
0.0000000001
40
0
40
0
40
0
40
1
40
1
40
1
10
-335.87304563569865
20
12.542754004818363
30
0
10
-335.87284990949547
20
12.788540236129599
30
0
10
-335.76734557073576
20
12.999130692076037
30
0
0
SPLINE
5
481
100
AcDbEntity
8
0
100
AcDbSpline
70
0
71
2
72
6
73
3
74
0
42
0.000000001
43
0.0000000001
44
0.0000000001
40
0
40
0
40
0
40
1
40
1
40
1
10
-335.76734557073576
20
12.999130692076037
30
0
10
-335.66886325318791
20
13.209726441823985
30
0
10
-335.48616694331253
20
13.350030405074891
30
0
0
SPLINE
5
482
100
AcDbEntity
8
0
100
AcDbSpline
70
0
71
2
72
6
73
3
74
0
42
0.000000001
43
0.0000000001
44
0.0000000001
40
0
40
0
40
0
40
1
40
1
40
1
10
-335.48616694331253
20
13.350030405074891
30
0
10
-335.39481908639794
20
13.420182386937666
30
0
10
-335.31051032490427
20
13.469272705846302
30
0
0
SPLINE
5
483
100
AcDbEntity
8
0
100
AcDbSpline
70
0
71
2
72
6
73
3
74
0
42
0.000000001
43
0.0000000001
44
0.0000000001
40
0
40
0
40
0
40
1
40
1
40
1
10
-335.31051032490427
20
13.469272705846302
30
0
10
-335.22620156341054
20
13.518363024754938
30
0
10
-335.12083643347614
20
13.553391332961464
30
0
0
SPLINE
5
484
100
AcDbEntity
8
0
100
AcDbSpline
70
0
71
2
72
6
73
3
74
0
42
0.000000001
43
0.0000000001
44
0.0000000001
40
0
40
0
40
0
40
1
40
1
40
1
10
-335.12083643347614
20
13.553391332961464
30
0
10
-335.01547160156497
20
13.588419641405313
30
0
10
-334.86799403206044
20
13.595324822514332
30
0
0
SPLINE
5
485
100
AcDbEntity
8
0
100
AcDbSpline
70
0
71
2
72
6
73
3
74
0
42
0.000000001
43
0.0000000001
44
0.0000000001
40
0
40
0
40
0
40
1
40
1
40
1
10
-334.86799403206044
20
13.595324822514332
30
0
10
-334.72753348751473
20
13.609257914920295
30
0
10
-334.52388176623572
20
13.609095741563536
30
0
0
SPLINE
5
486
100
AcDbEntity
8
0
100
AcDbSpline
70
0
71
2
72
6
73
3
74
0
42
0.000000001
43
0.0000000001
44
0.0000000001
40
0
40
0
40
0
40
1
40
1
40
1
10
-334.52388176623572
20
13.609095741563536
30
0
10
-334.29916278994057
20
13.608916791783564
30
0
10
-334.14467408579958
20
13.601771444812174
30
0
0
SPLINE
5
487
100
AcDbEntity
8
0
100
AcDbSpline
70
0
71
2
72
6
73
3
74
0
42
0.000000001
43
0.0000000001
44
0.0000000001
40
0
40
0
40
0
40
1
40
1
40
1
10
-334.14467408579958
20
13.601771444812174
30
0
10
-333.99018538189603
20
13.594625799817655
30
0
10
-333.87083123774943
20
13.559418243570704
30
0
0
SPLINE
5
488
100
AcDbEntity
8
0
100
AcDbSpline
70
0
71
2
72
6
73
3
74
0
42
0.000000001
43
0.0000000001
44
0.0000000001
40
0
40
0
40
0
40
1
40
1
40
1
10
-333.87083123774943
20
13.559418243570704
30
0
10
-333.75147739138868
20
13.524210985584206
30
0
10
-333.65322405534192
20
13.446885397705131
30
0
0
SPLINE
5
489
100
AcDbEntity
8
0
100
AcDbSpline
70
0
71
2
72
6
73
3
74
0
42
0.000000001
43
0.0000000001
44
0.0000000001
40
0
40
0
40
0
40
1
40
1
40
1
10
-333.65322405534192
20
13.446885397705131
30
0
10
-333.56198804203984
20
13.376588019383448
30
0
10
-333.4567515321412
20
13.250099712389416
30
0
0
SPLINE
5
490
100
AcDbEntity
8
0
100
AcDbSpline
70
0
71
2
72
6
73
3
74
0
42
0.000000001
43
0.0000000001
44
0.0000000001
40
0
40
0
40
0
40
1
40
1
40
1
10
-333.4567515321412
20
13.250099712389416
30
0
10
-333.35833632076083
20
13.376425846026688
30
0
10
-333.25996584682548
20
13.44657223559018
30
0
0
SPLINE
5
491
100
AcDbEntity
8
0
100
AcDbSpline
70
0
71
2
72
6
73
3
74
0
42
0.000000001
43
0.0000000001
44
0.0000000001
40
0
40
0
40
0
40
1
40
1
40
1
10
-333.25996584682548
20
13.44657223559018
30
0
10
-333.16158978059082
20
13.523741242174459
30
0
10
-333.02813507664268
20
13.558747181895811
30
0
0
SPLINE
5
492
100
AcDbEntity
8
0
100
AcDbSpline
70
0
71
2
72
6
73
3
74
0
42
0.000000001
43
0.0000000001
44
0.0000000001
40
0
40
0
40
0
40
1
40
1
40
1
10
-333.02813507664268
20
13.558747181895811
30
0
10
-332.89468007443412
20
13.593753419402969
30
0
10
-332.6980450798535
20
13.600619455128957
30
0
0
SPLINE
5
493
100
AcDbEntity
8
0
100
AcDbSpline
70
0
71
2
72
6
73
3
74
0
42
0.000000001
43
0.0000000001
44
0.0000000001
40
0
40
0
40
0
40
1
40
1
40
1
10
-332.6980450798535
20
13.600619455128957
30
0
10
-332.50843300055408
20
13.607490785368427
30
0
10
-332.22753428018513
20
13.607267098143463
30
0
0
SPLINE
5
494
100
AcDbEntity
8
0
100
AcDbSpline
70
0
71
2
72
6
73
3
74
0
42
0.000000001
43
0.0000000001
44
0.0000000001
40
0
40
0
40
0
40
1
40
1
40
1
10
-332.22753428018513
20
13.607267098143463
30
0
10
-331.99579268686921
20
13.607082556064205
30
0
10
-331.84130957502759
20
13.592914592072027
30
0
0
SPLINE
5
495
100
AcDbEntity
8
0
100
AcDbSpline
70
0
71
2
72
6
73
3
74
0
42
0.000000001
43
0.0000000001
44
0.0000000001
40
0
40
0
40
0
40
1
40
1
40
1
10
-331.84130957502759
20
13.592914592072027
30
0
10
-331.69384319012158
20
13.585774539139472
30
0
10
-331.58150047839729
20
13.564617809233383
30
0
0
SPLINE
5
496
100
AcDbEntity
8
0
100
AcDbSpline
70
0
71
2
72
6
73
3
74
0
42
0.000000001
43
0.0000000001
44
0.0000000001
40
0
40
0
40
0
40
1
40
1
40
1
10
-331.58150047839729
20
13.564617809233383
30
0
10
-331.46915776667294
20
13.543461079327292
30
0
10
-331.39194402288098
20
13.501264459143298
30
0
0
SPLINE
5
497
100
AcDbEntity
8
0
100
AcDbSpline
70
0
71
2
72
6
73
3
74
0
42
0.000000001
43
0.0000000001
44
0.0000000001
40
0
40
0
40
0
40
1
40
1
40
1
10
-331.39194402288098
20
13.501264459143298
30
0
10
-331.31472498457555
20
13.466090754240547
30
0
10
-331.23050010614719
20
13.409843605976146
30
0
0
SPLINE
5
498
100
AcDbEntity
8
0
100
AcDbSpline
70
0
71
2
72
6
73
3
74
0
42
0.000000001
43
0.0000000001
44
0.0000000001
40
0
40
0
40
0
40
1
40
1
40
1
10
-331.23050010614719
20
13.409843605976146
30
0
10
-331.04801100485929
20
13.290316402134694
30
0
10
-330.91475732139054
20
13.072513493286701
30
0
0
SPLINE
5
499
100
AcDbEntity
8
0
100
AcDbSpline
70
0
71
2
72
6
73
3
74
0
42
0.000000001
43
0.0000000001
44
0.0000000001
40
0
40
0
40
0
40
1
40
1
40
1
10
-330.91475732139054
20
13.072513493286701
30
0
10
-330.78852595668207
20
12.8547164745238
30
0
10
-330.78877760492878
20
12.538705265097207
30
0
0
SPLINE
5
500
100
AcDbEntity
8
0
100
AcDbSpline
70
0
71
2
72
6
73
3
74
0
42
0.000000001
43
0.0000000001
44
0.0000000001
40
0
40
0
40
0
40
1
40
1
40
1
10
-330.78877760492878
20
12.538705265097207
30
0
10
-330.78902925317556
20
12.222694055670615
30
0
10
-330.91560733284541
20
12.005098355884831
30
0
0
SPLINE
5
501
100
AcDbEntity
8
0
100
AcDbSpline
70
0
71
2
72
6
73
3
74
0
42
0.000000001
43
0.0000000001
44
0.0000000001
40
0
40
0
40
0
40
1
40
1
40
1
10
-330.91560733284541
20
12.005098355884831
30
0
10
-331.04920773175019
20
11.787507950137879
30
0
10
-331.23188696706057
20
11.668271390677319
30
0
0
SPLINE
5
502
100
AcDbEntity
8
0
100
AcDbSpline
70
0
71
2
72
6
73
3
74
0
42
0.000000001
43
0.0000000001
44
0.0000000001
40
0
40
0
40
0
40
1
40
1
40
1
10
-331.23188696706057
20
11.668271390677319
30
0
10
-331.3162013206163
20
11.612158752771025
30
0
10
-331.39348187290858
20
11.570085309572328
30
0
0
SPLINE
5
503
100
AcDbEntity
8
0
100
AcDbSpline
70
0
71
2
72
6
73
3
74
0
42
0.000000001
43
0.0000000001
44
0.0000000001
40
0
40
0
40
0
40
1
40
1
40
1
10
-331.39348187290858
20
11.570085309572328
30
0
10
-331.47075713080602
20
11.535034632643304
30
0
10
-331.58313339561414
20
11.514056554494056
30
0
0
SPLINE
5
504
100
AcDbEntity
8
0
100
AcDbSpline
70
0
71
2
72
6
73
3
74
0
42
0.000000001
43
0.0000000001
44
0.0000000001
40
0
40
0
40
0
40
1
40
1
40
1
10
-331.58313339561414
20
11.514056554494056
30
0
10
-331.69550966018494
20
11.493078774367939
30
0
10
-331.84299282187004
20
11.479151125249698
30
0
0
SPLINE
5
505
100
AcDbEntity
8
0
100
AcDbSpline
70
0
71
2
72
6
73
3
74
0
42
0.000000001
43
0.0000000001
44
0.0000000001
40
0
40
0
40
0
40
1
40
1
40
1
10
-331.84299282187004
20
11.479151125249698
30
0
10
-331.9974927102536
20
11.472251685214205
30
0
10
-332.22923430356951
20
11.472436227293464
30
0
0
SPLINE
5
506
100
AcDbEntity
8
0
100
AcDbSpline
70
0
71
2
72
6
73
3
74
0
42
0.000000001
43
0.0000000001
44
0.0000000001
40
0
40
0
40
0
40
1
40
1
40
1
10
-332.22923430356951
20
11.472436227293464
30
0
10
-332.51013302393847
20
11.472659914518427
30
0
10
-332.69973391899526
20
11.479833371285839
30
0
0
SPLINE
5
507
100
AcDbEntity
8
0
100
AcDbSpline
70
0
71
2
72
6
73
3
74
0
42
0.000000001
43
0.0000000001
44
0.0000000001
40
0
40
0
40
0
40
1
40
1
40
1
10
-332.69973391899526
20
11.479833371285839
30
0
10
-332.896357729096
20
11.487012420589862
30
0
10
-333.02975680926102
20
11.522231161198061
30
0
0
SPLINE
5
508
100
AcDbEntity
8
0
100
AcDbSpline
70
0
71
2
72
6
73
3
74
0
42
0.000000001
43
0.0000000001
44
0.0000000001
40
0
40
0
40
0
40
1
40
1
40
1
10
-333.02975680926102
20
11.522231161198061
30
0
10
-333.16315559164025
20
11.557449603545805
30
0
10
-333.2614142218444
20
11.627752723178338
30
0
0
SPLINE
5
509
100
AcDbEntity
8
0
100
AcDbSpline
70
0
71
2
72
6
73
3
74
0
42
0.000000001
43
0.0000000001
44
0.0000000001
40
0
40
0
40
0
40
1
40
1
40
1
10
-333.2614142218444
20
11.627752723178338
30
0
10
-333.35966725998668
20
11.705078161808526
30
0
10
-333.45788115286462
20
11.831560876503273
30
0
0
SPLINE
5
510
100
AcDbEntity
8
0
100
AcDbSpline
70
0
71
2
72
6
73
3
74
0
42
0.000000001
43
0.0000000001
44
0.0000000001
40
0
40
0
40
0
40
1
40
1
40
1
10
-333.45788115286462
20
11.831560876503273
30
0
10
-333.5633189812657
20
11.705240335165287
30
0
10
-333.65467243036096
20
11.628065885293289
30
0
0
SPLINE
5
511
100
AcDbEntity
8
0
100
AcDbSpline
70
0
71
2
72
6
73
3
74
0
42
0.000000001
43
0.0000000001
44
0.0000000001
40
0
40
0
40
0
40
1
40
1
40
1
10
-333.65467243036096
20
11.628065885293289
30
0
10
-333.75304320243805
20
11.557919346955556
30
0
10
-333.87245297036776
20
11.522902222872954
30
0
0
SPLINE
5
512
100
AcDbEntity
8
0
100
AcDbSpline
70
0
71
2
72
6
73
3
74
0
42
0.000000001
43
0.0000000001
44
0.0000000001
40
0
40
0
40
0
40
1
40
1
40
1
10
-333.87245297036776
20
11.522902222872954
30
0
10
-333.9918630365579
20
11.487884801004547
30
0
10
-334.14636292494146
20
11.480985360969056
30
0
0
SPLINE
5
513
100
AcDbEntity
8
0
100
AcDbSpline
70
0
71
2
72
6
73
3
74
0
42
0.000000001
43
0.0000000001
44
0.0000000001
40
0
40
0
40
0
40
1
40
1
40
1
10
-334.14636292494146
20
11.480985360969056
30
0
10
-334.3008628133249
20
11.474085920933563
30
0
10
-334.52558178962011
20
11.474264870713535
30
0
0
SPLINE
5
514
100
AcDbEntity
8
0
100
AcDbSpline
70
0
71
2
72
6
73
3
74
0
42
0.000000001
43
0.0000000001
44
0.0000000001
40
0
40
0
40
0
40
1
40
1
40
1
10
-332.83905954842277
20
12.891461881035692
30
0
10
-332.98653122760481
20
12.891579316710137
30
0
10
-333.08492996082242
20
12.786320140303163
30
0
0
SPLINE
5
515
100
AcDbEntity
8
0
100
AcDbSpline
70
0
71
2
72
6
73
3
74
0
42
0.000000001
43
0.0000000001
44
0.0000000001
40
0
40
0
40
0
40
1
40
1
40
1
10
-333.08492996082242
20
12.786320140303163
30
0
10
-333.19035071453993
20
12.681067151767085
30
0
10
-333.19046255815243
20
12.54061779158263
30
0
0
SPLINE
5
516
100
AcDbEntity
8
0
100
AcDbSpline
70
0
71
2
72
6
73
3
74
0
42
0.000000001
43
0.0000000001
44
0.0000000001
40
0
40
0
40
0
40
1
40
1
40
1
10
-333.19046255815243
20
12.54061779158263
30
0
10
-333.19057440176488
20
12.400168431398173
30
0
10
-333.0853214134662
20
12.294747379657565
30
0
0
SPLINE
5
517
100
AcDbEntity
8
0
100
AcDbSpline
70
0
71
2
72
6
73
3
74
0
42
0.000000001
43
0.0000000001
44
0.0000000001
40
0
40
0
40
0
40
1
40
1
40
1
10
-333.0853214134662
20
12.294747379657565
30
0
10
-332.98709044590458
20
12.189332217764726
30
0
10
-332.83961876672254
20
12.18921478209028
30
0
0
LINE
5
518
100
AcDbEntity
8
0
100
AcDbLine
10
-332.83961876672254
20
12.18921478209028
30
0
11
-331.85647294740818
21
12.188431876565581
31
0
0
SPLINE
5
519
100
AcDbEntity
8
0
100
AcDbSpline
70
0
71
2
72
6
73
3
74
0
42
0.000000001
43
0.0000000001
44
0.0000000001
40
0
40
0
40
0
40
1
40
1
40
1
10
-331.85647294740818
20
12.188431876565581
30
0
10
-331.70900097020296
20
12.188314440653812
30
0
10
-331.6035802164854
20
12.293567429189892
30
0
0
SPLINE
5
520
100
AcDbEntity
8
0
100
AcDbSpline
70
0
71
2
72
6
73
3
74
0
42
0.000000001
43
0.0000000001
44
0.0000000001
40
0
40
0
40
0
40
1
40
1
40
1
10
-331.6035802164854
20
12.293567429189892
30
0
10
-331.50518178152828
20
12.39882630781106
30
0
10
-331.50506993791578
20
12.539275667995518
30
0
0
SPLINE
5
521
100
AcDbEntity
8
0
100
AcDbSpline
70
0
71
2
72
6
73
3
74
0
42
0.000000001
43
0.0000000001
44
0.0000000001
40
0
40
0
40
0
40
1
40
1
40
1
10
-331.50506993791578
20
12.539275667995518
30
0
10
-331.50495809430333
20
12.679725028179973
30
0
10
-331.60318876384173
20
12.785140189835488
30
0
0
SPLINE
5
522
100
AcDbEntity
8
0
100
AcDbSpline
70
0
71
2
72
6
73
3
74
0
42
0.000000001
43
0.0000000001
44
0.0000000001
40
0
40
0
40
0
40
1
40
1
40
1
10
-331.60318876384173
20
12.785140189835488
30
0
10
-331.70844175190319
20
12.890561539599226
30
0
10
-331.85591372910841
20
12.890678975510994
30
0
0
LINE
5
523
100
AcDbEntity
8
0
100
AcDbLine
10
-331.85591372910841
20
12.890678975510994
30
0
11
-332.83905954842277
21
12.891461881035692
31
0
0
LWPOLYLINE
5
524
100
AcDbEntity
8
0
100
AcDbPolyline
90
4
70
1
43
0.0
10
-331.54592972831415
20
14.140432523228325
10
-330.82963769335032
20
14.139862120567342
10
-330.82906729068941
20
14.8561541555312
10
-331.54535932565318
20
14.856724558192184
0
SPLINE
5
525
100
AcDbEntity
8
0
100
AcDbSpline
70
0
71
2
72
6
73
3
74
0
42
0.000000001
43
0.0000000001
44
0.0000000001
40
0
40
0
40
0
40
1
40
1
40
1
10
-334.79633775372838
20
15.393020711069134
30
0
10
-335.04914660206049
20
15.393222029571604
30
0
10
-335.2457085996765
20
15.477648822786012
30
0
0
SPLINE
5
526
100
AcDbEntity
8
0
100
AcDbSpline
70
0
71
2
72
6
73
3
74
0
42
0.000000001
43
0.0000000001
44
0.0000000001
40
0
40
0
40
0
40
1
40
1
40
1
10
-335.2457085996765
20
15.477648822786012
30
0
10
-335.44226500594266
20
15.569097040928689
30
0
10
-335.58259722823846
20
15.71668086198374
30
0
0
SPLINE
5
527
100
AcDbEntity
8
0
100
AcDbSpline
70
0
71
2
72
6
73
3
74
0
42
0.000000001
43
0.0000000001
44
0.0000000001
40
0
40
0
40
0
40
1
40
1
40
1
10
-335.58259722823846
20
15.71668086198374
30
0
10
-335.7229291525112
20
15.864264682801466
30
0
10
-335.79300284337057
20
16.053927687891417
30
0
0
SPLINE
5
528
100
AcDbEntity
8
0
100
AcDbSpline
70
0
71
2
72
6
73
3
74
0
42
0.000000001
43
0.0000000001
44
0.0000000001
40
0
40
0
40
0
40
1
40
1
40
1
10
-335.79300284337057
20
16.053927687891417
30
0
10
-335.87009296385446
20
16.250617709734279
30
0
10
-335.86992519819842
20
16.461292048034093
30
0
0
SPLINE
5
529
100
AcDbEntity
8
0
100
AcDbSpline
70
0
71
2
72
6
73
3
74
0
42
0.000000001
43
0.0000000001
44
0.0000000001
40
0
40
0
40
0
40
1
40
1
40
1
10
-335.86992519819842
20
16.461292048034093
30
0
10
-335.86975743301707
20
16.671965790287647
30
0
10
-335.79235974271745
20
16.861511359940479
30
0
0
SPLINE
5
530
100
AcDbEntity
8
0
100
AcDbSpline
70
0
71
2
72
6
73
3
74
0
42
0.000000001
43
0.0000000001
44
0.0000000001
40
0
40
0
40
0
40
1
40
1
40
1
10
-335.79235974271745
20
16.861511359940479
30
0
10
-335.72197848156776
20
17.058084542392479
30
0
10
-335.58141168547149
20
17.205444675985238
30
0
0
SPLINE
5
531
100
AcDbEntity
8
0
100
AcDbSpline
70
0
71
2
72
6
73
3
74
0
42
0.000000001
43
0.0000000001
44
0.0000000001
40
0
40
0
40
0
40
1
40
1
40
1
10
-335.58141168547149
20
17.205444675985238
30
0
10
-335.44084459182676
20
17.352804213294419
30
0
10
-335.24414838092645
20
17.436917844393879
30
0
0
SPLINE
5
532
100
AcDbEntity
8
0
100
AcDbSpline
70
0
71
2
72
6
73
3
74
0
42
0.000000001
43
0.0000000001
44
0.0000000001
40
0
40
0
40
0
40
1
40
1
40
1
10
-335.24414838092645
20
17.436917844393879
30
0
10
-335.04744657867604
20
17.528052900421606
30
0
10
-334.79463773034405
20
17.527851581919137
30
0
0
LINE
5
533
100
AcDbEntity
8
0
100
AcDbLine
10
-334.79463773034405
20
17.527851581919137
30
0
11
-331.85924550644268
21
17.525514049943606
31
0
0
SPLINE
5
534
100
AcDbEntity
8
0
100
AcDbSpline
70
0
71
2
72
6
73
3
74
0
42
0.000000001
43
0.0000000001
44
0.0000000001
40
0
40
0
40
0
40
1
40
1
40
1
10
-331.85924550644268
20
17.525514049943606
30
0
10
-331.60643636008751
20
17.525312731203815
30
0
10
-331.40987995382142
20
17.433864513061138
30
0
0
SPLINE
5
535
100
AcDbEntity
8
0
100
AcDbSpline
70
0
71
2
72
6
73
3
74
0
42
0.000000001
43
0.0000000001
44
0.0000000001
40
0
40
0
40
0
40
1
40
1
40
1
10
-331.40987995382142
20
17.433864513061138
30
0
10
-331.21331795620529
20
17.34943771984673
30
0
10
-331.07298603145796
20
17.20185449507526
30
0
0
SPLINE
5
536
100
AcDbEntity
8
0
100
AcDbSpline
70
0
71
2
72
6
73
3
74
0
42
0.000000001
43
0.0000000001
44
0.0000000001
40
0
40
0
40
0
40
1
40
1
40
1
10
-331.07298603145796
20
17.20185449507526
30
0
10
-330.93265410718521
20
17.054270674257538
30
0
10
-330.85556339112969
20
16.85758005589377
30
0
0
SPLINE
5
537
100
AcDbEntity
8
0
100
AcDbSpline
70
0
71
2
72
6
73
3
74
0
42
0.000000001
43
0.0000000001
44
0.0000000001
40
0
40
0
40
0
40
1
40
1
40
1
10
-330.85556339112969
20
16.85758005589377
30
0
10
-330.78548940224721
20
16.667917050566491
30
0
10
-330.78565716742855
20
16.457243308312936
30
0
0
SPLINE
5
538
100
AcDbEntity
8
0
100
AcDbSpline
70
0
71
2
72
6
73
3
74
0
42
0.000000001
43
0.0000000001
44
0.0000000001
40
0
40
0
40
0
40
1
40
1
40
1
10
-330.78565716742855
20
16.457243308312936
30
0
10
-330.78582493308465
20
16.246568970013122
30
0
10
-330.85620649178281
20
16.049996383844707
30
0
0
SPLINE
5
539
100
AcDbEntity
8
0
100
AcDbSpline
70
0
71
2
72
6
73
3
74
0
42
0.000000001
43
0.0000000001
44
0.0000000001
40
0
40
0
40
0
40
1
40
1
40
1
10
-330.85620649178281
20
16.049996383844707
30
0
10
-330.93360477812865
20
15.860450814666525
30
0
10
-331.07417157422492
20
15.71309068107376
30
0
0
SPLINE
5
540
100
AcDbEntity
8
0
100
AcDbSpline
70
0
71
2
72
6
73
3
74
0
42
0.000000001
43
0.0000000001
44
0.0000000001
40
0
40
0
40
0
40
1
40
1
40
1
10
-331.07417157422492
20
15.71309068107376
30
0
10
-331.21473837032113
20
15.565730547480999
30
0
10
-331.41144017257147
20
15.474595491453274
30
0
0
SPLINE
5
541
100
AcDbEntity
8
0
100
AcDbSpline
70
0
71
2
72
6
73
3
74
0
42
0.000000001
43
0.0000000001
44
0.0000000001
40
0
40
0
40
0
40
1
40
1
40
1
10
-331.41144017257147
20
15.474595491453274
30
0
10
-331.60813638347184
20
15.390481860353816
30
0
10
-331.86094552982701
20
15.390683179093607
30
0
0
LINE
5
542
100
AcDbEntity
8
0
100
AcDbLine
10
-331.86094552982695
20
15.390683179093607
30
0
11
-334.79633775372838
21
15.393020711069134
31
0
0
SPLINE
5
543
100
AcDbEntity
8
0
100
AcDbSpline
70
0
71
2
72
6
73
3
74
0
42
0.000000001
43
0.0000000001
44
0.0000000001
40
0
40
0
40
0
40
1
40
1
40
1
10
-331.86037512669139
20
16.106975810103723
30
0
10
-331.70588053246536
20
16.10685278189267
30
0
10
-331.60046537104722
20
16.205083153407962
30
0
0
SPLINE
5
544
100
AcDbEntity
8
0
100
AcDbSpline
70
0
71
2
72
6
73
3
74
0
42
0.000000001
43
0.0000000001
44
0.0000000001
40
0
40
0
40
0
40
1
40
1
40
1
10
-331.60046537104722
20
16.205083153407962
30
0
10
-331.50207252862663
20
16.303319116985215
30
0
10
-331.50194950041561
20
16.457813711211244
30
0
0
SPLINE
5
545
100
AcDbEntity
8
0
100
AcDbSpline
70
0
71
2
72
6
73
3
74
0
42
0.000000001
43
0.0000000001
44
0.0000000001
40
0
40
0
40
0
40
1
40
1
40
1
10
-331.50194950041561
20
16.457813711211244
30
0
10
-331.50182647267917
20
16.612307709391018
30
0
10
-331.60006273404224
20
16.710700850072005
30
0
0
SPLINE
5
546
100
AcDbEntity
8
0
100
AcDbSpline
70
0
71
2
72
6
73
3
74
0
42
0.000000001
43
0.0000000001
44
0.0000000001
40
0
40
0
40
0
40
1
40
1
40
1
10
-331.60006273404224
20
16.710700850072005
30
0
10
-331.70532131440297
20
16.809099582814952
30
0
10
-331.85981590862895
20
16.809222611026009
30
0
0
LINE
5
547
100
AcDbEntity
8
0
100
AcDbLine
10
-331.85981590862889
20
16.809222611026009
30
0
11
-334.79520813253032
21
16.811560143001536
31
0
0
SPLINE
5
548
100
AcDbEntity
8
0
100
AcDbSpline
70
0
71
2
72
6
73
3
74
0
42
0.000000001
43
0.0000000001
44
0.0000000001
40
0
40
0
40
0
40
1
40
1
40
1
10
-334.79520813253038
20
16.811560143001536
30
0
10
-334.9497024287333
20
16.811683170975268
30
0
10
-335.04809527162848
20
16.713446611351756
30
0
0
SPLINE
5
549
100
AcDbEntity
8
0
100
AcDbSpline
70
0
71
2
72
6
73
3
74
0
42
0.000000001
43
0.0000000001
44
0.0000000001
40
0
40
0
40
0
40
1
40
1
40
1
10
-335.04809527162848
20
16.713446611351756
30
0
10
-335.15351073154443
20
16.615215644027529
30
0
10
-335.15363375928081
20
16.460721645847759
30
0
0
SPLINE
5
550
100
AcDbEntity
8
0
100
AcDbSpline
70
0
71
2
72
6
73
3
74
0
42
0.000000001
43
0.0000000001
44
0.0000000001
40
0
40
0
40
0
40
1
40
1
40
1
10
-335.15363375928081
20
16.460721645847759
30
0
10
-335.15375678749189
20
16.306227051621725
30
0
10
-335.04849790863341
20
16.207828914687713
30
0
0
SPLINE
5
551
100
AcDbEntity
8
0
100
AcDbSpline
70
0
71
2
72
6
73
3
74
0
42
0.000000001
43
0.0000000001
44
0.0000000001
40
0
40
0
40
0
40
1
40
1
40
1
10
-335.04849790863341
20
16.207828914687713
30
0
10
-334.95026164679575
20
16.109436370052983
30
0
10
-334.79576735059277
20
16.109313342079254
30
0
0
LINE
5
552
100
AcDbEntity
8
0
100
AcDbLine
10
-334.79576735059283
20
16.109313342079254
30
0
11
-331.86037512669139
21
16.106975810103723
31
0
0
LWPOLYLINE
5
553
100
AcDbEntity
8
0
100
AcDbPolyline
90
9
70
1
43
0.0
10
-293.48980792084592
20
12.893307301116263
10
-289.16496743575982
20
11.63284029621693
10
-289.1643634802524
20
12.391266841212998
10
-293.44710271036695
20
13.609565484973247
10
-294.16339444730761
20
13.610135887396908
10
-294.16509447069205
20
11.475305016546907
10
-292.91509486702722
20
11.474309608158491
10
-292.91459157077111
20
12.106331728988547
10
-293.49043424555049
20
12.106790288037049
0
LWPOLYLINE
5
554
100
AcDbEntity
8
0
100
AcDbPolyline
90
4
70
1
43
0.0
10
-289.87926306164758
20
14.14043252322829
10
-289.16297102668375
20
14.139862120567306
10
-289.16240062402272
20
14.856154155531165
10
-289.87869265898661
20
14.856724558192148
0
SPLINE
5
555
100
AcDbEntity
8
0
100
AcDbSpline
70
0
71
2
72
6
73
3
74
0
42
0.000000001
43
0.0000000001
44
0.0000000001
40
0
40
0
40
0
40
1
40
1
40
1
10
-293.12967108706181
20
15.393020711069099
30
0
10
-293.3824799353938
20
15.393222029571568
30
0
10
-293.57904193300993
20
15.477648822785977
30
0
0
SPLINE
5
556
100
AcDbEntity
8
0
100
AcDbSpline
70
0
71
2
72
6
73
3
74
0
42
0.000000001
43
0.0000000001
44
0.0000000001
40
0
40
0
40
0
40
1
40
1
40
1
10
-293.57904193300993
20
15.477648822785977
30
0
10
-293.77559833927603
20
15.569097040928654
30
0
10
-293.91593056157188
20
15.716680861983704
30
0
0
SPLINE
5
557
100
AcDbEntity
8
0
100
AcDbSpline
70
0
71
2
72
6
73
3
74
0
42
0.000000001
43
0.0000000001
44
0.0000000001
40
0
40
0
40
0
40
1
40
1
40
1
10
-293.91593056157188
20
15.716680861983704
30
0
10
-294.05626248584451
20
15.86426468280143
30
0
10
-294.12633617670394
20
16.053927687891381
30
0
0
SPLINE
5
558
100
AcDbEntity
8
0
100
AcDbSpline
70
0
71
2
72
6
73
3
74
0
42
0.000000001
43
0.0000000001
44
0.0000000001
40
0
40
0
40
0
40
1
40
1
40
1
10
-294.12633617670394
20
16.053927687891381
30
0
10
-294.20342629718789
20
16.250617709734243
30
0
10
-294.20325853153184
20
16.461292048034057
30
0
0
SPLINE
5
559
100
AcDbEntity
8
0
100
AcDbSpline
70
0
71
2
72
6
73
3
74
0
42
0.000000001
43
0.0000000001
44
0.0000000001
40
0
40
0
40
0
40
1
40
1
40
1
10
-294.20325853153184
20
16.461292048034057
30
0
10
-294.20309076635044
20
16.671965790287611
30
0
10
-294.12569307605082
20
16.861511359940444
30
0
0
SPLINE
5
560
100
AcDbEntity
8
0
100
AcDbSpline
70
0
71
2
72
6
73
3
74
0
42
0.000000001
43
0.0000000001
44
0.0000000001
40
0
40
0
40
0
40
1
40
1
40
1
10
-294.12569307605082
20
16.861511359940444
30
0
10
-294.05531181490113
20
17.058084542392443
30
0
10
-293.91474501880492
20
17.205444675985202
30
0
0
SPLINE
5
561
100
AcDbEntity
8
0
100
AcDbSpline
70
0
71
2
72
6
73
3
74
0
42
0.000000001
43
0.0000000001
44
0.0000000001
40
0
40
0
40
0
40
1
40
1
40
1
10
-293.91474501880492
20
17.205444675985202
30
0
10
-293.77417792516019
20
17.352804213294384
30
0
10
-293.57748171425982
20
17.436917844393843
30
0
0
SPLINE
5
562
100
AcDbEntity
8
0
100
AcDbSpline
70
0
71
2
72
6
73
3
74
0
42
0.000000001
43
0.0000000001
44
0.0000000001
40
0
40
0
40
0
40
1
40
1
40
1
10
-293.57748171425982
20
17.436917844393843
30
0
10
-293.38077991200947
20
17.528052900421571
30
0
10
-293.12797106367742
20
17.527851581919101
30
0
0
LINE
5
563
100
AcDbEntity
8
0
100
AcDbLine
10
-293.12797106367742
20
17.527851581919101
30
0
11
-290.19257883977605
21
17.52551404994357
31
0
0
SPLINE
5
564
100
AcDbEntity
8
0
100
AcDbSpline
70
0
71
2
72
6
73
3
74
0
42
0.000000001
43
0.0000000001
44
0.0000000001
40
0
40
0
40
0
40
1
40
1
40
1
10
-290.19257883977605
20
17.52551404994357
30
0
10
-289.93976969342089
20
17.52531273120378
30
0
10
-289.74321328715473
20
17.433864513061103
30
0
0
SPLINE
5
565
100
AcDbEntity
8
0
100
AcDbSpline
70
0
71
2
72
6
73
3
74
0
42
0.000000001
43
0.0000000001
44
0.0000000001
40
0
40
0
40
0
40
1
40
1
40
1
10
-289.74321328715473
20
17.433864513061103
30
0
10
-289.54665128953866
20
17.349437719846694
30
0
10
-289.40631936479133
20
17.201854495075224
30
0
0
SPLINE
5
566
100
AcDbEntity
8
0
100
AcDbSpline
70
0
71
2
72
6
73
3
74
0
42
0.000000001
43
0.0000000001
44
0.0000000001
40
0
40
0
40
0
40
1
40
1
40
1
10
-289.40631936479133
20
17.201854495075224
30
0
10
-289.26598744051864
20
17.054270674257502
30
0
10
-289.18889672446306
20
16.857580055893735
30
0
0
SPLINE
5
567
100
AcDbEntity
8
0
100
AcDbSpline
70
0
71
2
72
6
73
3
74
0
42
0.000000001
43
0.0000000001
44
0.0000000001
40
0
40
0
40
0
40
1
40
1
40
1
10
-289.18889672446306
20
16.857580055893735
30
0
10
-289.11882273558058
20
16.667917050566455
30
0
10
-289.11899050076198
20
16.457243308312901
30
0
0
SPLINE
5
568
100
AcDbEntity
8
0
100
AcDbSpline
70
0
71
2
72
6
73
3
74
0
42
0.000000001
43
0.0000000001
44
0.0000000001
40
0
40
0
40
0
40
1
40
1
40
1
10
-289.11899050076198
20
16.457243308312901
30
0
10
-289.11915826641803
20
16.246568970013087
30
0
10
-289.18953982511619
20
16.049996383844672
30
0
0
SPLINE
5
569
100
AcDbEntity
8
0
100
AcDbSpline
70
0
71
2
72
6
73
3
74
0
42
0.000000001
43
0.0000000001
44
0.0000000001
40
0
40
0
40
0
40
1
40
1
40
1
10
-289.18953982511619
20
16.049996383844672
30
0
10
-289.26693811146208
20
15.860450814666489
30
0
10
-289.40750490755829
20
15.713090681073725
30
0
0
SPLINE
5
570
100
AcDbEntity
8
0
100
AcDbSpline
70
0
71
2
72
6
73
3
74
0
42
0.000000001
43
0.0000000001
44
0.0000000001
40
0
40
0
40
0
40
1
40
1
40
1
10
-289.40750490755829
20
15.713090681073725
30
0
10
-289.5480717036545
20
15.565730547480964
30
0
10
-289.74477350590485
20
15.474595491453238
30
0
0
SPLINE
5
571
100
AcDbEntity
8
0
100
AcDbSpline
70
0
71
2
72
6
73
3
74
0
42
0.000000001
43
0.0000000001
44
0.0000000001
40
0
40
0
40
0
40
1
40
1
40
1
10
-289.74477350590485
20
15.474595491453238
30
0
10
-289.94146971680527
20
15.390481860353781
30
0
10
-290.19427886316043
20
15.390683179093571
30
0
0
LINE
5
572
100
AcDbEntity
8
0
100
AcDbLine
10
-290.19427886316043
20
15.390683179093571
30
0
11
-293.12967108706181
21
15.393020711069099
31
0
0
SPLINE
5
573
100
AcDbEntity
8
0
100
AcDbSpline
70
0
71
2
72
6
73
3
74
0
42
0.000000001
43
0.0000000001
44
0.0000000001
40
0
40
0
40
0
40
1
40
1
40
1
10
-290.19370846002477
20
16.106975810103688
30
0
10
-290.03921386579873
20
16.106852781892634
30
0
10
-289.93379870438054
20
16.205083153407926
30
0
0
SPLINE
5
574
100
AcDbEntity
8
0
100
AcDbSpline
70
0
71
2
72
6
73
3
74
0
42
0.000000001
43
0.0000000001
44
0.0000000001
40
0
40
0
40
0
40
1
40
1
40
1
10
-289.93379870438054
20
16.205083153407926
30
0
10
-289.83540586196006
20
16.303319116985179
30
0
10
-289.83528283374898
20
16.457813711211209
30
0
0
SPLINE
5
575
100
AcDbEntity
8
0
100
AcDbSpline
70
0
71
2
72
6
73
3
74
0
42
0.000000001
43
0.0000000001
44
0.0000000001
40
0
40
0
40
0
40
1
40
1
40
1
10
-289.83528283374898
20
16.457813711211209
30
0
10
-289.8351598060126
20
16.612307709390983
30
0
10
-289.93339606737561
20
16.710700850071969
30
0
0
SPLINE
5
576
100
AcDbEntity
8
0
100
AcDbSpline
70
0
71
2
72
6
73
3
74
0
42
0.000000001
43
0.0000000001
44
0.0000000001
40
0
40
0
40
0
40
1
40
1
40
1
10
-289.93339606737561
20
16.710700850071969
30
0
10
-290.03865464773634
20
16.809099582814916
30
0
10
-290.19314924196237
20
16.809222611025973
30
0
0
LINE
5
577
100
AcDbEntity
8
0
100
AcDbLine
10
-290.19314924196237
20
16.809222611025973
30
0
11
-293.1285414658638
21
16.8115601430015
31
0
0
SPLINE
5
578
100
AcDbEntity
8
0
100
AcDbSpline
70
0
71
2
72
6
73
3
74
0
42
0.000000001
43
0.0000000001
44
0.0000000001
40
0
40
0
40
0
40
1
40
1
40
1
10
-293.1285414658638
20
16.8115601430015
30
0
10
-293.28303576206667
20
16.811683170975233
30
0
10
-293.38142860496185
20
16.713446611351721
30
0
0
SPLINE
5
579
100
AcDbEntity
8
0
100
AcDbSpline
70
0
71
2
72
6
73
3
74
0
42
0.000000001
43
0.0000000001
44
0.0000000001
40
0
40
0
40
0
40
1
40
1
40
1
10
-293.38142860496185
20
16.713446611351721
30
0
10
-293.4868440648778
20
16.615215644027494
30
0
10
-293.48696709261424
20
16.460721645847723
30
0
0
SPLINE
5
580
100
AcDbEntity
8
0
100
AcDbSpline
70
0
71
2
72
6
73
3
74
0
42
0.000000001
43
0.0000000001
44
0.0000000001
40
0
40
0
40
0
40
1
40
1
40
1
10
-293.48696709261424
20
16.460721645847723
30
0
10
-293.48709012082531
20
16.30622705162169
30
0
10
-293.38183124196678
20
16.207828914687678
30
0
0
SPLINE
5
581
100
AcDbEntity
8
0
100
AcDbSpline
70
0
71
2
72
6
73
3
74
0
42
0.000000001
43
0.0000000001
44
0.0000000001
40
0
40
0
40
0
40
1
40
1
40
1
10
-293.38183124196678
20
16.207828914687678
30
0
10
-293.28359498012907
20
16.109436370052947
30
0
10
-293.1291006839262
20
16.109313342079219
30
0
0
LINE
5
582
100
AcDbEntity
8
0
100
AcDbLine
10
-293.1291006839262
20
16.109313342079219
30
0
11
-290.19370846002477
21
16.106975810103688
31
0
0
LINE
5
583
100
AcDbEntity
8
0
100
AcDbLine
10
-252.49693469144279
20
13.350304422044099
30
0
11
-250.39786530086332
21
12.534025772825848
31
0
0
LINE
5
584
100
AcDbEntity
8
0
100
AcDbLine
10
-250.39786530086332
20
12.534025772825848
30
0
11
-250.38380918024632
21
12.548059822506175
31
0
0
SPLINE
5
585
100
AcDbEntity
8
0
100
AcDbSpline
70
0
71
2
72
6
73
3
74
0
42
0.000000001
43
0.0000000001
44
0.0000000001
40
0
40
0
40
0
40
1
40
1
40
1
10
-250.38380918024632
20
12.548059822506175
30
0
10
-250.41187109149874
20
12.583194382263221
30
0
10
-250.42586010571097
20
12.653430246716697
30
0
0
SPLINE
5
586
100
AcDbEntity
8
0
100
AcDbSpline
70
0
71
2
72
6
73
3
74
0
42
0.000000001
43
0.0000000001
44
0.0000000001
40
0
40
0
40
0
40
1
40
1
40
1
10
-250.42586010571097
20
12.653430246716697
30
0
10
-250.44686584685883
20
12.730694022229795
30
0
10
-250.44677077966958
20
12.850076127398147
30
0
0
SPLINE
5
587
100
AcDbEntity
8
0
100
AcDbSpline
70
0
71
2
72
6
73
3
74
0
42
0.000000001
43
0.0000000001
44
0.0000000001
40
0
40
0
40
0
40
1
40
1
40
1
10
-250.44677077966958
20
12.850076127398147
30
0
10
-250.44661979067405
20
13.039682912658728
30
0
10
-250.35519923529273
20
13.201127127652967
30
0
0
SPLINE
5
588
100
AcDbEntity
8
0
100
AcDbSpline
70
0
71
2
72
6
73
3
74
0
42
0.000000001
43
0.0000000001
44
0.0000000001
40
0
40
0
40
0
40
1
40
1
40
1
10
-250.35519923529273
20
13.201127127652967
30
0
10
-250.26377838212557
20
13.362571044386753
30
0
10
-250.12325632347432
20
13.45375143390573
30
0
0
SPLINE
5
589
100
AcDbEntity
8
0
100
AcDbSpline
70
0
71
2
72
6
73
3
74
0
42
0.000000001
43
0.0000000001
44
0.0000000001
40
0
40
0
40
0
40
1
40
1
40
1
10
-250.12325632347432
20
13.45375143390573
30
0
10
-250.04596988121563
20
13.5028470468532
30
0
10
-249.96870051340323
20
13.530875405021888
30
0
0
SPLINE
5
590
100
AcDbEntity
8
0
100
AcDbSpline
70
0
71
2
72
6
73
3
74
0
42
0.000000001
43
0.0000000001
44
0.0000000001
40
0
40
0
40
0
40
1
40
1
40
1
10
-249.96870051340323
20
13.530875405021888
30
0
10
-249.89143084756773
20
13.558903762953252
30
0
10
-249.76500964674116
20
13.579870656741249
30
0
0
SPLINE
5
591
100
AcDbEntity
8
0
100
AcDbSpline
70
0
71
2
72
6
73
3
74
0
42
0.000000001
43
0.0000000001
44
0.0000000001
40
0
40
0
40
0
40
1
40
1
40
1
10
-249.76500964674116
20
13.579870656741249
30
0
10
-249.63859403821391
20
13.593814933508462
30
0
10
-249.44195934165637
20
13.600680969471775
30
0
0
SPLINE
5
592
100
AcDbEntity
8
0
100
AcDbSpline
70
0
71
2
72
6
73
3
74
0
42
0.000000001
43
0.0000000001
44
0.0000000001
40
0
40
0
40
0
40
1
40
1
40
1
10
-249.44195934165637
20
13.600680969471775
30
0
10
-249.25234696433387
20
13.60755229947392
30
0
10
-248.95740330794649
20
13.607317427887706
30
0
0
SPLINE
5
593
100
AcDbEntity
8
0
100
AcDbSpline
70
0
71
2
72
6
73
3
74
0
42
0.000000001
43
0.0000000001
44
0.0000000001
40
0
40
0
40
0
40
1
40
1
40
1
10
-248.95740330794649
20
13.607317427887706
30
0
10
-248.71161677861213
20
13.6071217014472
30
0
10
-248.5501054574504
20
13.599970762176525
30
0
0
SPLINE
5
594
100
AcDbEntity
8
0
100
AcDbSpline
70
0
71
2
72
6
73
3
74
0
42
0.000000001
43
0.0000000001
44
0.0000000001
40
0
40
0
40
0
40
1
40
1
40
1
10
-248.5501054574504
20
13.599970762176525
30
0
10
-248.39561675354676
20
13.592825117182006
30
0
10
-248.29029076875813
20
13.578696298335537
30
0
0
SPLINE
5
595
100
AcDbEntity
8
0
100
AcDbSpline
70
0
71
2
72
6
73
3
74
0
42
0.000000001
43
0.0000000001
44
0.0000000001
40
0
40
0
40
0
40
1
40
1
40
1
10
-248.29029076875813
20
13.578696298335537
30
0
10
-248.17794805727107
20
13.557539270406318
30
0
10
-248.10072901896564
20
13.522365565503565
30
0
0
SPLINE
5
596
100
AcDbEntity
8
0
100
AcDbSpline
70
0
71
2
72
6
73
3
74
0
42
0.000000001
43
0.0000000001
44
0.0000000001
40
0
40
0
40
0
40
1
40
1
40
1
10
-248.10072901896564
20
13.522365565503565
30
0
10
-248.02350409057513
20
13.494214179361146
30
0
10
-247.93927361984748
20
13.444989648117534
30
0
0
SPLINE
5
597
100
AcDbEntity
8
0
100
AcDbSpline
70
0
71
2
72
6
73
3
74
0
42
0.000000001
43
0.0000000001
44
0.0000000001
40
0
40
0
40
0
40
1
40
1
40
1
10
-247.93927361984748
20
13.444989648117534
30
0
10
-247.70764387014407
20
13.304355745853819
30
0
10
-247.58142958011928
20
13.065491174289008
30
0
0
SPLINE
5
598
100
AcDbEntity
8
0
100
AcDbSpline
70
0
71
2
72
6
73
3
74
0
42
0.000000001
43
0.0000000001
44
0.0000000001
40
0
40
0
40
0
40
1
40
1
40
1
10
-247.58142958011928
20
13.065491174289008
30
0
10
-247.45520940000941
20
12.833648921484533
30
0
10
-247.45544427159561
20
12.538705265097171
30
0
0
SPLINE
5
599
100
AcDbEntity
8
0
100
AcDbSpline
70
0
71
2
72
6
73
3
74
0
42
0.000000001
43
0.0000000001
44
0.0000000001
40
0
40
0
40
0
40
1
40
1
40
1
10
-247.45544427159561
20
12.538705265097171
30
0
10
-247.45567914318178
20
12.243761608709814
30
0
10
-247.58226840745021
20
12.012120674882453
30
0
0
SPLINE
5
600
100
AcDbEntity
8
0
100
AcDbSpline
70
0
71
2
72
6
73
3
74
0
42
0.000000001
43
0.0000000001
44
0.0000000001
40
0
40
0
40
0
40
1
40
1
40
1
10
-247.58226840745021
20
12.012120674882453
30
0
10
-247.71587999047895
20
11.780485631140184
30
0
10
-247.94071081050521
20
11.640215071724135
30
0
0
SPLINE
5
601
100
AcDbEntity
8
0
100
AcDbSpline
70
0
71
2
72
6
73
3
74
0
42
0.000000001
43
0.0000000001
44
0.0000000001
40
0
40
0
40
0
40
1
40
1
40
1
10
-247.94071081050521
20
11.640215071724135
30
0
10
-248.02502516417957
20
11.584102284806278
30
0
10
-248.10230042207704
20
11.549051607877256
30
0
0
SPLINE
5
602
100
AcDbEntity
8
0
100
AcDbSpline
70
0
71
2
72
6
73
3
74
0
42
0.000000001
43
0.0000000001
44
0.0000000001
40
0
40
0
40
0
40
1
40
1
40
1
10
-248.10230042207704
20
11.549051607877256
30
0
10
-248.17956978988943
20
11.521023249708568
30
0
10
-248.2919404623982
20
11.507067788580107
30
0
0
SPLINE
5
603
100
AcDbEntity
8
0
100
AcDbSpline
70
0
71
2
72
6
73
3
74
0
42
0.000000001
43
0.0000000001
44
0.0000000001
40
0
40
0
40
0
40
1
40
1
40
1
10
-248.2919404623982
20
11.507067788580107
30
0
10
-248.39729440820864
20
11.486084118368897
30
0
10
-248.55179429659219
20
11.479184678333407
30
0
0
SPLINE
5
604
100
AcDbEntity
8
0
100
AcDbSpline
70
0
71
2
72
6
73
3
74
0
42
0.000000001
43
0.0000000001
44
0.0000000001
40
0
40
0
40
0
40
1
40
1
40
1
10
-248.55179429659219
20
11.479184678333407
30
0
10
-248.71331680199648
20
11.472290830597201
30
0
10
-248.95910333133088
20
11.472486557037707
30
0
0
SPLINE
5
605
100
AcDbEntity
8
0
100
AcDbSpline
70
0
71
2
72
6
73
3
74
0
42
0.000000001
43
0.0000000001
44
0.0000000001
40
0
40
0
40
0
40
1
40
1
40
1
10
-248.95910333133088
20
11.472486557037707
30
0
10
-249.19084492464677
20
11.472671099116965
30
0
10
-249.33831101164827
20
11.479811002800631
30
0
0
SPLINE
5
606
100
AcDbEntity
8
0
100
AcDbSpline
70
0
71
2
72
6
73
3
74
0
42
0.000000001
43
0.0000000001
44
0.0000000001
40
0
40
0
40
0
40
1
40
1
40
1
10
-249.33831101164827
20
11.479811002800631
30
0
10
-249.49279971567054
20
11.486956498783584
30
0
10
-249.60514801945689
20
11.501090909692016
30
0
0
SPLINE
5
607
100
AcDbEntity
8
0
100
AcDbSpline
70
0
71
2
72
6
73
3
74
0
42
0.000000001
43
0.0000000001
44
0.0000000001
40
0
40
0
40
0
40
1
40
1
40
1
10
-249.60514801945689
20
11.501090909692016
30
0
10
-249.71047400424553
20
11.515219728538487
30
0
10
-249.79472125163369
20
11.543376706742867
30
0
0
SPLINE
5
608
100
AcDbEntity
8
0
100
AcDbSpline
70
0
71
2
72
6
73
3
74
0
42
0.000000001
43
0.0000000001
44
0.0000000001
40
0
40
0
40
0
40
1
40
1
40
1
10
-249.79472125163369
20
11.543376706742867
30
0
10
-249.88599081801954
20
11.571539277009208
30
0
10
-249.98427770715
20
11.60673005683295
30
0
0
LINE
5
609
100
AcDbEntity
8
0
100
AcDbLine
10
-249.98427770715
20
11.60673005683295
30
0
11
-252.49757220003397
21
12.549743068992695
31
0
0
LINE
5
610
100
AcDbEntity
8
0
100
AcDbLine
10
-252.49757220003397
20
12.549743068992695
30
0
11
-252.49693469144279
21
13.350304422044099
31
0
0
SPLINE
5
611
100
AcDbEntity
8
0
100
AcDbSpline
70
0
71
2
72
6
73
3
74
0
42
0.000000001
43
0.0000000001
44
0.0000000001
40
0
40
0
40
0
40
1
40
1
40
1
10
-249.45656908803653
20
12.89142273588995
30
0
10
-249.61808600126022
20
12.891551356162967
30
0
10
-249.71648413843155
20
12.786292179281345
30
0
0
SPLINE
5
612
100
AcDbEntity
8
0
100
AcDbSpline
70
0
71
2
72
6
73
3
74
0
42
0.000000001
43
0.0000000001
44
0.0000000001
40
0
40
0
40
0
40
1
40
1
40
1
10
-249.71648413843155
20
12.786292179281345
30
0
10
-249.81488287117452
20
12.681033598920628
30
0
10
-249.81499471478699
20
12.540584238736173
30
0
0
SPLINE
5
613
100
AcDbEntity
8
0
100
AcDbSpline
70
0
71
2
72
6
73
3
74
0
42
0.000000001
43
0.0000000001
44
0.0000000001
40
0
40
0
40
0
40
1
40
1
40
1
10
-249.81499471478699
20
12.540584238736173
30
0
10
-249.81510655839946
20
12.400134878551716
30
0
10
-249.71687559107525
20
12.294719418635747
30
0
0
SPLINE
5
614
100
AcDbEntity
8
0
100
AcDbSpline
70
0
71
2
72
6
73
3
74
0
42
0.000000001
43
0.0000000001
44
0.0000000001
40
0
40
0
40
0
40
1
40
1
40
1
10
-249.71687559107525
20
12.294719418635747
30
0
10
-249.61864521955994
20
12.189304257217554
30
0
10
-249.45712830633627
20
12.189175636944539
30
0
0
LINE
5
615
100
AcDbEntity
8
0
100
AcDbLine
10
-249.45712830633627
20
12.189175636944539
30
0
11
-248.53016223109574
21
12.18843746886483
31
0
0
SPLINE
5
616
100
AcDbEntity
8
0
100
AcDbSpline
70
0
71
2
72
6
73
3
74
0
42
0.000000001
43
0.0000000001
44
0.0000000001
40
0
40
0
40
0
40
1
40
1
40
1
10
-248.53016223109574
20
12.188437468864832
30
0
10
-248.36864531787202
20
12.188308848591817
30
0
10
-248.2702468831522
20
12.293567429189856
30
0
0
SPLINE
5
617
100
AcDbEntity
8
0
100
AcDbSpline
70
0
71
2
72
6
73
3
74
0
42
0.000000001
43
0.0000000001
44
0.0000000001
40
0
40
0
40
0
40
1
40
1
40
1
10
-248.2702468831522
20
12.293567429189856
30
0
10
-248.17184844819508
20
12.398826307811024
30
0
10
-248.17173660458258
20
12.539275667995483
30
0
0
SPLINE
5
618
100
AcDbEntity
8
0
100
AcDbSpline
70
0
71
2
72
6
73
3
74
0
42
0.000000001
43
0.0000000001
44
0.0000000001
40
0
40
0
40
0
40
1
40
1
40
1
10
-248.17173660458258
20
12.539275667995483
30
0
10
-248.1716247609701
20
12.679725028179938
30
0
10
-248.26985543050853
20
12.785140189835452
30
0
0
SPLINE
5
619
100
AcDbEntity
8
0
100
AcDbSpline
70
0
71
2
72
6
73
3
74
0
42
0.000000001
43
0.0000000001
44
0.0000000001
40
0
40
0
40
0
40
1
40
1
40
1
10
-248.26985543050853
20
12.785140189835452
30
0
10
-248.36808609957231
20
12.890555947537228
30
0
10
-248.52960301279597
20
12.890684567810244
30
0
0
LINE
5
620
100
AcDbEntity
8
0
100
AcDbLine
10
-248.52960301279603
20
12.890684567810247
30
0
11
-249.45656908803653
21
12.89142273588995
31
0
0
LWPOLYLINE
5
621
100
AcDbEntity
8
0
100
AcDbPolyline
90
4
70
1
43
0.0
10
-248.21259639498098
20
14.14043252322829
10
-247.49630436001712
20
14.139862120567306
10
-247.49573395735612
20
14.856154155531165
10
-248.21202599231998
20
14.856724558192148
0
SPLINE
5
622
100
AcDbEntity
8
0
100
AcDbSpline
70
0
71
2
72
6
73
3
74
0
42
0.000000001
43
0.0000000001
44
0.0000000001
40
0
40
0
40
0
40
1
40
1
40
1
10
-251.46300442039521
20
15.393020711069099
30
0
10
-251.71581326872723
20
15.393222029571568
30
0
10
-251.9123752663433
20
15.477648822785977
30
0
0
SPLINE
5
623
100
AcDbEntity
8
0
100
AcDbSpline
70
0
71
2
72
6
73
3
74
0
42
0.000000001
43
0.0000000001
44
0.0000000001
40
0
40
0
40
0
40
1
40
1
40
1
10
-251.9123752663433
20
15.477648822785977
30
0
10
-252.10893167260946
20
15.569097040928654
30
0
10
-252.24926389490525
20
15.716680861983704
30
0
0
SPLINE
5
624
100
AcDbEntity
8
0
100
AcDbSpline
70
0
71
2
72
6
73
3
74
0
42
0.000000001
43
0.0000000001
44
0.0000000001
40
0
40
0
40
0
40
1
40
1
40
1
10
-252.24926389490525
20
15.716680861983704
30
0
10
-252.38959581917794
20
15.86426468280143
30
0
10
-252.45966951003734
20
16.053927687891381
30
0
0
SPLINE
5
625
100
AcDbEntity
8
0
100
AcDbSpline
70
0
71
2
72
6
73
3
74
0
42
0.000000001
43
0.0000000001
44
0.0000000001
40
0
40
0
40
0
40
1
40
1
40
1
10
-252.45966951003734
20
16.053927687891381
30
0
10
-252.53675963052129
20
16.250617709734243
30
0
10
-252.53659186486522
20
16.461292048034057
30
0
0
SPLINE
5
626
100
AcDbEntity
8
0
100
AcDbSpline
70
0
71
2
72
6
73
3
74
0
42
0.000000001
43
0.0000000001
44
0.0000000001
40
0
40
0
40
0
40
1
40
1
40
1
10
-252.53659186486522
20
16.461292048034057
30
0
10
-252.53642409968381
20
16.671965790287611
30
0
10
-252.45902640938422
20
16.861511359940444
30
0
0
SPLINE
5
627
100
AcDbEntity
8
0
100
AcDbSpline
70
0
71
2
72
6
73
3
74
0
42
0.000000001
43
0.0000000001
44
0.0000000001
40
0
40
0
40
0
40
1
40
1
40
1
10
-252.45902640938422
20
16.861511359940444
30
0
10
-252.3886451482345
20
17.058084542392443
30
0
10
-252.24807835213829
20
17.205444675985202
30
0
0
SPLINE
5
628
100
AcDbEntity
8
0
100
AcDbSpline
70
0
71
2
72
6
73
3
74
0
42
0.000000001
43
0.0000000001
44
0.0000000001
40
0
40
0
40
0
40
1
40
1
40
1
10
-252.24807835213829
20
17.205444675985202
30
0
10
-252.10751125849359
20
17.352804213294384
30
0
10
-251.91081504759322
20
17.436917844393843
30
0
0
SPLINE
5
629
100
AcDbEntity
8
0
100
AcDbSpline
70
0
71
2
72
6
73
3
74
0
42
0.000000001
43
0.0000000001
44
0.0000000001
40
0
40
0
40
0
40
1
40
1
40
1
10
-251.91081504759322
20
17.436917844393843
30
0
10
-251.71411324534287
20
17.528052900421571
30
0
10
-251.46130439701082
20
17.527851581919101
30
0
0
LINE
5
630
100
AcDbEntity
8
0
100
AcDbLine
10
-251.46130439701082
20
17.527851581919101
30
0
11
-248.52591217310942
21
17.52551404994357
31
0
0
SPLINE
5
631
100
AcDbEntity
8
0
100
AcDbSpline
70
0
71
2
72
6
73
3
74
0
42
0.000000001
43
0.0000000001
44
0.0000000001
40
0
40
0
40
0
40
1
40
1
40
1
10
-248.52591217310942
20
17.52551404994357
30
0
10
-248.27310302675428
20
17.52531273120378
30
0
10
-248.07654662048816
20
17.433864513061103
30
0
0
SPLINE
5
632
100
AcDbEntity
8
0
100
AcDbSpline
70
0
71
2
72
6
73
3
74
0
42
0.000000001
43
0.0000000001
44
0.0000000001
40
0
40
0
40
0
40
1
40
1
40
1
10
-248.07654662048816
20
17.433864513061103
30
0
10
-247.87998462287206
20
17.349437719846694
30
0
10
-247.7396526981247
20
17.201854495075224
30
0
0
SPLINE
5
633
100
AcDbEntity
8
0
100
AcDbSpline
70
0
71
2
72
6
73
3
74
0
42
0.000000001
43
0.0000000001
44
0.0000000001
40
0
40
0
40
0
40
1
40
1
40
1
10
-247.7396526981247
20
17.201854495075224
30
0
10
-247.59932077385204
20
17.054270674257502
30
0
10
-247.52223005779649
20
16.857580055893735
30
0
0
SPLINE
5
634
100
AcDbEntity
8
0
100
AcDbSpline
70
0
71
2
72
6
73
3
74
0
42
0.000000001
43
0.0000000001
44
0.0000000001
40
0
40
0
40
0
40
1
40
1
40
1
10
-247.52223005779649
20
16.857580055893735
30
0
10
-247.45215606891395
20
16.667917050566455
30
0
10
-247.45232383409535
20
16.457243308312901
30
0
0
SPLINE
5
635
100
AcDbEntity
8
0
100
AcDbSpline
70
0
71
2
72
6
73
3
74
0
42
0.000000001
43
0.0000000001
44
0.0000000001
40
0
40
0
40
0
40
1
40
1
40
1
10
-247.45232383409535
20
16.457243308312901
30
0
10
-247.45249159975143
20
16.246568970013087
30
0
10
-247.52287315844961
20
16.049996383844672
30
0
0
SPLINE
5
636
100
AcDbEntity
8
0
100
AcDbSpline
70
0
71
2
72
6
73
3
74
0
42
0.000000001
43
0.0000000001
44
0.0000000001
40
0
40
0
40
0
40
1
40
1
40
1
10
-247.52287315844961
20
16.049996383844672
30
0
10
-247.60027144479548
20
15.860450814666489
30
0
10
-247.74083824089166
20
15.713090681073725
30
0
0
SPLINE
5
637
100
AcDbEntity
8
0
100
AcDbSpline
70
0
71
2
72
6
73
3
74
0
42
0.000000001
43
0.0000000001
44
0.0000000001
40
0
40
0
40
0
40
1
40
1
40
1
10
-247.74083824089166
20
15.713090681073725
30
0
10
-247.88140503698793
20
15.565730547480964
30
0
10
-248.07810683923827
20
15.474595491453238
30
0
0
SPLINE
5
638
100
AcDbEntity
8
0
100
AcDbSpline
70
0
71
2
72
6
73
3
74
0
42
0.000000001
43
0.0000000001
44
0.0000000001
40
0
40
0
40
0
40
1
40
1
40
1
10
-248.07810683923827
20
15.474595491453238
30
0
10
-248.27480305013864
20
15.390481860353781
30
0
10
-248.52761219649381
20
15.390683179093571
30
0
0
LINE
5
639
100
AcDbEntity
8
0
100
AcDbLine
10
-248.52761219649381
20
15.390683179093571
30
0
11
-251.46300442039521
21
15.393020711069099
31
0
0
SPLINE
5
640
100
AcDbEntity
8
0
100
AcDbSpline
70
0
71
2
72
6
73
3
74
0
42
0.000000001
43
0.0000000001
44
0.0000000001
40
0
40
0
40
0
40
1
40
1
40
1
10
-248.52704179335817
20
16.106975810103688
30
0
10
-248.37254719913216
20
16.106852781892634
30
0
10
-248.26713203771394
20
16.205083153407926
30
0
0
SPLINE
5
641
100
AcDbEntity
8
0
100
AcDbSpline
70
0
71
2
72
6
73
3
74
0
42
0.000000001
43
0.0000000001
44
0.0000000001
40
0
40
0
40
0
40
1
40
1
40
1
10
-248.26713203771394
20
16.205083153407926
30
0
10
-248.16873919529343
20
16.303319116985179
30
0
10
-248.16861616708238
20
16.457813711211209
30
0
0
SPLINE
5
642
100
AcDbEntity
8
0
100
AcDbSpline
70
0
71
2
72
6
73
3
74
0
42
0.000000001
43
0.0000000001
44
0.0000000001
40
0
40
0
40
0
40
1
40
1
40
1
10
-248.16861616708238
20
16.457813711211209
30
0
10
-248.16849313934597
20
16.612307709390983
30
0
10
-248.26672940070898
20
16.710700850071969
30
0
0
SPLINE
5
643
100
AcDbEntity
8
0
100
AcDbSpline
70
0
71
2
72
6
73
3
74
0
42
0.000000001
43
0.0000000001
44
0.0000000001
40
0
40
0
40
0
40
1
40
1
40
1
10
-248.26672940070898
20
16.710700850071969
30
0
10
-248.37198798106971
20
16.809099582814916
30
0
10
-248.52648257529577
20
16.809222611025973
30
0
0
LINE
5
644
100
AcDbEntity
8
0
100
AcDbLine
10
-248.52648257529577
20
16.809222611025973
30
0
11
-251.46187479919718
21
16.8115601430015
31
0
0
SPLINE
5
645
100
AcDbEntity
8
0
100
AcDbSpline
70
0
71
2
72
6
73
3
74
0
42
0.000000001
43
0.0000000001
44
0.0000000001
40
0
40
0
40
0
40
1
40
1
40
1
10
-251.46187479919718
20
16.8115601430015
30
0
10
-251.61636909540007
20
16.811683170975233
30
0
10
-251.71476193829523
20
16.713446611351721
30
0
0
SPLINE
5
646
100
AcDbEntity
8
0
100
AcDbSpline
70
0
71
2
72
6
73
3
74
0
42
0.000000001
43
0.0000000001
44
0.0000000001
40
0
40
0
40
0
40
1
40
1
40
1
10
-251.71476193829523
20
16.713446611351721
30
0
10
-251.8201773982112
20
16.615215644027494
30
0
10
-251.82030042594761
20
16.460721645847723
30
0
0
SPLINE
5
647
100
AcDbEntity
8
0
100
AcDbSpline
70
0
71
2
72
6
73
3
74
0
42
0.000000001
43
0.0000000001
44
0.0000000001
40
0
40
0
40
0
40
1
40
1
40
1
10
-251.82030042594761
20
16.460721645847723
30
0
10
-251.82042345415869
20
16.30622705162169
30
0
10
-251.71516457530018
20
16.207828914687678
30
0
0
SPLINE
5
648
100
AcDbEntity
8
0
100
AcDbSpline
70
0
71
2
72
6
73
3
74
0
42
0.000000001
43
0.0000000001
44
0.0000000001
40
0
40
0
40
0
40
1
40
1
40
1
10
-251.71516457530018
20
16.207828914687678
30
0
10
-251.61692831346247
20
16.109436370052947
30
0
10
-251.46243401725957
20
16.109313342079219
30
0
0
LINE
5
649
100
AcDbEntity
8
0
100
AcDbLine
10
-251.46243401725957
20
16.109313342079219
30
0
11
-248.52704179335817
21
16.106975810103688
31
0
0
LINE
5
650
100
AcDbEntity
8
0
100
AcDbLine
10
-210.83006111397438
20
13.610135887396908
30
0
11
-210.15590448311212
21
13.609599038294318
31
0
0
LINE
5
651
100
AcDbEntity
8
0
100
AcDbLine
10
-210.15590448311212
20
13.609599038294318
30
0
11
-210.15703410383551
21
12.191060202408174
31
0
0
LINE
5
652
100
AcDbEntity
8
0
100
AcDbLine
10
-210.15703410383551
20
12.191060202408174
30
0
11
-208.80871965001847
21
12.189986503253696
31
0
0
SPLINE
5
653
100
AcDbEntity
8
0
100
AcDbSpline
70
0
71
2
72
6
73
3
74
0
42
0.000000001
43
0.0000000001
44
0.0000000001
40
0
40
0
40
0
40
1
40
1
40
1
10
-208.80871965001847
20
12.189986503253698
30
0
10
-208.90695620964198
20
12.288379346148879
30
0
10
-208.97003524473971
20
12.442923971858736
30
0
0
SPLINE
5
654
100
AcDbEntity
8
0
100
AcDbSpline
70
0
71
2
72
6
73
3
74
0
42
0.000000001
43
0.0000000001
44
0.0000000001
40
0
40
0
40
0
40
1
40
1
40
1
10
-208.97003524473971
20
12.442923971858736
30
0
10
-209.0401368968582
20
12.597474189867878
30
0
10
-209.03998590809999
20
12.787080677105331
30
0
0
SPLINE
5
655
100
AcDbEntity
8
0
100
AcDbSpline
70
0
71
2
72
6
73
3
74
0
42
0.000000001
43
0.0000000001
44
0.0000000001
40
0
40
0
40
0
40
1
40
1
40
1
10
-209.03998590809999
20
12.787080677105331
30
0
10
-209.03969511447025
20
13.152249311608049
30
0
10
-208.81479718839512
20
13.376789338123206
30
0
0
SPLINE
5
656
100
AcDbEntity
8
0
100
AcDbSpline
70
0
71
2
72
6
73
3
74
0
42
0.000000001
43
0.0000000001
44
0.0000000001
40
0
40
0
40
0
40
1
40
1
40
1
10
-208.81479718839512
20
13.376789338123206
30
0
10
-208.59691598901838
20
13.608357573721115
30
0
10
-208.1545003554258
20
13.608005266223133
30
0
0
LINE
5
657
100
AcDbEntity
8
0
100
AcDbLine
10
-208.1545003554258
20
13.608005266223133
30
0
11
-206.86236594370567
21
13.606976304750972
31
0
0
SPLINE
5
658
100
AcDbEntity
8
0
100
AcDbSpline
70
0
71
2
72
6
73
3
74
0
42
0.000000001
43
0.0000000001
44
0.0000000001
40
0
40
0
40
0
40
1
40
1
40
1
10
-206.86236594370567
20
13.606976304750972
30
0
10
-206.60955709537362
20
13.606774986248505
30
0
10
-206.41300039132173
20
13.515326469845373
30
0
0
SPLINE
5
659
100
AcDbEntity
8
0
100
AcDbSpline
70
0
71
2
72
6
73
3
74
0
42
0.000000001
43
0.0000000001
44
0.0000000001
40
0
40
0
40
0
40
1
40
1
40
1
10
-206.41300039132173
20
13.515326469845373
30
0
10
-206.21643839346828
20
13.430899974654093
30
0
10
-206.0761064689583
20
13.283316451859497
30
0
0
SPLINE
5
660
100
AcDbEntity
8
0
100
AcDbSpline
70
0
71
2
72
6
73
3
74
0
42
0.000000001
43
0.0000000001
44
0.0000000001
40
0
40
0
40
0
40
1
40
1
40
1
10
-206.0761064689583
20
13.283316451859497
30
0
10
-205.93577454468559
20
13.135732631041769
30
0
10
-205.85868382863003
20
12.939042012678005
30
0
0
SPLINE
5
661
100
AcDbEntity
8
0
100
AcDbSpline
70
0
71
2
72
6
73
3
74
0
42
0.000000001
43
0.0000000001
44
0.0000000001
40
0
40
0
40
0
40
1
40
1
40
1
10
-205.85868382863003
20
12.939042012678005
30
0
10
-205.7886098395102
20
12.749379305373857
30
0
10
-205.78877760492895
20
12.538705265097171
30
0
0
SPLINE
5
662
100
AcDbEntity
8
0
100
AcDbSpline
70
0
71
2
72
6
73
3
74
0
42
0.000000001
43
0.0000000001
44
0.0000000001
40
0
40
0
40
0
40
1
40
1
40
1
10
-205.78877760492895
20
12.538705265097171
30
0
10
-205.78894537034762
20
12.328031224820489
30
0
10
-205.85932692952048
20
12.131458042605814
30
0
0
SPLINE
5
663
100
AcDbEntity
8
0
100
AcDbSpline
70
0
71
2
72
6
73
3
74
0
42
0.000000001
43
0.0000000001
44
0.0000000001
40
0
40
0
40
0
40
1
40
1
40
1
10
-205.85932692952048
20
12.131458042605814
30
0
10
-205.936725215629
20
11.94191277145076
30
0
10
-206.07729201172526
20
11.794552637857997
30
0
0
SPLINE
5
664
100
AcDbEntity
8
0
100
AcDbSpline
70
0
71
2
72
6
73
3
74
0
42
0.000000001
43
0.0000000001
44
0.0000000001
40
0
40
0
40
0
40
1
40
1
40
1
10
-206.07729201172526
20
11.794552637857997
30
0
10
-206.21785880758412
20
11.647192802288366
30
0
10
-206.41456061030914
20
11.556057150214381
30
0
0
SPLINE
5
665
100
AcDbEntity
8
0
100
AcDbSpline
70
0
71
2
72
6
73
3
74
0
42
0.000000001
43
0.0000000001
44
0.0000000001
40
0
40
0
40
0
40
1
40
1
40
1
10
-206.41456061030914
20
11.556057150214381
30
0
10
-206.611257118758
20
11.471944115398504
30
0
10
-206.86406596709003
20
11.472145433900973
30
0
0
LINE
5
666
100
AcDbEntity
8
0
100
AcDbLine
10
-206.86406596709003
20
11.472145433900971
30
0
11
-207.0747400073667
21
11.472313199319697
31
0
0
LINE
5
667
100
AcDbEntity
8
0
100
AcDbLine
10
-207.0747400073667
20
11.472313199319697
30
0
11
-207.0741696047057
21
12.188605234283557
31
0
0
LINE
5
668
100
AcDbEntity
8
0
100
AcDbLine
10
-207.0741696047057
20
12.188605234283557
30
0
11
-206.89158543646596
21
12.188459837587329
31
0
0
SPLINE
5
669
100
AcDbEntity
8
0
100
AcDbSpline
70
0
71
2
72
6
73
3
74
0
42
0.000000001
43
0.0000000001
44
0.0000000001
40
0
40
0
40
0
40
1
40
1
40
1
10
-206.89158543646596
20
12.188459837587329
30
0
10
-206.70900097020302
20
12.188314440653777
30
0
10
-206.60358580854751
20
12.286545110192197
30
0
0
SPLINE
5
670
100
AcDbEntity
8
0
100
AcDbSpline
70
0
71
2
72
6
73
3
74
0
42
0.000000001
43
0.0000000001
44
0.0000000001
40
0
40
0
40
0
40
1
40
1
40
1
10
-206.60358580854751
20
12.286545110192197
30
0
10
-206.50518737382768
20
12.391803690790237
30
0
10
-206.50505875355466
20
12.553320604013926
30
0
0
SPLINE
5
671
100
AcDbEntity
8
0
100
AcDbSpline
70
0
71
2
72
6
73
3
74
0
42
0.000000001
43
0.0000000001
44
0.0000000001
40
0
40
0
40
0
40
1
40
1
40
1
10
-206.50505875355466
20
12.553320604013926
30
0
10
-206.50493013328168
20
12.714837517237616
30
0
10
-206.60317757924329
20
12.799185423877029
30
0
0
SPLINE
5
672
100
AcDbEntity
8
0
100
AcDbSpline
70
0
71
2
72
6
73
3
74
0
42
0.000000001
43
0.0000000001
44
0.0000000001
40
0
40
0
40
0
40
1
40
1
40
1
10
-206.60317757924329
20
12.799185423877029
30
0
10
-206.70141943290562
20
12.890555947537228
30
0
10
-206.87698128214777
20
12.890695752171492
30
0
0
LINE
5
673
100
AcDbEntity
8
0
100
AcDbLine
10
-206.87698128214777
20
12.890695752171492
30
0
11
-208.04973358869955
21
12.891629646454382
31
0
0
SPLINE
5
674
100
AcDbEntity
8
0
100
AcDbSpline
70
0
71
2
72
6
73
3
74
0
42
0.000000001
43
0.0000000001
44
0.0000000001
40
0
40
0
40
0
40
1
40
1
40
1
10
-208.04973358869955
20
12.891629646454382
30
0
10
-208.1972055659048
20
12.89174708236615
30
0
10
-208.30262102582077
20
12.793516115041923
30
0
0
SPLINE
5
675
100
AcDbEntity
8
0
100
AcDbSpline
70
0
71
2
72
6
73
3
74
0
42
0.000000001
43
0.0000000001
44
0.0000000001
40
0
40
0
40
0
40
1
40
1
40
1
10
-208.30262102582077
20
12.793516115041923
30
0
10
-208.40803059541429
20
12.702307764501164
30
0
10
-208.40814803108873
20
12.554836085319048
30
0
0
SPLINE
5
676
100
AcDbEntity
8
0
100
AcDbSpline
70
0
71
2
72
6
73
3
74
0
42
0.000000001
43
0.0000000001
44
0.0000000001
40
0
40
0
40
0
40
1
40
1
40
1
10
-208.40814803108873
20
12.554836085319048
30
0
10
-208.40822072931817
20
12.463544150210716
30
0
10
-208.37315886802793
20
12.400313828331688
30
0
0
SPLINE
5
677
100
AcDbEntity
8
0
100
AcDbSpline
70
0
71
2
72
6
73
3
74
0
42
0.000000001
43
0.0000000001
44
0.0000000001
40
0
40
0
40
0
40
1
40
1
40
1
10
-208.37315886802793
20
12.400313828331688
30
0
10
-208.34511932573531
20
12.337089098514619
30
0
10
-208.3030180707637
20
12.294920737375538
30
0
0
SPLINE
5
678
100
AcDbEntity
8
0
100
AcDbSpline
70
0
71
2
72
6
73
3
74
0
42
0.000000001
43
0.0000000001
44
0.0000000001
40
0
40
0
40
0
40
1
40
1
40
1
10
-208.3030180707637
20
12.294920737375538
30
0
10
-208.26091681579214
20
12.252752376236458
30
0
10
-208.21177616713922
20
12.231645975837322
30
0
0
SPLINE
5
679
100
AcDbEntity
8
0
100
AcDbSpline
70
0
71
2
72
6
73
3
74
0
42
0.000000001
43
0.0000000001
44
0.0000000001
40
0
40
0
40
0
40
1
40
1
40
1
10
-208.21177616713922
20
12.231645975837322
30
0
10
-208.14860206508956
20
12.196483157272688
30
0
10
-208.13456242310994
20
12.189449653676458
30
0
0
LINE
5
680
100
AcDbEntity
8
0
100
AcDbLine
10
-208.13456242310994
20
12.189449653676458
30
0
11
-208.13506571960343
21
11.557427234823274
31
0
0
LINE
5
681
100
AcDbEntity
8
0
100
AcDbLine
10
-208.13506571960343
20
11.557427234823274
30
0
11
-210.83169403119126
21
11.559574632657583
31
0
0
LINE
5
682
100
AcDbEntity
8
0
100
AcDbLine
10
-210.83169403119126
20
11.559574632657583
30
0
11
-210.83006111397438
21
13.610135887396908
31
0
0
LWPOLYLINE
5
683
100
AcDbEntity
8
0
100
AcDbPolyline
90
4
70
1
43
0.0
10
-206.54592972831432
20
14.14043252322829
10
-205.82963769335043
20
14.139862120567306
10
-205.82906729068947
20
14.856154155531165
10
-206.54535932565329
20
14.856724558192148
0
SPLINE
5
684
100
AcDbEntity
8
0
100
AcDbSpline
70
0
71
2
72
6
73
3
74
0
42
0.000000001
43
0.0000000001
44
0.0000000001
40
0
40
0
40
0
40
1
40
1
40
1
10
-209.79633775372855
20
15.393020711069099
30
0
10
-210.04914660206055
20
15.393222029571568
30
0
10
-210.24570859967665
20
15.477648822785977
30
0
0
SPLINE
5
685
100
AcDbEntity
8
0
100
AcDbSpline
70
0
71
2
72
6
73
3
74
0
42
0.000000001
43
0.0000000001
44
0.0000000001
40
0
40
0
40
0
40
1
40
1
40
1
10
-210.24570859967665
20
15.477648822785977
30
0
10
-210.44226500594277
20
15.569097040928654
30
0
10
-210.5825972282386
20
15.716680861983704
30
0
0
SPLINE
5
686
100
AcDbEntity
8
0
100
AcDbSpline
70
0
71
2
72
6
73
3
74
0
42
0.000000001
43
0.0000000001
44
0.0000000001
40
0
40
0
40
0
40
1
40
1
40
1
10
-210.5825972282386
20
15.716680861983704
30
0
10
-210.72292915251126
20
15.86426468280143
30
0
10
-210.79300284337066
20
16.053927687891381
30
0
0
SPLINE
5
687
100
AcDbEntity
8
0
100
AcDbSpline
70
0
71
2
72
6
73
3
74
0
42
0.000000001
43
0.0000000001
44
0.0000000001
40
0
40
0
40
0
40
1
40
1
40
1
10
-210.79300284337066
20
16.053927687891381
30
0
10
-210.8700929638546
20
16.250617709734243
30
0
10
-210.86992519819856
20
16.461292048034057
30
0
0
SPLINE
5
688
100
AcDbEntity
8
0
100
AcDbSpline
70
0
71
2
72
6
73
3
74
0
42
0.000000001
43
0.0000000001
44
0.0000000001
40
0
40
0
40
0
40
1
40
1
40
1
10
-210.86992519819856
20
16.461292048034057
30
0
10
-210.86975743301713
20
16.671965790287611
30
0
10
-210.79235974271754
20
16.861511359940444
30
0
0
SPLINE
5
689
100
AcDbEntity
8
0
100
AcDbSpline
70
0
71
2
72
6
73
3
74
0
42
0.000000001
43
0.0000000001
44
0.0000000001
40
0
40
0
40
0
40
1
40
1
40
1
10
-210.79235974271754
20
16.861511359940444
30
0
10
-210.72197848156782
20
17.058084542392443
30
0
10
-210.58141168547164
20
17.205444675985202
30
0
0
SPLINE
5
690
100
AcDbEntity
8
0
100
AcDbSpline
70
0
71
2
72
6
73
3
74
0
42
0.000000001
43
0.0000000001
44
0.0000000001
40
0
40
0
40
0
40
1
40
1
40
1
10
-210.58141168547164
20
17.205444675985202
30
0
10
-210.44084459182693
20
17.352804213294384
30
0
10
-210.24414838092653
20
17.436917844393843
30
0
0
SPLINE
5
691
100
AcDbEntity
8
0
100
AcDbSpline
70
0
71
2
72
6
73
3
74
0
42
0.000000001
43
0.0000000001
44
0.0000000001
40
0
40
0
40
0
40
1
40
1
40
1
10
-210.24414838092653
20
17.436917844393843
30
0
10
-210.04744657867619
20
17.528052900421571
30
0
10
-209.79463773034414
20
17.527851581919101
30
0
0
LINE
5
692
100
AcDbEntity
8
0
100
AcDbLine
10
-209.79463773034414
20
17.527851581919101
30
0
11
-206.85924550644273
21
17.52551404994357
31
0
0
SPLINE
5
693
100
AcDbEntity
8
0
100
AcDbSpline
70
0
71
2
72
6
73
3
74
0
42
0.000000001
43
0.0000000001
44
0.0000000001
40
0
40
0
40
0
40
1
40
1
40
1
10
-206.85924550644273
20
17.52551404994357
30
0
10
-206.6064363600876
20
17.52531273120378
30
0
10
-206.40987995382147
20
17.433864513061103
30
0
0
SPLINE
5
694
100
AcDbEntity
8
0
100
AcDbSpline
70
0
71
2
72
6
73
3
74
0
42
0.000000001
43
0.0000000001
44
0.0000000001
40
0
40
0
40
0
40
1
40
1
40
1
10
-206.40987995382147
20
17.433864513061103
30
0
10
-206.21331795620537
20
17.349437719846694
30
0
10
-206.07298603145804
20
17.201854495075224
30
0
0
SPLINE
5
695
100
AcDbEntity
8
0
100
AcDbSpline
70
0
71
2
72
6
73
3
74
0
42
0.000000001
43
0.0000000001
44
0.0000000001
40
0
40
0
40
0
40
1
40
1
40
1
10
-206.07298603145804
20
17.201854495075224
30
0
10
-205.93265410718539
20
17.054270674257502
30
0
10
-205.85556339112981
20
16.857580055893735
30
0
0
SPLINE
5
696
100
AcDbEntity
8
0
100
AcDbSpline
70
0
71
2
72
6
73
3
74
0
42
0.000000001
43
0.0000000001
44
0.0000000001
40
0
40
0
40
0
40
1
40
1
40
1
10
-205.85556339112981
20
16.857580055893735
30
0
10
-205.78548940224726
20
16.667917050566455
30
0
10
-205.7856571674287
20
16.457243308312901
30
0
0
SPLINE
5
697
100
AcDbEntity
8
0
100
AcDbSpline
70
0
71
2
72
6
73
3
74
0
42
0.000000001
43
0.0000000001
44
0.0000000001
40
0
40
0
40
0
40
1
40
1
40
1
10
-205.7856571674287
20
16.457243308312901
30
0
10
-205.78582493308474
20
16.246568970013087
30
0
10
-205.85620649178293
20
16.049996383844672
30
0
0
SPLINE
5
698
100
AcDbEntity
8
0
100
AcDbSpline
70
0
71
2
72
6
73
3
74
0
42
0.000000001
43
0.0000000001
44
0.0000000001
40
0
40
0
40
0
40
1
40
1
40
1
10
-205.85620649178293
20
16.049996383844672
30
0
10
-205.9336047781288
20
15.860450814666489
30
0
10
-206.07417157422501
20
15.713090681073725
30
0
0
SPLINE
5
699
100
AcDbEntity
8
0
100
AcDbSpline
70
0
71
2
72
6
73
3
74
0
42
0.000000001
43
0.0000000001
44
0.0000000001
40
0
40
0
40
0
40
1
40
1
40
1
10
-206.07417157422501
20
15.713090681073725
30
0
10
-206.21473837032124
20
15.565730547480964
30
0
10
-206.41144017257159
20
15.474595491453238
30
0
0
SPLINE
5
700
100
AcDbEntity
8
0
100
AcDbSpline
70
0
71
2
72
6
73
3
74
0
42
0.000000001
43
0.0000000001
44
0.0000000001
40
0
40
0
40
0
40
1
40
1
40
1
10
-206.41144017257159
20
15.474595491453238
30
0
10
-206.60813638347196
20
15.390481860353781
30
0
10
-206.86094552982712
20
15.390683179093571
30
0
0
LINE
5
701
100
AcDbEntity
8
0
100
AcDbLine
10
-206.86094552982712
20
15.390683179093571
30
0
11
-209.79633775372855
21
15.393020711069099
31
0
0
SPLINE
5
702
100
AcDbEntity
8
0
100
AcDbSpline
70
0
71
2
72
6
73
3
74
0
42
0.000000001
43
0.0000000001
44
0.0000000001
40
0
40
0
40
0
40
1
40
1
40
1
10
-206.86037512669148
20
16.106975810103688
30
0
10
-206.70588053246547
20
16.106852781892634
30
0
10
-206.60046537104728
20
16.205083153407926
30
0
0
SPLINE
5
703
100
AcDbEntity
8
0
100
AcDbSpline
70
0
71
2
72
6
73
3
74
0
42
0.000000001
43
0.0000000001
44
0.0000000001
40
0
40
0
40
0
40
1
40
1
40
1
10
-206.60046537104728
20
16.205083153407926
30
0
10
-206.50207252862674
20
16.303319116985179
30
0
10
-206.50194950041569
20
16.457813711211209
30
0
0
SPLINE
5
704
100
AcDbEntity
8
0
100
AcDbSpline
70
0
71
2
72
6
73
3
74
0
42
0.000000001
43
0.0000000001
44
0.0000000001
40
0
40
0
40
0
40
1
40
1
40
1
10
-206.50194950041569
20
16.457813711211209
30
0
10
-206.50182647267928
20
16.612307709390983
30
0
10
-206.60006273404233
20
16.710700850071969
30
0
0
SPLINE
5
705
100
AcDbEntity
8
0
100
AcDbSpline
70
0
71
2
72
6
73
3
74
0
42
0.000000001
43
0.0000000001
44
0.0000000001
40
0
40
0
40
0
40
1
40
1
40
1
10
-206.60006273404233
20
16.710700850071969
30
0
10
-206.70532131440302
20
16.809099582814916
30
0
10
-206.85981590862909
20
16.809222611025973
30
0
0
LINE
5
706
100
AcDbEntity
8
0
100
AcDbLine
10
-206.85981590862909
20
16.809222611025973
30
0
11
-209.79520813253049
21
16.8115601430015
31
0
0
SPLINE
5
707
100
AcDbEntity
8
0
100
AcDbSpline
70
0
71
2
72
6
73
3
74
0
42
0.000000001
43
0.0000000001
44
0.0000000001
40
0
40
0
40
0
40
1
40
1
40
1
10
-209.79520813253049
20
16.8115601430015
30
0
10
-209.94970242873339
20
16.811683170975233
30
0
10
-210.04809527162854
20
16.713446611351721
30
0
0
SPLINE
5
708
100
AcDbEntity
8
0
100
AcDbSpline
70
0
71
2
72
6
73
3
74
0
42
0.000000001
43
0.0000000001
44
0.0000000001
40
0
40
0
40
0
40
1
40
1
40
1
10
-210.04809527162854
20
16.713446611351721
30
0
10
-210.15351073154451
20
16.615215644027494
30
0
10
-210.15363375928092
20
16.460721645847723
30
0
0
SPLINE
5
709
100
AcDbEntity
8
0
100
AcDbSpline
70
0
71
2
72
6
73
3
74
0
42
0.000000001
43
0.0000000001
44
0.0000000001
40
0
40
0
40
0
40
1
40
1
40
1
10
-210.15363375928092
20
16.460721645847723
30
0
10
-210.153756787492
20
16.30622705162169
30
0
10
-210.04849790863349
20
16.207828914687678
30
0
0
SPLINE
5
710
100
AcDbEntity
8
0
100
AcDbSpline
70
0
71
2
72
6
73
3
74
0
42
0.000000001
43
0.0000000001
44
0.0000000001
40
0
40
0
40
0
40
1
40
1
40
1
10
-210.04849790863349
20
16.207828914687678
30
0
10
-209.95026164679581
20
16.109436370052947
30
0
10
-209.79576735059288
20
16.109313342079219
30
0
0
LINE
5
711
100
AcDbEntity
8
0
100
AcDbLine
10
-209.79576735059288
20
16.109313342079219
30
0
11
-206.86037512669148
21
16.106975810103688
31
0
0
LWPOLYLINE
5
712
100
AcDbEntity
8
0
100
AcDbPolyline
90
15
70
1
43
0.0
10
-164.9084126524134
20
12.809696575560521
10
-164.16403074541265
20
12.80910380417704
10
-164.16346034298897
20
13.525395541117771
10
-164.90784224998973
20
13.525988312501251
10
-164.90756823278318
20
13.870089691987861
10
-165.58172516166852
20
13.870626541327777
10
-165.58199917887509
20
13.526525161841166
10
-167.00756063178204
20
13.527660374863846
10
-167.00813103420572
20
12.811368637923117
10
-165.58256958129877
20
12.810233424900437
10
-165.58313439166045
20
12.100964006957366
10
-169.16373836644203
20
13.178254072233424
10
-169.16434232218677
20
12.419827229214228
10
-165.58370479420279
20
11.384672121005073
10
-164.90954786531742
20
11.384135271665157
0
LWPOLYLINE
5
713
100
AcDbEntity
8
0
100
AcDbPolyline
90
4
70
1
43
0.0
10
-164.87919315941579
20
14.228213340747295
10
-164.16290112445193
20
14.227642938086312
10
-164.16233072179094
20
14.943934973050171
10
-164.87862275675479
20
14.944505375711154
0
SPLINE
5
714
100
AcDbEntity
8
0
100
AcDbSpline
70
0
71
2
72
6
73
3
74
0
42
0.000000001
43
0.0000000001
44
0.0000000001
40
0
40
0
40
0
40
1
40
1
40
1
10
-168.12960118482999
20
15.480801528588106
30
0
10
-168.38241003316202
20
15.481002847090576
30
0
10
-168.57897203077812
20
15.565429640304984
30
0
0
SPLINE
5
715
100
AcDbEntity
8
0
100
AcDbSpline
70
0
71
2
72
6
73
3
74
0
42
0.000000001
43
0.0000000001
44
0.0000000001
40
0
40
0
40
0
40
1
40
1
40
1
10
-168.57897203077812
20
15.565429640304984
30
0
10
-168.77552843704422
20
15.656877858447659
30
0
10
-168.91586065934004
20
15.80446167950271
30
0
0
SPLINE
5
716
100
AcDbEntity
8
0
100
AcDbSpline
70
0
71
2
72
6
73
3
74
0
42
0.000000001
43
0.0000000001
44
0.0000000001
40
0
40
0
40
0
40
1
40
1
40
1
10
-168.91586065934004
20
15.80446167950271
30
0
10
-169.05619258361273
20
15.952045500320438
30
0
10
-169.12626627447213
20
16.141708505410389
30
0
0
SPLINE
5
717
100
AcDbEntity
8
0
100
AcDbSpline
70
0
71
2
72
6
73
3
74
0
42
0.000000001
43
0.0000000001
44
0.0000000001
40
0
40
0
40
0
40
1
40
1
40
1
10
-169.12626627447213
20
16.141708505410389
30
0
10
-169.20335639495605
20
16.338398527253251
30
0
10
-169.2031886293
20
16.549072865553065
30
0
0
SPLINE
5
718
100
AcDbEntity
8
0
100
AcDbSpline
70
0
71
2
72
6
73
3
74
0
42
0.000000001
43
0.0000000001
44
0.0000000001
40
0
40
0
40
0
40
1
40
1
40
1
10
-169.2031886293
20
16.549072865553065
30
0
10
-169.20302086411863
20
16.759746607806619
30
0
10
-169.12562317381901
20
16.949292177459448
30
0
0
SPLINE
5
719
100
AcDbEntity
8
0
100
AcDbSpline
70
0
71
2
72
6
73
3
74
0
42
0.000000001
43
0.0000000001
44
0.0000000001
40
0
40
0
40
0
40
1
40
1
40
1
10
-169.12562317381901
20
16.949292177459448
30
0
10
-169.05524191266932
20
17.145865359911447
30
0
10
-168.91467511657308
20
17.29322549350421
30
0
0
SPLINE
5
720
100
AcDbEntity
8
0
100
AcDbSpline
70
0
71
2
72
6
73
3
74
0
42
0.000000001
43
0.0000000001
44
0.0000000001
40
0
40
0
40
0
40
1
40
1
40
1
10
-168.91467511657308
20
17.29322549350421
30
0
10
-168.7741080229284
20
17.440585030813388
30
0
10
-168.577411812028
20
17.524698661912844
30
0
0
SPLINE
5
721
100
AcDbEntity
8
0
100
AcDbSpline
70
0
71
2
72
6
73
3
74
0
42
0.000000001
43
0.0000000001
44
0.0000000001
40
0
40
0
40
0
40
1
40
1
40
1
10
-168.577411812028
20
17.524698661912844
30
0
10
-168.38071000977763
20
17.615833717940575
30
0
10
-168.12790116144561
20
17.615632399438105
30
0
0
LINE
5
722
100
AcDbEntity
8
0
100
AcDbLine
10
-168.12790116144561
20
17.615632399438105
30
0
11
-165.1925089375442
21
17.613294867462578
31
0
0
SPLINE
5
723
100
AcDbEntity
8
0
100
AcDbSpline
70
0
71
2
72
6
73
3
74
0
42
0.000000001
43
0.0000000001
44
0.0000000001
40
0
40
0
40
0
40
1
40
1
40
1
10
-165.1925089375442
20
17.613294867462578
30
0
10
-164.93969979118904
20
17.613093548722784
30
0
10
-164.74314338492294
20
17.521645330580107
30
0
0
SPLINE
5
724
100
AcDbEntity
8
0
100
AcDbSpline
70
0
71
2
72
6
73
3
74
0
42
0.000000001
43
0.0000000001
44
0.0000000001
40
0
40
0
40
0
40
1
40
1
40
1
10
-164.74314338492294
20
17.521645330580107
30
0
10
-164.54658138730684
20
17.437218537365698
30
0
10
-164.40624946255951
20
17.289635312594232
30
0
0
SPLINE
5
725
100
AcDbEntity
8
0
100
AcDbSpline
70
0
71
2
72
6
73
3
74
0
42
0.000000001
43
0.0000000001
44
0.0000000001
40
0
40
0
40
0
40
1
40
1
40
1
10
-164.40624946255951
20
17.289635312594232
30
0
10
-164.26591753828683
20
17.142051491776506
30
0
10
-164.18882682223128
20
16.945360873412739
30
0
0
SPLINE
5
726
100
AcDbEntity
8
0
100
AcDbSpline
70
0
71
2
72
6
73
3
74
0
42
0.000000001
43
0.0000000001
44
0.0000000001
40
0
40
0
40
0
40
1
40
1
40
1
10
-164.18882682223128
20
16.945360873412739
30
0
10
-164.11875283334876
20
16.755697868085463
30
0
10
-164.11892059853017
20
16.545024125831908
30
0
0
SPLINE
5
727
100
AcDbEntity
8
0
100
AcDbSpline
70
0
71
2
72
6
73
3
74
0
42
0.000000001
43
0.0000000001
44
0.0000000001
40
0
40
0
40
0
40
1
40
1
40
1
10
-164.11892059853017
20
16.545024125831908
30
0
10
-164.11908836418621
20
16.334349787532094
30
0
10
-164.1894699228844
20
16.137777201363676
30
0
0
SPLINE
5
728
100
AcDbEntity
8
0
100
AcDbSpline
70
0
71
2
72
6
73
3
74
0
42
0.000000001
43
0.0000000001
44
0.0000000001
40
0
40
0
40
0
40
1
40
1
40
1
10
-164.1894699228844
20
16.137777201363676
30
0
10
-164.26686820923024
20
15.948231632185495
30
0
10
-164.40743500532648
20
15.800871498592732
30
0
0
SPLINE
5
729
100
AcDbEntity
8
0
100
AcDbSpline
70
0
71
2
72
6
73
3
74
0
42
0.000000001
43
0.0000000001
44
0.0000000001
40
0
40
0
40
0
40
1
40
1
40
1
10
-164.40743500532648
20
15.800871498592732
30
0
10
-164.54800180142271
20
15.65351136499997
30
0
10
-164.74470360367306
20
15.562376308972244
30
0
0
SPLINE
5
730
100
AcDbEntity
8
0
100
AcDbSpline
70
0
71
2
72
6
73
3
74
0
42
0.000000001
43
0.0000000001
44
0.0000000001
40
0
40
0
40
0
40
1
40
1
40
1
10
-164.74470360367306
20
15.562376308972244
30
0
10
-164.94139981457346
20
15.478262677872788
30
0
10
-165.19420896092862
20
15.478463996612577
30
0
0
LINE
5
731
100
AcDbEntity
8
0
100
AcDbLine
10
-165.19420896092862
20
15.478463996612577
30
0
11
-168.12960118482999
21
15.480801528588106
31
0
0
SPLINE
5
732
100
AcDbEntity
8
0
100
AcDbSpline
70
0
71
2
72
6
73
3
74
0
42
0.000000001
43
0.0000000001
44
0.0000000001
40
0
40
0
40
0
40
1
40
1
40
1
10
-165.19363855779295
20
16.194756627622695
30
0
10
-165.03914396356691
20
16.194633599411642
30
0
10
-164.93372880214875
20
16.292863970926931
30
0
0
SPLINE
5
733
100
AcDbEntity
8
0
100
AcDbSpline
70
0
71
2
72
6
73
3
74
0
42
0.000000001
43
0.0000000001
44
0.0000000001
40
0
40
0
40
0
40
1
40
1
40
1
10
-164.93372880214875
20
16.292863970926931
30
0
10
-164.83533595972818
20
16.391099934504183
30
0
10
-164.83521293151713
20
16.545594528730216
30
0
0
SPLINE
5
734
100
AcDbEntity
8
0
100
AcDbSpline
70
0
71
2
72
6
73
3
74
0
42
0.000000001
43
0.0000000001
44
0.0000000001
40
0
40
0
40
0
40
1
40
1
40
1
10
-164.83521293151713
20
16.545594528730216
30
0
10
-164.83508990378073
20
16.700088526909987
30
0
10
-164.9333261651438
20
16.798481667590973
30
0
0
SPLINE
5
735
100
AcDbEntity
8
0
100
AcDbSpline
70
0
71
2
72
6
73
3
74
0
42
0.000000001
43
0.0000000001
44
0.0000000001
40
0
40
0
40
0
40
1
40
1
40
1
10
-164.9333261651438
20
16.798481667590973
30
0
10
-165.03858474550452
20
16.896880400333924
30
0
10
-165.19307933973056
20
16.897003428544977
30
0
0
LINE
5
736
100
AcDbEntity
8
0
100
AcDbLine
10
-165.19307933973056
20
16.897003428544977
30
0
11
-168.12847156363199
21
16.899340960520508
31
0
0
SPLINE
5
737
100
AcDbEntity
8
0
100
AcDbSpline
70
0
71
2
72
6
73
3
74
0
42
0.000000001
43
0.0000000001
44
0.0000000001
40
0
40
0
40
0
40
1
40
1
40
1
10
-168.12847156363193
20
16.899340960520504
30
0
10
-168.28296585983483
20
16.899463988494237
30
0
10
-168.38135870273004
20
16.801227428870725
30
0
0
SPLINE
5
738
100
AcDbEntity
8
0
100
AcDbSpline
70
0
71
2
72
6
73
3
74
0
42
0.000000001
43
0.0000000001
44
0.0000000001
40
0
40
0
40
0
40
1
40
1
40
1
10
-168.38135870273004
20
16.801227428870725
30
0
10
-168.48677416264599
20
16.702996461546501
30
0
10
-168.48689719038242
20
16.548502463366727
30
0
0
SPLINE
5
739
100
AcDbEntity
8
0
100
AcDbSpline
70
0
71
2
72
6
73
3
74
0
42
0.000000001
43
0.0000000001
44
0.0000000001
40
0
40
0
40
0
40
1
40
1
40
1
10
-168.48689719038242
20
16.548502463366727
30
0
10
-168.48702021859344
20
16.394007869140697
30
0
10
-168.38176133973496
20
16.295609732206682
30
0
0
SPLINE
5
740
100
AcDbEntity
8
0
100
AcDbSpline
70
0
71
2
72
6
73
3
74
0
42
0.000000001
43
0.0000000001
44
0.0000000001
40
0
40
0
40
0
40
1
40
1
40
1
10
-168.38176133973496
20
16.295609732206682
30
0
10
-168.28352507789728
20
16.197217187571951
30
0
10
-168.12903078169438
20
16.197094159598223
30
0
0
LINE
5
741
100
AcDbEntity
8
0
100
AcDbLine
10
-168.12903078169438
20
16.197094159598226
30
0
11
-165.19363855779295
21
16.194756627622695
31
0
0
SPLINE
5
742
100
AcDbEntity
8
0
100
AcDbSpline
70
0
71
2
72
6
73
3
74
0
42
0.000000001
43
0.0000000001
44
0.0000000001
40
0
40
0
40
0
40
1
40
1
40
1
10
-125.39101015123811
20
12.323346140012571
30
0
10
-125.39075291092941
20
12.64637966843682
30
0
10
-125.46790514085315
20
12.765823287710703
30
0
0
SPLINE
5
743
100
AcDbEntity
8
0
100
AcDbSpline
70
0
71
2
72
6
73
3
74
0
42
0.000000001
43
0.0000000001
44
0.0000000001
40
0
40
0
40
0
40
1
40
1
40
1
10
-125.46790514085315
20
12.765823287710703
30
0
10
-125.5450517784776
20
12.892289524005369
30
0
10
-125.82595049884651
20
12.892513211230332
30
0
0
LINE
5
744
100
AcDbEntity
8
0
100
AcDbLine
10
-125.82595049884651
20
12.892513211230332
30
0
11
-126.472017555695
21
12.893027691847752
31
0
0
SPLINE
5
745
100
AcDbEntity
8
0
100
AcDbSpline
70
0
71
2
72
6
73
3
74
0
42
0.000000001
43
0.0000000001
44
0.0000000001
40
0
40
0
40
0
40
1
40
1
40
1
10
-126.472017555695
20
12.893027691847752
30
0
10
-126.62651214992104
20
12.893150720058806
30
0
10
-126.72490499281622
20
12.794914160435296
30
0
0
SPLINE
5
746
100
AcDbEntity
8
0
100
AcDbSpline
70
0
71
2
72
6
73
3
74
0
42
0.000000001
43
0.0000000001
44
0.0000000001
40
0
40
0
40
0
40
1
40
1
40
1
10
-126.72490499281622
20
12.794914160435296
30
0
10
-126.82329224341211
20
12.703700217832573
30
0
10
-126.82342086344782
20
12.542183602632011
30
0
0
SPLINE
5
747
100
AcDbEntity
8
0
100
AcDbSpline
70
0
71
2
72
6
73
3
74
0
42
0.000000001
43
0.0000000001
44
0.0000000001
40
0
40
0
40
0
40
1
40
1
40
1
10
-126.82342086344782
20
12.542183602632011
30
0
10
-126.82357185244334
20
12.35257681737143
30
0
10
-126.70425685344247
20
12.268212134071483
30
0
0
SPLINE
5
748
100
AcDbEntity
8
0
100
AcDbSpline
70
0
71
2
72
6
73
3
74
0
42
0.000000001
43
0.0000000001
44
0.0000000001
40
0
40
0
40
0
40
1
40
1
40
1
10
-126.70425685344247
20
12.268212134071483
30
0
10
-126.58493626214231
20
12.190870067792325
30
0
10
-126.47257677399475
20
12.190780592902339
30
0
0
LINE
5
749
100
AcDbEntity
8
0
100
AcDbLine
10
-126.47257677399475
20
12.190780592902339
30
0
11
-126.06527362945982
21
12.190456246426141
31
0
0
LINE
5
750
100
AcDbEntity
8
0
100
AcDbLine
10
-126.06527362945982
20
12.190456246426141
30
0
11
-126.06584403212081
21
11.474164211462281
31
0
0
LINE
5
751
100
AcDbEntity
8
0
100
AcDbLine
10
-126.06584403212081
20
11.474164211462281
30
0
11
-126.48016979367652
21
11.474494150237769
31
0
0
SPLINE
5
752
100
AcDbEntity
8
0
100
AcDbSpline
70
0
71
2
72
6
73
3
74
0
42
0.000000001
43
0.0000000001
44
0.0000000001
40
0
40
0
40
0
40
1
40
1
40
1
10
-126.48016979367652
20
11.474494150237767
30
0
10
-126.697866450974
20
11.474667507955779
30
0
10
-126.89442844906475
20
11.559093705123926
30
0
0
SPLINE
5
753
100
AcDbEntity
8
0
100
AcDbSpline
70
0
71
2
72
6
73
3
74
0
42
0.000000001
43
0.0000000001
44
0.0000000001
40
0
40
0
40
0
40
1
40
1
40
1
10
-126.89442844906475
20
11.559093705123926
30
0
10
-127.09099044703683
20
11.643520051303639
30
0
10
-127.23132237142819
20
11.791103723109801
30
0
0
SPLINE
5
754
100
AcDbEntity
8
0
100
AcDbSpline
70
0
71
2
72
6
73
3
74
0
42
0.000000001
43
0.0000000001
44
0.0000000001
40
0
40
0
40
0
40
1
40
1
40
1
10
-127.23132237142819
20
11.791103723109801
30
0
10
-127.37165429593819
20
11.938687245904397
30
0
10
-127.45576733075407
20
12.135383754353256
30
0
0
SPLINE
5
755
100
AcDbEntity
8
0
100
AcDbSpline
70
0
71
2
72
6
73
3
74
0
42
0.000000001
43
0.0000000001
44
0.0000000001
40
0
40
0
40
0
40
1
40
1
40
1
10
-127.45576733075407
20
12.135383754353256
30
0
10
-127.53988006778414
20
12.332079964541663
30
0
10
-127.53970111800416
20
12.556798940836792
30
0
0
SPLINE
5
756
100
AcDbEntity
8
0
100
AcDbSpline
70
0
71
2
72
6
73
3
74
0
42
0.000000001
43
0.0000000001
44
0.0000000001
40
0
40
0
40
0
40
1
40
1
40
1
10
-127.53970111800416
20
12.556798940836792
30
0
10
-127.53946624641796
20
12.851742597224153
30
0
10
-127.41993374830034
20
13.041254315770111
30
0
0
SPLINE
5
757
100
AcDbEntity
8
0
100
AcDbSpline
70
0
71
2
72
6
73
3
74
0
42
0.000000001
43
0.0000000001
44
0.0000000001
40
0
40
0
40
0
40
1
40
1
40
1
10
-127.41993374830034
20
13.041254315770111
30
0
10
-127.30741767909529
20
13.237793945138364
30
0
10
-127.18795728339822
20
13.336013430078211
30
0
0
SPLINE
5
758
100
AcDbEntity
8
0
100
AcDbSpline
70
0
71
2
72
6
73
3
74
0
42
0.000000001
43
0.0000000001
44
0.0000000001
40
0
40
0
40
0
40
1
40
1
40
1
10
-127.18795728339822
20
13.336013430078211
30
0
10
-127.10363174548129
20
13.40617100400295
30
0
10
-127.01932298398759
20
13.455261322911586
30
0
0
SPLINE
5
759
100
AcDbEntity
8
0
100
AcDbSpline
70
0
71
2
72
6
73
3
74
0
42
0.000000001
43
0.0000000001
44
0.0000000001
40
0
40
0
40
0
40
1
40
1
40
1
10
-127.01932298398759
20
13.455261322911586
30
0
10
-126.93500863043192
20
13.511373960817876
30
0
10
-126.8155985642418
20
13.546391382686283
30
0
0
SPLINE
5
760
100
AcDbEntity
8
0
100
AcDbSpline
70
0
71
2
72
6
73
3
74
0
42
0.000000001
43
0.0000000001
44
0.0000000001
40
0
40
0
40
0
40
1
40
1
40
1
10
-126.8155985642418
20
13.546391382686283
30
0
10
-126.58380664141893
20
13.609408903678466
30
0
10
-126.127346369831
20
13.609045412056561
30
0
0
SPLINE
5
761
100
AcDbEntity
8
0
100
AcDbSpline
70
0
71
2
72
6
73
3
74
0
42
0.000000001
43
0.0000000001
44
0.0000000001
40
0
40
0
40
0
40
1
40
1
40
1
10
-126.127346369831
20
13.609045412056561
30
0
10
-125.86751490447818
20
13.608838501254807
30
0
10
-125.70600917561575
20
13.594664944963345
30
0
0
SPLINE
5
762
100
AcDbEntity
8
0
100
AcDbSpline
70
0
71
2
72
6
73
3
74
0
42
0.000000001
43
0.0000000001
44
0.0000000001
40
0
40
0
40
0
40
1
40
1
40
1
10
-125.70600917561575
20
13.594664944963345
30
0
10
-125.54449815271447
20
13.587513707906865
30
0
10
-125.43919453641098
20
13.545295315046634
30
0
0
SPLINE
5
763
100
AcDbEntity
8
0
100
AcDbSpline
70
0
71
2
72
6
73
3
74
0
42
0.000000001
43
0.0000000001
44
0.0000000001
40
0
40
0
40
0
40
1
40
1
40
1
10
-125.43919453641098
20
13.545295315046634
30
0
10
-125.32687419364646
20
13.496048415080523
30
0
10
-125.24969959500021
20
13.404694667843536
30
0
0
SPLINE
5
764
100
AcDbEntity
8
0
100
AcDbSpline
70
0
71
2
72
6
73
3
74
0
42
0.000000001
43
0.0000000001
44
0.0000000001
40
0
40
0
40
0
40
1
40
1
40
1
10
-125.24969959500021
20
13.404694667843536
30
0
10
-125.17251970207782
20
13.320363537864656
30
0
10
-125.08135049692008
20
13.165796543194979
30
0
0
SPLINE
5
765
100
AcDbEntity
8
0
100
AcDbSpline
70
0
71
2
72
6
73
3
74
0
42
0.000000001
43
0.0000000001
44
0.0000000001
40
0
40
0
40
0
40
1
40
1
40
1
10
-125.08135049692008
20
13.165796543194979
30
0
10
-124.97587941345833
20
13.334251892825627
30
0
10
-124.88452007415937
20
13.418448810469526
30
0
0
SPLINE
5
766
100
AcDbEntity
8
0
100
AcDbSpline
70
0
71
2
72
6
73
3
74
0
42
0.000000001
43
0.0000000001
44
0.0000000001
40
0
40
0
40
0
40
1
40
1
40
1
10
-124.88452007415937
20
13.418448810469526
30
0
10
-124.79315514256115
20
13.509668345134212
30
0
10
-124.67373978233218
20
13.551708086237602
30
0
0
SPLINE
5
767
100
AcDbEntity
8
0
100
AcDbSpline
70
0
71
2
72
6
73
3
74
0
42
0.000000001
43
0.0000000001
44
0.0000000001
40
0
40
0
40
0
40
1
40
1
40
1
10
-124.67373978233218
20
13.551708086237602
30
0
10
-124.54730180508241
20
13.593742235041704
30
0
10
-124.37173436354099
20
13.600625047428228
30
0
0
SPLINE
5
768
100
AcDbEntity
8
0
100
AcDbSpline
70
0
71
2
72
6
73
3
74
0
42
0.000000001
43
0.0000000001
44
0.0000000001
40
0
40
0
40
0
40
1
40
1
40
1
10
-124.37173436354099
20
13.600625047428228
30
0
10
-124.20318953925769
20
13.607513154090904
30
0
10
-123.93633575490722
20
13.60730065122719
30
0
0
SPLINE
5
769
100
AcDbEntity
8
0
100
AcDbSpline
70
0
71
2
72
6
73
3
74
0
42
0.000000001
43
0.0000000001
44
0.0000000001
40
0
40
0
40
0
40
1
40
1
40
1
10
-123.93633575490722
20
13.60730065122719
30
0
10
-123.69054922557285
20
13.607104924786684
30
0
10
-123.52904379473355
20
13.592931368732547
30
0
0
SPLINE
5
770
100
AcDbEntity
8
0
100
AcDbSpline
70
0
71
2
72
6
73
3
74
0
42
0.000000001
43
0.0000000001
44
0.0000000001
40
0
40
0
40
0
40
1
40
1
40
1
10
-123.52904379473355
20
13.592931368732547
30
0
10
-123.36753247380913
20
13.585780131438741
30
0
10
-123.26221208108244
20
13.564628993594614
30
0
0
SPLINE
5
771
100
AcDbEntity
8
0
100
AcDbSpline
70
0
71
2
72
6
73
3
74
0
42
0.000000001
43
0.0000000001
44
0.0000000001
40
0
40
0
40
0
40
1
40
1
40
1
10
-123.26221208108244
20
13.564628993594614
30
0
10
-123.14986936935809
20
13.543472263688523
30
0
10
-123.07265003326685
20
13.508298260525319
30
0
0
SPLINE
5
772
100
AcDbEntity
8
0
100
AcDbSpline
70
0
71
2
72
6
73
3
74
0
42
0.000000001
43
0.0000000001
44
0.0000000001
40
0
40
0
40
0
40
1
40
1
40
1
10
-123.07265003326685
20
13.508298260525319
30
0
10
-122.99543099519875
20
13.473124257599435
30
0
10
-122.91120611653307
20
13.416877407358163
30
0
0
SPLINE
5
773
100
AcDbEntity
8
0
100
AcDbSpline
70
0
71
2
72
6
73
3
74
0
42
0.000000001
43
0.0000000001
44
0.0000000001
40
0
40
0
40
0
40
1
40
1
40
1
10
-122.91120611653307
20
13.416877407358163
30
0
10
-122.71468326358801
20
13.283294083137019
30
0
10
-122.58142398805728
20
13.072513493286683
30
0
0
SPLINE
5
774
100
AcDbEntity
8
0
100
AcDbSpline
70
0
71
2
72
6
73
3
74
0
42
0.000000001
43
0.0000000001
44
0.0000000001
40
0
40
0
40
0
40
1
40
1
40
1
10
-122.58142398805728
20
13.072513493286683
30
0
10
-122.45518143898757
20
12.868761410542229
30
0
10
-122.45544986389484
20
12.531682648076403
30
0
0
SPLINE
5
775
100
AcDbEntity
8
0
100
AcDbSpline
70
0
71
2
72
6
73
3
74
0
42
0.000000001
43
0.0000000001
44
0.0000000001
40
0
40
0
40
0
40
1
40
1
40
1
10
-122.45544986389484
20
12.531682648076403
30
0
10
-122.45558407622983
20
12.363143415855056
30
0
10
-122.51191510708493
20
12.173581666299921
30
0
0
SPLINE
5
776
100
AcDbEntity
8
0
100
AcDbSpline
70
0
71
2
72
6
73
3
74
0
42
0.000000001
43
0.0000000001
44
0.0000000001
40
0
40
0
40
0
40
1
40
1
40
1
10
-122.51191510708493
20
12.173581666299921
30
0
10
-122.56824584015422
20
11.984019618484334
30
0
10
-122.69477329229397
20
11.829625981532663
30
0
0
SPLINE
5
777
100
AcDbEntity
8
0
100
AcDbSpline
70
0
71
2
72
6
73
3
74
0
42
0.000000001
43
0.0000000001
44
0.0000000001
40
0
40
0
40
0
40
1
40
1
40
1
10
-122.69477329229397
20
11.829625981532663
30
0
10
-122.82130074443371
20
11.675232344580998
30
0
10
-123.02503634854077
20
11.57005734878785
30
0
0
SPLINE
5
778
100
AcDbEntity
8
0
100
AcDbSpline
70
0
71
2
72
6
73
3
74
0
42
0.000000001
43
0.0000000001
44
0.0000000001
40
0
40
0
40
0
40
1
40
1
40
1
10
-123.02503634854077
20
11.57005734878785
30
0
10
-123.22876636034852
20
11.471904970015492
30
0
10
-123.52371001673589
20
11.472139841601706
30
0
0
LINE
5
779
100
AcDbEntity
8
0
100
AcDbLine
10
-123.52371001673589
20
11.472139841601706
30
0
11
-123.93101345929395
21
11.472464188315229
31
0
0
LINE
5
780
100
AcDbEntity
8
0
100
AcDbLine
10
-123.93101345929395
20
11.472464188315229
30
0
11
-123.93044305663295
21
12.188756223279087
31
0
0
LINE
5
781
100
AcDbEntity
8
0
100
AcDbLine
10
-123.93044305663295
20
12.188756223279087
30
0
11
-123.55825210313257
21
12.188459837587345
31
0
0
SPLINE
5
782
100
AcDbEntity
8
0
100
AcDbSpline
70
0
71
2
72
6
73
3
74
0
42
0.000000001
43
0.0000000001
44
0.0000000001
40
0
40
0
40
0
40
1
40
1
40
1
10
-123.55825210313257
20
12.188459837587347
30
0
10
-123.3897125728881
20
12.188325625015043
30
0
10
-123.27728038651109
20
12.279528085233389
30
0
0
SPLINE
5
783
100
AcDbEntity
8
0
100
AcDbSpline
70
0
71
2
72
6
73
3
74
0
42
0.000000001
43
0.0000000001
44
0.0000000001
40
0
40
0
40
0
40
1
40
1
40
1
10
-123.27728038651109
20
12.279528085233389
30
0
10
-123.17186522485557
20
12.377758754771808
30
0
10
-123.17173660458255
20
12.539275667995501
30
0
0
SPLINE
5
784
100
AcDbEntity
8
0
100
AcDbSpline
70
0
71
2
72
6
73
3
74
0
42
0.000000001
43
0.0000000001
44
0.0000000001
40
0
40
0
40
0
40
1
40
1
40
1
10
-123.17173660458255
20
12.539275667995501
30
0
10
-123.17160798454687
20
12.700792283196058
30
0
10
-123.27687215720687
20
12.79216839891822
30
0
0
SPLINE
5
785
100
AcDbEntity
8
0
100
AcDbSpline
70
0
71
2
72
6
73
3
74
0
42
0.000000001
43
0.0000000001
44
0.0000000001
40
0
40
0
40
0
40
1
40
1
40
1
10
-123.27687215720687
20
12.79216839891822
30
0
10
-123.38915335458836
20
12.890572723960453
30
0
10
-123.57173752282817
20
12.890718120656683
30
0
0
LINE
5
786
100
AcDbEntity
8
0
100
AcDbLine
10
-123.57173752282816
20
12.890718120656683
30
0
11
-124.28802955779203
21
12.891288523317668
31
0
0
SPLINE
5
787
100
AcDbEntity
8
0
100
AcDbSpline
70
0
71
2
72
6
73
3
74
0
42
0.000000001
43
0.0000000001
44
0.0000000001
40
0
40
0
40
0
40
1
40
1
40
1
10
-124.28802955779203
20
12.891288523317666
30
0
10
-124.58297351220251
20
12.891523395141203
30
0
10
-124.67435492243816
20
12.779236307199959
30
0
0
SPLINE
5
788
100
AcDbEntity
8
0
100
AcDbSpline
70
0
71
2
72
6
73
3
74
0
42
0.000000001
43
0.0000000001
44
0.0000000001
40
0
40
0
40
0
40
1
40
1
40
1
10
-124.67435492243816
20
12.779236307199959
30
0
10
-124.73058499601889
20
12.71607898157351
30
0
10
-124.74471940692732
20
12.603730677787194
30
0
0
SPLINE
5
789
100
AcDbEntity
8
0
100
AcDbSpline
70
0
71
2
72
6
73
3
74
0
42
0.000000001
43
0.0000000001
44
0.0000000001
40
0
40
0
40
0
40
1
40
1
40
1
10
-124.74471940692732
20
12.603730677787194
30
0
10
-124.75884822577379
20
12.498404692998534
30
0
10
-124.75898803040805
20
12.322842843756401
30
0
0
LINE
5
790
100
AcDbEntity
8
0
100
AcDbLine
10
-124.75898803040803
20
12.322842843756401
30
0
11
-125.39101015123811
21
12.323346140012571
31
0
0
LWPOLYLINE
5
791
100
AcDbEntity
8
0
100
AcDbPolyline
90
4
70
1
43
0.0
10
-123.21259639498095
20
14.140432523228307
10
-122.49630436001709
20
14.139862120567324
10
-122.49573395735611
20
14.856154155531183
10
-123.21202599231997
20
14.856724558192166
0
SPLINE
5
792
100
AcDbEntity
8
0
100
AcDbSpline
70
0
71
2
72
6
73
3
74
0
42
0.000000001
43
0.0000000001
44
0.0000000001
40
0
40
0
40
0
40
1
40
1
40
1
10
-126.46300442039517
20
15.393020711069116
30
0
10
-126.71581326872719
20
15.393222029571586
30
0
10
-126.9123752663433
20
15.477648822785994
30
0
0
SPLINE
5
793
100
AcDbEntity
8
0
100
AcDbSpline
70
0
71
2
72
6
73
3
74
0
42
0.000000001
43
0.0000000001
44
0.0000000001
40
0
40
0
40
0
40
1
40
1
40
1
10
-126.9123752663433
20
15.477648822785994
30
0
10
-127.1089316726094
20
15.569097040928671
30
0
10
-127.24926389490521
20
15.716680861983722
30
0
0
SPLINE
5
794
100
AcDbEntity
8
0
100
AcDbSpline
70
0
71
2
72
6
73
3
74
0
42
0.000000001
43
0.0000000001
44
0.0000000001
40
0
40
0
40
0
40
1
40
1
40
1
10
-127.24926389490521
20
15.716680861983722
30
0
10
-127.38959581917791
20
15.864264682801448
30
0
10
-127.4596695100373
20
16.053927687891402
30
0
0
SPLINE
5
795
100
AcDbEntity
8
0
100
AcDbSpline
70
0
71
2
72
6
73
3
74
0
42
0.000000001
43
0.0000000001
44
0.0000000001
40
0
40
0
40
0
40
1
40
1
40
1
10
-127.4596695100373
20
16.053927687891402
30
0
10
-127.53675963052123
20
16.250617709734261
30
0
10
-127.53659186486517
20
16.461292048034075
30
0
0
SPLINE
5
796
100
AcDbEntity
8
0
100
AcDbSpline
70
0
71
2
72
6
73
3
74
0
42
0.000000001
43
0.0000000001
44
0.0000000001
40
0
40
0
40
0
40
1
40
1
40
1
10
-127.53659186486517
20
16.461292048034075
30
0
10
-127.53642409968379
20
16.671965790287629
30
0
10
-127.45902640938419
20
16.861511359940458
30
0
0
SPLINE
5
797
100
AcDbEntity
8
0
100
AcDbSpline
70
0
71
2
72
6
73
3
74
0
42
0.000000001
43
0.0000000001
44
0.0000000001
40
0
40
0
40
0
40
1
40
1
40
1
10
-127.45902640938419
20
16.861511359940458
30
0
10
-127.38864514823449
20
17.058084542392461
30
0
10
-127.24807835213826
20
17.20544467598522
30
0
0
SPLINE
5
798
100
AcDbEntity
8
0
100
AcDbSpline
70
0
71
2
72
6
73
3
74
0
42
0.000000001
43
0.0000000001
44
0.0000000001
40
0
40
0
40
0
40
1
40
1
40
1
10
-127.24807835213826
20
17.20544467598522
30
0
10
-127.10751125849356
20
17.352804213294402
30
0
10
-126.91081504759318
20
17.436917844393861
30
0
0
SPLINE
5
799
100
AcDbEntity
8
0
100
AcDbSpline
70
0
71
2
72
6
73
3
74
0
42
0.000000001
43
0.0000000001
44
0.0000000001
40
0
40
0
40
0
40
1
40
1
40
1
10
-126.91081504759318
20
17.436917844393861
30
0
10
-126.71411324534282
20
17.528052900421585
30
0
10
-126.46130439701079
20
17.527851581919119
30
0
0
LINE
5
800
100
AcDbEntity
8
0
100
AcDbLine
10
-126.46130439701079
20
17.527851581919119
30
0
11
-123.52591217310938
21
17.525514049943588
31
0
0
SPLINE
5
801
100
AcDbEntity
8
0
100
AcDbSpline
70
0
71
2
72
6
73
3
74
0
42
0.000000001
43
0.0000000001
44
0.0000000001
40
0
40
0
40
0
40
1
40
1
40
1
10
-123.52591217310939
20
17.525514049943588
30
0
10
-123.27310302675423
20
17.525312731203798
30
0
10
-123.07654662048813
20
17.433864513061121
30
0
0
SPLINE
5
802
100
AcDbEntity
8
0
100
AcDbSpline
70
0
71
2
72
6
73
3
74
0
42
0.000000001
43
0.0000000001
44
0.0000000001
40
0
40
0
40
0
40
1
40
1
40
1
10
-123.07654662048813
20
17.433864513061121
30
0
10
-122.87998462287203
20
17.349437719846712
30
0
10
-122.73965269812467
20
17.201854495075246
30
0
0
SPLINE
5
803
100
AcDbEntity
8
0
100
AcDbSpline
70
0
71
2
72
6
73
3
74
0
42
0.000000001
43
0.0000000001
44
0.0000000001
40
0
40
0
40
0
40
1
40
1
40
1
10
-122.73965269812467
20
17.201854495075246
30
0
10
-122.599320773852
20
17.05427067425752
30
0
10
-122.52223005779646
20
16.857580055893749
30
0
0
SPLINE
5
804
100
AcDbEntity
8
0
100
AcDbSpline
70
0
71
2
72
6
73
3
74
0
42
0.000000001
43
0.0000000001
44
0.0000000001
40
0
40
0
40
0
40
1
40
1
40
1
10
-122.52223005779646
20
16.857580055893749
30
0
10
-122.45215606891394
20
16.667917050566473
30
0
10
-122.45232383409532
20
16.457243308312918
30
0
0
SPLINE
5
805
100
AcDbEntity
8
0
100
AcDbSpline
70
0
71
2
72
6
73
3
74
0
42
0.000000001
43
0.0000000001
44
0.0000000001
40
0
40
0
40
0
40
1
40
1
40
1
10
-122.45232383409532
20
16.457243308312918
30
0
10
-122.45249159975138
20
16.246568970013104
30
0
10
-122.52287315844956
20
16.04999638384469
30
0
0
SPLINE
5
806
100
AcDbEntity
8
0
100
AcDbSpline
70
0
71
2
72
6
73
3
74
0
42
0.000000001
43
0.0000000001
44
0.0000000001
40
0
40
0
40
0
40
1
40
1
40
1
10
-122.52287315844956
20
16.04999638384469
30
0
10
-122.60027144479542
20
15.860450814666507
30
0
10
-122.74083824089163
20
15.713090681073743
30
0
0
SPLINE
5
807
100
AcDbEntity
8
0
100
AcDbSpline
70
0
71
2
72
6
73
3
74
0
42
0.000000001
43
0.0000000001
44
0.0000000001
40
0
40
0
40
0
40
1
40
1
40
1
10
-122.74083824089163
20
15.713090681073743
30
0
10
-122.88140503698787
20
15.565730547480982
30
0
10
-123.07810683923825
20
15.474595491453256
30
0
0
SPLINE
5
808
100
AcDbEntity
8
0
100
AcDbSpline
70
0
71
2
72
6
73
3
74
0
42
0.000000001
43
0.0000000001
44
0.0000000001
40
0
40
0
40
0
40
1
40
1
40
1
10
-123.07810683923825
20
15.474595491453256
30
0
10
-123.27480305013862
20
15.390481860353798
30
0
10
-123.52761219649378
20
15.390683179093589
30
0
0
LINE
5
809
100
AcDbEntity
8
0
100
AcDbLine
10
-123.52761219649378
20
15.390683179093589
30
0
11
-126.46300442039517
21
15.393020711069116
31
0
0
SPLINE
5
810
100
AcDbEntity
8
0
100
AcDbSpline
70
0
71
2
72
6
73
3
74
0
42
0.000000001
43
0.0000000001
44
0.0000000001
40
0
40
0
40
0
40
1
40
1
40
1
10
-123.52704179335814
20
16.106975810103705
30
0
10
-123.3725471991321
20
16.106852781892652
30
0
10
-123.26713203771391
20
16.205083153407944
30
0
0
SPLINE
5
811
100
AcDbEntity
8
0
100
AcDbSpline
70
0
71
2
72
6
73
3
74
0
42
0.000000001
43
0.0000000001
44
0.0000000001
40
0
40
0
40
0
40
1
40
1
40
1
10
-123.26713203771391
20
16.205083153407944
30
0
10
-123.16873919529337
20
16.303319116985197
30
0
10
-123.16861616708232
20
16.457813711211227
30
0
0
SPLINE
5
812
100
AcDbEntity
8
0
100
AcDbSpline
70
0
71
2
72
6
73
3
74
0
42
0.000000001
43
0.0000000001
44
0.0000000001
40
0
40
0
40
0
40
1
40
1
40
1
10
-123.16861616708232
20
16.457813711211227
30
0
10
-123.16849313934591
20
16.612307709390997
30
0
10
-123.26672940070898
20
16.710700850071987
30
0
0
SPLINE
5
813
100
AcDbEntity
8
0
100
AcDbSpline
70
0
71
2
72
6
73
3
74
0
42
0.000000001
43
0.0000000001
44
0.0000000001
40
0
40
0
40
0
40
1
40
1
40
1
10
-123.26672940070898
20
16.710700850071987
30
0
10
-123.37198798106969
20
16.809099582814934
30
0
10
-123.52648257529573
20
16.809222611025987
30
0
0
LINE
5
814
100
AcDbEntity
8
0
100
AcDbLine
10
-123.52648257529573
20
16.809222611025987
30
0
11
-126.46187479919715
21
16.811560143001518
31
0
0
SPLINE
5
815
100
AcDbEntity
8
0
100
AcDbSpline
70
0
71
2
72
6
73
3
74
0
42
0.000000001
43
0.0000000001
44
0.0000000001
40
0
40
0
40
0
40
1
40
1
40
1
10
-126.46187479919712
20
16.811560143001518
30
0
10
-126.61636909540002
20
16.81168317097525
30
0
10
-126.71476193829521
20
16.713446611351735
30
0
0
SPLINE
5
816
100
AcDbEntity
8
0
100
AcDbSpline
70
0
71
2
72
6
73
3
74
0
42
0.000000001
43
0.0000000001
44
0.0000000001
40
0
40
0
40
0
40
1
40
1
40
1
10
-126.71476193829521
20
16.713446611351735
30
0
10
-126.82017739821119
20
16.615215644027511
30
0
10
-126.82030042594759
20
16.460721645847741
30
0
0
SPLINE
5
817
100
AcDbEntity
8
0
100
AcDbSpline
70
0
71
2
72
6
73
3
74
0
42
0.000000001
43
0.0000000001
44
0.0000000001
40
0
40
0
40
0
40
1
40
1
40
1
10
-126.82030042594759
20
16.460721645847741
30
0
10
-126.82042345415864
20
16.306227051621708
30
0
10
-126.71516457530015
20
16.207828914687695
30
0
0
SPLINE
5
818
100
AcDbEntity
8
0
100
AcDbSpline
70
0
71
2
72
6
73
3
74
0
42
0.000000001
43
0.0000000001
44
0.0000000001
40
0
40
0
40
0
40
1
40
1
40
1
10
-126.71516457530015
20
16.207828914687695
30
0
10
-126.61692831346244
20
16.109436370052965
30
0
10
-126.46243401725954
20
16.109313342079233
30
0
0
LINE
5
819
100
AcDbEntity
8
0
100
AcDbLine
10
-126.46243401725954
20
16.109313342079236
30
0
11
-123.52704179335814
21
16.106975810103705
31
0
0
LINE
5
820
100
AcDbEntity
8
0
100
AcDbLine
10
-80.831762722699537
20
11.471323382993258
30
0
11
-81.505919949608057
21
11.471860232570499
31
0
0
LINE
5
821
100
AcDbEntity
8
0
100
AcDbLine
10
-81.505919949608057
20
11.471860232570499
30
0
11
-83.941688132394034
21
12.765935131560507
31
0
0
SPLINE
5
822
100
AcDbEntity
8
0
100
AcDbSpline
70
0
71
2
72
6
73
3
74
0
42
0.000000001
43
0.0000000001
44
0.0000000001
40
0
40
0
40
0
40
1
40
1
40
1
10
-83.941688132394049
20
12.765935131560507
30
0
10
-84.1241940101051
20
12.864395080385854
30
0
10
-84.25760986693065
20
12.878546267954821
30
0
0
SPLINE
5
823
100
AcDbEntity
8
0
100
AcDbSpline
70
0
71
2
72
6
73
3
74
0
42
0.000000001
43
0.0000000001
44
0.0000000001
40
0
40
0
40
0
40
1
40
1
40
1
10
-84.25760986693065
20
12.878546267954821
30
0
10
-84.398048042516535
20
12.892703345608876
30
0
10
-84.60169976379558
20
12.892865518965637
30
0
0
SPLINE
5
824
100
AcDbEntity
8
0
100
AcDbSpline
70
0
71
2
72
6
73
3
74
0
42
0.000000001
43
0.0000000001
44
0.0000000001
40
0
40
0
40
0
40
1
40
1
40
1
10
-84.60169976379558
20
12.892865518965637
30
0
10
-84.692991698903896
20
12.892938217195091
30
0
10
-84.791311843332295
20
12.885993890703041
30
0
0
SPLINE
5
825
100
AcDbEntity
8
0
100
AcDbSpline
70
0
71
2
72
6
73
3
74
0
42
0.000000001
43
0.0000000001
44
0.0000000001
40
0
40
0
40
0
40
1
40
1
40
1
10
-84.791311843332295
20
12.885993890703041
30
0
10
-84.8966490124822
20
12.886077773531063
30
0
10
-84.973924270617005
20
12.851026798578912
30
0
0
SPLINE
5
826
100
AcDbEntity
8
0
100
AcDbSpline
70
0
71
2
72
6
73
3
74
0
42
0.000000001
43
0.0000000001
44
0.0000000001
40
0
40
0
40
0
40
1
40
1
40
1
10
-84.973924270617005
20
12.851026798578912
30
0
10
-85.051199230728685
20
12.815975823389437
30
0
10
-85.100412577373717
20
12.745790586703368
30
0
0
SPLINE
5
827
100
AcDbEntity
8
0
100
AcDbSpline
70
0
71
2
72
6
73
3
74
0
42
0.000000001
43
0.0000000001
44
0.0000000001
40
0
40
0
40
0
40
1
40
1
40
1
10
-85.100412577373717
20
12.745790586703368
30
0
10
-85.156648243491077
20
12.675610346033004
30
0
10
-85.156754494804261
20
12.542183602869335
30
0
0
SPLINE
5
828
100
AcDbEntity
8
0
100
AcDbSpline
70
0
71
2
72
6
73
3
74
0
42
0.000000001
43
0.0000000001
44
0.0000000001
40
0
40
0
40
0
40
1
40
1
40
1
10
-85.156754494804261
20
12.542183602869335
30
0
10
-85.156883115077292
20
12.380666689645645
30
0
10
-85.065669172474557
20
12.28227943904975
30
0
0
SPLINE
5
829
100
AcDbEntity
8
0
100
AcDbSpline
70
0
71
2
72
6
73
3
74
0
42
0.000000001
43
0.0000000001
44
0.0000000001
40
0
40
0
40
0
40
1
40
1
40
1
10
-85.065669172474557
20
12.28227943904975
30
0
10
-84.974449935595686
20
12.190914805711968
30
0
10
-84.798888086353543
20
12.190775001077704
30
0
0
LINE
5
830
100
AcDbEntity
8
0
100
AcDbLine
10
-84.798888086353543
20
12.190775001077705
30
0
11
-84.391584643795483
21
12.190450654364181
31
0
0
LINE
5
831
100
AcDbEntity
8
0
100
AcDbLine
10
-84.391584643795483
20
12.190450654364181
30
0
11
-84.392155046456466
21
11.47415861940032
31
0
0
LINE
5
832
100
AcDbEntity
8
0
100
AcDbLine
10
-84.392155046456466
20
11.47415861940032
30
0
11
-84.78541355299609
21
11.474471781752595
31
0
0
SPLINE
5
833
100
AcDbEntity
8
0
100
AcDbSpline
70
0
71
2
72
6
73
3
74
0
42
0.000000001
43
0.0000000001
44
0.0000000001
40
0
40
0
40
0
40
1
40
1
40
1
10
-84.78541355299609
20
11.474471781752595
30
0
10
-85.010132529291212
20
11.474650731532567
30
0
10
-85.206694527381956
20
11.559076928700716
30
0
0
SPLINE
5
834
100
AcDbEntity
8
0
100
AcDbSpline
70
0
71
2
72
6
73
3
74
0
42
0.000000001
43
0.0000000001
44
0.0000000001
40
0
40
0
40
0
40
1
40
1
40
1
10
-85.206694527381956
20
11.559076928700716
30
0
10
-85.403256823377177
20
11.643503275117752
30
0
10
-85.55061106676618
20
11.791092538985877
30
0
0
SPLINE
5
835
100
AcDbEntity
8
0
100
AcDbSpline
70
0
71
2
72
6
73
3
74
0
42
0.000000001
43
0.0000000001
44
0.0000000001
40
0
40
0
40
0
40
1
40
1
40
1
10
-85.55061106676618
20
11.791092538985877
30
0
10
-85.69797120035895
20
11.931659335082102
30
0
10
-85.782084235412142
20
12.128355545507832
30
0
0
SPLINE
5
836
100
AcDbEntity
8
0
100
AcDbSpline
70
0
71
2
72
6
73
3
74
0
42
0.000000001
43
0.0000000001
44
0.0000000001
40
0
40
0
40
0
40
1
40
1
40
1
10
-85.782084235412142
20
12.128355545507832
30
0
10
-85.873219589463019
20
12.325057347995523
30
0
10
-85.873040639445705
20
12.549776622313782
30
0
0
SPLINE
5
837
100
AcDbEntity
8
0
100
AcDbSpline
70
0
71
2
72
6
73
3
74
0
42
0.000000001
43
0.0000000001
44
0.0000000001
40
0
40
0
40
0
40
1
40
1
40
1
10
-85.873040639445705
20
12.549776622313782
30
0
10
-85.872816952220745
20
12.830675342682696
30
0
10
-85.767323500036497
20
13.027220564350234
30
0
0
SPLINE
5
838
100
AcDbEntity
8
0
100
AcDbSpline
70
0
71
2
72
6
73
3
74
0
42
0.000000001
43
0.0000000001
44
0.0000000001
40
0
40
0
40
0
40
1
40
1
40
1
10
-85.767323500036497
20
13.027220564350234
30
0
10
-85.668846774550616
20
13.230793995100525
30
0
10
-85.493178673995288
20
13.364080933629928
30
0
0
SPLINE
5
839
100
AcDbEntity
8
0
100
AcDbSpline
70
0
71
2
72
6
73
3
74
0
42
0.000000001
43
0.0000000001
44
0.0000000001
40
0
40
0
40
0
40
1
40
1
40
1
10
-85.493178673995288
20
13.364080933629928
30
0
10
-85.317516165264578
20
13.490345851184804
30
0
10
-85.092752451524461
20
13.546346645478614
30
0
0
SPLINE
5
840
100
AcDbEntity
8
0
100
AcDbSpline
70
0
71
2
72
6
73
3
74
0
42
0.000000001
43
0.0000000001
44
0.0000000001
40
0
40
0
40
0
40
1
40
1
40
1
10
-85.092752451524461
20
13.546346645478614
30
0
10
-84.867983145722377
20
13.609369758770084
30
0
10
-84.615174297390354
20
13.609168440267617
30
0
0
SPLINE
5
841
100
AcDbEntity
8
0
100
AcDbSpline
70
0
71
2
72
6
73
3
74
0
42
0.000000001
43
0.0000000001
44
0.0000000001
40
0
40
0
40
0
40
1
40
1
40
1
10
-84.615174297390354
20
13.609168440267617
30
0
10
-84.432590129150555
20
13.609023043571389
30
0
10
-84.306190999023386
20
13.601900065085173
30
0
0
SPLINE
5
842
100
AcDbEntity
8
0
100
AcDbSpline
70
0
71
2
72
6
73
3
74
0
42
0.000000001
43
0.0000000001
44
0.0000000001
40
0
40
0
40
0
40
1
40
1
40
1
10
-84.306190999023386
20
13.601900065085173
30
0
10
-84.186814784177443
20
13.594782381112438
30
0
10
-84.074472072453091
20
13.573625651206347
30
0
0
SPLINE
5
843
100
AcDbEntity
8
0
100
AcDbSpline
70
0
71
2
72
6
73
3
74
0
42
0.000000001
43
0.0000000001
44
0.0000000001
40
0
40
0
40
0
40
1
40
1
40
1
10
-84.074472072453091
20
13.573625651206347
30
0
10
-83.962129062942935
20
13.552468623039804
30
0
10
-83.849808720178402
20
13.503221723073695
30
0
0
SPLINE
5
844
100
AcDbEntity
8
0
100
AcDbSpline
70
0
71
2
72
6
73
3
74
0
42
0.000000001
43
0.0000000001
44
0.0000000001
40
0
40
0
40
0
40
1
40
1
40
1
10
-83.849808720178402
20
13.503221723073695
30
0
10
-83.737488377176547
20
13.453975121130712
30
0
10
-83.576038868143456
20
13.369576884984347
30
0
0
LINE
5
845
100
AcDbEntity
8
0
100
AcDbLine
10
-83.576038868143456
20
13.369576884984347
30
0
11
-81.547383695751165
21
12.314590244784114
31
0
0
LINE
5
846
100
AcDbEntity
8
0
100
AcDbLine
10
-81.547383695751165
20
12.314590244784114
30
0
11
-81.546354734279021
21
13.606724656504243
31
0
0
LINE
5
847
100
AcDbEntity
8
0
100
AcDbLine
10
-81.546354734279021
20
13.606724656504243
30
0
11
-80.830062699315164
21
13.606154253843259
31
0
0
LINE
5
848
100
AcDbEntity
8
0
100
AcDbLine
10
-80.830062699315164
20
13.606154253843259
30
0
11
-80.831762722699537
21
11.471323382993258
31
0
0
LWPOLYLINE
5
849
100
AcDbEntity
8
0
100
AcDbPolyline
90
4
70
1
43
0.0
10
-81.545929728314263
20
14.140432523228307
10
-80.829637693350406
20
14.139862120567324
10
-80.829067290689437
20
14.856154155531183
10
-81.545359325653294
20
14.856724558192166
0
SPLINE
5
850
100
AcDbEntity
8
0
100
AcDbSpline
70
0
71
2
72
6
73
3
74
0
42
0.000000001
43
0.0000000001
44
0.0000000001
40
0
40
0
40
0
40
1
40
1
40
1
10
-84.79633775372848
20
15.393020711069116
30
0
10
-85.049146602060517
20
15.393222029571586
30
0
10
-85.245708599676618
20
15.477648822785994
30
0
0
SPLINE
5
851
100
AcDbEntity
8
0
100
AcDbSpline
70
0
71
2
72
6
73
3
74
0
42
0.000000001
43
0.0000000001
44
0.0000000001
40
0
40
0
40
0
40
1
40
1
40
1
10
-85.245708599676618
20
15.477648822785994
30
0
10
-85.442265005942716
20
15.569097040928671
30
0
10
-85.582597228238541
20
15.716680861983722
30
0
0
SPLINE
5
852
100
AcDbEntity
8
0
100
AcDbSpline
70
0
71
2
72
6
73
3
74
0
42
0.000000001
43
0.0000000001
44
0.0000000001
40
0
40
0
40
0
40
1
40
1
40
1
10
-85.582597228238541
20
15.716680861983722
30
0
10
-85.722929152511242
20
15.864264682801448
30
0
10
-85.79300284337063
20
16.053927687891402
30
0
0
SPLINE
5
853
100
AcDbEntity
8
0
100
AcDbSpline
70
0
71
2
72
6
73
3
74
0
42
0.000000001
43
0.0000000001
44
0.0000000001
40
0
40
0
40
0
40
1
40
1
40
1
10
-85.79300284337063
20
16.053927687891402
30
0
10
-85.870092963854546
20
16.250617709734261
30
0
10
-85.869925198198501
20
16.461292048034075
30
0
0
SPLINE
5
854
100
AcDbEntity
8
0
100
AcDbSpline
70
0
71
2
72
6
73
3
74
0
42
0.000000001
43
0.0000000001
44
0.0000000001
40
0
40
0
40
0
40
1
40
1
40
1
10
-85.869925198198501
20
16.461292048034075
30
0
10
-85.869757433017099
20
16.671965790287629
30
0
10
-85.792359742717522
20
16.861511359940458
30
0
0
SPLINE
5
855
100
AcDbEntity
8
0
100
AcDbSpline
70
0
71
2
72
6
73
3
74
0
42
0.000000001
43
0.0000000001
44
0.0000000001
40
0
40
0
40
0
40
1
40
1
40
1
10
-85.792359742717522
20
16.861511359940458
30
0
10
-85.721978481567817
20
17.058084542392461
30
0
10
-85.581411685471593
20
17.20544467598522
30
0
0
SPLINE
5
856
100
AcDbEntity
8
0
100
AcDbSpline
70
0
71
2
72
6
73
3
74
0
42
0.000000001
43
0.0000000001
44
0.0000000001
40
0
40
0
40
0
40
1
40
1
40
1
10
-85.581411685471593
20
17.20544467598522
30
0
10
-85.440844591826874
20
17.352804213294402
30
0
10
-85.244148380926504
20
17.436917844393861
30
0
0
SPLINE
5
857
100
AcDbEntity
8
0
100
AcDbSpline
70
0
71
2
72
6
73
3
74
0
42
0.000000001
43
0.0000000001
44
0.0000000001
40
0
40
0
40
0
40
1
40
1
40
1
10
-85.244148380926504
20
17.436917844393861
30
0
10
-85.04744657867613
20
17.528052900421585
30
0
10
-84.794637730344107
20
17.527851581919119
30
0
0
LINE
5
858
100
AcDbEntity
8
0
100
AcDbLine
10
-84.794637730344107
20
17.527851581919119
30
0
11
-81.859245506442704
21
17.525514049943588
31
0
0
SPLINE
5
859
100
AcDbEntity
8
0
100
AcDbSpline
70
0
71
2
72
6
73
3
74
0
42
0.000000001
43
0.0000000001
44
0.0000000001
40
0
40
0
40
0
40
1
40
1
40
1
10
-81.859245506442718
20
17.525514049943588
30
0
10
-81.606436360087557
20
17.525312731203798
30
0
10
-81.409879953821459
20
17.433864513061121
30
0
0
SPLINE
5
860
100
AcDbEntity
8
0
100
AcDbSpline
70
0
71
2
72
6
73
3
74
0
42
0.000000001
43
0.0000000001
44
0.0000000001
40
0
40
0
40
0
40
1
40
1
40
1
10
-81.409879953821459
20
17.433864513061121
30
0
10
-81.213317956205344
20
17.349437719846712
30
0
10
-81.072986031458001
20
17.201854495075246
30
0
0
SPLINE
5
861
100
AcDbEntity
8
0
100
AcDbSpline
70
0
71
2
72
6
73
3
74
0
42
0.000000001
43
0.0000000001
44
0.0000000001
40
0
40
0
40
0
40
1
40
1
40
1
10
-81.072986031458001
20
17.201854495075246
30
0
10
-80.932654107185314
20
17.05427067425752
30
0
10
-80.855563391129778
20
16.857580055893749
30
0
0
SPLINE
5
862
100
AcDbEntity
8
0
100
AcDbSpline
70
0
71
2
72
6
73
3
74
0
42
0.000000001
43
0.0000000001
44
0.0000000001
40
0
40
0
40
0
40
1
40
1
40
1
10
-80.855563391129778
20
16.857580055893749
30
0
10
-80.785489402247265
20
16.667917050566473
30
0
10
-80.785657167428653
20
16.457243308312918
30
0
0
SPLINE
5
863
100
AcDbEntity
8
0
100
AcDbSpline
70
0
71
2
72
6
73
3
74
0
42
0.000000001
43
0.0000000001
44
0.0000000001
40
0
40
0
40
0
40
1
40
1
40
1
10
-80.785657167428653
20
16.457243308312918
30
0
10
-80.785824933084712
20
16.246568970013104
30
0
10
-80.856206491782885
20
16.04999638384469
30
0
0
SPLINE
5
864
100
AcDbEntity
8
0
100
AcDbSpline
70
0
71
2
72
6
73
3
74
0
42
0.000000001
43
0.0000000001
44
0.0000000001
40
0
40
0
40
0
40
1
40
1
40
1
10
-80.856206491782885
20
16.04999638384469
30
0
10
-80.933604778128739
20
15.860450814666507
30
0
10
-81.074171574224962
20
15.713090681073743
30
0
0
SPLINE
5
865
100
AcDbEntity
8
0
100
AcDbSpline
70
0
71
2
72
6
73
3
74
0
42
0.000000001
43
0.0000000001
44
0.0000000001
40
0
40
0
40
0
40
1
40
1
40
1
10
-81.074171574224962
20
15.713090681073743
30
0
10
-81.2147383703212
20
15.565730547480982
30
0
10
-81.41144017257156
20
15.474595491453256
30
0
0
SPLINE
5
866
100
AcDbEntity
8
0
100
AcDbSpline
70
0
71
2
72
6
73
3
74
0
42
0.000000001
43
0.0000000001
44
0.0000000001
40
0
40
0
40
0
40
1
40
1
40
1
10
-81.41144017257156
20
15.474595491453256
30
0
10
-81.60813638347193
20
15.390481860353798
30
0
10
-81.860945529827092
20
15.390683179093589
30
0
0
LINE
5
867
100
AcDbEntity
8
0
100
AcDbLine
10
-81.860945529827092
20
15.390683179093589
30
0
11
-84.79633775372848
21
15.393020711069116
31
0
0
SPLINE
5
868
100
AcDbEntity
8
0
100
AcDbSpline
70
0
71
2
72
6
73
3
74
0
42
0.000000001
43
0.0000000001
44
0.0000000001
40
0
40
0
40
0
40
1
40
1
40
1
10
-81.860375126691451
20
16.106975810103705
30
0
10
-81.705880532465414
20
16.106852781892652
30
0
10
-81.600465371047221
20
16.205083153407944
30
0
0
SPLINE
5
869
100
AcDbEntity
8
0
100
AcDbSpline
70
0
71
2
72
6
73
3
74
0
42
0.000000001
43
0.0000000001
44
0.0000000001
40
0
40
0
40
0
40
1
40
1
40
1
10
-81.600465371047221
20
16.205083153407944
30
0
10
-81.502072528626698
20
16.303319116985197
30
0
10
-81.501949500415648
20
16.457813711211227
30
0
0
SPLINE
5
870
100
AcDbEntity
8
0
100
AcDbSpline
70
0
71
2
72
6
73
3
74
0
42
0.000000001
43
0.0000000001
44
0.0000000001
40
0
40
0
40
0
40
1
40
1
40
1
10
-81.501949500415648
20
16.457813711211227
30
0
10
-81.501826472679241
20
16.612307709390997
30
0
10
-81.600062734042297
20
16.710700850071987
30
0
0
SPLINE
5
871
100
AcDbEntity
8
0
100
AcDbSpline
70
0
71
2
72
6
73
3
74
0
42
0.000000001
43
0.0000000001
44
0.0000000001
40
0
40
0
40
0
40
1
40
1
40
1
10
-81.600062734042297
20
16.710700850071987
30
0
10
-81.705321314403022
20
16.809099582814934
30
0
10
-81.859815908629059
20
16.809222611025987
30
0
0
LINE
5
872
100
AcDbEntity
8
0
100
AcDbLine
10
-81.859815908629059
20
16.809222611025987
30
0
11
-84.795208132530462
21
16.811560143001518
31
0
0
SPLINE
5
873
100
AcDbEntity
8
0
100
AcDbSpline
70
0
71
2
72
6
73
3
74
0
42
0.000000001
43
0.0000000001
44
0.0000000001
40
0
40
0
40
0
40
1
40
1
40
1
10
-84.795208132530448
20
16.811560143001518
30
0
10
-84.949702428733346
20
16.81168317097525
30
0
10
-85.04809527162854
20
16.713446611351735
30
0
0
SPLINE
5
874
100
AcDbEntity
8
0
100
AcDbSpline
70
0
71
2
72
6
73
3
74
0
42
0.000000001
43
0.0000000001
44
0.0000000001
40
0
40
0
40
0
40
1
40
1
40
1
10
-85.04809527162854
20
16.713446611351735
30
0
10
-85.1535107315445
20
16.615215644027511
30
0
10
-85.153633759280908
20
16.460721645847741
30
0
0
SPLINE
5
875
100
AcDbEntity
8
0
100
AcDbSpline
70
0
71
2
72
6
73
3
74
0
42
0.000000001
43
0.0000000001
44
0.0000000001
40
0
40
0
40
0
40
1
40
1
40
1
10
-85.153633759280908
20
16.460721645847741
30
0
10
-85.153756787491957
20
16.306227051621708
30
0
10
-85.048497908633465
20
16.207828914687695
30
0
0
SPLINE
5
876
100
AcDbEntity
8
0
100
AcDbSpline
70
0
71
2
72
6
73
3
74
0
42
0.000000001
43
0.0000000001
44
0.0000000001
40
0
40
0
40
0
40
1
40
1
40
1
10
-85.048497908633465
20
16.207828914687695
30
0
10
-84.950261646795752
20
16.109436370052965
30
0
10
-84.795767350592854
20
16.109313342079233
30
0
0
LINE
5
877
100
AcDbEntity
8
0
100
AcDbLine
10
-84.795767350592854
20
16.109313342079236
30
0
11
-81.860375126691451
21
16.106975810103705
31
0
0
LWPOLYLINE
5
878
100
AcDbEntity
8
0
100
AcDbPolyline
90
7
70
1
43
0.0
10
-43.406044397511906
20
12.257706299947221
10
-39.164472527848801
20
12.25432862190096
10
-39.163902125425139
20
12.970620358841689
10
-44.16390054008432
20
12.974601992395353
10
-44.164470942507982
20
12.258310255454624
10
-43.638356095465682
20
11.541598806825299
10
-42.879929550469612
20
11.540994851317894
0
LWPOLYLINE
5
879
100
AcDbEntity
8
0
100
AcDbPolyline
90
4
70
1
43
0.0
10
-39.87931618767503
20
14.073718685985352
10
-39.163024152711174
20
14.073148283324368
10
-39.16245375005019
20
14.789440318288225
10
-39.878745785014047
20
14.790010720949212
0
SPLINE
5
880
100
AcDbEntity
8
0
100
AcDbSpline
70
0
71
2
72
6
73
3
74
0
42
0.000000001
43
0.0000000001
44
0.0000000001
40
0
40
0
40
0
40
1
40
1
40
1
10
-43.129724213089261
20
15.326306873826161
30
0
10
-43.382533061421277
20
15.32650819232863
30
0
10
-43.579095059037378
20
15.410934985543037
30
0
0
SPLINE
5
881
100
AcDbEntity
8
0
100
AcDbSpline
70
0
71
2
72
6
73
3
74
0
42
0.000000001
43
0.0000000001
44
0.0000000001
40
0
40
0
40
0
40
1
40
1
40
1
10
-43.579095059037378
20
15.410934985543037
30
0
10
-43.775651465303497
20
15.502383203685714
30
0
10
-43.915983687599308
20
15.649967024740764
30
0
0
SPLINE
5
882
100
AcDbEntity
8
0
100
AcDbSpline
70
0
71
2
72
6
73
3
74
0
42
0.000000001
43
0.0000000001
44
0.0000000001
40
0
40
0
40
0
40
1
40
1
40
1
10
-43.915983687599308
20
15.649967024740764
30
0
10
-44.056315611871995
20
15.797550845558492
30
0
10
-44.12638930273139
20
15.987213850648443
30
0
0
SPLINE
5
883
100
AcDbEntity
8
0
100
AcDbSpline
70
0
71
2
72
6
73
3
74
0
42
0.000000001
43
0.0000000001
44
0.0000000001
40
0
40
0
40
0
40
1
40
1
40
1
10
-44.12638930273139
20
15.987213850648443
30
0
10
-44.203479423215313
20
16.183903872491303
30
0
10
-44.203311657559269
20
16.394578210791121
30
0
0
SPLINE
5
884
100
AcDbEntity
8
0
100
AcDbSpline
70
0
71
2
72
6
73
3
74
0
42
0.000000001
43
0.0000000001
44
0.0000000001
40
0
40
0
40
0
40
1
40
1
40
1
10
-44.203311657559269
20
16.394578210791121
30
0
10
-44.203143892377874
20
16.605251953044675
30
0
10
-44.125746202078275
20
16.794797522697504
30
0
0
SPLINE
5
885
100
AcDbEntity
8
0
100
AcDbSpline
70
0
71
2
72
6
73
3
74
0
42
0.000000001
43
0.0000000001
44
0.0000000001
40
0
40
0
40
0
40
1
40
1
40
1
10
-44.125746202078275
20
16.794797522697504
30
0
10
-44.05536494092857
20
16.991370705149503
30
0
10
-43.914798144832346
20
17.138730838742266
30
0
0
SPLINE
5
886
100
AcDbEntity
8
0
100
AcDbSpline
70
0
71
2
72
6
73
3
74
0
42
0.000000001
43
0.0000000001
44
0.0000000001
40
0
40
0
40
0
40
1
40
1
40
1
10
-43.914798144832346
20
17.138730838742266
30
0
10
-43.774231051187641
20
17.286090376051444
30
0
10
-43.577534840287264
20
17.370204007150903
30
0
0
SPLINE
5
887
100
AcDbEntity
8
0
100
AcDbSpline
70
0
71
2
72
6
73
3
74
0
42
0.000000001
43
0.0000000001
44
0.0000000001
40
0
40
0
40
0
40
1
40
1
40
1
10
-43.577534840287264
20
17.370204007150903
30
0
10
-43.380833038036897
20
17.461339063178627
30
0
10
-43.128024189704874
20
17.461137744676162
30
0
0
LINE
5
888
100
AcDbEntity
8
0
100
AcDbLine
10
-43.128024189704874
20
17.461137744676162
30
0
11
-40.192631965803471
21
17.458800212700631
31
0
0
SPLINE
5
889
100
AcDbEntity
8
0
100
AcDbSpline
70
0
71
2
72
6
73
3
74
0
42
0.000000001
43
0.0000000001
44
0.0000000001
40
0
40
0
40
0
40
1
40
1
40
1
10
-40.192631965803471
20
17.458800212700631
30
0
10
-39.939822819448324
20
17.45859889396084
30
0
10
-39.743266413182212
20
17.367150675818163
30
0
0
SPLINE
5
890
100
AcDbEntity
8
0
100
AcDbSpline
70
0
71
2
72
6
73
3
74
0
42
0.000000001
43
0.0000000001
44
0.0000000001
40
0
40
0
40
0
40
1
40
1
40
1
10
-39.743266413182212
20
17.367150675818163
30
0
10
-39.546704415566111
20
17.282723882603754
30
0
10
-39.406372490818775
20
17.135140657832288
30
0
0
SPLINE
5
891
100
AcDbEntity
8
0
100
AcDbSpline
70
0
71
2
72
6
73
3
74
0
42
0.000000001
43
0.0000000001
44
0.0000000001
40
0
40
0
40
0
40
1
40
1
40
1
10
-39.406372490818775
20
17.135140657832288
30
0
10
-39.266040566546081
20
16.987556837014562
30
0
10
-39.188949850490545
20
16.790866218650791
30
0
0
SPLINE
5
892
100
AcDbEntity
8
0
100
AcDbSpline
70
0
71
2
72
6
73
3
74
0
42
0.000000001
43
0.0000000001
44
0.0000000001
40
0
40
0
40
0
40
1
40
1
40
1
10
-39.188949850490545
20
16.790866218650791
30
0
10
-39.118875861608025
20
16.601203213323519
30
0
10
-39.11904362678942
20
16.390529471069964
30
0
0
SPLINE
5
893
100
AcDbEntity
8
0
100
AcDbSpline
70
0
71
2
72
6
73
3
74
0
42
0.000000001
43
0.0000000001
44
0.0000000001
40
0
40
0
40
0
40
1
40
1
40
1
10
-39.11904362678942
20
16.390529471069964
30
0
10
-39.119211392445472
20
16.179855132770147
30
0
10
-39.189592951143652
20
15.983282546601734
30
0
0
SPLINE
5
894
100
AcDbEntity
8
0
100
AcDbSpline
70
0
71
2
72
6
73
3
74
0
42
0.000000001
43
0.0000000001
44
0.0000000001
40
0
40
0
40
0
40
1
40
1
40
1
10
-39.189592951143652
20
15.983282546601734
30
0
10
-39.266991237489506
20
15.793736977423549
30
0
10
-39.40755803358573
20
15.646376843830787
30
0
0
SPLINE
5
895
100
AcDbEntity
8
0
100
AcDbSpline
70
0
71
2
72
6
73
3
74
0
42
0.000000001
43
0.0000000001
44
0.0000000001
40
0
40
0
40
0
40
1
40
1
40
1
10
-39.40755803358573
20
15.646376843830787
30
0
10
-39.548124829681953
20
15.499016710238024
30
0
10
-39.744826631932327
20
15.407881654210298
30
0
0
SPLINE
5
896
100
AcDbEntity
8
0
100
AcDbSpline
70
0
71
2
72
6
73
3
74
0
42
0.000000001
43
0.0000000001
44
0.0000000001
40
0
40
0
40
0
40
1
40
1
40
1
10
-39.744826631932327
20
15.407881654210298
30
0
10
-39.941522842832697
20
15.323768023110841
30
0
10
-40.194331989187845
20
15.323969341850635
30
0
0
LINE
5
897
100
AcDbEntity
8
0
100
AcDbLine
10
-40.194331989187859
20
15.323969341850635
30
0
11
-43.129724213089261
21
15.326306873826161
31
0
0
SPLINE
5
898
100
AcDbEntity
8
0
100
AcDbSpline
70
0
71
2
72
6
73
3
74
0
42
0.000000001
43
0.0000000001
44
0.0000000001
40
0
40
0
40
0
40
1
40
1
40
1
10
-40.193761586052226
20
16.040261972860751
30
0
10
-40.039266991826196
20
16.040138944649694
30
0
10
-39.933851830407995
20
16.138369316164987
30
0
0
SPLINE
5
899
100
AcDbEntity
8
0
100
AcDbSpline
70
0
71
2
72
6
73
3
74
0
42
0.000000001
43
0.0000000001
44
0.0000000001
40
0
40
0
40
0
40
1
40
1
40
1
10
-39.933851830407995
20
16.138369316164987
30
0
10
-39.835458987987465
20
16.236605279742239
30
0
10
-39.835335959776408
20
16.391099873968269
30
0
0
SPLINE
5
900
100
AcDbEntity
8
0
100
AcDbSpline
70
0
71
2
72
6
73
3
74
0
42
0.000000001
43
0.0000000001
44
0.0000000001
40
0
40
0
40
0
40
1
40
1
40
1
10
-39.835335959776408
20
16.391099873968269
30
0
10
-39.835212932040001
20
16.545593872148043
30
0
10
-39.933449193403064
20
16.643987012829029
30
0
0
SPLINE
5
901
100
AcDbEntity
8
0
100
AcDbSpline
70
0
71
2
72
6
73
3
74
0
42
0.000000001
43
0.0000000001
44
0.0000000001
40
0
40
0
40
0
40
1
40
1
40
1
10
-39.933449193403064
20
16.643987012829029
30
0
10
-40.038707773763775
20
16.74238574557198
30
0
10
-40.193202367989812
20
16.742508773783033
30
0
0
LINE
5
902
100
AcDbEntity
8
0
100
AcDbLine
10
-40.193202367989812
20
16.74250877378303
30
0
11
-43.128594591891208
21
16.744846305758564
31
0
0
SPLINE
5
903
100
AcDbEntity
8
0
100
AcDbSpline
70
0
71
2
72
6
73
3
74
0
42
0.000000001
43
0.0000000001
44
0.0000000001
40
0
40
0
40
0
40
1
40
1
40
1
10
-43.128594591891208
20
16.744846305758561
30
0
10
-43.283088888094113
20
16.744969333732293
30
0
10
-43.381481730989293
20
16.646732774108781
30
0
0
SPLINE
5
904
100
AcDbEntity
8
0
100
AcDbSpline
70
0
71
2
72
6
73
3
74
0
42
0.000000001
43
0.0000000001
44
0.0000000001
40
0
40
0
40
0
40
1
40
1
40
1
10
-43.381481730989293
20
16.646732774108781
30
0
10
-43.48689719090526
20
16.548501806784554
30
0
10
-43.487020218641668
20
16.394007808604783
30
0
0
SPLINE
5
905
100
AcDbEntity
8
0
100
AcDbSpline
70
0
71
2
72
6
73
3
74
0
42
0.000000001
43
0.0000000001
44
0.0000000001
40
0
40
0
40
0
40
1
40
1
40
1
10
-43.487020218641668
20
16.394007808604783
30
0
10
-43.487143246852725
20
16.23951321437875
30
0
10
-43.381884367994232
20
16.141115077444738
30
0
0
SPLINE
5
906
100
AcDbEntity
8
0
100
AcDbSpline
70
0
71
2
72
6
73
3
74
0
42
0.000000001
43
0.0000000001
44
0.0000000001
40
0
40
0
40
0
40
1
40
1
40
1
10
-43.381884367994232
20
16.141115077444738
30
0
10
-43.283648106156527
20
16.042722532810011
30
0
10
-43.129153809953628
20
16.042599504836275
30
0
0
LINE
5
907
100
AcDbEntity
8
0
100
AcDbLine
10
-43.129153809953628
20
16.042599504836279
30
0
11
-40.193761586052226
21
16.040261972860751
31
0
0
ENDSEC
0
SECTION
2
OBJECTS
0
DICTIONARY
5
C
100
AcDbDictionary
3
ACAD_GROUP
350
D
3
ACAD_MLINESTYLE
350
17
0
DICTIONARY
5
D
100
AcDbDictionary
0
DICTIONARY
5
1A
330
C
100
AcDbDictionary
0
DICTIONARY
5
17
100
AcDbDictionary
0
ENDSEC
0
EOF
