0
SECTION
2
HEADER
9
$INSUNITS
70
4
9
$ACADVER
1
AC1014
9
$HANDSEED
5
FFFF
0
ENDSEC
0
SECTION
2
TABLES
0
TABLE
2
VPORT
5
8
100
AcDbSymbolTable
0
ENDTAB
0
TABLE
2
LTYPE
5
5
100
AcDbSymbolTable
0
LTYPE
5
14
100
AcDbSymbolTableRecord
100
AcDbLinetypeTableRecord
2
BYBLOCK
70
0
0
LTYPE
5
15
100
AcDbSymbolTableRecord
100
AcDbLinetypeTableRecord
2
BYLAYER
70
0
0
ENDTAB
0
TABLE
2
LAYER
5
2
100
AcDbSymbolTable
70
2
0
LAYER
5
50
100
AcDbSymbolTableRecord
100
AcDbLayerTableRecord
2
0
70
0
6
CONTINUOUS
0
ENDTAB
0
TABLE
2
STYLE
5
3
100
AcDbSymbolTable
70
1
0
STYLE
5
11
100
AcDbSymbolTableRecord
100
AcDbTextStyleTableRecord
2
STANDARD
70
0
0
ENDTAB
0
TABLE
2
VIEW
5
6
100
AcDbSymbolTable
70
0
0
ENDTAB
0
TABLE
2
UCS
5
7
100
AcDbSymbolTable
70
0
0
ENDTAB
0
TABLE
2
APPID
5
9
100
AcDbSymbolTable
70
2
0
APPID
5
12
100
AcDbSymbolTableRecord
100
AcDbRegAppTableRecord
2
ACAD
70
0
0
ENDTAB
0
TABLE
2
DIMSTYLE
5
A
100
AcDbSymbolTable
70
1
0
ENDTAB
0
TABLE
2
BLOCK_RECORD
5
1
100
AcDbSymbolTable
70
1
0
BLOCK_RECORD
5
1F
100
AcDbSymbolTableRecord
100
AcDbBlockTableRecord
2
*MODEL_SPACE
0
BLOCK_RECORD
5
1B
100
AcDbSymbolTableRecord
100
AcDbBlockTableRecord
2
*PAPER_SPACE
0
ENDTAB
0
ENDSEC
0
SECTION
2
BLOCKS
0
BLOCK
5
20
100
AcDbEntity
100
AcDbBlockBegin
2
*MODEL_SPACE
0
ENDBLK
5
21
100
AcDbEntity
100
AcDbBlockEnd
0
BLOCK
5
1C
100
AcDbEntity
100
AcDbBlockBegin
2
*PAPER_SPACE
0
ENDBLK
5
1D
100
AcDbEntity
100
AcDbBlockEnd
0
ENDSEC
0
SECTION
2
ENTITIES
0
LINE
5
100
100
AcDbEntity
8
0
100
AcDbLine
10
0
20
0
30
0
11
270
21
0
31
0
0
LINE
5
101
100
AcDbEntity
8
0
100
AcDbLine
10
-0.23581189309065104
20
413.38319188932581
30
0
11
-0.23581189309065104
21
440.37951479187819
31
0
0
LINE
5
102
100
AcDbEntity
8
0
100
AcDbLine
10
-7.4503074569912267
20
413.31611614193372
30
0
11
-7.9214582565987168
21
440.30832737374828
31
0
0
LINE
5
103
100
AcDbEntity
8
0
100
AcDbLine
10
-14.662533585067656
20
413.12314030168153
30
0
11
-15.60469166718493
21
440.10301777373792
31
0
0
LINE
5
104
100
AcDbEntity
8
0
100
AcDbLine
10
-21.870293363374916
20
412.80432315087984
30
0
11
-23.283171737523286
21
439.76364853113989
31
0
0
LINE
5
105
100
AcDbEntity
8
0
100
AcDbLine
10
-29.071391238461416
20
412.35976180432112
30
0
11
-30.954559528201237
21
439.29032302111318
31
0
0
LINE
5
106
100
AcDbEntity
8
0
100
AcDbLine
10
-36.263633686155785
20
411.78959167969799
30
0
11
-38.616518260183341
21
438.68318542319338
31
0
0
LINE
5
107
100
AcDbEntity
8
0
100
AcDbLine
10
-43.444829879735643
20
411.09398645635389
30
0
11
-46.266714026616789
21
437.94242067737423
31
0
0
LINE
5
108
100
AcDbEntity
8
0
100
AcDbLine
10
-50.612792357274614
20
410.27315802237837
30
0
11
-53.902816503761997
21
437.06825442777313
31
0
0
LINE
5
109
100
AcDbEntity
8
0
100
AcDbLine
10
-57.765337687964418
20
409.32735641006394
30
0
11
-61.522499660831855
21
436.06095295389832
31
0
0
LINE
5
110
100
AcDbEntity
8
0
100
AcDbLine
10
-64.900287137209091
20
408.25686971974392
30
0
11
-69.123442468523194
21
434.92082308953627
31
0
0
LINE
5
111
100
AcDbEntity
8
0
100
AcDbLine
10
-72.015467330288573
20
407.062024032034
30
0
11
-76.703329606024795
21
433.64821212928854
31
0
0
LINE
5
112
100
AcDbEntity
8
0
100
AcDbLine
10
-79.108710914389746
20
405.74318330850565
30
0
11
-84.259852166286578
21
432.24350772278177
31
0
0
LINE
5
113
100
AcDbEntity
8
0
100
AcDbLine
10
-86.177857218803112
20
404.30074928081899
30
0
11
-91.790708359334957
21
430.70713775658567
31
0
0
LINE
5
114
100
AcDbEntity
8
0
100
AcDbLine
10
-93.22075291308397
20
402.73516132835221
30
0
11
-99.293604213420551
21
429.03957022387516
31
0
0
LINE
5
115
100
AcDbEntity
8
0
100
AcDbLine
10
-100.23525266297781
20
401.04689634436164
30
0
11
-106.76625427378399
21
427.24131308187486
31
0
0
LINE
5
116
100
AcDbEntity
8
0
100
AcDbLine
10
-107.21921978390979
20
399.23646859071602
30
0
11
-114.20638229882769
21
425.31291409713037
31
0
0
LINE
5
117
100
AcDbEntity
8
0
100
AcDbLine
10
-114.17052689183969
20
397.30442954124703
30
0
11
-121.61172195348112
21
423.25496067865311
31
0
0
LINE
5
118
100
AcDbEntity
8
0
100
AcDbLine
10
-121.08705655128364
20
395.25136771376549
30
0
11
-128.98001749954832
21
421.06807969899023
31
0
0
LINE
5
119
100
AcDbEntity
8
0
100
AcDbLine
10
-127.96670192030534
20
393.07790849079248
30
0
11
-136.30902448282762
21
418.75293730327292
31
0
0
LINE
5
120
100
AcDbEntity
8
0
100
AcDbLine
10
-134.80736739228092
20
390.78471392906192
30
0
11
-143.59651041679433
21
416.3102387063023
31
0
0
LINE
5
121
100
AcDbEntity
8
0
100
AcDbLine
10
-141.60696923424049
20
388.37248255785192
30
0
11
-150.84025546263746
21
413.74072797773397
31
0
0
LINE
5
122
100
AcDbEntity
8
0
100
AcDbLine
10
-148.36343622159376
20
385.84194916620606
30
0
11
-158.03805310544428
21
411.04518781542708
31
0
0
LINE
5
123
100
AcDbEntity
8
0
100
AcDbLine
10
-155.07471026904508
20
383.19388457910941
30
0
11
-165.18771082632625
21
408.22443930702747
31
0
0
LINE
5
124
100
AcDbEntity
8
0
100
AcDbLine
10
-161.73874705750598
20
380.42909542268745
30
0
11
-172.28705077028116
21
405.27934167985609
31
0
0
LINE
5
125
100
AcDbEntity
8
0
100
AcDbLine
10
-168.3535166568148
20
377.54842387850022
30
0
11
-179.33391040958929
21
402.21079203917975
31
0
0
LINE
5
126
100
AcDbEntity
8
0
100
AcDbLine
10
-174.91700414407285
20
374.5527474270059
30
0
11
-186.32614320254007
21
399.01972509494493
31
0
0
LINE
5
127
100
AcDbEntity
8
0
100
AcDbLine
10
-181.42721021740942
20
371.44297858027153
30
0
11
-193.26161924728947
21
395.70711287705535
31
0
0
LINE
5
128
100
AcDbEntity
8
0
100
AcDbLine
10
-187.88215180498895
20
368.22006460401258
30
0
11
-200.13822593064887
21
392.27396443928262
31
0
0
LINE
5
129
100
AcDbEntity
8
0
100
AcDbLine
10
-194.27986266907351
20
364.8849872290474
30
0
11
-206.95386857160727
21
388.72132555189819
31
0
0
LINE
5
130
100
AcDbEntity
8
0
100
AcDbLine
10
-200.61839400495771
20
361.43876235225196
30
0
11
-213.70647105939153
21
385.05027838312276
31
0
0
LINE
5
131
100
AcDbEntity
8
0
100
AcDbLine
10
-206.89581503459385
20
357.88243972710808
30
0
11
-220.39397648587004
21
381.26194116948619
31
0
0
LINE
5
132
100
AcDbEntity
8
0
100
AcDbLine
10
-213.11021359472588
20
354.21710264393835
30
0
11
-227.01434777210659
21
377.35746787520185
31
0
0
LINE
5
133
100
AcDbEntity
8
0
100
AcDbLine
10
-219.25969671935184
20
350.44386759992528
30
0
11
-233.56556828887437
21
373.33804784065882
31
0
0
LINE
5
134
100
AcDbEntity
8
0
100
AcDbLine
10
-225.34239121634079
20
346.56388395901507
30
0
11
-240.04564247094098
21
369.20490542013675
31
0
0
LINE
5
135
100
AcDbEntity
8
0
100
AcDbLine
10
-231.35644423802449
20
342.57833360181144
30
0
11
-246.45259642493656
21
364.95929960885542
31
0
0
LINE
5
136
100
AcDbEntity
8
0
100
AcDbLine
10
-237.30002384559305
20
338.48843056556166
30
0
11
-252.78447853062107
21
360.60252365947321
31
0
0
LINE
5
137
100
AcDbEntity
8
0
100
AcDbLine
10
-243.17131956712126
20
334.29542067435074
30
0
11
-259.03936003536705
21
356.13590468814914
31
0
0
LINE
5
138
100
AcDbEntity
8
0
100
AcDbLine
10
-248.96854294905592
20
330.00058115960985
30
0
11
-265.21533564167561
21
351.56080327029099
31
0
0
LINE
5
139
100
AcDbEntity
8
0
100
AcDbLine
10
-254.68992810099581
20
325.60522027106026
30
0
11
-271.31052408754908
21
346.87861302611088
31
0
0
LINE
5
140
100
AcDbEntity
8
0
100
AcDbLine
10
-260.33373223359939
20
321.11067687820764
30
0
11
-277.32306871954131
21
342.0907601961145
31
0
0
LINE
5
141
100
AcDbEntity
8
0
100
AcDbLine
10
-265.89823618945513
20
316.51832006250891
30
0
11
-283.25113805831273
21
337.19870320665478
31
0
0
LINE
5
142
100
AcDbEntity
8
0
100
AcDbLine
10
-0.23581189309065104
20
386.49164916163363
30
0
11
-0.23581189309065104
21
440.37951479187819
31
0
0
LINE
5
143
100
AcDbEntity
8
0
100
AcDbLine
10
-67.345799940972427
20
380.57902426334363
30
0
11
-76.703329606024781
21
433.64821212928854
31
0
0
LINE
5
144
100
AcDbEntity
8
0
100
AcDbLine
10
-132.40951993626683
20
363.10269829509059
30
0
11
-150.84025546263746
21
413.74072797773397
31
0
0
LINE
5
145
100
AcDbEntity
8
0
100
AcDbLine
10
-193.45004367074779
20
334.59368057797207
30
0
11
-220.39397648587004
21
381.26194116948619
31
0
0
LINE
5
146
100
AcDbEntity
8
0
100
AcDbLine
10
-248.61268571873848
20
295.91820318906372
30
0
11
-283.25113805831273
21
337.19870320665478
31
0
0
LINE
5
147
100
AcDbEntity
8
0
100
AcDbLine
10
0
20
0
30
0
11
0
21
336.79999998956919
31
0
0
LINE
5
148
100
AcDbEntity
8
0
100
AcDbLine
10
132.36179546703377
20
362.96104423371571
30
0
11
150.83088320661989
21
413.70444575615471
31
0
0
LINE
5
149
100
AcDbEntity
8
0
100
AcDbLine
10
57.617663797467095
20
409.27098044857934
30
0
11
61.375337523388858
21
436.00821830460171
31
0
0
LINE
5
150
100
AcDbEntity
8
0
100
AcDbLine
10
50.453908169731065
20
410.21410676907647
30
0
11
53.744380441670039
21
437.01285286339214
31
0
0
LINE
5
151
100
AcDbEntity
8
0
100
AcDbLine
10
43.274783792808542
20
411.03206467203427
30
0
11
46.097052301035184
21
437.88415584697771
31
0
0
LINE
5
152
100
AcDbEntity
8
0
100
AcDbLine
10
36.082477497530483
20
411.72460499955179
30
0
11
38.435682551717257
21
438.62186184802897
31
0
0
LINE
5
153
100
AcDbEntity
8
0
100
AcDbLine
10
28.879180130067876
20
412.29151679713641
30
0
11
30.762604921159259
21
439.22574615415164
31
0
0
LINE
5
154
100
AcDbEntity
8
0
100
AcDbLine
10
21.667085884578746
20
412.73262737796273
30
0
11
23.080156703138233
21
439.69562481633625
31
0
0
LINE
5
155
100
AcDbEntity
8
0
100
AcDbLine
10
14.448391634835403
20
413.04780237547482
30
0
11
15.390678045802929
21
440.03135470499041
31
0
0
LINE
5
156
100
AcDbEntity
8
0
100
AcDbLine
10
7.2252962650353734
20
413.23694578431514
30
0
11
7.6965112388420289
21
440.23283355353777
31
0
0
LINE
5
157
100
AcDbEntity
8
0
100
AcDbLine
10
0
20
413.29999998956913
30
0
11
0
21
440.29999998956919
31
0
0
LINE
5
158
100
AcDbEntity
8
0
100
AcDbLine
10
193.49999999999997
20
334.45183125414695
30
0
11
220.49999999999997
21
381.21720305850664
31
0
0
LINE
5
159
100
AcDbEntity
8
0
100
AcDbLine
10
219.3865753925468
20
350.39191179832955
30
0
11
233.69439552684338
21
373.28921039455304
31
0
0
LINE
5
160
100
AcDbEntity
8
0
100
AcDbLine
10
213.22576301276243
20
354.16726248024366
30
0
11
227.13179103533389
21
377.31077959920071
31
0
0
LINE
5
161
100
AcDbEntity
8
0
100
AcDbLine
10
206.99999999999994
20
357.8345171563268
30
0
11
220.49999999999997
21
381.21720305850664
31
0
0
LINE
5
162
100
AcDbEntity
8
0
100
AcDbLine
10
200.71118278198355
20
361.39255874527896
30
0
11
213.80104252863464
21
385.00729083804276
31
0
0
LINE
5
163
100
AcDbEntity
8
0
100
AcDbLine
10
194.3612269933588
20
364.84030343316499
30
0
11
207.03695918857787
21
388.67988844035597
31
0
0
LINE
5
164
100
AcDbEntity
8
0
100
AcDbLine
10
181.48565477067805
20
371.40073515742426
30
0
11
193.32167573398317
21
395.66817440750185
31
0
0
LINE
5
165
100
AcDbEntity
8
0
100
AcDbLine
10
174.96396036064959
20
374.51142382274224
30
0
11
186.37465342764847
21
398.9817340727318
31
0
0
LINE
5
166
100
AcDbEntity
8
0
100
AcDbLine
10
168.38897023338131
20
377.50781945360592
30
0
11
179.37085959642792
21
402.17354680995612
31
0
0
LINE
5
167
100
AcDbEntity
8
0
100
AcDbLine
10
161.76268719455933
20
380.38900931887946
30
0
11
172.31242766376971
21
405.2426403620953
31
0
0
LINE
5
168
100
AcDbEntity
8
0
100
AcDbLine
10
155.08712967418759
20
383.15411578021917
30
0
11
165.2015076964172
21
408.18807985352237
31
0
0
LINE
5
169
100
AcDbEntity
8
0
100
AcDbLine
10
148.36433111175435
20
385.80229655941076
30
0
11
158.04026574947744
21
411.00896807483514
31
0
0
LINE
5
170
100
AcDbEntity
8
0
100
AcDbLine
10
121.04188575521304
20
395.21016895826585
30
0
11
128.93592178272689
21
421.0303973692678
31
0
0
LINE
5
171
100
AcDbEntity
8
0
100
AcDbLine
10
134.78521594526288
20
390.74469028768635
30
0
11
143.5755561156061
21
416.27369182886787
31
0
0
LINE
5
172
100
AcDbEntity
8
0
100
AcDbLine
10
260.53864189463269
20
321.03842803275512
30
0
11
277.5302924529783
21
342.02136899209336
31
0
0
LINE
5
173
100
AcDbEntity
8
0
100
AcDbLine
10
266.11407041022733
20
316.44239944082619
30
0
11
283.46933587176386
21
337.12559940503854
31
0
0
LINE
5
174
100
AcDbEntity
8
0
100
AcDbLine
10
248.75880494869074
20
295.75919947661373
30
0
11
283.46933587176386
21
337.12559940503854
31
0
0
LINE
5
175
100
AcDbEntity
8
0
100
AcDbLine
10
141.59633933682682
20
388.3327449949353
30
0
11
150.83088320661989
21
413.70444575615471
31
0
0
LINE
5
176
100
AcDbEntity
8
0
100
AcDbLine
10
67.201844757102037
20
380.42060040529361
30
0
11
76.578846351116283
21
433.60021906795293
31
0
0
LINE
5
177
100
AcDbEntity
8
0
100
AcDbLine
10
225.48056049622122
20
346.50961511897469
30
0
11
240.18581444162695
21
369.15372045350119
31
0
0
LINE
5
178
100
AcDbEntity
8
0
100
AcDbLine
10
231.5058620368892
20
342.52155502735638
30
0
11
246.60407043059936
21
364.90556948634259
31
0
0
LINE
5
179
100
AcDbEntity
8
0
100
AcDbLine
10
237.46064464933306
20
338.42894632521177
30
0
11
252.94720843081134
21
360.54605152101453
31
0
0
LINE
5
180
100
AcDbEntity
8
0
100
AcDbLine
10
243.34309444908385
20
334.23303566079744
30
0
11
259.2132962609806
21
356.07649450892103
31
0
0
LINE
5
181
100
AcDbEntity
8
0
100
AcDbLine
10
249.151419584948
20
329.93510114914841
30
0
11
265.4004252100533
21
351.49825992042531
31
0
0
LINE
5
182
100
AcDbEntity
8
0
100
AcDbLine
10
254.88385078482256
20
325.53645198275206
30
0
11
271.50671061861539
21
346.81274233013357
31
0
0
LINE
5
183
100
AcDbEntity
8
0
100
AcDbLine
10
127.93303567122825
20
393.03739773576268
30
0
11
136.27649451935181
21
418.71592367573186
31
0
0
LINE
5
184
100
AcDbEntity
8
0
100
AcDbLine
10
93.129736498360117
20
402.68920681065657
30
0
11
99.20341496564447
21
428.99719855985785
31
0
0
LINE
5
185
100
AcDbEntity
8
0
100
AcDbLine
10
86.075439998552369
20
404.25310669336477
30
0
11
91.689055650631857
21
430.66309191317748
31
0
0
LINE
5
186
100
AcDbEntity
8
0
100
AcDbLine
10
114.11386530823765
20
397.26234210803318
30
0
11
121.55607391529664
21
423.21640789836778
31
0
0
LINE
5
187
100
AcDbEntity
8
0
100
AcDbLine
10
107.1510846724436
20
399.19329207324347
30
0
11
114.13919889021165
21
425.27328938304828
31
0
0
LINE
5
188
100
AcDbEntity
8
0
100
AcDbLine
10
100.15566477826242
20
401.00243066783173
30
0
11
106.68755595945345
21
427.20041527728364
31
0
0
LINE
5
189
100
AcDbEntity
8
0
100
AcDbLine
10
0
20
386.29999998956919
30
0
11
0
21
440.29999998956919
31
0
0
LINE
5
190
100
AcDbEntity
8
0
100
AcDbLine
10
78.994924085889551
20
405.69365393690202
30
0
11
84.146766961056244
21
432.19758788998899
31
0
0
LINE
5
191
100
AcDbEntity
8
0
100
AcDbLine
10
71.89034555410916
20
407.01040973662327
30
0
11
76.578846351116283
21
433.60021906795293
31
0
0
LINE
5
192
100
AcDbEntity
8
0
100
AcDbLine
10
187.95206689217235
20
368.17670100355343
30
0
11
200.20981038514012
21
392.23387715663938
31
0
0
LINE
5
193
100
AcDbEntity
8
0
100
AcDbLine
10
64.763868526655585
20
408.2029729959562
30
0
11
68.987599082741809
21
434.87055819202487
31
0
0
LINE
5
194
100
AcDbEntity
8
0
100
AcDbLine
10
0
20
-0.70000001043081239
30
0
11
-270
21
-0.70000001043081239
31
0
0
LWPOLYLINE
5
195
100
AcDbEntity
8
0
100
AcDbPolyline
90
4
70
1
43
0.0
10
-292.45878834295019
20
-5.2000000104308119
10
292.45878834295019
20
-5.2000000104307986
10
292.45878834295019
20
480.79999998956913
10
-292.45878834295019
20
480.79999998956913
0
ARC
5
196
100
AcDbEntity
8
0
100
AcDbCircle
10
0
20
0
30
0
40
440.37957792747255
100
AcDbArc
50
48.386211448616621
51
131.61378855138338
0
ARC
5
197
100
AcDbEntity
8
0
100
AcDbCircle
10
0
20
0
30
0
40
413.38325914804057
100
AcDbArc
50
44.970064418666041
51
135.02993558133394
0
ARC
5
198
100
AcDbEntity
8
0
100
AcDbCircle
10
0
20
0
30
0
40
386.49172110011392
100
AcDbArc
50
40.825751403769651
51
139.17424859623037
0
ENDSEC
0
SECTION
2
OBJECTS
0
DICTIONARY
5
C
100
AcDbDictionary
3
ACAD_GROUP
350
D
3
ACAD_MLINESTYLE
350
17
0
DICTIONARY
5
D
100
AcDbDictionary
0
DICTIONARY
5
1A
330
C
100
AcDbDictionary
0
DICTIONARY
5
17
100
AcDbDictionary
0
ENDSEC
0
EOF
