0
SECTION
2
HEADER
9
$INSUNITS
70
4
9
$ACADVER
1
AC1014
9
$HANDSEED
5
FFFF
0
ENDSEC
0
SECTION
2
TABLES
0
TABLE
2
VPORT
5
8
100
AcDbSymbolTable
0
ENDTAB
0
TABLE
2
LTYPE
5
5
100
AcDbSymbolTable
0
LTYPE
5
14
100
AcDbSymbolTableRecord
100
AcDbLinetypeTableRecord
2
BYBLOCK
70
0
0
LTYPE
5
15
100
AcDbSymbolTableRecord
100
AcDbLinetypeTableRecord
2
BYLAYER
70
0
0
ENDTAB
0
TABLE
2
LAYER
5
2
100
AcDbSymbolTable
70
2
0
LAYER
5
50
100
AcDbSymbolTableRecord
100
AcDbLayerTableRecord
2
0
70
0
6
CONTINUOUS
0
ENDTAB
0
TABLE
2
STYLE
5
3
100
AcDbSymbolTable
70
1
0
STYLE
5
11
100
AcDbSymbolTableRecord
100
AcDbTextStyleTableRecord
2
STANDARD
70
0
0
ENDTAB
0
TABLE
2
VIEW
5
6
100
AcDbSymbolTable
70
0
0
ENDTAB
0
TABLE
2
UCS
5
7
100
AcDbSymbolTable
70
0
0
ENDTAB
0
TABLE
2
APPID
5
9
100
AcDbSymbolTable
70
2
0
APPID
5
12
100
AcDbSymbolTableRecord
100
AcDbRegAppTableRecord
2
ACAD
70
0
0
ENDTAB
0
TABLE
2
DIMSTYLE
5
A
100
AcDbSymbolTable
70
1
0
ENDTAB
0
TABLE
2
BLOCK_RECORD
5
1
100
AcDbSymbolTable
70
1
0
BLOCK_RECORD
5
1F
100
AcDbSymbolTableRecord
100
AcDbBlockTableRecord
2
*MODEL_SPACE
0
BLOCK_RECORD
5
1B
100
AcDbSymbolTableRecord
100
AcDbBlockTableRecord
2
*PAPER_SPACE
0
ENDTAB
0
ENDSEC
0
SECTION
2
BLOCKS
0
BLOCK
5
20
100
AcDbEntity
100
AcDbBlockBegin
2
*MODEL_SPACE
0
ENDBLK
5
21
100
AcDbEntity
100
AcDbBlockEnd
0
BLOCK
5
1C
100
AcDbEntity
100
AcDbBlockBegin
2
*PAPER_SPACE
0
ENDBLK
5
1D
100
AcDbEntity
100
AcDbBlockEnd
0
ENDSEC
0
SECTION
2
ENTITIES
0
LINE
5
100
100
AcDbEntity
8
0
100
AcDbLine
10
0
20
0
30
0
11
0
21
7
31
0
0
LINE
5
101
100
AcDbEntity
8
0
100
AcDbLine
10
-2.3809523809523809
20
0
30
0
11
-2.3809523809523809
21
3
31
0
0
LINE
5
102
100
AcDbEntity
8
0
100
AcDbLine
10
-4.7619047619047619
20
0
30
0
11
-4.7619047619047619
21
3
31
0
0
LINE
5
103
100
AcDbEntity
8
0
100
AcDbLine
10
-7.1428571428571423
20
0
30
0
11
-7.1428571428571423
21
3
31
0
0
LINE
5
104
100
AcDbEntity
8
0
100
AcDbLine
10
-9.5238095238095237
20
0
30
0
11
-9.5238095238095237
21
3
31
0
0
LINE
5
105
100
AcDbEntity
8
0
100
AcDbLine
10
-11.904761904761902
20
0
30
0
11
-11.904761904761902
21
5
31
0
0
LINE
5
106
100
AcDbEntity
8
0
100
AcDbLine
10
-14.285714285714285
20
0
30
0
11
-14.285714285714285
21
3
31
0
0
LINE
5
107
100
AcDbEntity
8
0
100
AcDbLine
10
-16.666666666666664
20
0
30
0
11
-16.666666666666664
21
3
31
0
0
LINE
5
108
100
AcDbEntity
8
0
100
AcDbLine
10
-19.047619047619047
20
0
30
0
11
-19.047619047619047
21
3
31
0
0
LINE
5
109
100
AcDbEntity
8
0
100
AcDbLine
10
-21.428571428571427
20
0
30
0
11
-21.428571428571427
21
3
31
0
0
LINE
5
110
100
AcDbEntity
8
0
100
AcDbLine
10
-23.809523809523803
20
0
30
0
11
-23.809523809523803
21
7
31
0
0
LINE
5
111
100
AcDbEntity
8
0
100
AcDbLine
10
-26.19047619047619
20
0
30
0
11
-26.19047619047619
21
3
31
0
0
LINE
5
112
100
AcDbEntity
8
0
100
AcDbLine
10
-28.571428571428569
20
0
30
0
11
-28.571428571428569
21
3
31
0
0
LINE
5
113
100
AcDbEntity
8
0
100
AcDbLine
10
-30.952380952380949
20
0
30
0
11
-30.952380952380949
21
3
31
0
0
LINE
5
114
100
AcDbEntity
8
0
100
AcDbLine
10
-33.333333333333329
20
0
30
0
11
-33.333333333333329
21
3
31
0
0
LINE
5
115
100
AcDbEntity
8
0
100
AcDbLine
10
-35.714285714285715
20
0
30
0
11
-35.714285714285715
21
5
31
0
0
LINE
5
116
100
AcDbEntity
8
0
100
AcDbLine
10
-38.095238095238095
20
0
30
0
11
-38.095238095238095
21
3
31
0
0
LINE
5
117
100
AcDbEntity
8
0
100
AcDbLine
10
-40.476190476190474
20
0
30
0
11
-40.476190476190474
21
3
31
0
0
LINE
5
118
100
AcDbEntity
8
0
100
AcDbLine
10
-42.857142857142854
20
0
30
0
11
-42.857142857142854
21
3
31
0
0
LINE
5
119
100
AcDbEntity
8
0
100
AcDbLine
10
-45.238095238095241
20
0
30
0
11
-45.238095238095241
21
3
31
0
0
LINE
5
120
100
AcDbEntity
8
0
100
AcDbLine
10
-47.619047619047606
20
0
30
0
11
-47.619047619047606
21
7
31
0
0
LINE
5
121
100
AcDbEntity
8
0
100
AcDbLine
10
-50
20
0
30
0
11
-50
21
3
31
0
0
LINE
5
122
100
AcDbEntity
8
0
100
AcDbLine
10
-52.38095238095238
20
0
30
0
11
-52.38095238095238
21
3
31
0
0
LINE
5
123
100
AcDbEntity
8
0
100
AcDbLine
10
-54.761904761904759
20
0
30
0
11
-54.761904761904759
21
3
31
0
0
LINE
5
124
100
AcDbEntity
8
0
100
AcDbLine
10
-57.142857142857139
20
0
30
0
11
-57.142857142857139
21
3
31
0
0
LINE
5
125
100
AcDbEntity
8
0
100
AcDbLine
10
-59.523809523809518
20
0
30
0
11
-59.523809523809518
21
5
31
0
0
LINE
5
126
100
AcDbEntity
8
0
100
AcDbLine
10
-61.904761904761898
20
0
30
0
11
-61.904761904761898
21
3
31
0
0
LINE
5
127
100
AcDbEntity
8
0
100
AcDbLine
10
-64.285714285714278
20
0
30
0
11
-64.285714285714278
21
3
31
0
0
LINE
5
128
100
AcDbEntity
8
0
100
AcDbLine
10
-66.666666666666657
20
0
30
0
11
-66.666666666666657
21
3
31
0
0
LINE
5
129
100
AcDbEntity
8
0
100
AcDbLine
10
-69.047619047619037
20
0
30
0
11
-69.047619047619037
21
3
31
0
0
LINE
5
130
100
AcDbEntity
8
0
100
AcDbLine
10
-71.428571428571431
20
0
30
0
11
-71.428571428571431
21
7
31
0
0
LINE
5
131
100
AcDbEntity
8
0
100
AcDbLine
10
-73.80952380952381
20
0
30
0
11
-73.80952380952381
21
3
31
0
0
LINE
5
132
100
AcDbEntity
8
0
100
AcDbLine
10
-76.19047619047619
20
0
30
0
11
-76.19047619047619
21
3
31
0
0
LINE
5
133
100
AcDbEntity
8
0
100
AcDbLine
10
-78.571428571428569
20
0
30
0
11
-78.571428571428569
21
3
31
0
0
LINE
5
134
100
AcDbEntity
8
0
100
AcDbLine
10
-80.952380952380949
20
0
30
0
11
-80.952380952380949
21
3
31
0
0
LINE
5
135
100
AcDbEntity
8
0
100
AcDbLine
10
-83.333333333333314
20
0
30
0
11
-83.333333333333314
21
5
31
0
0
LINE
5
136
100
AcDbEntity
8
0
100
AcDbLine
10
-85.714285714285708
20
0
30
0
11
-85.714285714285708
21
3
31
0
0
LINE
5
137
100
AcDbEntity
8
0
100
AcDbLine
10
-88.095238095238088
20
0
30
0
11
-88.095238095238088
21
3
31
0
0
LINE
5
138
100
AcDbEntity
8
0
100
AcDbLine
10
-90.476190476190482
20
0
30
0
11
-90.476190476190482
21
3
31
0
0
LINE
5
139
100
AcDbEntity
8
0
100
AcDbLine
10
-92.857142857142847
20
0
30
0
11
-92.857142857142847
21
3
31
0
0
LINE
5
140
100
AcDbEntity
8
0
100
AcDbLine
10
-95.238095238095212
20
0
30
0
11
-95.238095238095212
21
7
31
0
0
LINE
5
141
100
AcDbEntity
8
0
100
AcDbLine
10
-97.61904761904762
20
0
30
0
11
-97.61904761904762
21
3
31
0
0
LINE
5
142
100
AcDbEntity
8
0
100
AcDbLine
10
-100
20
0
30
0
11
-100
21
3
31
0
0
LINE
5
143
100
AcDbEntity
8
0
100
AcDbLine
10
-102.38095238095238
20
0
30
0
11
-102.38095238095238
21
3
31
0
0
LINE
5
144
100
AcDbEntity
8
0
100
AcDbLine
10
-104.76190476190476
20
0
30
0
11
-104.76190476190476
21
3
31
0
0
LINE
5
145
100
AcDbEntity
8
0
100
AcDbLine
10
-107.14285714285714
20
0
30
0
11
-107.14285714285714
21
5
31
0
0
LINE
5
146
100
AcDbEntity
8
0
100
AcDbLine
10
-109.52380952380952
20
0
30
0
11
-109.52380952380952
21
3
31
0
0
LINE
5
147
100
AcDbEntity
8
0
100
AcDbLine
10
-111.9047619047619
20
0
30
0
11
-111.9047619047619
21
3
31
0
0
LINE
5
148
100
AcDbEntity
8
0
100
AcDbLine
10
-114.28571428571428
20
0
30
0
11
-114.28571428571428
21
3
31
0
0
LINE
5
149
100
AcDbEntity
8
0
100
AcDbLine
10
-116.66666666666666
20
0
30
0
11
-116.66666666666666
21
3
31
0
0
LINE
5
150
100
AcDbEntity
8
0
100
AcDbLine
10
-119.04761904761904
20
0
30
0
11
-119.04761904761904
21
7
31
0
0
LINE
5
151
100
AcDbEntity
8
0
100
AcDbLine
10
-121.42857142857142
20
0
30
0
11
-121.42857142857142
21
3
31
0
0
LINE
5
152
100
AcDbEntity
8
0
100
AcDbLine
10
-123.8095238095238
20
0
30
0
11
-123.8095238095238
21
3
31
0
0
LINE
5
153
100
AcDbEntity
8
0
100
AcDbLine
10
-126.19047619047619
20
0
30
0
11
-126.19047619047619
21
3
31
0
0
LINE
5
154
100
AcDbEntity
8
0
100
AcDbLine
10
-128.57142857142856
20
0
30
0
11
-128.57142857142856
21
3
31
0
0
LINE
5
155
100
AcDbEntity
8
0
100
AcDbLine
10
-130.95238095238093
20
0
30
0
11
-130.95238095238093
21
5
31
0
0
LINE
5
156
100
AcDbEntity
8
0
100
AcDbLine
10
-133.33333333333331
20
0
30
0
11
-133.33333333333331
21
3
31
0
0
LINE
5
157
100
AcDbEntity
8
0
100
AcDbLine
10
-135.71428571428569
20
0
30
0
11
-135.71428571428569
21
3
31
0
0
LINE
5
158
100
AcDbEntity
8
0
100
AcDbLine
10
-138.09523809523807
20
0
30
0
11
-138.09523809523807
21
3
31
0
0
LINE
5
159
100
AcDbEntity
8
0
100
AcDbLine
10
-140.47619047619048
20
0
30
0
11
-140.47619047619048
21
3
31
0
0
LINE
5
160
100
AcDbEntity
8
0
100
AcDbLine
10
-142.85714285714286
20
0
30
0
11
-142.85714285714286
21
7
31
0
0
LINE
5
161
100
AcDbEntity
8
0
100
AcDbLine
10
-145.23809523809524
20
0
30
0
11
-145.23809523809524
21
3
31
0
0
LINE
5
162
100
AcDbEntity
8
0
100
AcDbLine
10
-147.61904761904762
20
0
30
0
11
-147.61904761904762
21
3
31
0
0
LINE
5
163
100
AcDbEntity
8
0
100
AcDbLine
10
-150
20
0
30
0
11
-150
21
3
31
0
0
LINE
5
164
100
AcDbEntity
8
0
100
AcDbLine
10
-152.38095238095238
20
0
30
0
11
-152.38095238095238
21
3
31
0
0
LINE
5
165
100
AcDbEntity
8
0
100
AcDbLine
10
-154.76190476190476
20
0
30
0
11
-154.76190476190476
21
5
31
0
0
LINE
5
166
100
AcDbEntity
8
0
100
AcDbLine
10
-157.14285714285714
20
0
30
0
11
-157.14285714285714
21
3
31
0
0
LINE
5
167
100
AcDbEntity
8
0
100
AcDbLine
10
-159.52380952380952
20
0
30
0
11
-159.52380952380952
21
3
31
0
0
LINE
5
168
100
AcDbEntity
8
0
100
AcDbLine
10
-161.9047619047619
20
0
30
0
11
-161.9047619047619
21
3
31
0
0
LINE
5
169
100
AcDbEntity
8
0
100
AcDbLine
10
-164.28571428571428
20
0
30
0
11
-164.28571428571428
21
3
31
0
0
LINE
5
170
100
AcDbEntity
8
0
100
AcDbLine
10
-166.66666666666663
20
0
30
0
11
-166.66666666666663
21
7
31
0
0
LINE
5
171
100
AcDbEntity
8
0
100
AcDbLine
10
-169.04761904761904
20
0
30
0
11
-169.04761904761904
21
3
31
0
0
LINE
5
172
100
AcDbEntity
8
0
100
AcDbLine
10
-171.42857142857142
20
0
30
0
11
-171.42857142857142
21
3
31
0
0
LINE
5
173
100
AcDbEntity
8
0
100
AcDbLine
10
-173.8095238095238
20
0
30
0
11
-173.8095238095238
21
3
31
0
0
LINE
5
174
100
AcDbEntity
8
0
100
AcDbLine
10
-176.19047619047618
20
0
30
0
11
-176.19047619047618
21
3
31
0
0
LINE
5
175
100
AcDbEntity
8
0
100
AcDbLine
10
-178.57142857142856
20
0
30
0
11
-178.57142857142856
21
5
31
0
0
LINE
5
176
100
AcDbEntity
8
0
100
AcDbLine
10
-180.95238095238096
20
0
30
0
11
-180.95238095238096
21
3
31
0
0
LINE
5
177
100
AcDbEntity
8
0
100
AcDbLine
10
-183.33333333333331
20
0
30
0
11
-183.33333333333331
21
3
31
0
0
LINE
5
178
100
AcDbEntity
8
0
100
AcDbLine
10
-185.71428571428569
20
0
30
0
11
-185.71428571428569
21
3
31
0
0
LINE
5
179
100
AcDbEntity
8
0
100
AcDbLine
10
-188.09523809523807
20
0
30
0
11
-188.09523809523807
21
3
31
0
0
LINE
5
180
100
AcDbEntity
8
0
100
AcDbLine
10
-190.47619047619042
20
0
30
0
11
-190.47619047619042
21
7
31
0
0
LINE
5
181
100
AcDbEntity
8
0
100
AcDbLine
10
-192.85714285714283
20
0
30
0
11
-192.85714285714283
21
3
31
0
0
LINE
5
182
100
AcDbEntity
8
0
100
AcDbLine
10
-195.23809523809524
20
0
30
0
11
-195.23809523809524
21
3
31
0
0
LINE
5
183
100
AcDbEntity
8
0
100
AcDbLine
10
-197.61904761904762
20
0
30
0
11
-197.61904761904762
21
3
31
0
0
LINE
5
184
100
AcDbEntity
8
0
100
AcDbLine
10
-200
20
0
30
0
11
-200
21
3
31
0
0
LINE
5
185
100
AcDbEntity
8
0
100
AcDbLine
10
-202.38095238095238
20
0
30
0
11
-202.38095238095238
21
5
31
0
0
LINE
5
186
100
AcDbEntity
8
0
100
AcDbLine
10
-204.76190476190476
20
0
30
0
11
-204.76190476190476
21
3
31
0
0
LINE
5
187
100
AcDbEntity
8
0
100
AcDbLine
10
-207.14285714285717
20
0
30
0
11
-207.14285714285717
21
3
31
0
0
LINE
5
188
100
AcDbEntity
8
0
100
AcDbLine
10
-209.52380952380952
20
0
30
0
11
-209.52380952380952
21
3
31
0
0
LINE
5
189
100
AcDbEntity
8
0
100
AcDbLine
10
-211.9047619047619
20
0
30
0
11
-211.9047619047619
21
3
31
0
0
LINE
5
190
100
AcDbEntity
8
0
100
AcDbLine
10
-214.28571428571428
20
0
30
0
11
-214.28571428571428
21
7
31
0
0
LINE
5
191
100
AcDbEntity
8
0
100
AcDbLine
10
-216.66666666666663
20
0
30
0
11
-216.66666666666663
21
3
31
0
0
LINE
5
192
100
AcDbEntity
8
0
100
AcDbLine
10
-219.04761904761904
20
0
30
0
11
-219.04761904761904
21
3
31
0
0
LINE
5
193
100
AcDbEntity
8
0
100
AcDbLine
10
-221.42857142857142
20
0
30
0
11
-221.42857142857142
21
3
31
0
0
LINE
5
194
100
AcDbEntity
8
0
100
AcDbLine
10
-223.8095238095238
20
0
30
0
11
-223.8095238095238
21
3
31
0
0
LINE
5
195
100
AcDbEntity
8
0
100
AcDbLine
10
-226.19047619047618
20
0
30
0
11
-226.19047619047618
21
5
31
0
0
LINE
5
196
100
AcDbEntity
8
0
100
AcDbLine
10
-228.57142857142856
20
0
30
0
11
-228.57142857142856
21
3
31
0
0
LINE
5
197
100
AcDbEntity
8
0
100
AcDbLine
10
-230.95238095238096
20
0
30
0
11
-230.95238095238096
21
3
31
0
0
LINE
5
198
100
AcDbEntity
8
0
100
AcDbLine
10
-233.33333333333331
20
0
30
0
11
-233.33333333333331
21
3
31
0
0
LINE
5
199
100
AcDbEntity
8
0
100
AcDbLine
10
-235.71428571428569
20
0
30
0
11
-235.71428571428569
21
3
31
0
0
LINE
5
200
100
AcDbEntity
8
0
100
AcDbLine
10
-238.09523809523807
20
0
30
0
11
-238.09523809523807
21
7
31
0
0
LINE
5
201
100
AcDbEntity
8
0
100
AcDbLine
10
0
20
0
30
0
11
23.726256708513027
21
0
31
0
0
LINE
5
202
100
AcDbEntity
8
0
100
AcDbLine
10
20.327509672895001
20
15
30
0
11
7.157364909875259
21
15
31
0
0
LINE
5
203
100
AcDbEntity
8
0
100
AcDbLine
10
-50
20
30
30
0
11
-50
21
27
31
0
0
LINE
5
204
100
AcDbEntity
8
0
100
AcDbLine
10
-133.33333333333331
20
30
30
0
11
-133.33333333333331
21
27
31
0
0
LINE
5
205
100
AcDbEntity
8
0
100
AcDbLine
10
-173.8095238095238
20
30
30
0
11
-173.8095238095238
21
27
31
0
0
LINE
5
206
100
AcDbEntity
8
0
100
AcDbLine
10
-195.23809523809524
20
30
30
0
11
-195.23809523809524
21
27
31
0
0
LINE
5
207
100
AcDbEntity
8
0
100
AcDbLine
10
-192.85714285714283
20
30
30
0
11
-192.85714285714283
21
27
31
0
0
LINE
5
208
100
AcDbEntity
8
0
100
AcDbLine
10
-169.04761904761904
20
30
30
0
11
-169.04761904761904
21
27
31
0
0
LINE
5
209
100
AcDbEntity
8
0
100
AcDbLine
10
-188.09523809523802
20
30
30
0
11
-188.09523809523802
21
27
31
0
0
LINE
5
210
100
AcDbEntity
8
0
100
AcDbLine
10
-166.66666666666663
20
30
30
0
11
-166.66666666666663
21
23
31
0
0
LINE
5
211
100
AcDbEntity
8
0
100
AcDbLine
10
-180.95238095238096
20
30
30
0
11
-180.95238095238096
21
27
31
0
0
LINE
5
212
100
AcDbEntity
8
0
100
AcDbLine
10
-161.9047619047619
20
30
30
0
11
-161.9047619047619
21
27
31
0
0
LINE
5
213
100
AcDbEntity
8
0
100
AcDbLine
10
-178.57142857142856
20
30
30
0
11
-178.57142857142856
21
25
31
0
0
LINE
5
214
100
AcDbEntity
8
0
100
AcDbLine
10
-176.19047619047615
20
30
30
0
11
-176.19047619047615
21
27
31
0
0
LINE
5
215
100
AcDbEntity
8
0
100
AcDbLine
10
-171.42857142857139
20
30
30
0
11
-171.42857142857139
21
27
31
0
0
LINE
5
216
100
AcDbEntity
8
0
100
AcDbLine
10
-197.61904761904759
20
30
30
0
11
-197.61904761904759
21
27
31
0
0
LINE
5
217
100
AcDbEntity
8
0
100
AcDbLine
10
-164.28571428571422
20
30
30
0
11
-164.28571428571422
21
27
31
0
0
LINE
5
218
100
AcDbEntity
8
0
100
AcDbLine
10
-185.71428571428569
20
30
30
0
11
-185.71428571428569
21
27
31
0
0
LINE
5
219
100
AcDbEntity
8
0
100
AcDbLine
10
-183.33333333333329
20
30
30
0
11
-183.33333333333329
21
27
31
0
0
LINE
5
220
100
AcDbEntity
8
0
100
AcDbLine
10
-200
20
30
30
0
11
-200
21
27
31
0
0
LINE
5
221
100
AcDbEntity
8
0
100
AcDbLine
10
-214.28571428571422
20
30
30
0
11
-214.28571428571422
21
23
31
0
0
LINE
5
222
100
AcDbEntity
8
0
100
AcDbLine
10
-190.47619047619042
20
30
30
0
11
-190.47619047619042
21
23
31
0
0
LINE
5
223
100
AcDbEntity
8
0
100
AcDbLine
10
-209.52380952380949
20
30
30
0
11
-209.52380952380949
21
27
31
0
0
LINE
5
224
100
AcDbEntity
8
0
100
AcDbLine
10
-211.9047619047619
20
30
30
0
11
-211.9047619047619
21
27
31
0
0
LINE
5
225
100
AcDbEntity
8
0
100
AcDbLine
10
-202.38095238095235
20
30
30
0
11
-202.38095238095235
21
25
31
0
0
LINE
5
226
100
AcDbEntity
8
0
100
AcDbLine
10
-207.14285714285717
20
30
30
0
11
-207.14285714285717
21
27
31
0
0
LINE
5
227
100
AcDbEntity
8
0
100
AcDbLine
10
-204.76190476190476
20
30
30
0
11
-204.76190476190476
21
27
31
0
0
LINE
5
228
100
AcDbEntity
8
0
100
AcDbLine
10
-233.33333333333329
20
30
30
0
11
-233.33333333333329
21
27
31
0
0
LINE
5
229
100
AcDbEntity
8
0
100
AcDbLine
10
-221.42857142857139
20
30
30
0
11
-221.42857142857139
21
27
31
0
0
LINE
5
230
100
AcDbEntity
8
0
100
AcDbLine
10
-219.04761904761904
20
30
30
0
11
-219.04761904761904
21
27
31
0
0
LINE
5
231
100
AcDbEntity
8
0
100
AcDbLine
10
-216.66666666666663
20
30
30
0
11
-216.66666666666663
21
27
31
0
0
LINE
5
232
100
AcDbEntity
8
0
100
AcDbLine
10
-235.71428571428569
20
30
30
0
11
-235.71428571428569
21
27
31
0
0
LINE
5
233
100
AcDbEntity
8
0
100
AcDbLine
10
-228.57142857142856
20
30
30
0
11
-228.57142857142856
21
27
31
0
0
LINE
5
234
100
AcDbEntity
8
0
100
AcDbLine
10
-230.95238095238096
20
30
30
0
11
-230.95238095238096
21
27
31
0
0
LINE
5
235
100
AcDbEntity
8
0
100
AcDbLine
10
-223.8095238095238
20
30
30
0
11
-223.8095238095238
21
27
31
0
0
LINE
5
236
100
AcDbEntity
8
0
100
AcDbLine
10
-42.857142857142854
20
30
30
0
11
-42.857142857142854
21
27
31
0
0
LINE
5
237
100
AcDbEntity
8
0
100
AcDbLine
10
-226.19047619047615
20
30
30
0
11
-226.19047619047615
21
25
31
0
0
LINE
5
238
100
AcDbEntity
8
0
100
AcDbLine
10
-140.47619047619045
20
30
30
0
11
-140.47619047619045
21
27
31
0
0
LINE
5
239
100
AcDbEntity
8
0
100
AcDbLine
10
-142.85714285714286
20
30
30
0
11
-142.85714285714286
21
23
31
0
0
LINE
5
240
100
AcDbEntity
8
0
100
AcDbLine
10
-83.333333333333314
20
30
30
0
11
-83.333333333333314
21
25
31
0
0
LINE
5
241
100
AcDbEntity
8
0
100
AcDbLine
10
-238.09523809523802
20
30
30
0
11
-238.09523809523802
21
23
31
0
0
LINE
5
242
100
AcDbEntity
8
0
100
AcDbLine
10
-71.428571428571445
20
30
30
0
11
-71.428571428571445
21
23
31
0
0
LINE
5
243
100
AcDbEntity
8
0
100
AcDbLine
10
-66.666666666666657
20
30
30
0
11
-66.666666666666657
21
27
31
0
0
LINE
5
244
100
AcDbEntity
8
0
100
AcDbLine
10
-61.904761904761898
20
30
30
0
11
-61.904761904761898
21
27
31
0
0
LINE
5
245
100
AcDbEntity
8
0
100
AcDbLine
10
-73.80952380952381
20
30
30
0
11
-73.80952380952381
21
27
31
0
0
LINE
5
246
100
AcDbEntity
8
0
100
AcDbLine
10
-64.285714285714292
20
30
30
0
11
-64.285714285714292
21
27
31
0
0
LINE
5
247
100
AcDbEntity
8
0
100
AcDbLine
10
-76.19047619047619
20
30
30
0
11
-76.19047619047619
21
27
31
0
0
LINE
5
248
100
AcDbEntity
8
0
100
AcDbLine
10
-69.047619047619037
20
30
30
0
11
-69.047619047619037
21
27
31
0
0
LINE
5
249
100
AcDbEntity
8
0
100
AcDbLine
10
-78.571428571428555
20
30
30
0
11
-78.571428571428555
21
27
31
0
0
LINE
5
250
100
AcDbEntity
8
0
100
AcDbLine
10
-107.14285714285714
20
30
30
0
11
-107.14285714285714
21
25
31
0
0
LINE
5
251
100
AcDbEntity
8
0
100
AcDbLine
10
-95.238095238095212
20
30
30
0
11
-95.238095238095212
21
23
31
0
0
LINE
5
252
100
AcDbEntity
8
0
100
AcDbLine
10
-116.66666666666666
20
30
30
0
11
-116.66666666666666
21
27
31
0
0
LINE
5
253
100
AcDbEntity
8
0
100
AcDbLine
10
-111.9047619047619
20
30
30
0
11
-111.9047619047619
21
27
31
0
0
LINE
5
254
100
AcDbEntity
8
0
100
AcDbLine
10
-109.52380952380952
20
30
30
0
11
-109.52380952380952
21
27
31
0
0
LINE
5
255
100
AcDbEntity
8
0
100
AcDbLine
10
-97.61904761904762
20
30
30
0
11
-97.61904761904762
21
27
31
0
0
LINE
5
256
100
AcDbEntity
8
0
100
AcDbLine
10
-88.095238095238088
20
30
30
0
11
-88.095238095238088
21
27
31
0
0
LINE
5
257
100
AcDbEntity
8
0
100
AcDbLine
10
-114.28571428571428
20
30
30
0
11
-114.28571428571428
21
27
31
0
0
LINE
5
258
100
AcDbEntity
8
0
100
AcDbLine
10
-104.76190476190476
20
30
30
0
11
-104.76190476190476
21
27
31
0
0
LINE
5
259
100
AcDbEntity
8
0
100
AcDbLine
10
-92.857142857142847
20
30
30
0
11
-92.857142857142847
21
27
31
0
0
LINE
5
260
100
AcDbEntity
8
0
100
AcDbLine
10
-90.476190476190482
20
30
30
0
11
-90.476190476190482
21
27
31
0
0
LINE
5
261
100
AcDbEntity
8
0
100
AcDbLine
10
-102.38095238095238
20
30
30
0
11
-102.38095238095238
21
27
31
0
0
LINE
5
262
100
AcDbEntity
8
0
100
AcDbLine
10
-80.952380952380949
20
30
30
0
11
-80.952380952380949
21
27
31
0
0
LINE
5
263
100
AcDbEntity
8
0
100
AcDbLine
10
-57.142857142857139
20
30
30
0
11
-57.142857142857139
21
27
31
0
0
LINE
5
264
100
AcDbEntity
8
0
100
AcDbLine
10
-100
20
30
30
0
11
-100
21
27
31
0
0
LINE
5
265
100
AcDbEntity
8
0
100
AcDbLine
10
-85.714285714285708
20
30
30
0
11
-85.714285714285708
21
27
31
0
0
LINE
5
266
100
AcDbEntity
8
0
100
AcDbLine
10
-54.761904761904759
20
30
30
0
11
-54.761904761904759
21
27
31
0
0
LINE
5
267
100
AcDbEntity
8
0
100
AcDbLine
10
-154.76190476190476
20
30
30
0
11
-154.76190476190476
21
25
31
0
0
LINE
5
268
100
AcDbEntity
8
0
100
AcDbLine
10
-152.38095238095235
20
30
30
0
11
-152.38095238095235
21
27
31
0
0
LINE
5
269
100
AcDbEntity
8
0
100
AcDbLine
10
-40.476190476190474
20
30
30
0
11
-40.476190476190474
21
27
31
0
0
LINE
5
270
100
AcDbEntity
8
0
100
AcDbLine
10
-52.38095238095238
20
30
30
0
11
-52.38095238095238
21
27
31
0
0
LINE
5
271
100
AcDbEntity
8
0
100
AcDbLine
10
-119.04761904761904
20
30
30
0
11
-119.04761904761904
21
23
31
0
0
LINE
5
272
100
AcDbEntity
8
0
100
AcDbLine
10
-130.95238095238093
20
30
30
0
11
-130.95238095238093
21
25
31
0
0
LINE
5
273
100
AcDbEntity
8
0
100
AcDbLine
10
-123.8095238095238
20
30
30
0
11
-123.8095238095238
21
27
31
0
0
LINE
5
274
100
AcDbEntity
8
0
100
AcDbLine
10
-150.00000000000003
20
30
30
0
11
-150.00000000000003
21
27
31
0
0
LINE
5
275
100
AcDbEntity
8
0
100
AcDbLine
10
-59.523809523809518
20
30
30
0
11
-59.523809523809518
21
25
31
0
0
LINE
5
276
100
AcDbEntity
8
0
100
AcDbLine
10
-159.52380952380952
20
30
30
0
11
-159.52380952380952
21
27
31
0
0
LINE
5
277
100
AcDbEntity
8
0
100
AcDbLine
10
-38.095238095238095
20
30
30
0
11
-38.095238095238095
21
27
31
0
0
LINE
5
278
100
AcDbEntity
8
0
100
AcDbLine
10
-47.619047619047606
20
30
30
0
11
-47.619047619047606
21
23
31
0
0
LINE
5
279
100
AcDbEntity
8
0
100
AcDbLine
10
-45.238095238095241
20
30
30
0
11
-45.238095238095241
21
27
31
0
0
LINE
5
280
100
AcDbEntity
8
0
100
AcDbLine
10
-35.714285714285708
20
30
30
0
11
-35.714285714285708
21
25
31
0
0
LINE
5
281
100
AcDbEntity
8
0
100
AcDbLine
10
-121.42857142857142
20
30
30
0
11
-121.42857142857142
21
27
31
0
0
LINE
5
282
100
AcDbEntity
8
0
100
AcDbLine
10
-28.571428571428569
20
30
30
0
11
-28.571428571428569
21
27
31
0
0
LINE
5
283
100
AcDbEntity
8
0
100
AcDbLine
10
-23.809523809523803
20
30
30
0
11
-23.809523809523803
21
23
31
0
0
LINE
5
284
100
AcDbEntity
8
0
100
AcDbLine
10
-21.428571428571423
20
30
30
0
11
-21.428571428571423
21
27
31
0
0
LINE
5
285
100
AcDbEntity
8
0
100
AcDbLine
10
-14.285714285714285
20
30
30
0
11
-14.285714285714285
21
27
31
0
0
LINE
5
286
100
AcDbEntity
8
0
100
AcDbLine
10
-11.904761904761902
20
30
30
0
11
-11.904761904761902
21
25
31
0
0
LINE
5
287
100
AcDbEntity
8
0
100
AcDbLine
10
0
20
30
30
0
11
0
21
23
31
0
0
LINE
5
288
100
AcDbEntity
8
0
100
AcDbLine
10
-16.666666666666664
20
30
30
0
11
-16.666666666666664
21
27
31
0
0
LINE
5
289
100
AcDbEntity
8
0
100
AcDbLine
10
-2.3809523809523814
20
30
30
0
11
-2.3809523809523814
21
27
31
0
0
LINE
5
290
100
AcDbEntity
8
0
100
AcDbLine
10
-30.952380952380949
20
30
30
0
11
-30.952380952380949
21
27
31
0
0
LINE
5
291
100
AcDbEntity
8
0
100
AcDbLine
10
-4.7619047619047628
20
30
30
0
11
-4.7619047619047628
21
27
31
0
0
LINE
5
292
100
AcDbEntity
8
0
100
AcDbLine
10
-33.333333333333329
20
30
30
0
11
-33.333333333333329
21
27
31
0
0
LINE
5
293
100
AcDbEntity
8
0
100
AcDbLine
10
-26.190476190476186
20
30
30
0
11
-26.190476190476186
21
27
31
0
0
LINE
5
294
100
AcDbEntity
8
0
100
AcDbLine
10
-19.047619047619047
20
30
30
0
11
-19.047619047619047
21
27
31
0
0
LINE
5
295
100
AcDbEntity
8
0
100
AcDbLine
10
-9.5238095238095255
20
30
30
0
11
-9.5238095238095255
21
27
31
0
0
LINE
5
296
100
AcDbEntity
8
0
100
AcDbLine
10
-7.1428571428571441
20
30
30
0
11
-7.1428571428571441
21
27
31
0
0
LINE
5
297
100
AcDbEntity
8
0
100
AcDbLine
10
-128.57142857142856
20
30
30
0
11
-128.57142857142856
21
27
31
0
0
LINE
5
298
100
AcDbEntity
8
0
100
AcDbLine
10
-126.19047619047619
20
30
30
0
11
-126.19047619047619
21
27
31
0
0
LINE
5
299
100
AcDbEntity
8
0
100
AcDbLine
10
-157.14285714285714
20
30
30
0
11
-157.14285714285714
21
27
31
0
0
LINE
5
300
100
AcDbEntity
8
0
100
AcDbLine
10
-147.61904761904762
20
30
30
0
11
-147.61904761904762
21
27
31
0
0
LINE
5
301
100
AcDbEntity
8
0
100
AcDbLine
10
-135.71428571428569
20
30
30
0
11
-135.71428571428569
21
27
31
0
0
LINE
5
302
100
AcDbEntity
8
0
100
AcDbLine
10
-145.23809523809524
20
30
30
0
11
-145.23809523809524
21
27
31
0
0
LINE
5
303
100
AcDbEntity
8
0
100
AcDbLine
10
-138.09523809523807
20
30
30
0
11
-138.09523809523807
21
27
31
0
0
LINE
5
304
100
AcDbEntity
8
0
100
AcDbLine
10
-264.65444682657602
20
9.982977844665136
30
0
11
-264.65444682657602
21
19.98297784466514
31
0
0
ARC
5
305
100
AcDbEntity
8
0
100
AcDbCircle
10
-254.65444682657602
20
9.9829778446651609
30
0
40
10
210
0
220
0
230
1
100
AcDbArc
50
180
51
270
0
CIRCLE
5
306
100
AcDbEntity
8
0
100
AcDbCircle
10
-251.58532773606242
20
14.98297784466514
30
0
40
5.0000000000000009
210
0
220
0
230
1
0
ARC
5
307
100
AcDbEntity
8
0
100
AcDbCircle
10
-254.65444682657602
20
19.982977844665118
30
0
40
10
210
0
220
-0
230
1
100
AcDbArc
50
90
51
180
0
LINE
5
308
100
AcDbEntity
8
0
100
AcDbLine
10
0
20
0
30
0
11
-254.65444682657602
21
0
31
0
0
LINE
5
309
100
AcDbEntity
8
0
100
AcDbLine
10
-254.65444682657602
20
29.982977844665118
30
0
11
0
21
29.982977844665118
31
0
0
LINE
5
310
100
AcDbEntity
8
0
100
AcDbLine
10
0
20
29.982977844665118
30
0
11
0
21
0
31
0
0
LWPOLYLINE
5
311
100
AcDbEntity
8
0
100
AcDbPolyline
90
7
70
1
43
0.0
10
-25.548901540369052
20
12.257706299947209
10
-21.307329670705943
20
12.254328621900948
10
-21.306759268282285
20
12.970620358841675
10
-26.306757682941459
20
12.974601992395341
10
-26.307328085365114
20
12.258310255454612
10
-25.781213238322827
20
11.541598806825286
10
-25.022786693326754
20
11.54099485131788
0
LWPOLYLINE
5
312
100
AcDbEntity
8
0
100
AcDbPolyline
90
4
70
1
43
0.0
10
-22.022173330532166
20
14.073718685985339
10
-21.305881295568309
20
14.073148283324354
10
-21.305310892907329
20
14.789440318288211
10
-22.021602927871186
20
14.790010720949198
0
SPLINE
5
313
100
AcDbEntity
8
0
100
AcDbSpline
70
0
71
2
72
6
73
3
74
0
42
0.000000001
43
0.0000000001
44
0.0000000001
40
0
40
0
40
0
40
1
40
1
40
1
10
-25.272581355946393
20
15.326306873826148
30
0
10
-25.525390204278416
20
15.326508192328616
30
0
10
-25.721952201894517
20
15.410934985543022
30
0
0
SPLINE
5
314
100
AcDbEntity
8
0
100
AcDbSpline
70
0
71
2
72
6
73
3
74
0
42
0.000000001
43
0.0000000001
44
0.0000000001
40
0
40
0
40
0
40
1
40
1
40
1
10
-25.721952201894517
20
15.410934985543022
30
0
10
-25.918508608160629
20
15.502383203685701
30
0
10
-26.058840830456447
20
15.649967024740752
30
0
0
SPLINE
5
315
100
AcDbEntity
8
0
100
AcDbSpline
70
0
71
2
72
6
73
3
74
0
42
0.000000001
43
0.0000000001
44
0.0000000001
40
0
40
0
40
0
40
1
40
1
40
1
10
-26.058840830456447
20
15.649967024740752
30
0
10
-26.19917275472914
20
15.797550845558479
30
0
10
-26.269246445588529
20
15.98721385064843
30
0
0
SPLINE
5
316
100
AcDbEntity
8
0
100
AcDbSpline
70
0
71
2
72
6
73
3
74
0
42
0.000000001
43
0.0000000001
44
0.0000000001
40
0
40
0
40
0
40
1
40
1
40
1
10
-26.269246445588529
20
15.98721385064843
30
0
10
-26.346336566072459
20
16.183903872491289
30
0
10
-26.346168800416411
20
16.394578210791106
30
0
0
SPLINE
5
317
100
AcDbEntity
8
0
100
AcDbSpline
70
0
71
2
72
6
73
3
74
0
42
0.000000001
43
0.0000000001
44
0.0000000001
40
0
40
0
40
0
40
1
40
1
40
1
10
-26.346168800416411
20
16.394578210791106
30
0
10
-26.346001035235012
20
16.605251953044661
30
0
10
-26.268603344935414
20
16.79479752269749
30
0
0
SPLINE
5
318
100
AcDbEntity
8
0
100
AcDbSpline
70
0
71
2
72
6
73
3
74
0
42
0.000000001
43
0.0000000001
44
0.0000000001
40
0
40
0
40
0
40
1
40
1
40
1
10
-26.268603344935414
20
16.79479752269749
30
0
10
-26.198222083785716
20
16.991370705149489
30
0
10
-26.057655287689489
20
17.138730838742251
30
0
0
SPLINE
5
319
100
AcDbEntity
8
0
100
AcDbSpline
70
0
71
2
72
6
73
3
74
0
42
0.000000001
43
0.0000000001
44
0.0000000001
40
0
40
0
40
0
40
1
40
1
40
1
10
-26.057655287689489
20
17.138730838742251
30
0
10
-25.91708819404478
20
17.28609037605143
30
0
10
-25.720391983144406
20
17.370204007150889
30
0
0
SPLINE
5
320
100
AcDbEntity
8
0
100
AcDbSpline
70
0
71
2
72
6
73
3
74
0
42
0.000000001
43
0.0000000001
44
0.0000000001
40
0
40
0
40
0
40
1
40
1
40
1
10
-25.720391983144406
20
17.370204007150889
30
0
10
-25.52369018089404
20
17.461339063178617
30
0
10
-25.270881332562016
20
17.461137744676147
30
0
0
LINE
5
321
100
AcDbEntity
8
0
100
AcDbLine
10
-25.270881332562016
20
17.461137744676147
30
0
11
-22.335489108660617
21
17.458800212700616
31
0
0
SPLINE
5
322
100
AcDbEntity
8
0
100
AcDbSpline
70
0
71
2
72
6
73
3
74
0
42
0.000000001
43
0.0000000001
44
0.0000000001
40
0
40
0
40
0
40
1
40
1
40
1
10
-22.335489108660617
20
17.458800212700616
30
0
10
-22.082679962305463
20
17.458598893960829
30
0
10
-21.886123556039351
20
17.367150675818152
30
0
0
SPLINE
5
323
100
AcDbEntity
8
0
100
AcDbSpline
70
0
71
2
72
6
73
3
74
0
42
0.000000001
43
0.0000000001
44
0.0000000001
40
0
40
0
40
0
40
1
40
1
40
1
10
-21.886123556039351
20
17.367150675818152
30
0
10
-21.68956155842325
20
17.28272388260374
30
0
10
-21.54922963367591
20
17.135140657832274
30
0
0
SPLINE
5
324
100
AcDbEntity
8
0
100
AcDbSpline
70
0
71
2
72
6
73
3
74
0
42
0.000000001
43
0.0000000001
44
0.0000000001
40
0
40
0
40
0
40
1
40
1
40
1
10
-21.54922963367591
20
17.135140657832274
30
0
10
-21.408897709403224
20
16.987556837014548
30
0
10
-21.331806993347683
20
16.79086621865078
30
0
0
SPLINE
5
325
100
AcDbEntity
8
0
100
AcDbSpline
70
0
71
2
72
6
73
3
74
0
42
0.000000001
43
0.0000000001
44
0.0000000001
40
0
40
0
40
0
40
1
40
1
40
1
10
-21.331806993347683
20
16.79086621865078
30
0
10
-21.261733004465164
20
16.601203213323505
30
0
10
-21.261900769646562
20
16.39052947106995
30
0
0
SPLINE
5
326
100
AcDbEntity
8
0
100
AcDbSpline
70
0
71
2
72
6
73
3
74
0
42
0.000000001
43
0.0000000001
44
0.0000000001
40
0
40
0
40
0
40
1
40
1
40
1
10
-21.261900769646562
20
16.39052947106995
30
0
10
-21.26206853530261
20
16.179855132770133
30
0
10
-21.332450094000794
20
15.983282546601721
30
0
0
SPLINE
5
327
100
AcDbEntity
8
0
100
AcDbSpline
70
0
71
2
72
6
73
3
74
0
42
0.000000001
43
0.0000000001
44
0.0000000001
40
0
40
0
40
0
40
1
40
1
40
1
10
-21.332450094000794
20
15.983282546601721
30
0
10
-21.409848380346649
20
15.793736977423535
30
0
10
-21.550415176442872
20
15.646376843830774
30
0
0
SPLINE
5
328
100
AcDbEntity
8
0
100
AcDbSpline
70
0
71
2
72
6
73
3
74
0
42
0.000000001
43
0.0000000001
44
0.0000000001
40
0
40
0
40
0
40
1
40
1
40
1
10
-21.550415176442872
20
15.646376843830774
30
0
10
-21.690981972539095
20
15.499016710238012
30
0
10
-21.887683774789465
20
15.407881654210286
30
0
0
SPLINE
5
329
100
AcDbEntity
8
0
100
AcDbSpline
70
0
71
2
72
6
73
3
74
0
42
0.000000001
43
0.0000000001
44
0.0000000001
40
0
40
0
40
0
40
1
40
1
40
1
10
-21.887683774789465
20
15.407881654210286
30
0
10
-22.084379985689839
20
15.323768023110826
30
0
10
-22.33718913204499
20
15.323969341850621
30
0
0
LINE
5
330
100
AcDbEntity
8
0
100
AcDbLine
10
-22.33718913204499
20
15.323969341850621
30
0
11
-25.272581355946393
21
15.326306873826148
31
0
0
SPLINE
5
331
100
AcDbEntity
8
0
100
AcDbSpline
70
0
71
2
72
6
73
3
74
0
42
0.000000001
43
0.0000000001
44
0.0000000001
40
0
40
0
40
0
40
1
40
1
40
1
10
-22.336618728909361
20
16.040261972860737
30
0
10
-22.182124134683328
20
16.040138944649684
30
0
10
-22.076708973265138
20
16.138369316164972
30
0
0
SPLINE
5
332
100
AcDbEntity
8
0
100
AcDbSpline
70
0
71
2
72
6
73
3
74
0
42
0.000000001
43
0.0000000001
44
0.0000000001
40
0
40
0
40
0
40
1
40
1
40
1
10
-22.076708973265138
20
16.138369316164972
30
0
10
-21.978316130844604
20
16.236605279742228
30
0
10
-21.978193102633551
20
16.391099873968255
30
0
0
SPLINE
5
333
100
AcDbEntity
8
0
100
AcDbSpline
70
0
71
2
72
6
73
3
74
0
42
0.000000001
43
0.0000000001
44
0.0000000001
40
0
40
0
40
0
40
1
40
1
40
1
10
-21.978193102633551
20
16.391099873968255
30
0
10
-21.978070074897143
20
16.545593872148029
30
0
10
-22.076306336260203
20
16.643987012829019
30
0
0
SPLINE
5
334
100
AcDbEntity
8
0
100
AcDbSpline
70
0
71
2
72
6
73
3
74
0
42
0.000000001
43
0.0000000001
44
0.0000000001
40
0
40
0
40
0
40
1
40
1
40
1
10
-22.076306336260203
20
16.643987012829019
30
0
10
-22.181564916620921
20
16.742385745571966
30
0
10
-22.336059510846948
20
16.742508773783019
30
0
0
LINE
5
335
100
AcDbEntity
8
0
100
AcDbLine
10
-22.336059510846948
20
16.742508773783019
30
0
11
-25.27145173474835
21
16.74484630575855
31
0
0
SPLINE
5
336
100
AcDbEntity
8
0
100
AcDbSpline
70
0
71
2
72
6
73
3
74
0
42
0.000000001
43
0.0000000001
44
0.0000000001
40
0
40
0
40
0
40
1
40
1
40
1
10
-25.271451734748354
20
16.744846305758546
30
0
10
-25.425946030951252
20
16.744969333732278
30
0
10
-25.524338873846439
20
16.646732774108767
30
0
0
SPLINE
5
337
100
AcDbEntity
8
0
100
AcDbSpline
70
0
71
2
72
6
73
3
74
0
42
0.000000001
43
0.0000000001
44
0.0000000001
40
0
40
0
40
0
40
1
40
1
40
1
10
-25.524338873846439
20
16.646732774108767
30
0
10
-25.629754333762406
20
16.548501806784543
30
0
10
-25.629877361498814
20
16.394007808604769
30
0
0
SPLINE
5
338
100
AcDbEntity
8
0
100
AcDbSpline
70
0
71
2
72
6
73
3
74
0
42
0.000000001
43
0.0000000001
44
0.0000000001
40
0
40
0
40
0
40
1
40
1
40
1
10
-25.629877361498814
20
16.394007808604769
30
0
10
-25.630000389709867
20
16.239513214378739
30
0
10
-25.524741510851371
20
16.141115077444724
30
0
0
SPLINE
5
339
100
AcDbEntity
8
0
100
AcDbSpline
70
0
71
2
72
6
73
3
74
0
42
0.000000001
43
0.0000000001
44
0.0000000001
40
0
40
0
40
0
40
1
40
1
40
1
10
-25.524741510851371
20
16.141115077444724
30
0
10
-25.426505249013665
20
16.042722532809996
30
0
10
-25.27201095281076
20
16.042599504836264
30
0
0
LINE
5
340
100
AcDbEntity
8
0
100
AcDbLine
10
-25.27201095281076
20
16.042599504836264
30
0
11
-22.336618728909361
21
16.040261972860737
31
0
0
LINE
5
341
100
AcDbEntity
8
0
100
AcDbLine
10
-45.117477008413836
20
11.471323382993276
30
0
11
-45.791634235322363
21
11.471860232570517
31
0
0
LINE
5
342
100
AcDbEntity
8
0
100
AcDbLine
10
-45.791634235322363
20
11.471860232570517
30
0
11
-48.227402418108348
21
12.765935131560525
31
0
0
SPLINE
5
343
100
AcDbEntity
8
0
100
AcDbSpline
70
0
71
2
72
6
73
3
74
0
42
0.000000001
43
0.0000000001
44
0.0000000001
40
0
40
0
40
0
40
1
40
1
40
1
10
-48.227402418108348
20
12.765935131560525
30
0
10
-48.409908295819406
20
12.864395080385872
30
0
10
-48.543324152644949
20
12.878546267954839
30
0
0
SPLINE
5
344
100
AcDbEntity
8
0
100
AcDbSpline
70
0
71
2
72
6
73
3
74
0
42
0.000000001
43
0.0000000001
44
0.0000000001
40
0
40
0
40
0
40
1
40
1
40
1
10
-48.543324152644949
20
12.878546267954839
30
0
10
-48.683762328230841
20
12.892703345608894
30
0
10
-48.887414049509857
20
12.892865518965655
30
0
0
SPLINE
5
345
100
AcDbEntity
8
0
100
AcDbSpline
70
0
71
2
72
6
73
3
74
0
42
0.000000001
43
0.0000000001
44
0.0000000001
40
0
40
0
40
0
40
1
40
1
40
1
10
-48.887414049509857
20
12.892865518965655
30
0
10
-48.978705984618202
20
12.892938217195109
30
0
10
-49.077026129046601
20
12.885993890703059
30
0
0
SPLINE
5
346
100
AcDbEntity
8
0
100
AcDbSpline
70
0
71
2
72
6
73
3
74
0
42
0.000000001
43
0.0000000001
44
0.0000000001
40
0
40
0
40
0
40
1
40
1
40
1
10
-49.077026129046601
20
12.885993890703059
30
0
10
-49.182363298196506
20
12.886077773531081
30
0
10
-49.259638556331311
20
12.85102679857893
30
0
0
SPLINE
5
347
100
AcDbEntity
8
0
100
AcDbSpline
70
0
71
2
72
6
73
3
74
0
42
0.000000001
43
0.0000000001
44
0.0000000001
40
0
40
0
40
0
40
1
40
1
40
1
10
-49.259638556331311
20
12.85102679857893
30
0
10
-49.336913516442976
20
12.815975823389454
30
0
10
-49.386126863088016
20
12.745790586703386
30
0
0
SPLINE
5
348
100
AcDbEntity
8
0
100
AcDbSpline
70
0
71
2
72
6
73
3
74
0
42
0.000000001
43
0.0000000001
44
0.0000000001
40
0
40
0
40
0
40
1
40
1
40
1
10
-49.386126863088016
20
12.745790586703386
30
0
10
-49.442362529205369
20
12.675610346033022
30
0
10
-49.44246878051856
20
12.542183602869352
30
0
0
SPLINE
5
349
100
AcDbEntity
8
0
100
AcDbSpline
70
0
71
2
72
6
73
3
74
0
42
0.000000001
43
0.0000000001
44
0.0000000001
40
0
40
0
40
0
40
1
40
1
40
1
10
-49.44246878051856
20
12.542183602869352
30
0
10
-49.442597400791577
20
12.380666689645663
30
0
10
-49.351383458188856
20
12.282279439049768
30
0
0
SPLINE
5
350
100
AcDbEntity
8
0
100
AcDbSpline
70
0
71
2
72
6
73
3
74
0
42
0.000000001
43
0.0000000001
44
0.0000000001
40
0
40
0
40
0
40
1
40
1
40
1
10
-49.351383458188856
20
12.282279439049768
30
0
10
-49.260164221309978
20
12.190914805711985
30
0
10
-49.084602372067835
20
12.190775001077721
30
0
0
LINE
5
351
100
AcDbEntity
8
0
100
AcDbLine
10
-49.084602372067835
20
12.190775001077723
30
0
11
-48.677298929509789
21
12.190450654364199
31
0
0
LINE
5
352
100
AcDbEntity
8
0
100
AcDbLine
10
-48.677298929509789
20
12.190450654364199
30
0
11
-48.677869332170765
21
11.474158619400338
31
0
0
LINE
5
353
100
AcDbEntity
8
0
100
AcDbLine
10
-48.677869332170765
20
11.474158619400338
30
0
11
-49.071127838710368
21
11.474471781752612
31
0
0
SPLINE
5
354
100
AcDbEntity
8
0
100
AcDbSpline
70
0
71
2
72
6
73
3
74
0
42
0.000000001
43
0.0000000001
44
0.0000000001
40
0
40
0
40
0
40
1
40
1
40
1
10
-49.071127838710382
20
11.474471781752612
30
0
10
-49.295846815005504
20
11.474650731532584
30
0
10
-49.492408813096262
20
11.559076928700733
30
0
0
SPLINE
5
355
100
AcDbEntity
8
0
100
AcDbSpline
70
0
71
2
72
6
73
3
74
0
42
0.000000001
43
0.0000000001
44
0.0000000001
40
0
40
0
40
0
40
1
40
1
40
1
10
-49.492408813096262
20
11.559076928700733
30
0
10
-49.688971109091476
20
11.643503275117769
30
0
10
-49.836325352480486
20
11.791092538985895
30
0
0
SPLINE
5
356
100
AcDbEntity
8
0
100
AcDbSpline
70
0
71
2
72
6
73
3
74
0
42
0.000000001
43
0.0000000001
44
0.0000000001
40
0
40
0
40
0
40
1
40
1
40
1
10
-49.836325352480486
20
11.791092538985895
30
0
10
-49.983685486073242
20
11.93165933508212
30
0
10
-50.067798521126441
20
12.12835554550785
30
0
0
SPLINE
5
357
100
AcDbEntity
8
0
100
AcDbSpline
70
0
71
2
72
6
73
3
74
0
42
0.000000001
43
0.0000000001
44
0.0000000001
40
0
40
0
40
0
40
1
40
1
40
1
10
-50.067798521126441
20
12.12835554550785
30
0
10
-50.158933875177297
20
12.325057347995541
30
0
10
-50.158754925160011
20
12.5497766223138
30
0
0
SPLINE
5
358
100
AcDbEntity
8
0
100
AcDbSpline
70
0
71
2
72
6
73
3
74
0
42
0.000000001
43
0.0000000001
44
0.0000000001
40
0
40
0
40
0
40
1
40
1
40
1
10
-50.158754925160011
20
12.5497766223138
30
0
10
-50.158531237935044
20
12.830675342682714
30
0
10
-50.053037785750789
20
13.027220564350252
30
0
0
SPLINE
5
359
100
AcDbEntity
8
0
100
AcDbSpline
70
0
71
2
72
6
73
3
74
0
42
0.000000001
43
0.0000000001
44
0.0000000001
40
0
40
0
40
0
40
1
40
1
40
1
10
-50.053037785750789
20
13.027220564350252
30
0
10
-49.954561060264908
20
13.230793995100543
30
0
10
-49.778892959709573
20
13.364080933629946
30
0
0
SPLINE
5
360
100
AcDbEntity
8
0
100
AcDbSpline
70
0
71
2
72
6
73
3
74
0
42
0.000000001
43
0.0000000001
44
0.0000000001
40
0
40
0
40
0
40
1
40
1
40
1
10
-49.778892959709573
20
13.364080933629946
30
0
10
-49.603230450978877
20
13.490345851184822
30
0
10
-49.37846673723876
20
13.546346645478632
30
0
0
SPLINE
5
361
100
AcDbEntity
8
0
100
AcDbSpline
70
0
71
2
72
6
73
3
74
0
42
0.000000001
43
0.0000000001
44
0.0000000001
40
0
40
0
40
0
40
1
40
1
40
1
10
-49.37846673723876
20
13.546346645478632
30
0
10
-49.153697431436676
20
13.609369758770102
30
0
10
-48.900888583104646
20
13.609168440267634
30
0
0
SPLINE
5
362
100
AcDbEntity
8
0
100
AcDbSpline
70
0
71
2
72
6
73
3
74
0
42
0.000000001
43
0.0000000001
44
0.0000000001
40
0
40
0
40
0
40
1
40
1
40
1
10
-48.900888583104646
20
13.609168440267634
30
0
10
-48.718304414864861
20
13.609023043571407
30
0
10
-48.591905284737678
20
13.601900065085191
30
0
0
SPLINE
5
363
100
AcDbEntity
8
0
100
AcDbSpline
70
0
71
2
72
6
73
3
74
0
42
0.000000001
43
0.0000000001
44
0.0000000001
40
0
40
0
40
0
40
1
40
1
40
1
10
-48.591905284737678
20
13.601900065085191
30
0
10
-48.472529069891735
20
13.594782381112456
30
0
10
-48.36018635816739
20
13.573625651206365
30
0
0
SPLINE
5
364
100
AcDbEntity
8
0
100
AcDbSpline
70
0
71
2
72
6
73
3
74
0
42
0.000000001
43
0.0000000001
44
0.0000000001
40
0
40
0
40
0
40
1
40
1
40
1
10
-48.36018635816739
20
13.573625651206365
30
0
10
-48.247843348657227
20
13.552468623039822
30
0
10
-48.135523005892686
20
13.503221723073713
30
0
0
SPLINE
5
365
100
AcDbEntity
8
0
100
AcDbSpline
70
0
71
2
72
6
73
3
74
0
42
0.000000001
43
0.0000000001
44
0.0000000001
40
0
40
0
40
0
40
1
40
1
40
1
10
-48.135523005892686
20
13.503221723073713
30
0
10
-48.023202662890832
20
13.45397512113073
30
0
10
-47.861753153857762
20
13.369576884984365
30
0
0
LINE
5
366
100
AcDbEntity
8
0
100
AcDbLine
10
-47.861753153857762
20
13.369576884984365
30
0
11
-45.833097981465478
21
12.314590244784132
31
0
0
LINE
5
367
100
AcDbEntity
8
0
100
AcDbLine
10
-45.833097981465478
20
12.314590244784132
30
0
11
-45.83206901999332
21
13.606724656504261
31
0
0
LINE
5
368
100
AcDbEntity
8
0
100
AcDbLine
10
-45.83206901999332
20
13.606724656504261
30
0
11
-45.115776985029463
21
13.606154253843277
31
0
0
LINE
5
369
100
AcDbEntity
8
0
100
AcDbLine
10
-45.115776985029463
20
13.606154253843277
30
0
11
-45.117477008413836
21
11.471323382993276
31
0
0
LWPOLYLINE
5
370
100
AcDbEntity
8
0
100
AcDbPolyline
90
4
70
1
43
0.0
10
-45.831644014028555
20
14.140432523228325
10
-45.115351979064698
20
14.139862120567342
10
-45.114781576403722
20
14.8561541555312
10
-45.831073611367579
20
14.856724558192184
0
SPLINE
5
371
100
AcDbEntity
8
0
100
AcDbSpline
70
0
71
2
72
6
73
3
74
0
42
0.000000001
43
0.0000000001
44
0.0000000001
40
0
40
0
40
0
40
1
40
1
40
1
10
-49.082052039442786
20
15.393020711069134
30
0
10
-49.334860887774809
20
15.393222029571604
30
0
10
-49.53142288539091
20
15.477648822786012
30
0
0
SPLINE
5
372
100
AcDbEntity
8
0
100
AcDbSpline
70
0
71
2
72
6
73
3
74
0
42
0.000000001
43
0.0000000001
44
0.0000000001
40
0
40
0
40
0
40
1
40
1
40
1
10
-49.53142288539091
20
15.477648822786012
30
0
10
-49.727979291657022
20
15.569097040928689
30
0
10
-49.868311513952847
20
15.71668086198374
30
0
0
SPLINE
5
373
100
AcDbEntity
8
0
100
AcDbSpline
70
0
71
2
72
6
73
3
74
0
42
0.000000001
43
0.0000000001
44
0.0000000001
40
0
40
0
40
0
40
1
40
1
40
1
10
-49.868311513952847
20
15.71668086198374
30
0
10
-50.008643438225526
20
15.864264682801466
30
0
10
-50.078717129084922
20
16.053927687891417
30
0
0
SPLINE
5
374
100
AcDbEntity
8
0
100
AcDbSpline
70
0
71
2
72
6
73
3
74
0
42
0.000000001
43
0.0000000001
44
0.0000000001
40
0
40
0
40
0
40
1
40
1
40
1
10
-50.078717129084922
20
16.053927687891417
30
0
10
-50.155807249568852
20
16.250617709734279
30
0
10
-50.155639483912807
20
16.461292048034093
30
0
0
SPLINE
5
375
100
AcDbEntity
8
0
100
AcDbSpline
70
0
71
2
72
6
73
3
74
0
42
0.000000001
43
0.0000000001
44
0.0000000001
40
0
40
0
40
0
40
1
40
1
40
1
10
-50.155639483912807
20
16.461292048034093
30
0
10
-50.155471718731405
20
16.671965790287647
30
0
10
-50.078074028431807
20
16.861511359940479
30
0
0
SPLINE
5
376
100
AcDbEntity
8
0
100
AcDbSpline
70
0
71
2
72
6
73
3
74
0
42
0.000000001
43
0.0000000001
44
0.0000000001
40
0
40
0
40
0
40
1
40
1
40
1
10
-50.078074028431807
20
16.861511359940479
30
0
10
-50.007692767282109
20
17.058084542392479
30
0
10
-49.867125971185885
20
17.205444675985238
30
0
0
SPLINE
5
377
100
AcDbEntity
8
0
100
AcDbSpline
70
0
71
2
72
6
73
3
74
0
42
0.000000001
43
0.0000000001
44
0.0000000001
40
0
40
0
40
0
40
1
40
1
40
1
10
-49.867125971185885
20
17.205444675985238
30
0
10
-49.72655887754118
20
17.352804213294419
30
0
10
-49.529862666640803
20
17.436917844393879
30
0
0
SPLINE
5
378
100
AcDbEntity
8
0
100
AcDbSpline
70
0
71
2
72
6
73
3
74
0
42
0.000000001
43
0.0000000001
44
0.0000000001
40
0
40
0
40
0
40
1
40
1
40
1
10
-49.529862666640803
20
17.436917844393879
30
0
10
-49.333160864390429
20
17.528052900421606
30
0
10
-49.080352016058413
20
17.527851581919137
30
0
0
LINE
5
379
100
AcDbEntity
8
0
100
AcDbLine
10
-49.080352016058413
20
17.527851581919137
30
0
11
-46.14495979215701
21
17.525514049943606
31
0
0
SPLINE
5
380
100
AcDbEntity
8
0
100
AcDbSpline
70
0
71
2
72
6
73
3
74
0
42
0.000000001
43
0.0000000001
44
0.0000000001
40
0
40
0
40
0
40
1
40
1
40
1
10
-46.144959792157003
20
17.525514049943606
30
0
10
-45.892150645801863
20
17.525312731203815
30
0
10
-45.695594239535744
20
17.433864513061138
30
0
0
SPLINE
5
381
100
AcDbEntity
8
0
100
AcDbSpline
70
0
71
2
72
6
73
3
74
0
42
0.000000001
43
0.0000000001
44
0.0000000001
40
0
40
0
40
0
40
1
40
1
40
1
10
-45.695594239535744
20
17.433864513061138
30
0
10
-45.499032241919643
20
17.34943771984673
30
0
10
-45.358700317172307
20
17.20185449507526
30
0
0
SPLINE
5
382
100
AcDbEntity
8
0
100
AcDbSpline
70
0
71
2
72
6
73
3
74
0
42
0.000000001
43
0.0000000001
44
0.0000000001
40
0
40
0
40
0
40
1
40
1
40
1
10
-45.358700317172307
20
17.20185449507526
30
0
10
-45.218368392899613
20
17.054270674257538
30
0
10
-45.141277676844076
20
16.85758005589377
30
0
0
SPLINE
5
383
100
AcDbEntity
8
0
100
AcDbSpline
70
0
71
2
72
6
73
3
74
0
42
0.000000001
43
0.0000000001
44
0.0000000001
40
0
40
0
40
0
40
1
40
1
40
1
10
-45.141277676844076
20
16.85758005589377
30
0
10
-45.071203687961557
20
16.667917050566491
30
0
10
-45.071371453142959
20
16.457243308312936
30
0
0
SPLINE
5
384
100
AcDbEntity
8
0
100
AcDbSpline
70
0
71
2
72
6
73
3
74
0
42
0.000000001
43
0.0000000001
44
0.0000000001
40
0
40
0
40
0
40
1
40
1
40
1
10
-45.071371453142959
20
16.457243308312936
30
0
10
-45.071539218799003
20
16.246568970013122
30
0
10
-45.141920777497191
20
16.049996383844707
30
0
0
SPLINE
5
385
100
AcDbEntity
8
0
100
AcDbSpline
70
0
71
2
72
6
73
3
74
0
42
0.000000001
43
0.0000000001
44
0.0000000001
40
0
40
0
40
0
40
1
40
1
40
1
10
-45.141920777497191
20
16.049996383844707
30
0
10
-45.219319063843038
20
15.860450814666525
30
0
10
-45.359885859939268
20
15.71309068107376
30
0
0
SPLINE
5
386
100
AcDbEntity
8
0
100
AcDbSpline
70
0
71
2
72
6
73
3
74
0
42
0.000000001
43
0.0000000001
44
0.0000000001
40
0
40
0
40
0
40
1
40
1
40
1
10
-45.359885859939268
20
15.71309068107376
30
0
10
-45.500452656035492
20
15.565730547480999
30
0
10
-45.697154458285858
20
15.474595491453274
30
0
0
SPLINE
5
387
100
AcDbEntity
8
0
100
AcDbSpline
70
0
71
2
72
6
73
3
74
0
42
0.000000001
43
0.0000000001
44
0.0000000001
40
0
40
0
40
0
40
1
40
1
40
1
10
-45.697154458285858
20
15.474595491453274
30
0
10
-45.893850669186236
20
15.390481860353816
30
0
10
-46.146659815541391
20
15.390683179093607
30
0
0
LINE
5
388
100
AcDbEntity
8
0
100
AcDbLine
10
-46.146659815541398
20
15.390683179093607
30
0
11
-49.082052039442786
21
15.393020711069134
31
0
0
SPLINE
5
389
100
AcDbEntity
8
0
100
AcDbSpline
70
0
71
2
72
6
73
3
74
0
42
0.000000001
43
0.0000000001
44
0.0000000001
40
0
40
0
40
0
40
1
40
1
40
1
10
-46.146089412405757
20
16.106975810103723
30
0
10
-45.991594818179721
20
16.10685278189267
30
0
10
-45.886179656761534
20
16.205083153407962
30
0
0
SPLINE
5
390
100
AcDbEntity
8
0
100
AcDbSpline
70
0
71
2
72
6
73
3
74
0
42
0.000000001
43
0.0000000001
44
0.0000000001
40
0
40
0
40
0
40
1
40
1
40
1
10
-45.886179656761534
20
16.205083153407962
30
0
10
-45.787786814341004
20
16.303319116985215
30
0
10
-45.78766378612994
20
16.457813711211244
30
0
0
SPLINE
5
391
100
AcDbEntity
8
0
100
AcDbSpline
70
0
71
2
72
6
73
3
74
0
42
0.000000001
43
0.0000000001
44
0.0000000001
40
0
40
0
40
0
40
1
40
1
40
1
10
-45.78766378612994
20
16.457813711211244
30
0
10
-45.787540758393533
20
16.612307709391018
30
0
10
-45.885777019756596
20
16.710700850072005
30
0
0
SPLINE
5
392
100
AcDbEntity
8
0
100
AcDbSpline
70
0
71
2
72
6
73
3
74
0
42
0.000000001
43
0.0000000001
44
0.0000000001
40
0
40
0
40
0
40
1
40
1
40
1
10
-45.885777019756596
20
16.710700850072005
30
0
10
-45.991035600117314
20
16.809099582814952
30
0
10
-46.145530194343337
20
16.809222611026009
30
0
0
LINE
5
393
100
AcDbEntity
8
0
100
AcDbLine
10
-46.145530194343337
20
16.809222611026009
30
0
11
-49.080922418244739
21
16.811560143001536
31
0
0
SPLINE
5
394
100
AcDbEntity
8
0
100
AcDbSpline
70
0
71
2
72
6
73
3
74
0
42
0.000000001
43
0.0000000001
44
0.0000000001
40
0
40
0
40
0
40
1
40
1
40
1
10
-49.080922418244754
20
16.811560143001536
30
0
10
-49.235416714447652
20
16.811683170975268
30
0
10
-49.333809557342825
20
16.713446611351756
30
0
0
SPLINE
5
395
100
AcDbEntity
8
0
100
AcDbSpline
70
0
71
2
72
6
73
3
74
0
42
0.000000001
43
0.0000000001
44
0.0000000001
40
0
40
0
40
0
40
1
40
1
40
1
10
-49.333809557342825
20
16.713446611351756
30
0
10
-49.439225017258799
20
16.615215644027529
30
0
10
-49.439348044995207
20
16.460721645847759
30
0
0
SPLINE
5
396
100
AcDbEntity
8
0
100
AcDbSpline
70
0
71
2
72
6
73
3
74
0
42
0.000000001
43
0.0000000001
44
0.0000000001
40
0
40
0
40
0
40
1
40
1
40
1
10
-49.439348044995207
20
16.460721645847759
30
0
10
-49.439471073206256
20
16.306227051621725
30
0
10
-49.334212194347764
20
16.207828914687713
30
0
0
SPLINE
5
397
100
AcDbEntity
8
0
100
AcDbSpline
70
0
71
2
72
6
73
3
74
0
42
0.000000001
43
0.0000000001
44
0.0000000001
40
0
40
0
40
0
40
1
40
1
40
1
10
-49.334212194347764
20
16.207828914687713
30
0
10
-49.235975932510058
20
16.109436370052983
30
0
10
-49.08148163630716
20
16.109313342079254
30
0
0
LINE
5
398
100
AcDbEntity
8
0
100
AcDbLine
10
-49.08148163630716
20
16.109313342079254
30
0
11
-46.146089412405757
21
16.106975810103723
31
0
0
SPLINE
5
399
100
AcDbEntity
8
0
100
AcDbSpline
70
0
71
2
72
6
73
3
74
0
42
0.000000001
43
0.0000000001
44
0.0000000001
40
0
40
0
40
0
40
1
40
1
40
1
10
-71.819581579809551
20
12.323346140012582
30
0
10
-71.819324339500824
20
12.646379668436829
30
0
10
-71.896476569424578
20
12.765823287710711
30
0
0
SPLINE
5
400
100
AcDbEntity
8
0
100
AcDbSpline
70
0
71
2
72
6
73
3
74
0
42
0.000000001
43
0.0000000001
44
0.0000000001
40
0
40
0
40
0
40
1
40
1
40
1
10
-71.896476569424578
20
12.765823287710711
30
0
10
-71.97362320704903
20
12.892289524005378
30
0
10
-72.254521927417954
20
12.892513211230341
30
0
0
LINE
5
401
100
AcDbEntity
8
0
100
AcDbLine
10
-72.254521927417954
20
12.892513211230341
30
0
11
-72.900588984266449
21
12.89302769184776
31
0
0
SPLINE
5
402
100
AcDbEntity
8
0
100
AcDbSpline
70
0
71
2
72
6
73
3
74
0
42
0.000000001
43
0.0000000001
44
0.0000000001
40
0
40
0
40
0
40
1
40
1
40
1
10
-72.900588984266449
20
12.89302769184776
30
0
10
-73.055083578492471
20
12.893150720058815
30
0
10
-73.153476421387666
20
12.794914160435304
30
0
0
SPLINE
5
403
100
AcDbEntity
8
0
100
AcDbSpline
70
0
71
2
72
6
73
3
74
0
42
0.000000001
43
0.0000000001
44
0.0000000001
40
0
40
0
40
0
40
1
40
1
40
1
10
-73.153476421387666
20
12.794914160435304
30
0
10
-73.251863671983557
20
12.70370021783258
30
0
10
-73.251992292019253
20
12.54218360263202
30
0
0
SPLINE
5
404
100
AcDbEntity
8
0
100
AcDbSpline
70
0
71
2
72
6
73
3
74
0
42
0.000000001
43
0.0000000001
44
0.0000000001
40
0
40
0
40
0
40
1
40
1
40
1
10
-73.251992292019253
20
12.54218360263202
30
0
10
-73.252143281014753
20
12.352576817371439
30
0
10
-73.13282828201389
20
12.268212134071492
30
0
0
SPLINE
5
405
100
AcDbEntity
8
0
100
AcDbSpline
70
0
71
2
72
6
73
3
74
0
42
0.000000001
43
0.0000000001
44
0.0000000001
40
0
40
0
40
0
40
1
40
1
40
1
10
-73.13282828201389
20
12.268212134071492
30
0
10
-73.013507690713752
20
12.190870067792334
30
0
10
-72.901148202566176
20
12.190780592902348
30
0
0
LINE
5
406
100
AcDbEntity
8
0
100
AcDbLine
10
-72.901148202566176
20
12.190780592902348
30
0
11
-72.493845058031255
21
12.190456246426148
31
0
0
LINE
5
407
100
AcDbEntity
8
0
100
AcDbLine
10
-72.493845058031255
20
12.190456246426148
30
0
11
-72.494415460692238
21
11.474164211462289
31
0
0
LINE
5
408
100
AcDbEntity
8
0
100
AcDbLine
10
-72.494415460692238
20
11.474164211462289
30
0
11
-72.908741222247954
21
11.474494150237778
31
0
0
SPLINE
5
409
100
AcDbEntity
8
0
100
AcDbSpline
70
0
71
2
72
6
73
3
74
0
42
0.000000001
43
0.0000000001
44
0.0000000001
40
0
40
0
40
0
40
1
40
1
40
1
10
-72.908741222247954
20
11.474494150237774
30
0
10
-73.126437879545435
20
11.474667507955786
30
0
10
-73.322999877636178
20
11.559093705123935
30
0
0
SPLINE
5
410
100
AcDbEntity
8
0
100
AcDbSpline
70
0
71
2
72
6
73
3
74
0
42
0.000000001
43
0.0000000001
44
0.0000000001
40
0
40
0
40
0
40
1
40
1
40
1
10
-73.322999877636178
20
11.559093705123935
30
0
10
-73.519561875608261
20
11.643520051303648
30
0
10
-73.659893799999608
20
11.79110372310981
30
0
0
SPLINE
5
411
100
AcDbEntity
8
0
100
AcDbSpline
70
0
71
2
72
6
73
3
74
0
42
0.000000001
43
0.0000000001
44
0.0000000001
40
0
40
0
40
0
40
1
40
1
40
1
10
-73.659893799999608
20
11.79110372310981
30
0
10
-73.80022572450963
20
11.938687245904408
30
0
10
-73.884338759325502
20
12.135383754353267
30
0
0
SPLINE
5
412
100
AcDbEntity
8
0
100
AcDbSpline
70
0
71
2
72
6
73
3
74
0
42
0.000000001
43
0.0000000001
44
0.0000000001
40
0
40
0
40
0
40
1
40
1
40
1
10
-73.884338759325502
20
12.135383754353267
30
0
10
-73.96845149635557
20
12.332079964541672
30
0
10
-73.968272546575605
20
12.556798940836803
30
0
0
SPLINE
5
413
100
AcDbEntity
8
0
100
AcDbSpline
70
0
71
2
72
6
73
3
74
0
42
0.000000001
43
0.0000000001
44
0.0000000001
40
0
40
0
40
0
40
1
40
1
40
1
10
-73.968272546575605
20
12.556798940836803
30
0
10
-73.96803767498939
20
12.85174259722416
30
0
10
-73.848505176871782
20
13.041254315770118
30
0
0
SPLINE
5
414
100
AcDbEntity
8
0
100
AcDbSpline
70
0
71
2
72
6
73
3
74
0
42
0.000000001
43
0.0000000001
44
0.0000000001
40
0
40
0
40
0
40
1
40
1
40
1
10
-73.848505176871782
20
13.041254315770118
30
0
10
-73.73598910766674
20
13.237793945138371
30
0
10
-73.61652871196965
20
13.33601343007822
30
0
0
SPLINE
5
415
100
AcDbEntity
8
0
100
AcDbSpline
70
0
71
2
72
6
73
3
74
0
42
0.000000001
43
0.0000000001
44
0.0000000001
40
0
40
0
40
0
40
1
40
1
40
1
10
-73.61652871196965
20
13.33601343007822
30
0
10
-73.532203174052725
20
13.406171004002958
30
0
10
-73.447894412559023
20
13.455261322911593
30
0
0
SPLINE
5
416
100
AcDbEntity
8
0
100
AcDbSpline
70
0
71
2
72
6
73
3
74
0
42
0.000000001
43
0.0000000001
44
0.0000000001
40
0
40
0
40
0
40
1
40
1
40
1
10
-73.447894412559023
20
13.455261322911593
30
0
10
-73.363580059003354
20
13.511373960817885
30
0
10
-73.244169992813227
20
13.546391382686291
30
0
0
SPLINE
5
417
100
AcDbEntity
8
0
100
AcDbSpline
70
0
71
2
72
6
73
3
74
0
42
0.000000001
43
0.0000000001
44
0.0000000001
40
0
40
0
40
0
40
1
40
1
40
1
10
-73.244169992813227
20
13.546391382686291
30
0
10
-73.012378069990348
20
13.609408903678474
30
0
10
-72.555917798402433
20
13.60904541205657
30
0
0
SPLINE
5
418
100
AcDbEntity
8
0
100
AcDbSpline
70
0
71
2
72
6
73
3
74
0
42
0.000000001
43
0.0000000001
44
0.0000000001
40
0
40
0
40
0
40
1
40
1
40
1
10
-72.555917798402433
20
13.60904541205657
30
0
10
-72.296086333049615
20
13.608838501254816
30
0
10
-72.134580604187178
20
13.594664944963352
30
0
0
SPLINE
5
419
100
AcDbEntity
8
0
100
AcDbSpline
70
0
71
2
72
6
73
3
74
0
42
0.000000001
43
0.0000000001
44
0.0000000001
40
0
40
0
40
0
40
1
40
1
40
1
10
-72.134580604187178
20
13.594664944963352
30
0
10
-71.973069581285912
20
13.587513707906872
30
0
10
-71.867765964982425
20
13.545295315046641
30
0
0
SPLINE
5
420
100
AcDbEntity
8
0
100
AcDbSpline
70
0
71
2
72
6
73
3
74
0
42
0.000000001
43
0.0000000001
44
0.0000000001
40
0
40
0
40
0
40
1
40
1
40
1
10
-71.867765964982425
20
13.545295315046641
30
0
10
-71.755445622217891
20
13.496048415080534
30
0
10
-71.678271023571639
20
13.404694667843543
30
0
0
SPLINE
5
421
100
AcDbEntity
8
0
100
AcDbSpline
70
0
71
2
72
6
73
3
74
0
42
0.000000001
43
0.0000000001
44
0.0000000001
40
0
40
0
40
0
40
1
40
1
40
1
10
-71.678271023571639
20
13.404694667843543
30
0
10
-71.601091130649252
20
13.320363537864665
30
0
10
-71.509921925491525
20
13.165796543194988
30
0
0
SPLINE
5
422
100
AcDbEntity
8
0
100
AcDbSpline
70
0
71
2
72
6
73
3
74
0
42
0.000000001
43
0.0000000001
44
0.0000000001
40
0
40
0
40
0
40
1
40
1
40
1
10
-71.509921925491525
20
13.165796543194988
30
0
10
-71.40445084202976
20
13.334251892825634
30
0
10
-71.313091502730813
20
13.418448810469535
30
0
0
SPLINE
5
423
100
AcDbEntity
8
0
100
AcDbSpline
70
0
71
2
72
6
73
3
74
0
42
0.000000001
43
0.0000000001
44
0.0000000001
40
0
40
0
40
0
40
1
40
1
40
1
10
-71.313091502730813
20
13.418448810469535
30
0
10
-71.221726571132564
20
13.509668345134219
30
0
10
-71.102311210903608
20
13.55170808623761
30
0
0
SPLINE
5
424
100
AcDbEntity
8
0
100
AcDbSpline
70
0
71
2
72
6
73
3
74
0
42
0.000000001
43
0.0000000001
44
0.0000000001
40
0
40
0
40
0
40
1
40
1
40
1
10
-71.102311210903608
20
13.55170808623761
30
0
10
-70.975873233653857
20
13.593742235041713
30
0
10
-70.800305792112425
20
13.600625047428236
30
0
0
SPLINE
5
425
100
AcDbEntity
8
0
100
AcDbSpline
70
0
71
2
72
6
73
3
74
0
42
0.000000001
43
0.0000000001
44
0.0000000001
40
0
40
0
40
0
40
1
40
1
40
1
10
-70.800305792112425
20
13.600625047428236
30
0
10
-70.631760967829123
20
13.607513154090913
30
0
10
-70.36490718347865
20
13.607300651227199
30
0
0
SPLINE
5
426
100
AcDbEntity
8
0
100
AcDbSpline
70
0
71
2
72
6
73
3
74
0
42
0.000000001
43
0.0000000001
44
0.0000000001
40
0
40
0
40
0
40
1
40
1
40
1
10
-70.36490718347865
20
13.607300651227199
30
0
10
-70.119120654144282
20
13.607104924786693
30
0
10
-69.95761522330497
20
13.592931368732554
30
0
0
SPLINE
5
427
100
AcDbEntity
8
0
100
AcDbSpline
70
0
71
2
72
6
73
3
74
0
42
0.000000001
43
0.0000000001
44
0.0000000001
40
0
40
0
40
0
40
1
40
1
40
1
10
-69.95761522330497
20
13.592931368732554
30
0
10
-69.796103902380565
20
13.585780131438749
30
0
10
-69.690783509653869
20
13.564628993594622
30
0
0
SPLINE
5
428
100
AcDbEntity
8
0
100
AcDbSpline
70
0
71
2
72
6
73
3
74
0
42
0.000000001
43
0.0000000001
44
0.0000000001
40
0
40
0
40
0
40
1
40
1
40
1
10
-69.690783509653869
20
13.564628993594622
30
0
10
-69.578440797929517
20
13.543472263688532
30
0
10
-69.501221461838284
20
13.508298260525326
30
0
0
SPLINE
5
429
100
AcDbEntity
8
0
100
AcDbSpline
70
0
71
2
72
6
73
3
74
0
42
0.000000001
43
0.0000000001
44
0.0000000001
40
0
40
0
40
0
40
1
40
1
40
1
10
-69.501221461838284
20
13.508298260525326
30
0
10
-69.424002423770176
20
13.473124257599444
30
0
10
-69.339777545104496
20
13.416877407358172
30
0
0
SPLINE
5
430
100
AcDbEntity
8
0
100
AcDbSpline
70
0
71
2
72
6
73
3
74
0
42
0.000000001
43
0.0000000001
44
0.0000000001
40
0
40
0
40
0
40
1
40
1
40
1
10
-69.339777545104496
20
13.416877407358172
30
0
10
-69.143254692159459
20
13.283294083137028
30
0
10
-69.009995416628712
20
13.072513493286692
30
0
0
SPLINE
5
431
100
AcDbEntity
8
0
100
AcDbSpline
70
0
71
2
72
6
73
3
74
0
42
0.000000001
43
0.0000000001
44
0.0000000001
40
0
40
0
40
0
40
1
40
1
40
1
10
-69.009995416628712
20
13.072513493286692
30
0
10
-68.883752867559011
20
12.868761410542238
30
0
10
-68.884021292466286
20
12.531682648076412
30
0
0
SPLINE
5
432
100
AcDbEntity
8
0
100
AcDbSpline
70
0
71
2
72
6
73
3
74
0
42
0.000000001
43
0.0000000001
44
0.0000000001
40
0
40
0
40
0
40
1
40
1
40
1
10
-68.884021292466286
20
12.531682648076412
30
0
10
-68.884155504801271
20
12.363143415855065
30
0
10
-68.940486535656362
20
12.173581666299928
30
0
0
SPLINE
5
433
100
AcDbEntity
8
0
100
AcDbSpline
70
0
71
2
72
6
73
3
74
0
42
0.000000001
43
0.0000000001
44
0.0000000001
40
0
40
0
40
0
40
1
40
1
40
1
10
-68.940486535656362
20
12.173581666299928
30
0
10
-68.996817268725664
20
11.984019618484343
30
0
10
-69.123344720865404
20
11.829625981532672
30
0
0
SPLINE
5
434
100
AcDbEntity
8
0
100
AcDbSpline
70
0
71
2
72
6
73
3
74
0
42
0.000000001
43
0.0000000001
44
0.0000000001
40
0
40
0
40
0
40
1
40
1
40
1
10
-69.123344720865404
20
11.829625981532672
30
0
10
-69.249872173005144
20
11.675232344581005
30
0
10
-69.453607777112182
20
11.570057348787859
30
0
0
SPLINE
5
435
100
AcDbEntity
8
0
100
AcDbSpline
70
0
71
2
72
6
73
3
74
0
42
0.000000001
43
0.0000000001
44
0.0000000001
40
0
40
0
40
0
40
1
40
1
40
1
10
-69.453607777112182
20
11.570057348787859
30
0
10
-69.657337788919961
20
11.471904970015501
30
0
10
-69.952281445307307
20
11.472139841601713
30
0
0
LINE
5
436
100
AcDbEntity
8
0
100
AcDbLine
10
-69.952281445307307
20
11.472139841601713
30
0
11
-70.359584887865367
21
11.472464188315236
31
0
0
LINE
5
437
100
AcDbEntity
8
0
100
AcDbLine
10
-70.359584887865367
20
11.472464188315236
30
0
11
-70.359014485204398
21
12.188756223279096
31
0
0
LINE
5
438
100
AcDbEntity
8
0
100
AcDbLine
10
-70.359014485204398
20
12.188756223279096
30
0
11
-69.986823531704005
21
12.188459837587352
31
0
0
SPLINE
5
439
100
AcDbEntity
8
0
100
AcDbSpline
70
0
71
2
72
6
73
3
74
0
42
0.000000001
43
0.0000000001
44
0.0000000001
40
0
40
0
40
0
40
1
40
1
40
1
10
-69.986823531704005
20
12.188459837587356
30
0
10
-69.818284001459546
20
12.188325625015054
30
0
10
-69.705851815082525
20
12.279528085233398
30
0
0
SPLINE
5
440
100
AcDbEntity
8
0
100
AcDbSpline
70
0
71
2
72
6
73
3
74
0
42
0.000000001
43
0.0000000001
44
0.0000000001
40
0
40
0
40
0
40
1
40
1
40
1
10
-69.705851815082525
20
12.279528085233398
30
0
10
-69.60043665342701
20
12.377758754771817
30
0
10
-69.600308033153993
20
12.539275667995508
30
0
0
SPLINE
5
441
100
AcDbEntity
8
0
100
AcDbSpline
70
0
71
2
72
6
73
3
74
0
42
0.000000001
43
0.0000000001
44
0.0000000001
40
0
40
0
40
0
40
1
40
1
40
1
10
-69.600308033153993
20
12.539275667995508
30
0
10
-69.600179413118298
20
12.700792283196067
30
0
10
-69.705443585778298
20
12.792168398918228
30
0
0
SPLINE
5
442
100
AcDbEntity
8
0
100
AcDbSpline
70
0
71
2
72
6
73
3
74
0
42
0.000000001
43
0.0000000001
44
0.0000000001
40
0
40
0
40
0
40
1
40
1
40
1
10
-69.705443585778298
20
12.792168398918228
30
0
10
-69.817724783159804
20
12.890572723960464
30
0
10
-70.000308951399589
20
12.890718120656693
30
0
0
LINE
5
443
100
AcDbEntity
8
0
100
AcDbLine
10
-70.000308951399589
20
12.890718120656693
30
0
11
-70.716600986363446
21
12.891288523317677
31
0
0
SPLINE
5
444
100
AcDbEntity
8
0
100
AcDbSpline
70
0
71
2
72
6
73
3
74
0
42
0.000000001
43
0.0000000001
44
0.0000000001
40
0
40
0
40
0
40
1
40
1
40
1
10
-70.716600986363446
20
12.891288523317675
30
0
10
-71.011544940773945
20
12.891523395141212
30
0
10
-71.102926351009586
20
12.779236307199968
30
0
0
SPLINE
5
445
100
AcDbEntity
8
0
100
AcDbSpline
70
0
71
2
72
6
73
3
74
0
42
0.000000001
43
0.0000000001
44
0.0000000001
40
0
40
0
40
0
40
1
40
1
40
1
10
-71.102926351009586
20
12.779236307199968
30
0
10
-71.159156424590321
20
12.716078981573521
30
0
10
-71.173290835498747
20
12.603730677787205
30
0
0
SPLINE
5
446
100
AcDbEntity
8
0
100
AcDbSpline
70
0
71
2
72
6
73
3
74
0
42
0.000000001
43
0.0000000001
44
0.0000000001
40
0
40
0
40
0
40
1
40
1
40
1
10
-71.173290835498747
20
12.603730677787205
30
0
10
-71.18741965434522
20
12.498404692998545
30
0
10
-71.187559458979479
20
12.32284284375641
30
0
0
LINE
5
447
100
AcDbEntity
8
0
100
AcDbLine
10
-71.187559458979479
20
12.32284284375641
30
0
11
-71.819581579809551
21
12.323346140012582
31
0
0
LWPOLYLINE
5
448
100
AcDbEntity
8
0
100
AcDbPolyline
90
4
70
1
43
0.0
10
-69.641167823552365
20
14.140432523228316
10
-68.924875788588508
20
14.139862120567333
10
-68.924305385927539
20
14.856154155531192
10
-69.640597420891396
20
14.856724558192177
0
SPLINE
5
449
100
AcDbEntity
8
0
100
AcDbSpline
70
0
71
2
72
6
73
3
74
0
42
0.000000001
43
0.0000000001
44
0.0000000001
40
0
40
0
40
0
40
1
40
1
40
1
10
-72.891575848966596
20
15.393020711069125
30
0
10
-73.144384697298619
20
15.393222029571593
30
0
10
-73.34094669491472
20
15.477648822786003
30
0
0
SPLINE
5
450
100
AcDbEntity
8
0
100
AcDbSpline
70
0
71
2
72
6
73
3
74
0
42
0.000000001
43
0.0000000001
44
0.0000000001
40
0
40
0
40
0
40
1
40
1
40
1
10
-73.34094669491472
20
15.477648822786003
30
0
10
-73.537503101180846
20
15.569097040928682
30
0
10
-73.677835323476657
20
15.716680861983733
30
0
0
SPLINE
5
451
100
AcDbEntity
8
0
100
AcDbSpline
70
0
71
2
72
6
73
3
74
0
42
0.000000001
43
0.0000000001
44
0.0000000001
40
0
40
0
40
0
40
1
40
1
40
1
10
-73.677835323476657
20
15.716680861983733
30
0
10
-73.818167247749344
20
15.864264682801457
30
0
10
-73.888240938608732
20
16.053927687891409
30
0
0
SPLINE
5
452
100
AcDbEntity
8
0
100
AcDbSpline
70
0
71
2
72
6
73
3
74
0
42
0.000000001
43
0.0000000001
44
0.0000000001
40
0
40
0
40
0
40
1
40
1
40
1
10
-73.888240938608732
20
16.053927687891409
30
0
10
-73.965331059092676
20
16.250617709734271
30
0
10
-73.965163293436618
20
16.461292048034085
30
0
0
SPLINE
5
453
100
AcDbEntity
8
0
100
AcDbSpline
70
0
71
2
72
6
73
3
74
0
42
0.000000001
43
0.0000000001
44
0.0000000001
40
0
40
0
40
0
40
1
40
1
40
1
10
-73.965163293436618
20
16.461292048034085
30
0
10
-73.964995528255216
20
16.67196579028764
30
0
10
-73.887597837955624
20
16.861511359940469
30
0
0
SPLINE
5
454
100
AcDbEntity
8
0
100
AcDbSpline
70
0
71
2
72
6
73
3
74
0
42
0.000000001
43
0.0000000001
44
0.0000000001
40
0
40
0
40
0
40
1
40
1
40
1
10
-73.887597837955624
20
16.861511359940469
30
0
10
-73.817216576805919
20
17.058084542392468
30
0
10
-73.676649780709695
20
17.205444675985227
30
0
0
SPLINE
5
455
100
AcDbEntity
8
0
100
AcDbSpline
70
0
71
2
72
6
73
3
74
0
42
0.000000001
43
0.0000000001
44
0.0000000001
40
0
40
0
40
0
40
1
40
1
40
1
10
-73.676649780709695
20
17.205444675985227
30
0
10
-73.53608268706499
20
17.352804213294412
30
0
10
-73.33938647616462
20
17.436917844393868
30
0
0
SPLINE
5
456
100
AcDbEntity
8
0
100
AcDbSpline
70
0
71
2
72
6
73
3
74
0
42
0.000000001
43
0.0000000001
44
0.0000000001
40
0
40
0
40
0
40
1
40
1
40
1
10
-73.33938647616462
20
17.436917844393868
30
0
10
-73.142684673914246
20
17.528052900421596
30
0
10
-72.889875825582223
20
17.527851581919126
30
0
0
LINE
5
457
100
AcDbEntity
8
0
100
AcDbLine
10
-72.889875825582223
20
17.527851581919126
30
0
11
-69.95448360168082
21
17.525514049943599
31
0
0
SPLINE
5
458
100
AcDbEntity
8
0
100
AcDbSpline
70
0
71
2
72
6
73
3
74
0
42
0.000000001
43
0.0000000001
44
0.0000000001
40
0
40
0
40
0
40
1
40
1
40
1
10
-69.95448360168082
20
17.525514049943599
30
0
10
-69.701674455325673
20
17.525312731203805
30
0
10
-69.505118049059561
20
17.433864513061128
30
0
0
SPLINE
5
459
100
AcDbEntity
8
0
100
AcDbSpline
70
0
71
2
72
6
73
3
74
0
42
0.000000001
43
0.0000000001
44
0.0000000001
40
0
40
0
40
0
40
1
40
1
40
1
10
-69.505118049059561
20
17.433864513061128
30
0
10
-69.30855605144346
20
17.349437719846719
30
0
10
-69.168224126696117
20
17.201854495075253
30
0
0
SPLINE
5
460
100
AcDbEntity
8
0
100
AcDbSpline
70
0
71
2
72
6
73
3
74
0
42
0.000000001
43
0.0000000001
44
0.0000000001
40
0
40
0
40
0
40
1
40
1
40
1
10
-69.168224126696117
20
17.201854495075253
30
0
10
-69.02789220242343
20
17.054270674257527
30
0
10
-68.950801486367894
20
16.857580055893759
30
0
0
SPLINE
5
461
100
AcDbEntity
8
0
100
AcDbSpline
70
0
71
2
72
6
73
3
74
0
42
0.000000001
43
0.0000000001
44
0.0000000001
40
0
40
0
40
0
40
1
40
1
40
1
10
-68.950801486367894
20
16.857580055893759
30
0
10
-68.880727497485367
20
16.667917050566484
30
0
10
-68.880895262666769
20
16.457243308312929
30
0
0
SPLINE
5
462
100
AcDbEntity
8
0
100
AcDbSpline
70
0
71
2
72
6
73
3
74
0
42
0.000000001
43
0.0000000001
44
0.0000000001
40
0
40
0
40
0
40
1
40
1
40
1
10
-68.880895262666769
20
16.457243308312929
30
0
10
-68.881063028322814
20
16.246568970013115
30
0
10
-68.951444587021001
20
16.049996383844697
30
0
0
SPLINE
5
463
100
AcDbEntity
8
0
100
AcDbSpline
70
0
71
2
72
6
73
3
74
0
42
0.000000001
43
0.0000000001
44
0.0000000001
40
0
40
0
40
0
40
1
40
1
40
1
10
-68.951444587021001
20
16.049996383844697
30
0
10
-69.028842873366855
20
15.860450814666516
30
0
10
-69.169409669463079
20
15.713090681073751
30
0
0
SPLINE
5
464
100
AcDbEntity
8
0
100
AcDbSpline
70
0
71
2
72
6
73
3
74
0
42
0.000000001
43
0.0000000001
44
0.0000000001
40
0
40
0
40
0
40
1
40
1
40
1
10
-69.169409669463079
20
15.713090681073751
30
0
10
-69.309976465559302
20
15.565730547480992
30
0
10
-69.506678267809676
20
15.474595491453265
30
0
0
SPLINE
5
465
100
AcDbEntity
8
0
100
AcDbSpline
70
0
71
2
72
6
73
3
74
0
42
0.000000001
43
0.0000000001
44
0.0000000001
40
0
40
0
40
0
40
1
40
1
40
1
10
-69.506678267809676
20
15.474595491453265
30
0
10
-69.703374478710046
20
15.390481860353805
30
0
10
-69.956183625065208
20
15.390683179093598
30
0
0
LINE
5
466
100
AcDbEntity
8
0
100
AcDbLine
10
-69.956183625065208
20
15.390683179093598
30
0
11
-72.891575848966596
21
15.393020711069125
31
0
0
SPLINE
5
467
100
AcDbEntity
8
0
100
AcDbSpline
70
0
71
2
72
6
73
3
74
0
42
0.000000001
43
0.0000000001
44
0.0000000001
40
0
40
0
40
0
40
1
40
1
40
1
10
-69.955613221929568
20
16.106975810103712
30
0
10
-69.801118627703545
20
16.106852781892659
30
0
10
-69.695703466285352
20
16.205083153407955
30
0
0
SPLINE
5
468
100
AcDbEntity
8
0
100
AcDbSpline
70
0
71
2
72
6
73
3
74
0
42
0.000000001
43
0.0000000001
44
0.0000000001
40
0
40
0
40
0
40
1
40
1
40
1
10
-69.695703466285352
20
16.205083153407955
30
0
10
-69.597310623864814
20
16.303319116985204
30
0
10
-69.59718759565375
20
16.457813711211237
30
0
0
SPLINE
5
469
100
AcDbEntity
8
0
100
AcDbSpline
70
0
71
2
72
6
73
3
74
0
42
0.000000001
43
0.0000000001
44
0.0000000001
40
0
40
0
40
0
40
1
40
1
40
1
10
-69.59718759565375
20
16.457813711211237
30
0
10
-69.597064567917343
20
16.612307709391008
30
0
10
-69.695300829280413
20
16.710700850071994
30
0
0
SPLINE
5
470
100
AcDbEntity
8
0
100
AcDbSpline
70
0
71
2
72
6
73
3
74
0
42
0.000000001
43
0.0000000001
44
0.0000000001
40
0
40
0
40
0
40
1
40
1
40
1
10
-69.695300829280413
20
16.710700850071994
30
0
10
-69.800559409641124
20
16.809099582814945
30
0
10
-69.955054003867161
20
16.809222611025998
30
0
0
LINE
5
471
100
AcDbEntity
8
0
100
AcDbLine
10
-69.955054003867161
20
16.809222611025998
30
0
11
-72.89044622776855
21
16.811560143001529
31
0
0
SPLINE
5
472
100
AcDbEntity
8
0
100
AcDbSpline
70
0
71
2
72
6
73
3
74
0
42
0.000000001
43
0.0000000001
44
0.0000000001
40
0
40
0
40
0
40
1
40
1
40
1
10
-72.890446227768564
20
16.811560143001529
30
0
10
-73.044940523971462
20
16.811683170975257
30
0
10
-73.143333366866642
20
16.713446611351745
30
0
0
SPLINE
5
473
100
AcDbEntity
8
0
100
AcDbSpline
70
0
71
2
72
6
73
3
74
0
42
0.000000001
43
0.0000000001
44
0.0000000001
40
0
40
0
40
0
40
1
40
1
40
1
10
-73.143333366866642
20
16.713446611351745
30
0
10
-73.248748826782617
20
16.615215644027522
30
0
10
-73.248871854519024
20
16.460721645847748
30
0
0
SPLINE
5
474
100
AcDbEntity
8
0
100
AcDbSpline
70
0
71
2
72
6
73
3
74
0
42
0.000000001
43
0.0000000001
44
0.0000000001
40
0
40
0
40
0
40
1
40
1
40
1
10
-73.248871854519024
20
16.460721645847748
30
0
10
-73.248994882730074
20
16.306227051621715
30
0
10
-73.143736003871581
20
16.207828914687703
30
0
0
SPLINE
5
475
100
AcDbEntity
8
0
100
AcDbSpline
70
0
71
2
72
6
73
3
74
0
42
0.000000001
43
0.0000000001
44
0.0000000001
40
0
40
0
40
0
40
1
40
1
40
1
10
-73.143736003871581
20
16.207828914687703
30
0
10
-73.045499742033869
20
16.109436370052975
30
0
10
-72.89100544583097
20
16.109313342079243
30
0
0
LINE
5
476
100
AcDbEntity
8
0
100
AcDbLine
10
-72.89100544583097
20
16.109313342079247
30
0
11
-69.955613221929568
21
16.106975810103712
31
0
0
LWPOLYLINE
5
477
100
AcDbEntity
8
0
100
AcDbPolyline
90
15
70
1
43
0.0
10
-93.479841223841959
20
12.809696575560539
10
-92.735459316841201
20
12.809103804177058
10
-92.734888914417553
20
13.525395541117788
10
-93.479270821418297
20
13.525988312501269
10
-93.478996804211718
20
13.870089691987879
10
-94.153153733097128
20
13.870626541327795
10
-94.153427750303692
20
13.526525161841183
10
-95.578989203210625
20
13.527660374863864
10
-95.579559605634273
20
12.811368637923135
10
-94.153998152727354
20
12.810233424900455
10
-94.154562963089049
20
12.100964006957383
10
-97.735166937870602
20
13.178254072233441
10
-97.735770893615324
20
12.419827229214246
10
-94.155133365631372
20
11.384672121005091
10
-93.480976436745976
20
11.384135271665174
0
LWPOLYLINE
5
478
100
AcDbEntity
8
0
100
AcDbPolyline
90
4
70
1
43
0.0
10
-93.450621730844347
20
14.228213340747313
10
-92.73432969588049
20
14.22764293808633
10
-92.733759293219507
20
14.943934973050188
10
-93.450051328183363
20
14.944505375711172
0
SPLINE
5
479
100
AcDbEntity
8
0
100
AcDbSpline
70
0
71
2
72
6
73
3
74
0
42
0.000000001
43
0.0000000001
44
0.0000000001
40
0
40
0
40
0
40
1
40
1
40
1
10
-96.701029756258578
20
15.480801528588124
30
0
10
-96.953838604590601
20
15.481002847090593
30
0
10
-97.150400602206702
20
15.565429640305002
30
0
0
SPLINE
5
480
100
AcDbEntity
8
0
100
AcDbSpline
70
0
71
2
72
6
73
3
74
0
42
0.000000001
43
0.0000000001
44
0.0000000001
40
0
40
0
40
0
40
1
40
1
40
1
10
-97.150400602206702
20
15.565429640305002
30
0
10
-97.346957008472813
20
15.656877858447677
30
0
10
-97.487289230768624
20
15.804461679502728
30
0
0
SPLINE
5
481
100
AcDbEntity
8
0
100
AcDbSpline
70
0
71
2
72
6
73
3
74
0
42
0.000000001
43
0.0000000001
44
0.0000000001
40
0
40
0
40
0
40
1
40
1
40
1
10
-97.487289230768624
20
15.804461679502728
30
0
10
-97.627621155041311
20
15.952045500320455
30
0
10
-97.697694845900699
20
16.141708505410406
30
0
0
SPLINE
5
482
100
AcDbEntity
8
0
100
AcDbSpline
70
0
71
2
72
6
73
3
74
0
42
0.000000001
43
0.0000000001
44
0.0000000001
40
0
40
0
40
0
40
1
40
1
40
1
10
-97.697694845900699
20
16.141708505410406
30
0
10
-97.774784966384644
20
16.338398527253268
30
0
10
-97.774617200728585
20
16.549072865553079
30
0
0
SPLINE
5
483
100
AcDbEntity
8
0
100
AcDbSpline
70
0
71
2
72
6
73
3
74
0
42
0.000000001
43
0.0000000001
44
0.0000000001
40
0
40
0
40
0
40
1
40
1
40
1
10
-97.774617200728585
20
16.549072865553079
30
0
10
-97.774449435547183
20
16.759746607806637
30
0
10
-97.697051745247592
20
16.949292177459469
30
0
0
SPLINE
5
484
100
AcDbEntity
8
0
100
AcDbSpline
70
0
71
2
72
6
73
3
74
0
42
0.000000001
43
0.0000000001
44
0.0000000001
40
0
40
0
40
0
40
1
40
1
40
1
10
-97.697051745247592
20
16.949292177459469
30
0
10
-97.626670484097886
20
17.145865359911465
30
0
10
-97.486103688001663
20
17.293225493504227
30
0
0
SPLINE
5
485
100
AcDbEntity
8
0
100
AcDbSpline
70
0
71
2
72
6
73
3
74
0
42
0.000000001
43
0.0000000001
44
0.0000000001
40
0
40
0
40
0
40
1
40
1
40
1
10
-97.486103688001663
20
17.293225493504227
30
0
10
-97.345536594356957
20
17.440585030813406
30
0
10
-97.148840383456587
20
17.524698661912865
30
0
0
SPLINE
5
486
100
AcDbEntity
8
0
100
AcDbSpline
70
0
71
2
72
6
73
3
74
0
42
0.000000001
43
0.0000000001
44
0.0000000001
40
0
40
0
40
0
40
1
40
1
40
1
10
-97.148840383456587
20
17.524698661912865
30
0
10
-96.952138581206214
20
17.615833717940593
30
0
10
-96.69932973287419
20
17.615632399438123
30
0
0
LINE
5
487
100
AcDbEntity
8
0
100
AcDbLine
10
-96.69932973287419
20
17.615632399438123
30
0
11
-93.763937508972788
21
17.613294867462596
31
0
0
SPLINE
5
488
100
AcDbEntity
8
0
100
AcDbSpline
70
0
71
2
72
6
73
3
74
0
42
0.000000001
43
0.0000000001
44
0.0000000001
40
0
40
0
40
0
40
1
40
1
40
1
10
-93.763937508972788
20
17.613294867462596
30
0
10
-93.51112836261764
20
17.613093548722802
30
0
10
-93.314571956351529
20
17.521645330580125
30
0
0
SPLINE
5
489
100
AcDbEntity
8
0
100
AcDbSpline
70
0
71
2
72
6
73
3
74
0
42
0.000000001
43
0.0000000001
44
0.0000000001
40
0
40
0
40
0
40
1
40
1
40
1
10
-93.314571956351529
20
17.521645330580125
30
0
10
-93.118009958735414
20
17.437218537365716
30
0
10
-92.977678033988099
20
17.28963531259425
30
0
0
SPLINE
5
490
100
AcDbEntity
8
0
100
AcDbSpline
70
0
71
2
72
6
73
3
74
0
42
0.000000001
43
0.0000000001
44
0.0000000001
40
0
40
0
40
0
40
1
40
1
40
1
10
-92.977678033988099
20
17.28963531259425
30
0
10
-92.837346109715412
20
17.14205149177652
30
0
10
-92.760255393659861
20
16.945360873412756
30
0
0
SPLINE
5
491
100
AcDbEntity
8
0
100
AcDbSpline
70
0
71
2
72
6
73
3
74
0
42
0.000000001
43
0.0000000001
44
0.0000000001
40
0
40
0
40
0
40
1
40
1
40
1
10
-92.760255393659861
20
16.945360873412756
30
0
10
-92.690181404777334
20
16.75569786808548
30
0
10
-92.690349169958751
20
16.545024125831922
30
0
0
SPLINE
5
492
100
AcDbEntity
8
0
100
AcDbSpline
70
0
71
2
72
6
73
3
74
0
42
0.000000001
43
0.0000000001
44
0.0000000001
40
0
40
0
40
0
40
1
40
1
40
1
10
-92.690349169958751
20
16.545024125831922
30
0
10
-92.690516935614795
20
16.334349787532112
30
0
10
-92.760898494312983
20
16.137777201363694
30
0
0
SPLINE
5
493
100
AcDbEntity
8
0
100
AcDbSpline
70
0
71
2
72
6
73
3
74
0
42
0.000000001
43
0.0000000001
44
0.0000000001
40
0
40
0
40
0
40
1
40
1
40
1
10
-92.760898494312983
20
16.137777201363694
30
0
10
-92.838296780658823
20
15.948231632185513
30
0
10
-92.97886357675506
20
15.80087149859275
30
0
0
SPLINE
5
494
100
AcDbEntity
8
0
100
AcDbSpline
70
0
71
2
72
6
73
3
74
0
42
0.000000001
43
0.0000000001
44
0.0000000001
40
0
40
0
40
0
40
1
40
1
40
1
10
-92.97886357675506
20
15.80087149859275
30
0
10
-93.119430372851269
20
15.653511364999988
30
0
10
-93.316132175101643
20
15.562376308972262
30
0
0
SPLINE
5
495
100
AcDbEntity
8
0
100
AcDbSpline
70
0
71
2
72
6
73
3
74
0
42
0.000000001
43
0.0000000001
44
0.0000000001
40
0
40
0
40
0
40
1
40
1
40
1
10
-93.316132175101643
20
15.562376308972262
30
0
10
-93.512828386002013
20
15.478262677872806
30
0
10
-93.765637532357161
20
15.478463996612595
30
0
0
LINE
5
496
100
AcDbEntity
8
0
100
AcDbLine
10
-93.765637532357161
20
15.478463996612595
30
0
11
-96.701029756258578
21
15.480801528588124
31
0
0
SPLINE
5
497
100
AcDbEntity
8
0
100
AcDbSpline
70
0
71
2
72
6
73
3
74
0
42
0.000000001
43
0.0000000001
44
0.0000000001
40
0
40
0
40
0
40
1
40
1
40
1
10
-93.765067129221535
20
16.194756627622713
30
0
10
-93.610572534995512
20
16.194633599411659
30
0
10
-93.505157373577319
20
16.292863970926948
30
0
0
SPLINE
5
498
100
AcDbEntity
8
0
100
AcDbSpline
70
0
71
2
72
6
73
3
74
0
42
0.000000001
43
0.0000000001
44
0.0000000001
40
0
40
0
40
0
40
1
40
1
40
1
10
-93.505157373577319
20
16.292863970926948
30
0
10
-93.406764531156782
20
16.391099934504201
30
0
10
-93.406641502945718
20
16.545594528730234
30
0
0
SPLINE
5
499
100
AcDbEntity
8
0
100
AcDbSpline
70
0
71
2
72
6
73
3
74
0
42
0.000000001
43
0.0000000001
44
0.0000000001
40
0
40
0
40
0
40
1
40
1
40
1
10
-93.406641502945718
20
16.545594528730234
30
0
10
-93.40651847520931
20
16.700088526910008
30
0
10
-93.50475473657238
20
16.798481667590991
30
0
0
SPLINE
5
500
100
AcDbEntity
8
0
100
AcDbSpline
70
0
71
2
72
6
73
3
74
0
42
0.000000001
43
0.0000000001
44
0.0000000001
40
0
40
0
40
0
40
1
40
1
40
1
10
-93.50475473657238
20
16.798481667590991
30
0
10
-93.610013316933092
20
16.896880400333941
30
0
10
-93.764507911159129
20
16.897003428544998
30
0
0
LINE
5
501
100
AcDbEntity
8
0
100
AcDbLine
10
-93.764507911159129
20
16.897003428544998
30
0
11
-96.699900135060531
21
16.899340960520526
31
0
0
SPLINE
5
502
100
AcDbEntity
8
0
100
AcDbSpline
70
0
71
2
72
6
73
3
74
0
42
0.000000001
43
0.0000000001
44
0.0000000001
40
0
40
0
40
0
40
1
40
1
40
1
10
-96.699900135060531
20
16.899340960520522
30
0
10
-96.85439443126343
20
16.899463988494254
30
0
10
-96.952787274158609
20
16.801227428870746
30
0
0
SPLINE
5
503
100
AcDbEntity
8
0
100
AcDbSpline
70
0
71
2
72
6
73
3
74
0
42
0.000000001
43
0.0000000001
44
0.0000000001
40
0
40
0
40
0
40
1
40
1
40
1
10
-96.952787274158609
20
16.801227428870746
30
0
10
-97.05820273407457
20
16.702996461546519
30
0
10
-97.058325761810977
20
16.548502463366745
30
0
0
SPLINE
5
504
100
AcDbEntity
8
0
100
AcDbSpline
70
0
71
2
72
6
73
3
74
0
42
0.000000001
43
0.0000000001
44
0.0000000001
40
0
40
0
40
0
40
1
40
1
40
1
10
-97.058325761810977
20
16.548502463366745
30
0
10
-97.058448790022027
20
16.394007869140715
30
0
10
-96.953189911163548
20
16.2956097322067
30
0
0
SPLINE
5
505
100
AcDbEntity
8
0
100
AcDbSpline
70
0
71
2
72
6
73
3
74
0
42
0.000000001
43
0.0000000001
44
0.0000000001
40
0
40
0
40
0
40
1
40
1
40
1
10
-96.953189911163548
20
16.2956097322067
30
0
10
-96.85495364932585
20
16.197217187571972
30
0
10
-96.700459353122938
20
16.197094159598244
30
0
0
LINE
5
506
100
AcDbEntity
8
0
100
AcDbLine
10
-96.700459353122938
20
16.197094159598244
30
0
11
-93.765067129221535
21
16.194756627622713
31
0
0
LINE
5
507
100
AcDbEntity
8
0
100
AcDbLine
10
-121.54434682826006
20
13.610135887396925
30
0
11
-120.87019019739779
21
13.609599038294336
31
0
0
LINE
5
508
100
AcDbEntity
8
0
100
AcDbLine
10
-120.87019019739779
20
13.609599038294336
30
0
11
-120.87131981812119
21
12.191060202408192
31
0
0
LINE
5
509
100
AcDbEntity
8
0
100
AcDbLine
10
-120.87131981812119
20
12.191060202408192
30
0
11
-119.52300536430414
21
12.189986503253714
31
0
0
SPLINE
5
510
100
AcDbEntity
8
0
100
AcDbSpline
70
0
71
2
72
6
73
3
74
0
42
0.000000001
43
0.0000000001
44
0.0000000001
40
0
40
0
40
0
40
1
40
1
40
1
10
-119.52300536430414
20
12.189986503253715
30
0
10
-119.62124192392766
20
12.288379346148897
30
0
10
-119.68432095902536
20
12.442923971858754
30
0
0
SPLINE
5
511
100
AcDbEntity
8
0
100
AcDbSpline
70
0
71
2
72
6
73
3
74
0
42
0.000000001
43
0.0000000001
44
0.0000000001
40
0
40
0
40
0
40
1
40
1
40
1
10
-119.68432095902536
20
12.442923971858754
30
0
10
-119.75442261114387
20
12.597474189867896
30
0
10
-119.75427162238567
20
12.787080677105349
30
0
0
SPLINE
5
512
100
AcDbEntity
8
0
100
AcDbSpline
70
0
71
2
72
6
73
3
74
0
42
0.000000001
43
0.0000000001
44
0.0000000001
40
0
40
0
40
0
40
1
40
1
40
1
10
-119.75427162238567
20
12.787080677105349
30
0
10
-119.75398082875589
20
13.152249311608067
30
0
10
-119.52908290268078
20
13.376789338123224
30
0
0
SPLINE
5
513
100
AcDbEntity
8
0
100
AcDbSpline
70
0
71
2
72
6
73
3
74
0
42
0.000000001
43
0.0000000001
44
0.0000000001
40
0
40
0
40
0
40
1
40
1
40
1
10
-119.52908290268078
20
13.376789338123224
30
0
10
-119.31120170330405
20
13.608357573721133
30
0
10
-118.86878606971146
20
13.608005266223151
30
0
0
LINE
5
514
100
AcDbEntity
8
0
100
AcDbLine
10
-118.86878606971146
20
13.608005266223151
30
0
11
-117.57665165799133
21
13.60697630475099
31
0
0
SPLINE
5
515
100
AcDbEntity
8
0
100
AcDbSpline
70
0
71
2
72
6
73
3
74
0
42
0.000000001
43
0.0000000001
44
0.0000000001
40
0
40
0
40
0
40
1
40
1
40
1
10
-117.57665165799132
20
13.60697630475099
30
0
10
-117.32384280965931
20
13.606774986248523
30
0
10
-117.12728610560738
20
13.515326469845391
30
0
0
SPLINE
5
516
100
AcDbEntity
8
0
100
AcDbSpline
70
0
71
2
72
6
73
3
74
0
42
0.000000001
43
0.0000000001
44
0.0000000001
40
0
40
0
40
0
40
1
40
1
40
1
10
-117.12728610560738
20
13.515326469845391
30
0
10
-116.93072410775397
20
13.43089997465411
30
0
10
-116.79039218324394
20
13.283316451859514
30
0
0
SPLINE
5
517
100
AcDbEntity
8
0
100
AcDbSpline
70
0
71
2
72
6
73
3
74
0
42
0.000000001
43
0.0000000001
44
0.0000000001
40
0
40
0
40
0
40
1
40
1
40
1
10
-116.79039218324394
20
13.283316451859514
30
0
10
-116.65006025897127
20
13.135732631041787
30
0
10
-116.57296954291573
20
12.939042012678023
30
0
0
SPLINE
5
518
100
AcDbEntity
8
0
100
AcDbSpline
70
0
71
2
72
6
73
3
74
0
42
0.000000001
43
0.0000000001
44
0.0000000001
40
0
40
0
40
0
40
1
40
1
40
1
10
-116.57296954291573
20
12.939042012678023
30
0
10
-116.50289555379588
20
12.749379305373875
30
0
10
-116.50306331921459
20
12.538705265097189
30
0
0
SPLINE
5
519
100
AcDbEntity
8
0
100
AcDbSpline
70
0
71
2
72
6
73
3
74
0
42
0.000000001
43
0.0000000001
44
0.0000000001
40
0
40
0
40
0
40
1
40
1
40
1
10
-116.50306331921459
20
12.538705265097189
30
0
10
-116.50323108463333
20
12.328031224820506
30
0
10
-116.57361264380614
20
12.131458042605832
30
0
0
SPLINE
5
520
100
AcDbEntity
8
0
100
AcDbSpline
70
0
71
2
72
6
73
3
74
0
42
0.000000001
43
0.0000000001
44
0.0000000001
40
0
40
0
40
0
40
1
40
1
40
1
10
-116.57361264380614
20
12.131458042605832
30
0
10
-116.65101092991469
20
11.941912771450777
30
0
10
-116.7915777260109
20
11.794552637858015
30
0
0
SPLINE
5
521
100
AcDbEntity
8
0
100
AcDbSpline
70
0
71
2
72
6
73
3
74
0
42
0.000000001
43
0.0000000001
44
0.0000000001
40
0
40
0
40
0
40
1
40
1
40
1
10
-116.7915777260109
20
11.794552637858015
30
0
10
-116.9321445218698
20
11.647192802288384
30
0
10
-117.12884632459483
20
11.556057150214398
30
0
0
SPLINE
5
522
100
AcDbEntity
8
0
100
AcDbSpline
70
0
71
2
72
6
73
3
74
0
42
0.000000001
43
0.0000000001
44
0.0000000001
40
0
40
0
40
0
40
1
40
1
40
1
10
-117.12884632459483
20
11.556057150214398
30
0
10
-117.32554283304368
20
11.471944115398522
30
0
10
-117.57835168137572
20
11.472145433900991
30
0
0
LINE
5
523
100
AcDbEntity
8
0
100
AcDbLine
10
-117.57835168137572
20
11.472145433900989
30
0
11
-117.78902572165239
21
11.472313199319714
31
0
0
LINE
5
524
100
AcDbEntity
8
0
100
AcDbLine
10
-117.78902572165239
20
11.472313199319714
30
0
11
-117.7884553189914
21
12.188605234283575
31
0
0
LINE
5
525
100
AcDbEntity
8
0
100
AcDbLine
10
-117.7884553189914
20
12.188605234283575
30
0
11
-117.60587115075161
21
12.188459837587347
31
0
0
SPLINE
5
526
100
AcDbEntity
8
0
100
AcDbSpline
70
0
71
2
72
6
73
3
74
0
42
0.000000001
43
0.0000000001
44
0.0000000001
40
0
40
0
40
0
40
1
40
1
40
1
10
-117.60587115075161
20
12.188459837587347
30
0
10
-117.42328668448869
20
12.188314440653794
30
0
10
-117.31787152283317
20
12.286545110192215
30
0
0
SPLINE
5
527
100
AcDbEntity
8
0
100
AcDbSpline
70
0
71
2
72
6
73
3
74
0
42
0.000000001
43
0.0000000001
44
0.0000000001
40
0
40
0
40
0
40
1
40
1
40
1
10
-117.31787152283317
20
12.286545110192215
30
0
10
-117.21947308811336
20
12.391803690790255
30
0
10
-117.21934446784033
20
12.553320604013944
30
0
0
SPLINE
5
528
100
AcDbEntity
8
0
100
AcDbSpline
70
0
71
2
72
6
73
3
74
0
42
0.000000001
43
0.0000000001
44
0.0000000001
40
0
40
0
40
0
40
1
40
1
40
1
10
-117.21934446784033
20
12.553320604013944
30
0
10
-117.21921584756731
20
12.714837517237633
30
0
10
-117.31746329352895
20
12.799185423877047
30
0
0
SPLINE
5
529
100
AcDbEntity
8
0
100
AcDbSpline
70
0
71
2
72
6
73
3
74
0
42
0.000000001
43
0.0000000001
44
0.0000000001
40
0
40
0
40
0
40
1
40
1
40
1
10
-117.31746329352895
20
12.799185423877047
30
0
10
-117.41570514719129
20
12.890555947537246
30
0
10
-117.59126699643343
20
12.89069575217151
30
0
0
LINE
5
530
100
AcDbEntity
8
0
100
AcDbLine
10
-117.59126699643343
20
12.89069575217151
30
0
11
-118.7640193029852
21
12.891629646454399
31
0
0
SPLINE
5
531
100
AcDbEntity
8
0
100
AcDbSpline
70
0
71
2
72
6
73
3
74
0
42
0.000000001
43
0.0000000001
44
0.0000000001
40
0
40
0
40
0
40
1
40
1
40
1
10
-118.7640193029852
20
12.891629646454399
30
0
10
-118.91149128019045
20
12.891747082366168
30
0
10
-119.01690674010641
20
12.793516115041941
30
0
0
SPLINE
5
532
100
AcDbEntity
8
0
100
AcDbSpline
70
0
71
2
72
6
73
3
74
0
42
0.000000001
43
0.0000000001
44
0.0000000001
40
0
40
0
40
0
40
1
40
1
40
1
10
-119.01690674010641
20
12.793516115041941
30
0
10
-119.12231630969998
20
12.702307764501182
30
0
10
-119.12243374537441
20
12.554836085319065
30
0
0
SPLINE
5
533
100
AcDbEntity
8
0
100
AcDbSpline
70
0
71
2
72
6
73
3
74
0
42
0.000000001
43
0.0000000001
44
0.0000000001
40
0
40
0
40
0
40
1
40
1
40
1
10
-119.12243374537441
20
12.554836085319065
30
0
10
-119.12250644360387
20
12.463544150210733
30
0
10
-119.08744458231361
20
12.400313828331706
30
0
0
SPLINE
5
534
100
AcDbEntity
8
0
100
AcDbSpline
70
0
71
2
72
6
73
3
74
0
42
0.000000001
43
0.0000000001
44
0.0000000001
40
0
40
0
40
0
40
1
40
1
40
1
10
-119.08744458231361
20
12.400313828331706
30
0
10
-119.05940504002098
20
12.337089098514637
30
0
10
-119.01730378504939
20
12.294920737375556
30
0
0
SPLINE
5
535
100
AcDbEntity
8
0
100
AcDbSpline
70
0
71
2
72
6
73
3
74
0
42
0.000000001
43
0.0000000001
44
0.0000000001
40
0
40
0
40
0
40
1
40
1
40
1
10
-119.01730378504939
20
12.294920737375556
30
0
10
-118.97520253007781
20
12.252752376236476
30
0
10
-118.92606188142489
20
12.23164597583734
30
0
0
SPLINE
5
536
100
AcDbEntity
8
0
100
AcDbSpline
70
0
71
2
72
6
73
3
74
0
42
0.000000001
43
0.0000000001
44
0.0000000001
40
0
40
0
40
0
40
1
40
1
40
1
10
-118.92606188142489
20
12.23164597583734
30
0
10
-118.86288777937523
20
12.196483157272706
30
0
10
-118.84884813739562
20
12.189449653676476
30
0
0
LINE
5
537
100
AcDbEntity
8
0
100
AcDbLine
10
-118.84884813739562
20
12.189449653676476
30
0
11
-118.84935143388913
21
11.557427234823292
31
0
0
LINE
5
538
100
AcDbEntity
8
0
100
AcDbLine
10
-118.84935143388913
20
11.557427234823292
30
0
11
-121.54597974547696
21
11.559574632657601
31
0
0
LINE
5
539
100
AcDbEntity
8
0
100
AcDbLine
10
-121.54597974547696
20
11.559574632657601
30
0
11
-121.54434682826006
21
13.610135887396925
31
0
0
LWPOLYLINE
5
540
100
AcDbEntity
8
0
100
AcDbPolyline
90
4
70
1
43
0.0
10
-117.26021544259999
20
14.140432523228307
10
-116.54392340763613
20
14.139862120567324
10
-116.54335300497515
20
14.856154155531183
10
-117.259645039939
20
14.856724558192166
0
SPLINE
5
541
100
AcDbEntity
8
0
100
AcDbSpline
70
0
71
2
72
6
73
3
74
0
42
0.000000001
43
0.0000000001
44
0.0000000001
40
0
40
0
40
0
40
1
40
1
40
1
10
-120.51062346801419
20
15.393020711069116
30
0
10
-120.76343231634623
20
15.393222029571586
30
0
10
-120.95999431396234
20
15.477648822785994
30
0
0
SPLINE
5
542
100
AcDbEntity
8
0
100
AcDbSpline
70
0
71
2
72
6
73
3
74
0
42
0.000000001
43
0.0000000001
44
0.0000000001
40
0
40
0
40
0
40
1
40
1
40
1
10
-120.95999431396234
20
15.477648822785994
30
0
10
-121.15655072022844
20
15.569097040928671
30
0
10
-121.29688294252425
20
15.716680861983722
30
0
0
SPLINE
5
543
100
AcDbEntity
8
0
100
AcDbSpline
70
0
71
2
72
6
73
3
74
0
42
0.000000001
43
0.0000000001
44
0.0000000001
40
0
40
0
40
0
40
1
40
1
40
1
10
-121.29688294252425
20
15.716680861983722
30
0
10
-121.43721486679695
20
15.864264682801448
30
0
10
-121.50728855765634
20
16.053927687891402
30
0
0
SPLINE
5
544
100
AcDbEntity
8
0
100
AcDbSpline
70
0
71
2
72
6
73
3
74
0
42
0.000000001
43
0.0000000001
44
0.0000000001
40
0
40
0
40
0
40
1
40
1
40
1
10
-121.50728855765634
20
16.053927687891402
30
0
10
-121.58437867814027
20
16.250617709734261
30
0
10
-121.58421091248421
20
16.461292048034075
30
0
0
SPLINE
5
545
100
AcDbEntity
8
0
100
AcDbSpline
70
0
71
2
72
6
73
3
74
0
42
0.000000001
43
0.0000000001
44
0.0000000001
40
0
40
0
40
0
40
1
40
1
40
1
10
-121.58421091248421
20
16.461292048034075
30
0
10
-121.58404314730282
20
16.671965790287629
30
0
10
-121.50664545700323
20
16.861511359940458
30
0
0
SPLINE
5
546
100
AcDbEntity
8
0
100
AcDbSpline
70
0
71
2
72
6
73
3
74
0
42
0.000000001
43
0.0000000001
44
0.0000000001
40
0
40
0
40
0
40
1
40
1
40
1
10
-121.50664545700323
20
16.861511359940458
30
0
10
-121.43626419585352
20
17.058084542392461
30
0
10
-121.29569739975729
20
17.20544467598522
30
0
0
SPLINE
5
547
100
AcDbEntity
8
0
100
AcDbSpline
70
0
71
2
72
6
73
3
74
0
42
0.000000001
43
0.0000000001
44
0.0000000001
40
0
40
0
40
0
40
1
40
1
40
1
10
-121.29569739975729
20
17.20544467598522
30
0
10
-121.1551303061126
20
17.352804213294402
30
0
10
-120.95843409521221
20
17.436917844393861
30
0
0
SPLINE
5
548
100
AcDbEntity
8
0
100
AcDbSpline
70
0
71
2
72
6
73
3
74
0
42
0.000000001
43
0.0000000001
44
0.0000000001
40
0
40
0
40
0
40
1
40
1
40
1
10
-120.95843409521221
20
17.436917844393861
30
0
10
-120.76173229296185
20
17.528052900421585
30
0
10
-120.50892344462981
20
17.527851581919119
30
0
0
LINE
5
549
100
AcDbEntity
8
0
100
AcDbLine
10
-120.50892344462981
20
17.527851581919119
30
0
11
-117.57353122072841
21
17.525514049943588
31
0
0
SPLINE
5
550
100
AcDbEntity
8
0
100
AcDbSpline
70
0
71
2
72
6
73
3
74
0
42
0.000000001
43
0.0000000001
44
0.0000000001
40
0
40
0
40
0
40
1
40
1
40
1
10
-117.57353122072843
20
17.525514049943588
30
0
10
-117.32072207437326
20
17.525312731203798
30
0
10
-117.12416566810717
20
17.433864513061121
30
0
0
SPLINE
5
551
100
AcDbEntity
8
0
100
AcDbSpline
70
0
71
2
72
6
73
3
74
0
42
0.000000001
43
0.0000000001
44
0.0000000001
40
0
40
0
40
0
40
1
40
1
40
1
10
-117.12416566810717
20
17.433864513061121
30
0
10
-116.92760367049105
20
17.349437719846712
30
0
10
-116.78727174574371
20
17.201854495075246
30
0
0
SPLINE
5
552
100
AcDbEntity
8
0
100
AcDbSpline
70
0
71
2
72
6
73
3
74
0
42
0.000000001
43
0.0000000001
44
0.0000000001
40
0
40
0
40
0
40
1
40
1
40
1
10
-116.78727174574371
20
17.201854495075246
30
0
10
-116.64693982147102
20
17.05427067425752
30
0
10
-116.5698491054155
20
16.857580055893749
30
0
0
SPLINE
5
553
100
AcDbEntity
8
0
100
AcDbSpline
70
0
71
2
72
6
73
3
74
0
42
0.000000001
43
0.0000000001
44
0.0000000001
40
0
40
0
40
0
40
1
40
1
40
1
10
-116.5698491054155
20
16.857580055893749
30
0
10
-116.49977511653297
20
16.667917050566473
30
0
10
-116.49994288171436
20
16.457243308312918
30
0
0
SPLINE
5
554
100
AcDbEntity
8
0
100
AcDbSpline
70
0
71
2
72
6
73
3
74
0
42
0.000000001
43
0.0000000001
44
0.0000000001
40
0
40
0
40
0
40
1
40
1
40
1
10
-116.49994288171436
20
16.457243308312918
30
0
10
-116.50011064737042
20
16.246568970013104
30
0
10
-116.57049220606859
20
16.04999638384469
30
0
0
SPLINE
5
555
100
AcDbEntity
8
0
100
AcDbSpline
70
0
71
2
72
6
73
3
74
0
42
0.000000001
43
0.0000000001
44
0.0000000001
40
0
40
0
40
0
40
1
40
1
40
1
10
-116.57049220606859
20
16.04999638384469
30
0
10
-116.64789049241446
20
15.860450814666507
30
0
10
-116.78845728851067
20
15.713090681073743
30
0
0
SPLINE
5
556
100
AcDbEntity
8
0
100
AcDbSpline
70
0
71
2
72
6
73
3
74
0
42
0.000000001
43
0.0000000001
44
0.0000000001
40
0
40
0
40
0
40
1
40
1
40
1
10
-116.78845728851067
20
15.713090681073743
30
0
10
-116.92902408460691
20
15.565730547480982
30
0
10
-117.12572588685728
20
15.474595491453256
30
0
0
SPLINE
5
557
100
AcDbEntity
8
0
100
AcDbSpline
70
0
71
2
72
6
73
3
74
0
42
0.000000001
43
0.0000000001
44
0.0000000001
40
0
40
0
40
0
40
1
40
1
40
1
10
-117.12572588685728
20
15.474595491453256
30
0
10
-117.32242209775764
20
15.390481860353798
30
0
10
-117.5752312441128
20
15.390683179093589
30
0
0
LINE
5
558
100
AcDbEntity
8
0
100
AcDbLine
10
-117.5752312441128
20
15.390683179093589
30
0
11
-120.51062346801419
21
15.393020711069116
31
0
0
SPLINE
5
559
100
AcDbEntity
8
0
100
AcDbSpline
70
0
71
2
72
6
73
3
74
0
42
0.000000001
43
0.0000000001
44
0.0000000001
40
0
40
0
40
0
40
1
40
1
40
1
10
-117.57466084097716
20
16.106975810103705
30
0
10
-117.42016624675114
20
16.106852781892652
30
0
10
-117.31475108533294
20
16.205083153407944
30
0
0
SPLINE
5
560
100
AcDbEntity
8
0
100
AcDbSpline
70
0
71
2
72
6
73
3
74
0
42
0.000000001
43
0.0000000001
44
0.0000000001
40
0
40
0
40
0
40
1
40
1
40
1
10
-117.31475108533294
20
16.205083153407944
30
0
10
-117.21635824291241
20
16.303319116985197
30
0
10
-117.21623521470136
20
16.457813711211227
30
0
0
SPLINE
5
561
100
AcDbEntity
8
0
100
AcDbSpline
70
0
71
2
72
6
73
3
74
0
42
0.000000001
43
0.0000000001
44
0.0000000001
40
0
40
0
40
0
40
1
40
1
40
1
10
-117.21623521470136
20
16.457813711211227
30
0
10
-117.21611218696495
20
16.612307709390997
30
0
10
-117.31434844832802
20
16.710700850071987
30
0
0
SPLINE
5
562
100
AcDbEntity
8
0
100
AcDbSpline
70
0
71
2
72
6
73
3
74
0
42
0.000000001
43
0.0000000001
44
0.0000000001
40
0
40
0
40
0
40
1
40
1
40
1
10
-117.31434844832802
20
16.710700850071987
30
0
10
-117.41960702868873
20
16.809099582814934
30
0
10
-117.57410162291477
20
16.809222611025987
30
0
0
LINE
5
563
100
AcDbEntity
8
0
100
AcDbLine
10
-117.57410162291477
20
16.809222611025987
30
0
11
-120.50949384681617
21
16.811560143001518
31
0
0
SPLINE
5
564
100
AcDbEntity
8
0
100
AcDbSpline
70
0
71
2
72
6
73
3
74
0
42
0.000000001
43
0.0000000001
44
0.0000000001
40
0
40
0
40
0
40
1
40
1
40
1
10
-120.50949384681616
20
16.811560143001518
30
0
10
-120.66398814301905
20
16.81168317097525
30
0
10
-120.76238098591425
20
16.713446611351735
30
0
0
SPLINE
5
565
100
AcDbEntity
8
0
100
AcDbSpline
70
0
71
2
72
6
73
3
74
0
42
0.000000001
43
0.0000000001
44
0.0000000001
40
0
40
0
40
0
40
1
40
1
40
1
10
-120.76238098591425
20
16.713446611351735
30
0
10
-120.86779644583021
20
16.615215644027511
30
0
10
-120.86791947356662
20
16.460721645847741
30
0
0
SPLINE
5
566
100
AcDbEntity
8
0
100
AcDbSpline
70
0
71
2
72
6
73
3
74
0
42
0.000000001
43
0.0000000001
44
0.0000000001
40
0
40
0
40
0
40
1
40
1
40
1
10
-120.86791947356662
20
16.460721645847741
30
0
10
-120.86804250177767
20
16.306227051621708
30
0
10
-120.76278362291917
20
16.207828914687695
30
0
0
SPLINE
5
567
100
AcDbEntity
8
0
100
AcDbSpline
70
0
71
2
72
6
73
3
74
0
42
0.000000001
43
0.0000000001
44
0.0000000001
40
0
40
0
40
0
40
1
40
1
40
1
10
-120.76278362291917
20
16.207828914687695
30
0
10
-120.66454736108147
20
16.109436370052965
30
0
10
-120.51005306487858
20
16.109313342079233
30
0
0
LINE
5
568
100
AcDbEntity
8
0
100
AcDbLine
10
-120.51005306487858
20
16.109313342079236
30
0
11
-117.57466084097716
21
16.106975810103705
31
0
0
LINE
5
569
100
AcDbEntity
8
0
100
AcDbLine
10
-145.35407754858565
20
13.350304422044116
30
0
11
-143.25500815800618
21
12.534025772825865
31
0
0
LINE
5
570
100
AcDbEntity
8
0
100
AcDbLine
10
-143.25500815800618
20
12.534025772825865
30
0
11
-143.24095203738915
21
12.548059822506193
31
0
0
SPLINE
5
571
100
AcDbEntity
8
0
100
AcDbSpline
70
0
71
2
72
6
73
3
74
0
42
0.000000001
43
0.0000000001
44
0.0000000001
40
0
40
0
40
0
40
1
40
1
40
1
10
-143.24095203738915
20
12.548059822506193
30
0
10
-143.2690139486416
20
12.583194382263239
30
0
10
-143.2830029628538
20
12.653430246716715
30
0
0
SPLINE
5
572
100
AcDbEntity
8
0
100
AcDbSpline
70
0
71
2
72
6
73
3
74
0
42
0.000000001
43
0.0000000001
44
0.0000000001
40
0
40
0
40
0
40
1
40
1
40
1
10
-143.2830029628538
20
12.653430246716715
30
0
10
-143.30400870400169
20
12.730694022229812
30
0
10
-143.30391363681241
20
12.850076127398165
30
0
0
SPLINE
5
573
100
AcDbEntity
8
0
100
AcDbSpline
70
0
71
2
72
6
73
3
74
0
42
0.000000001
43
0.0000000001
44
0.0000000001
40
0
40
0
40
0
40
1
40
1
40
1
10
-143.30391363681241
20
12.850076127398165
30
0
10
-143.30376264781688
20
13.039682912658746
30
0
10
-143.21234209243553
20
13.201127127652985
30
0
0
SPLINE
5
574
100
AcDbEntity
8
0
100
AcDbSpline
70
0
71
2
72
6
73
3
74
0
42
0.000000001
43
0.0000000001
44
0.0000000001
40
0
40
0
40
0
40
1
40
1
40
1
10
-143.21234209243553
20
13.201127127652985
30
0
10
-143.1209212392684
20
13.362571044386771
30
0
10
-142.98039918061716
20
13.453751433905747
30
0
0
SPLINE
5
575
100
AcDbEntity
8
0
100
AcDbSpline
70
0
71
2
72
6
73
3
74
0
42
0.000000001
43
0.0000000001
44
0.0000000001
40
0
40
0
40
0
40
1
40
1
40
1
10
-142.98039918061716
20
13.453751433905747
30
0
10
-142.90311273835843
20
13.502847046853217
30
0
10
-142.82584337054607
20
13.530875405021906
30
0
0
SPLINE
5
576
100
AcDbEntity
8
0
100
AcDbSpline
70
0
71
2
72
6
73
3
74
0
42
0.000000001
43
0.0000000001
44
0.0000000001
40
0
40
0
40
0
40
1
40
1
40
1
10
-142.82584337054607
20
13.530875405021906
30
0
10
-142.74857370471057
20
13.558903762953269
30
0
10
-142.62215250388402
20
13.579870656741267
30
0
0
SPLINE
5
577
100
AcDbEntity
8
0
100
AcDbSpline
70
0
71
2
72
6
73
3
74
0
42
0.000000001
43
0.0000000001
44
0.0000000001
40
0
40
0
40
0
40
1
40
1
40
1
10
-142.62215250388402
20
13.579870656741267
30
0
10
-142.49573689535674
20
13.593814933508479
30
0
10
-142.29910219879923
20
13.600680969471792
30
0
0
SPLINE
5
578
100
AcDbEntity
8
0
100
AcDbSpline
70
0
71
2
72
6
73
3
74
0
42
0.000000001
43
0.0000000001
44
0.0000000001
40
0
40
0
40
0
40
1
40
1
40
1
10
-142.29910219879923
20
13.600680969471792
30
0
10
-142.10948982147667
20
13.607552299473937
30
0
10
-141.81454616508933
20
13.607317427887724
30
0
0
SPLINE
5
579
100
AcDbEntity
8
0
100
AcDbSpline
70
0
71
2
72
6
73
3
74
0
42
0.000000001
43
0.0000000001
44
0.0000000001
40
0
40
0
40
0
40
1
40
1
40
1
10
-141.81454616508933
20
13.607317427887724
30
0
10
-141.56875963575493
20
13.607121701447218
30
0
10
-141.40724831459323
20
13.599970762176543
30
0
0
SPLINE
5
580
100
AcDbEntity
8
0
100
AcDbSpline
70
0
71
2
72
6
73
3
74
0
42
0.000000001
43
0.0000000001
44
0.0000000001
40
0
40
0
40
0
40
1
40
1
40
1
10
-141.40724831459323
20
13.599970762176543
30
0
10
-141.25275961068962
20
13.592825117182024
30
0
10
-141.14743362590096
20
13.578696298335554
30
0
0
SPLINE
5
581
100
AcDbEntity
8
0
100
AcDbSpline
70
0
71
2
72
6
73
3
74
0
42
0.000000001
43
0.0000000001
44
0.0000000001
40
0
40
0
40
0
40
1
40
1
40
1
10
-141.14743362590096
20
13.578696298335554
30
0
10
-141.03509091441393
20
13.557539270406336
30
0
10
-140.9578718761085
20
13.522365565503582
30
0
0
SPLINE
5
582
100
AcDbEntity
8
0
100
AcDbSpline
70
0
71
2
72
6
73
3
74
0
42
0.000000001
43
0.0000000001
44
0.0000000001
40
0
40
0
40
0
40
1
40
1
40
1
10
-140.9578718761085
20
13.522365565503582
30
0
10
-140.88064694771796
20
13.494214179361164
30
0
10
-140.79641647699032
20
13.444989648117552
30
0
0
SPLINE
5
583
100
AcDbEntity
8
0
100
AcDbSpline
70
0
71
2
72
6
73
3
74
0
42
0.000000001
43
0.0000000001
44
0.0000000001
40
0
40
0
40
0
40
1
40
1
40
1
10
-140.79641647699032
20
13.444989648117552
30
0
10
-140.5647867272869
20
13.304355745853837
30
0
10
-140.43857243726211
20
13.065491174289026
30
0
0
SPLINE
5
584
100
AcDbEntity
8
0
100
AcDbSpline
70
0
71
2
72
6
73
3
74
0
42
0.000000001
43
0.0000000001
44
0.0000000001
40
0
40
0
40
0
40
1
40
1
40
1
10
-140.43857243726211
20
13.065491174289026
30
0
10
-140.31235225715221
20
12.833648921484551
30
0
10
-140.31258712873841
20
12.538705265097189
30
0
0
SPLINE
5
585
100
AcDbEntity
8
0
100
AcDbSpline
70
0
71
2
72
6
73
3
74
0
42
0.000000001
43
0.0000000001
44
0.0000000001
40
0
40
0
40
0
40
1
40
1
40
1
10
-140.31258712873841
20
12.538705265097189
30
0
10
-140.31282200032464
20
12.243761608709832
30
0
10
-140.43941126459305
20
12.012120674882471
30
0
0
SPLINE
5
586
100
AcDbEntity
8
0
100
AcDbSpline
70
0
71
2
72
6
73
3
74
0
42
0.000000001
43
0.0000000001
44
0.0000000001
40
0
40
0
40
0
40
1
40
1
40
1
10
-140.43941126459305
20
12.012120674882471
30
0
10
-140.57302284762179
20
11.780485631140202
30
0
10
-140.79785366764804
20
11.640215071724153
30
0
0
SPLINE
5
587
100
AcDbEntity
8
0
100
AcDbSpline
70
0
71
2
72
6
73
3
74
0
42
0.000000001
43
0.0000000001
44
0.0000000001
40
0
40
0
40
0
40
1
40
1
40
1
10
-140.79785366764804
20
11.640215071724153
30
0
10
-140.88216802132237
20
11.584102284806296
30
0
10
-140.95944327921987
20
11.549051607877274
30
0
0
SPLINE
5
588
100
AcDbEntity
8
0
100
AcDbSpline
70
0
71
2
72
6
73
3
74
0
42
0.000000001
43
0.0000000001
44
0.0000000001
40
0
40
0
40
0
40
1
40
1
40
1
10
-140.95944327921987
20
11.549051607877274
30
0
10
-141.03671264703223
20
11.521023249708586
30
0
10
-141.14908331954103
20
11.507067788580125
30
0
0
SPLINE
5
589
100
AcDbEntity
8
0
100
AcDbSpline
70
0
71
2
72
6
73
3
74
0
42
0.000000001
43
0.0000000001
44
0.0000000001
40
0
40
0
40
0
40
1
40
1
40
1
10
-141.14908331954103
20
11.507067788580125
30
0
10
-141.2544372653515
20
11.486084118368915
30
0
10
-141.408937153735
20
11.479184678333425
30
0
0
SPLINE
5
590
100
AcDbEntity
8
0
100
AcDbSpline
70
0
71
2
72
6
73
3
74
0
42
0.000000001
43
0.0000000001
44
0.0000000001
40
0
40
0
40
0
40
1
40
1
40
1
10
-141.408937153735
20
11.479184678333425
30
0
10
-141.57045965913935
20
11.472290830597219
30
0
10
-141.81624618847368
20
11.472486557037724
30
0
0
SPLINE
5
591
100
AcDbEntity
8
0
100
AcDbSpline
70
0
71
2
72
6
73
3
74
0
42
0.000000001
43
0.0000000001
44
0.0000000001
40
0
40
0
40
0
40
1
40
1
40
1
10
-141.81624618847368
20
11.472486557037724
30
0
10
-142.04798778178963
20
11.472671099116983
30
0
10
-142.19545386879111
20
11.479811002800648
30
0
0
SPLINE
5
592
100
AcDbEntity
8
0
100
AcDbSpline
70
0
71
2
72
6
73
3
74
0
42
0.000000001
43
0.0000000001
44
0.0000000001
40
0
40
0
40
0
40
1
40
1
40
1
10
-142.19545386879111
20
11.479811002800648
30
0
10
-142.34994257281338
20
11.486956498783602
30
0
10
-142.4622908765997
20
11.501090909692033
30
0
0
SPLINE
5
593
100
AcDbEntity
8
0
100
AcDbSpline
70
0
71
2
72
6
73
3
74
0
42
0.000000001
43
0.0000000001
44
0.0000000001
40
0
40
0
40
0
40
1
40
1
40
1
10
-142.4622908765997
20
11.501090909692033
30
0
10
-142.56761686138836
20
11.515219728538504
30
0
10
-142.65186410877652
20
11.543376706742885
30
0
0
SPLINE
5
594
100
AcDbEntity
8
0
100
AcDbSpline
70
0
71
2
72
6
73
3
74
0
42
0.000000001
43
0.0000000001
44
0.0000000001
40
0
40
0
40
0
40
1
40
1
40
1
10
-142.65186410877652
20
11.543376706742885
30
0
10
-142.74313367516237
20
11.571539277009226
30
0
10
-142.84142056429283
20
11.606730056832967
30
0
0
LINE
5
595
100
AcDbEntity
8
0
100
AcDbLine
10
-142.84142056429283
20
11.606730056832967
30
0
11
-145.35471505717678
21
12.549743068992713
31
0
0
LINE
5
596
100
AcDbEntity
8
0
100
AcDbLine
10
-145.35471505717678
20
12.549743068992713
30
0
11
-145.35407754858565
21
13.350304422044116
31
0
0
SPLINE
5
597
100
AcDbEntity
8
0
100
AcDbSpline
70
0
71
2
72
6
73
3
74
0
42
0.000000001
43
0.0000000001
44
0.0000000001
40
0
40
0
40
0
40
1
40
1
40
1
10
-142.31371194517936
20
12.891422735889968
30
0
10
-142.47522885840306
20
12.891551356162985
30
0
10
-142.57362699557439
20
12.786292179281363
30
0
0
SPLINE
5
598
100
AcDbEntity
8
0
100
AcDbSpline
70
0
71
2
72
6
73
3
74
0
42
0.000000001
43
0.0000000001
44
0.0000000001
40
0
40
0
40
0
40
1
40
1
40
1
10
-142.57362699557439
20
12.786292179281363
30
0
10
-142.67202572831732
20
12.681033598920646
30
0
10
-142.67213757192982
20
12.540584238736191
30
0
0
SPLINE
5
599
100
AcDbEntity
8
0
100
AcDbSpline
70
0
71
2
72
6
73
3
74
0
42
0.000000001
43
0.0000000001
44
0.0000000001
40
0
40
0
40
0
40
1
40
1
40
1
10
-142.67213757192982
20
12.540584238736191
30
0
10
-142.6722494155423
20
12.400134878551734
30
0
10
-142.57401844821806
20
12.294719418635765
30
0
0
SPLINE
5
600
100
AcDbEntity
8
0
100
AcDbSpline
70
0
71
2
72
6
73
3
74
0
42
0.000000001
43
0.0000000001
44
0.0000000001
40
0
40
0
40
0
40
1
40
1
40
1
10
-142.57401844821806
20
12.294719418635765
30
0
10
-142.47578807670277
20
12.189304257217572
30
0
10
-142.31427116347908
20
12.189175636944556
30
0
0
LINE
5
601
100
AcDbEntity
8
0
100
AcDbLine
10
-142.31427116347908
20
12.189175636944556
30
0
11
-141.38730508823855
21
12.188437468864848
31
0
0
SPLINE
5
602
100
AcDbEntity
8
0
100
AcDbSpline
70
0
71
2
72
6
73
3
74
0
42
0.000000001
43
0.0000000001
44
0.0000000001
40
0
40
0
40
0
40
1
40
1
40
1
10
-141.38730508823855
20
12.18843746886485
30
0
10
-141.22578817501486
20
12.188308848591834
30
0
10
-141.12738974029503
20
12.293567429189874
30
0
0
SPLINE
5
603
100
AcDbEntity
8
0
100
AcDbSpline
70
0
71
2
72
6
73
3
74
0
42
0.000000001
43
0.0000000001
44
0.0000000001
40
0
40
0
40
0
40
1
40
1
40
1
10
-141.12738974029503
20
12.293567429189874
30
0
10
-141.02899130533791
20
12.398826307811042
30
0
10
-141.02887946172541
20
12.539275667995501
30
0
0
SPLINE
5
604
100
AcDbEntity
8
0
100
AcDbSpline
70
0
71
2
72
6
73
3
74
0
42
0.000000001
43
0.0000000001
44
0.0000000001
40
0
40
0
40
0
40
1
40
1
40
1
10
-141.02887946172541
20
12.539275667995501
30
0
10
-141.02876761811294
20
12.679725028179956
30
0
10
-141.12699828765136
20
12.78514018983547
30
0
0
SPLINE
5
605
100
AcDbEntity
8
0
100
AcDbSpline
70
0
71
2
72
6
73
3
74
0
42
0.000000001
43
0.0000000001
44
0.0000000001
40
0
40
0
40
0
40
1
40
1
40
1
10
-141.12699828765136
20
12.78514018983547
30
0
10
-141.22522895671511
20
12.890555947537246
30
0
10
-141.38674586993881
20
12.890684567810261
30
0
0
LINE
5
606
100
AcDbEntity
8
0
100
AcDbLine
10
-141.38674586993881
20
12.890684567810265
30
0
11
-142.31371194517936
21
12.891422735889968
31
0
0
LWPOLYLINE
5
607
100
AcDbEntity
8
0
100
AcDbPolyline
90
4
70
1
43
0.0
10
-141.06973925212381
20
14.140432523228307
10
-140.35344721715995
20
14.139862120567324
10
-140.35287681449898
20
14.856154155531183
10
-141.06916884946284
20
14.856724558192166
0
SPLINE
5
608
100
AcDbEntity
8
0
100
AcDbSpline
70
0
71
2
72
6
73
3
74
0
42
0.000000001
43
0.0000000001
44
0.0000000001
40
0
40
0
40
0
40
1
40
1
40
1
10
-144.32014727753801
20
15.393020711069116
30
0
10
-144.57295612587006
20
15.393222029571586
30
0
10
-144.76951812348616
20
15.477648822785994
30
0
0
SPLINE
5
609
100
AcDbEntity
8
0
100
AcDbSpline
70
0
71
2
72
6
73
3
74
0
42
0.000000001
43
0.0000000001
44
0.0000000001
40
0
40
0
40
0
40
1
40
1
40
1
10
-144.76951812348616
20
15.477648822785994
30
0
10
-144.96607452975226
20
15.569097040928671
30
0
10
-145.10640675204809
20
15.716680861983722
30
0
0
SPLINE
5
610
100
AcDbEntity
8
0
100
AcDbSpline
70
0
71
2
72
6
73
3
74
0
42
0.000000001
43
0.0000000001
44
0.0000000001
40
0
40
0
40
0
40
1
40
1
40
1
10
-145.10640675204809
20
15.716680861983722
30
0
10
-145.24673867632077
20
15.864264682801448
30
0
10
-145.31681236718018
20
16.053927687891402
30
0
0
SPLINE
5
611
100
AcDbEntity
8
0
100
AcDbSpline
70
0
71
2
72
6
73
3
74
0
42
0.000000001
43
0.0000000001
44
0.0000000001
40
0
40
0
40
0
40
1
40
1
40
1
10
-145.31681236718018
20
16.053927687891402
30
0
10
-145.39390248766409
20
16.250617709734261
30
0
10
-145.39373472200805
20
16.461292048034075
30
0
0
SPLINE
5
612
100
AcDbEntity
8
0
100
AcDbSpline
70
0
71
2
72
6
73
3
74
0
42
0.000000001
43
0.0000000001
44
0.0000000001
40
0
40
0
40
0
40
1
40
1
40
1
10
-145.39373472200805
20
16.461292048034075
30
0
10
-145.39356695682665
20
16.671965790287629
30
0
10
-145.31616926652706
20
16.861511359940458
30
0
0
SPLINE
5
613
100
AcDbEntity
8
0
100
AcDbSpline
70
0
71
2
72
6
73
3
74
0
42
0.000000001
43
0.0000000001
44
0.0000000001
40
0
40
0
40
0
40
1
40
1
40
1
10
-145.31616926652706
20
16.861511359940458
30
0
10
-145.24578800537736
20
17.058084542392461
30
0
10
-145.10522120928113
20
17.20544467598522
30
0
0
SPLINE
5
614
100
AcDbEntity
8
0
100
AcDbSpline
70
0
71
2
72
6
73
3
74
0
42
0.000000001
43
0.0000000001
44
0.0000000001
40
0
40
0
40
0
40
1
40
1
40
1
10
-145.10522120928113
20
17.20544467598522
30
0
10
-144.96465411563642
20
17.352804213294402
30
0
10
-144.76795790473605
20
17.436917844393861
30
0
0
SPLINE
5
615
100
AcDbEntity
8
0
100
AcDbSpline
70
0
71
2
72
6
73
3
74
0
42
0.000000001
43
0.0000000001
44
0.0000000001
40
0
40
0
40
0
40
1
40
1
40
1
10
-144.76795790473605
20
17.436917844393861
30
0
10
-144.57125610248568
20
17.528052900421585
30
0
10
-144.31844725415365
20
17.527851581919119
30
0
0
LINE
5
616
100
AcDbEntity
8
0
100
AcDbLine
10
-144.31844725415365
20
17.527851581919119
30
0
11
-141.38305503025225
21
17.525514049943588
31
0
0
SPLINE
5
617
100
AcDbEntity
8
0
100
AcDbSpline
70
0
71
2
72
6
73
3
74
0
42
0.000000001
43
0.0000000001
44
0.0000000001
40
0
40
0
40
0
40
1
40
1
40
1
10
-141.38305503025225
20
17.525514049943588
30
0
10
-141.13024588389709
20
17.525312731203798
30
0
10
-140.93368947763099
20
17.433864513061121
30
0
0
SPLINE
5
618
100
AcDbEntity
8
0
100
AcDbSpline
70
0
71
2
72
6
73
3
74
0
42
0.000000001
43
0.0000000001
44
0.0000000001
40
0
40
0
40
0
40
1
40
1
40
1
10
-140.93368947763099
20
17.433864513061121
30
0
10
-140.73712748001489
20
17.349437719846712
30
0
10
-140.59679555526753
20
17.201854495075246
30
0
0
SPLINE
5
619
100
AcDbEntity
8
0
100
AcDbSpline
70
0
71
2
72
6
73
3
74
0
42
0.000000001
43
0.0000000001
44
0.0000000001
40
0
40
0
40
0
40
1
40
1
40
1
10
-140.59679555526753
20
17.201854495075246
30
0
10
-140.45646363099485
20
17.05427067425752
30
0
10
-140.37937291493932
20
16.857580055893749
30
0
0
SPLINE
5
620
100
AcDbEntity
8
0
100
AcDbSpline
70
0
71
2
72
6
73
3
74
0
42
0.000000001
43
0.0000000001
44
0.0000000001
40
0
40
0
40
0
40
1
40
1
40
1
10
-140.37937291493932
20
16.857580055893749
30
0
10
-140.30929892605681
20
16.667917050566473
30
0
10
-140.30946669123819
20
16.457243308312918
30
0
0
SPLINE
5
621
100
AcDbEntity
8
0
100
AcDbSpline
70
0
71
2
72
6
73
3
74
0
42
0.000000001
43
0.0000000001
44
0.0000000001
40
0
40
0
40
0
40
1
40
1
40
1
10
-140.30946669123819
20
16.457243308312918
30
0
10
-140.30963445689426
20
16.246568970013104
30
0
10
-140.38001601559242
20
16.04999638384469
30
0
0
SPLINE
5
622
100
AcDbEntity
8
0
100
AcDbSpline
70
0
71
2
72
6
73
3
74
0
42
0.000000001
43
0.0000000001
44
0.0000000001
40
0
40
0
40
0
40
1
40
1
40
1
10
-140.38001601559242
20
16.04999638384469
30
0
10
-140.45741430193829
20
15.860450814666507
30
0
10
-140.5979810980345
20
15.713090681073743
30
0
0
SPLINE
5
623
100
AcDbEntity
8
0
100
AcDbSpline
70
0
71
2
72
6
73
3
74
0
42
0.000000001
43
0.0000000001
44
0.0000000001
40
0
40
0
40
0
40
1
40
1
40
1
10
-140.5979810980345
20
15.713090681073743
30
0
10
-140.73854789413073
20
15.565730547480982
30
0
10
-140.93524969638111
20
15.474595491453256
30
0
0
SPLINE
5
624
100
AcDbEntity
8
0
100
AcDbSpline
70
0
71
2
72
6
73
3
74
0
42
0.000000001
43
0.0000000001
44
0.0000000001
40
0
40
0
40
0
40
1
40
1
40
1
10
-140.93524969638111
20
15.474595491453256
30
0
10
-141.13194590728148
20
15.390481860353798
30
0
10
-141.38475505363664
20
15.390683179093589
30
0
0
LINE
5
625
100
AcDbEntity
8
0
100
AcDbLine
10
-141.38475505363664
20
15.390683179093589
30
0
11
-144.32014727753801
21
15.393020711069116
31
0
0
SPLINE
5
626
100
AcDbEntity
8
0
100
AcDbSpline
70
0
71
2
72
6
73
3
74
0
42
0.000000001
43
0.0000000001
44
0.0000000001
40
0
40
0
40
0
40
1
40
1
40
1
10
-141.384184650501
20
16.106975810103705
30
0
10
-141.22969005627496
20
16.106852781892652
30
0
10
-141.12427489485677
20
16.205083153407944
30
0
0
SPLINE
5
627
100
AcDbEntity
8
0
100
AcDbSpline
70
0
71
2
72
6
73
3
74
0
42
0.000000001
43
0.0000000001
44
0.0000000001
40
0
40
0
40
0
40
1
40
1
40
1
10
-141.12427489485677
20
16.205083153407944
30
0
10
-141.02588205243623
20
16.303319116985197
30
0
10
-141.02575902422518
20
16.457813711211227
30
0
0
SPLINE
5
628
100
AcDbEntity
8
0
100
AcDbSpline
70
0
71
2
72
6
73
3
74
0
42
0.000000001
43
0.0000000001
44
0.0000000001
40
0
40
0
40
0
40
1
40
1
40
1
10
-141.02575902422518
20
16.457813711211227
30
0
10
-141.02563599648877
20
16.612307709390997
30
0
10
-141.12387225785184
20
16.710700850071987
30
0
0
SPLINE
5
629
100
AcDbEntity
8
0
100
AcDbSpline
70
0
71
2
72
6
73
3
74
0
42
0.000000001
43
0.0000000001
44
0.0000000001
40
0
40
0
40
0
40
1
40
1
40
1
10
-141.12387225785184
20
16.710700850071987
30
0
10
-141.22913083821257
20
16.809099582814934
30
0
10
-141.38362543243861
20
16.809222611025987
30
0
0
LINE
5
630
100
AcDbEntity
8
0
100
AcDbLine
10
-141.38362543243861
20
16.809222611025987
30
0
11
-144.31901765634001
21
16.811560143001518
31
0
0
SPLINE
5
631
100
AcDbEntity
8
0
100
AcDbSpline
70
0
71
2
72
6
73
3
74
0
42
0.000000001
43
0.0000000001
44
0.0000000001
40
0
40
0
40
0
40
1
40
1
40
1
10
-144.31901765633998
20
16.811560143001518
30
0
10
-144.47351195254288
20
16.81168317097525
30
0
10
-144.57190479543809
20
16.713446611351735
30
0
0
SPLINE
5
632
100
AcDbEntity
8
0
100
AcDbSpline
70
0
71
2
72
6
73
3
74
0
42
0.000000001
43
0.0000000001
44
0.0000000001
40
0
40
0
40
0
40
1
40
1
40
1
10
-144.57190479543809
20
16.713446611351735
30
0
10
-144.67732025535406
20
16.615215644027511
30
0
10
-144.67744328309044
20
16.460721645847741
30
0
0
SPLINE
5
633
100
AcDbEntity
8
0
100
AcDbSpline
70
0
71
2
72
6
73
3
74
0
42
0.000000001
43
0.0000000001
44
0.0000000001
40
0
40
0
40
0
40
1
40
1
40
1
10
-144.67744328309044
20
16.460721645847741
30
0
10
-144.67756631130152
20
16.306227051621708
30
0
10
-144.57230743244301
20
16.207828914687695
30
0
0
SPLINE
5
634
100
AcDbEntity
8
0
100
AcDbSpline
70
0
71
2
72
6
73
3
74
0
42
0.000000001
43
0.0000000001
44
0.0000000001
40
0
40
0
40
0
40
1
40
1
40
1
10
-144.57230743244301
20
16.207828914687695
30
0
10
-144.4740711706053
20
16.109436370052965
30
0
10
-144.3195768744024
20
16.109313342079233
30
0
0
LINE
5
635
100
AcDbEntity
8
0
100
AcDbLine
10
-144.3195768744024
20
16.109313342079236
30
0
11
-141.384184650501
21
16.106975810103705
31
0
0
LWPOLYLINE
5
636
100
AcDbEntity
8
0
100
AcDbPolyline
90
9
70
1
43
0.0
10
-168.48980792084598
20
12.893307301116263
10
-164.16496743575988
20
11.63284029621693
10
-164.16436348025246
20
12.391266841212998
10
-168.44710271036695
20
13.609565484973247
10
-169.16339444730767
20
13.610135887396908
10
-169.16509447069211
20
11.475305016546907
10
-167.91509486702725
20
11.474309608158491
10
-167.91459157077114
20
12.106331728988547
10
-168.49043424555052
20
12.106790288037049
0
LWPOLYLINE
5
637
100
AcDbEntity
8
0
100
AcDbPolyline
90
4
70
1
43
0.0
10
-164.87926306164763
20
14.14043252322829
10
-164.16297102668378
20
14.139862120567306
10
-164.16240062402278
20
14.856154155531165
10
-164.87869265898664
20
14.856724558192148
0
SPLINE
5
638
100
AcDbEntity
8
0
100
AcDbSpline
70
0
71
2
72
6
73
3
74
0
42
0.000000001
43
0.0000000001
44
0.0000000001
40
0
40
0
40
0
40
1
40
1
40
1
10
-168.12967108706187
20
15.393020711069099
30
0
10
-168.38247993539386
20
15.393222029571568
30
0
10
-168.57904193300996
20
15.477648822785977
30
0
0
SPLINE
5
639
100
AcDbEntity
8
0
100
AcDbSpline
70
0
71
2
72
6
73
3
74
0
42
0.000000001
43
0.0000000001
44
0.0000000001
40
0
40
0
40
0
40
1
40
1
40
1
10
-168.57904193300996
20
15.477648822785977
30
0
10
-168.77559833927609
20
15.569097040928654
30
0
10
-168.91593056157191
20
15.716680861983704
30
0
0
SPLINE
5
640
100
AcDbEntity
8
0
100
AcDbSpline
70
0
71
2
72
6
73
3
74
0
42
0.000000001
43
0.0000000001
44
0.0000000001
40
0
40
0
40
0
40
1
40
1
40
1
10
-168.91593056157191
20
15.716680861983704
30
0
10
-169.05626248584457
20
15.86426468280143
30
0
10
-169.12633617670397
20
16.053927687891381
30
0
0
SPLINE
5
641
100
AcDbEntity
8
0
100
AcDbSpline
70
0
71
2
72
6
73
3
74
0
42
0.000000001
43
0.0000000001
44
0.0000000001
40
0
40
0
40
0
40
1
40
1
40
1
10
-169.12633617670397
20
16.053927687891381
30
0
10
-169.20342629718792
20
16.250617709734243
30
0
10
-169.20325853153187
20
16.461292048034057
30
0
0
SPLINE
5
642
100
AcDbEntity
8
0
100
AcDbSpline
70
0
71
2
72
6
73
3
74
0
42
0.000000001
43
0.0000000001
44
0.0000000001
40
0
40
0
40
0
40
1
40
1
40
1
10
-169.20325853153187
20
16.461292048034057
30
0
10
-169.20309076635047
20
16.671965790287611
30
0
10
-169.12569307605085
20
16.861511359940444
30
0
0
SPLINE
5
643
100
AcDbEntity
8
0
100
AcDbSpline
70
0
71
2
72
6
73
3
74
0
42
0.000000001
43
0.0000000001
44
0.0000000001
40
0
40
0
40
0
40
1
40
1
40
1
10
-169.12569307605085
20
16.861511359940444
30
0
10
-169.05531181490116
20
17.058084542392443
30
0
10
-168.91474501880495
20
17.205444675985202
30
0
0
SPLINE
5
644
100
AcDbEntity
8
0
100
AcDbSpline
70
0
71
2
72
6
73
3
74
0
42
0.000000001
43
0.0000000001
44
0.0000000001
40
0
40
0
40
0
40
1
40
1
40
1
10
-168.91474501880495
20
17.205444675985202
30
0
10
-168.77417792516025
20
17.352804213294384
30
0
10
-168.57748171425985
20
17.436917844393843
30
0
0
SPLINE
5
645
100
AcDbEntity
8
0
100
AcDbSpline
70
0
71
2
72
6
73
3
74
0
42
0.000000001
43
0.0000000001
44
0.0000000001
40
0
40
0
40
0
40
1
40
1
40
1
10
-168.57748171425985
20
17.436917844393843
30
0
10
-168.3807799120095
20
17.528052900421571
30
0
10
-168.12797106367748
20
17.527851581919101
30
0
0
LINE
5
646
100
AcDbEntity
8
0
100
AcDbLine
10
-168.12797106367748
20
17.527851581919101
30
0
11
-165.19257883977605
21
17.52551404994357
31
0
0
SPLINE
5
647
100
AcDbEntity
8
0
100
AcDbSpline
70
0
71
2
72
6
73
3
74
0
42
0.000000001
43
0.0000000001
44
0.0000000001
40
0
40
0
40
0
40
1
40
1
40
1
10
-165.19257883977605
20
17.52551404994357
30
0
10
-164.93976969342094
20
17.52531273120378
30
0
10
-164.74321328715479
20
17.433864513061103
30
0
0
SPLINE
5
648
100
AcDbEntity
8
0
100
AcDbSpline
70
0
71
2
72
6
73
3
74
0
42
0.000000001
43
0.0000000001
44
0.0000000001
40
0
40
0
40
0
40
1
40
1
40
1
10
-164.74321328715479
20
17.433864513061103
30
0
10
-164.54665128953872
20
17.349437719846694
30
0
10
-164.40631936479136
20
17.201854495075224
30
0
0
SPLINE
5
649
100
AcDbEntity
8
0
100
AcDbSpline
70
0
71
2
72
6
73
3
74
0
42
0.000000001
43
0.0000000001
44
0.0000000001
40
0
40
0
40
0
40
1
40
1
40
1
10
-164.40631936479136
20
17.201854495075224
30
0
10
-164.2659874405187
20
17.054270674257502
30
0
10
-164.18889672446312
20
16.857580055893735
30
0
0
SPLINE
5
650
100
AcDbEntity
8
0
100
AcDbSpline
70
0
71
2
72
6
73
3
74
0
42
0.000000001
43
0.0000000001
44
0.0000000001
40
0
40
0
40
0
40
1
40
1
40
1
10
-164.18889672446312
20
16.857580055893735
30
0
10
-164.11882273558061
20
16.667917050566455
30
0
10
-164.11899050076201
20
16.457243308312901
30
0
0
SPLINE
5
651
100
AcDbEntity
8
0
100
AcDbSpline
70
0
71
2
72
6
73
3
74
0
42
0.000000001
43
0.0000000001
44
0.0000000001
40
0
40
0
40
0
40
1
40
1
40
1
10
-164.11899050076201
20
16.457243308312901
30
0
10
-164.11915826641805
20
16.246568970013087
30
0
10
-164.18953982511624
20
16.049996383844672
30
0
0
SPLINE
5
652
100
AcDbEntity
8
0
100
AcDbSpline
70
0
71
2
72
6
73
3
74
0
42
0.000000001
43
0.0000000001
44
0.0000000001
40
0
40
0
40
0
40
1
40
1
40
1
10
-164.18953982511624
20
16.049996383844672
30
0
10
-164.26693811146211
20
15.860450814666489
30
0
10
-164.40750490755832
20
15.713090681073725
30
0
0
SPLINE
5
653
100
AcDbEntity
8
0
100
AcDbSpline
70
0
71
2
72
6
73
3
74
0
42
0.000000001
43
0.0000000001
44
0.0000000001
40
0
40
0
40
0
40
1
40
1
40
1
10
-164.40750490755832
20
15.713090681073725
30
0
10
-164.54807170365456
20
15.565730547480964
30
0
10
-164.7447735059049
20
15.474595491453238
30
0
0
SPLINE
5
654
100
AcDbEntity
8
0
100
AcDbSpline
70
0
71
2
72
6
73
3
74
0
42
0.000000001
43
0.0000000001
44
0.0000000001
40
0
40
0
40
0
40
1
40
1
40
1
10
-164.7447735059049
20
15.474595491453238
30
0
10
-164.94146971680527
20
15.390481860353781
30
0
10
-165.19427886316043
20
15.390683179093571
30
0
0
LINE
5
655
100
AcDbEntity
8
0
100
AcDbLine
10
-165.19427886316043
20
15.390683179093571
30
0
11
-168.12967108706187
21
15.393020711069099
31
0
0
SPLINE
5
656
100
AcDbEntity
8
0
100
AcDbSpline
70
0
71
2
72
6
73
3
74
0
42
0.000000001
43
0.0000000001
44
0.0000000001
40
0
40
0
40
0
40
1
40
1
40
1
10
-165.19370846002482
20
16.106975810103688
30
0
10
-165.03921386579879
20
16.106852781892634
30
0
10
-164.93379870438059
20
16.205083153407926
30
0
0
SPLINE
5
657
100
AcDbEntity
8
0
100
AcDbSpline
70
0
71
2
72
6
73
3
74
0
42
0.000000001
43
0.0000000001
44
0.0000000001
40
0
40
0
40
0
40
1
40
1
40
1
10
-164.93379870438059
20
16.205083153407926
30
0
10
-164.83540586196006
20
16.303319116985179
30
0
10
-164.83528283374903
20
16.457813711211209
30
0
0
SPLINE
5
658
100
AcDbEntity
8
0
100
AcDbSpline
70
0
71
2
72
6
73
3
74
0
42
0.000000001
43
0.0000000001
44
0.0000000001
40
0
40
0
40
0
40
1
40
1
40
1
10
-164.83528283374903
20
16.457813711211209
30
0
10
-164.8351598060126
20
16.612307709390983
30
0
10
-164.93339606737564
20
16.710700850071969
30
0
0
SPLINE
5
659
100
AcDbEntity
8
0
100
AcDbSpline
70
0
71
2
72
6
73
3
74
0
42
0.000000001
43
0.0000000001
44
0.0000000001
40
0
40
0
40
0
40
1
40
1
40
1
10
-164.93339606737564
20
16.710700850071969
30
0
10
-165.03865464773637
20
16.809099582814916
30
0
10
-165.1931492419624
20
16.809222611025973
30
0
0
LINE
5
660
100
AcDbEntity
8
0
100
AcDbLine
10
-165.1931492419624
20
16.809222611025973
30
0
11
-168.1285414658638
21
16.8115601430015
31
0
0
SPLINE
5
661
100
AcDbEntity
8
0
100
AcDbSpline
70
0
71
2
72
6
73
3
74
0
42
0.000000001
43
0.0000000001
44
0.0000000001
40
0
40
0
40
0
40
1
40
1
40
1
10
-168.1285414658638
20
16.8115601430015
30
0
10
-168.28303576206673
20
16.811683170975233
30
0
10
-168.38142860496188
20
16.713446611351721
30
0
0
SPLINE
5
662
100
AcDbEntity
8
0
100
AcDbSpline
70
0
71
2
72
6
73
3
74
0
42
0.000000001
43
0.0000000001
44
0.0000000001
40
0
40
0
40
0
40
1
40
1
40
1
10
-168.38142860496188
20
16.713446611351721
30
0
10
-168.48684406487786
20
16.615215644027494
30
0
10
-168.48696709261424
20
16.460721645847723
30
0
0
SPLINE
5
663
100
AcDbEntity
8
0
100
AcDbSpline
70
0
71
2
72
6
73
3
74
0
42
0.000000001
43
0.0000000001
44
0.0000000001
40
0
40
0
40
0
40
1
40
1
40
1
10
-168.48696709261424
20
16.460721645847723
30
0
10
-168.48709012082534
20
16.30622705162169
30
0
10
-168.38183124196684
20
16.207828914687678
30
0
0
SPLINE
5
664
100
AcDbEntity
8
0
100
AcDbSpline
70
0
71
2
72
6
73
3
74
0
42
0.000000001
43
0.0000000001
44
0.0000000001
40
0
40
0
40
0
40
1
40
1
40
1
10
-168.38183124196684
20
16.207828914687678
30
0
10
-168.28359498012912
20
16.109436370052947
30
0
10
-168.12910068392623
20
16.109313342079219
30
0
0
LINE
5
665
100
AcDbEntity
8
0
100
AcDbLine
10
-168.12910068392623
20
16.109313342079219
30
0
11
-165.19370846002482
21
16.106975810103688
31
0
0
SPLINE
5
666
100
AcDbEntity
8
0
100
AcDbSpline
70
0
71
2
72
6
73
3
74
0
42
0.000000001
43
0.0000000001
44
0.0000000001
40
0
40
0
40
0
40
1
40
1
40
1
10
-191.94820803188546
20
12.893027691847735
30
0
10
-192.0956800090907
20
12.893145127759503
30
0
10
-192.19407844428517
20
12.787885951115204
30
0
0
SPLINE
5
667
100
AcDbEntity
8
0
100
AcDbSpline
70
0
71
2
72
6
73
3
74
0
42
0.000000001
43
0.0000000001
44
0.0000000001
40
0
40
0
40
0
40
1
40
1
40
1
10
-192.19407844428517
20
12.787885951115204
30
0
10
-192.29949949602576
20
12.682632962816452
30
0
10
-192.29961133963826
20
12.542183602631994
30
0
0
SPLINE
5
668
100
AcDbEntity
8
0
100
AcDbSpline
70
0
71
2
72
6
73
3
74
0
42
0.000000001
43
0.0000000001
44
0.0000000001
40
0
40
0
40
0
40
1
40
1
40
1
10
-192.29961133963826
20
12.542183602631994
30
0
10
-192.29972318325076
20
12.401734242447537
30
0
10
-192.19446989692884
20
12.296313190469606
30
0
0
SPLINE
5
669
100
AcDbEntity
8
0
100
AcDbSpline
70
0
71
2
72
6
73
3
74
0
42
0.000000001
43
0.0000000001
44
0.0000000001
40
0
40
0
40
0
40
1
40
1
40
1
10
-192.19446989692884
20
12.296313190469606
30
0
10
-192.09623922739044
20
12.19089802881409
30
0
10
-191.94876725018517
20
12.190780592902321
30
0
0
LINE
5
670
100
AcDbEntity
8
0
100
AcDbLine
10
-191.94876725018517
20
12.190780592902321
30
0
11
-191.218430577226
21
12.190199006117412
31
0
0
SPLINE
5
671
100
AcDbEntity
8
0
100
AcDbSpline
70
0
71
2
72
6
73
3
74
0
42
0.000000001
43
0.0000000001
44
0.0000000001
40
0
40
0
40
0
40
1
40
1
40
1
10
-191.218430577226
20
12.190199006117414
30
0
10
-191.07095860002076
20
12.190081570205646
30
0
10
-190.96553784630331
20
12.295334558741724
30
0
0
SPLINE
5
672
100
AcDbEntity
8
0
100
AcDbSpline
70
0
71
2
72
6
73
3
74
0
42
0.000000001
43
0.0000000001
44
0.0000000001
40
0
40
0
40
0
40
1
40
1
40
1
10
-190.96553784630331
20
12.295334558741724
30
0
10
-190.86713911332305
20
12.400593437125568
30
0
10
-190.86702726971055
20
12.541042797310027
30
0
0
SPLINE
5
673
100
AcDbEntity
8
0
100
AcDbSpline
70
0
71
2
72
6
73
3
74
0
42
0.000000001
43
0.0000000001
44
0.0000000001
40
0
40
0
40
0
40
1
40
1
40
1
10
-190.86702726971055
20
12.541042797310027
30
0
10
-190.86691542609805
20
12.681492157494482
30
0
10
-190.96514639365961
20
12.786907319387321
30
0
0
SPLINE
5
674
100
AcDbEntity
8
0
100
AcDbSpline
70
0
71
2
72
6
73
3
74
0
42
0.000000001
43
0.0000000001
44
0.0000000001
40
0
40
0
40
0
40
1
40
1
40
1
10
-190.96514639365961
20
12.786907319387321
30
0
10
-191.07039938172105
20
12.892328669151055
30
0
10
-191.21787135892629
20
12.892446105062824
30
0
0
LINE
5
675
100
AcDbEntity
8
0
100
AcDbLine
10
-191.21787135892629
20
12.892446105062824
30
0
11
-191.94820803188546
21
12.893027691847735
31
0
0
SPLINE
5
676
100
AcDbEntity
8
0
100
AcDbSpline
70
0
71
2
72
6
73
3
74
0
42
0.000000001
43
0.0000000001
44
0.0000000001
40
0
40
0
40
0
40
1
40
1
40
1
10
-191.66843893247727
20
11.474264870713499
30
0
10
-191.87209065375629
20
11.474427044070259
30
0
10
-192.01252882957948
20
11.488583823701187
30
0
0
SPLINE
5
677
100
AcDbEntity
8
0
100
AcDbSpline
70
0
71
2
72
6
73
3
74
0
42
0.000000001
43
0.0000000001
44
0.0000000001
40
0
40
0
40
0
40
1
40
1
40
1
10
-192.01252882957948
20
11.488583823701187
30
0
10
-192.1599896224235
20
11.502746195631401
30
0
10
-192.2652985325285
20
11.537942567279782
30
0
0
SPLINE
5
678
100
AcDbEntity
8
0
100
AcDbSpline
70
0
71
2
72
6
73
3
74
0
42
0.000000001
43
0.0000000001
44
0.0000000001
40
0
40
0
40
0
40
1
40
1
40
1
10
-192.2652985325285
20
11.537942567279782
30
0
10
-192.37060774089394
20
11.573138641142355
30
0
10
-192.45484380380219
20
11.615340704376745
30
0
0
SPLINE
5
679
100
AcDbEntity
8
0
100
AcDbSpline
70
0
71
2
72
6
73
3
74
0
42
0.000000001
43
0.0000000001
44
0.0000000001
40
0
40
0
40
0
40
1
40
1
40
1
10
-192.45484380380219
20
11.615340704376745
30
0
10
-192.5390742746485
20
11.664565086608793
30
0
10
-192.63031028795058
20
11.734862464930472
30
0
0
SPLINE
5
680
100
AcDbEntity
8
0
100
AcDbSpline
70
0
71
2
72
6
73
3
74
0
42
0.000000001
43
0.0000000001
44
0.0000000001
40
0
40
0
40
0
40
1
40
1
40
1
10
-192.63031028795058
20
11.734862464930472
30
0
10
-192.81278291060104
20
11.875457222048482
30
0
10
-192.91092969731142
20
12.086209552853903
30
0
0
SPLINE
5
681
100
AcDbEntity
8
0
100
AcDbSpline
70
0
71
2
72
6
73
3
74
0
42
0.000000001
43
0.0000000001
44
0.0000000001
40
0
40
0
40
0
40
1
40
1
40
1
10
-192.91092969731142
20
12.086209552853903
30
0
10
-193.01609850499634
20
12.296967475483967
30
0
10
-193.01590277855584
20
12.542754004818327
30
0
0
SPLINE
5
682
100
AcDbEntity
8
0
100
AcDbSpline
70
0
71
2
72
6
73
3
74
0
42
0.000000001
43
0.0000000001
44
0.0000000001
40
0
40
0
40
0
40
1
40
1
40
1
10
-193.01590277855584
20
12.542754004818327
30
0
10
-193.01570705235267
20
12.788540236129563
30
0
10
-192.91020271359298
20
12.999130692076001
30
0
0
SPLINE
5
683
100
AcDbEntity
8
0
100
AcDbSpline
70
0
71
2
72
6
73
3
74
0
42
0.000000001
43
0.0000000001
44
0.0000000001
40
0
40
0
40
0
40
1
40
1
40
1
10
-192.91020271359298
20
12.999130692076001
30
0
10
-192.81172039604513
20
13.20972644182395
30
0
10
-192.62902408616975
20
13.350030405074856
30
0
0
SPLINE
5
684
100
AcDbEntity
8
0
100
AcDbSpline
70
0
71
2
72
6
73
3
74
0
42
0.000000001
43
0.0000000001
44
0.0000000001
40
0
40
0
40
0
40
1
40
1
40
1
10
-192.62902408616975
20
13.350030405074856
30
0
10
-192.53767622925517
20
13.420182386937631
30
0
10
-192.45336746776144
20
13.469272705846267
30
0
0
SPLINE
5
685
100
AcDbEntity
8
0
100
AcDbSpline
70
0
71
2
72
6
73
3
74
0
42
0.000000001
43
0.0000000001
44
0.0000000001
40
0
40
0
40
0
40
1
40
1
40
1
10
-192.45336746776144
20
13.469272705846267
30
0
10
-192.36905870626774
20
13.518363024754903
30
0
10
-192.26369357633337
20
13.553391332961429
30
0
0
SPLINE
5
686
100
AcDbEntity
8
0
100
AcDbSpline
70
0
71
2
72
6
73
3
74
0
42
0.000000001
43
0.0000000001
44
0.0000000001
40
0
40
0
40
0
40
1
40
1
40
1
10
-192.26369357633337
20
13.553391332961429
30
0
10
-192.15832874442214
20
13.588419641405277
30
0
10
-192.0108511749176
20
13.595324822514296
30
0
0
SPLINE
5
687
100
AcDbEntity
8
0
100
AcDbSpline
70
0
71
2
72
6
73
3
74
0
42
0.000000001
43
0.0000000001
44
0.0000000001
40
0
40
0
40
0
40
1
40
1
40
1
10
-192.0108511749176
20
13.595324822514296
30
0
10
-191.8703906303719
20
13.60925791492026
30
0
10
-191.66673890909289
20
13.6090957415635
30
0
0
SPLINE
5
688
100
AcDbEntity
8
0
100
AcDbSpline
70
0
71
2
72
6
73
3
74
0
42
0.000000001
43
0.0000000001
44
0.0000000001
40
0
40
0
40
0
40
1
40
1
40
1
10
-191.66673890909289
20
13.6090957415635
30
0
10
-191.44201993279776
20
13.608916791783528
30
0
10
-191.2875312286568
20
13.601771444812139
30
0
0
SPLINE
5
689
100
AcDbEntity
8
0
100
AcDbSpline
70
0
71
2
72
6
73
3
74
0
42
0.000000001
43
0.0000000001
44
0.0000000001
40
0
40
0
40
0
40
1
40
1
40
1
10
-191.2875312286568
20
13.601771444812139
30
0
10
-191.13304252475319
20
13.594625799817619
30
0
10
-191.01368838060662
20
13.559418243570668
30
0
0
SPLINE
5
690
100
AcDbEntity
8
0
100
AcDbSpline
70
0
71
2
72
6
73
3
74
0
42
0.000000001
43
0.0000000001
44
0.0000000001
40
0
40
0
40
0
40
1
40
1
40
1
10
-191.01368838060662
20
13.559418243570668
30
0
10
-190.89433453424587
20
13.524210985584171
30
0
10
-190.79608119819912
20
13.446885397705095
30
0
0
SPLINE
5
691
100
AcDbEntity
8
0
100
AcDbSpline
70
0
71
2
72
6
73
3
74
0
42
0.000000001
43
0.0000000001
44
0.0000000001
40
0
40
0
40
0
40
1
40
1
40
1
10
-190.79608119819912
20
13.446885397705095
30
0
10
-190.70484518489704
20
13.376588019383412
30
0
10
-190.59960867499836
20
13.25009971238938
30
0
0
SPLINE
5
692
100
AcDbEntity
8
0
100
AcDbSpline
70
0
71
2
72
6
73
3
74
0
42
0.000000001
43
0.0000000001
44
0.0000000001
40
0
40
0
40
0
40
1
40
1
40
1
10
-190.59960867499836
20
13.25009971238938
30
0
10
-190.50119346361799
20
13.376425846026653
30
0
10
-190.40282298968265
20
13.446572235590144
30
0
0
SPLINE
5
693
100
AcDbEntity
8
0
100
AcDbSpline
70
0
71
2
72
6
73
3
74
0
42
0.000000001
43
0.0000000001
44
0.0000000001
40
0
40
0
40
0
40
1
40
1
40
1
10
-190.40282298968265
20
13.446572235590144
30
0
10
-190.30444692344801
20
13.523741242174424
30
0
10
-190.17099221949988
20
13.558747181895775
30
0
0
SPLINE
5
694
100
AcDbEntity
8
0
100
AcDbSpline
70
0
71
2
72
6
73
3
74
0
42
0.000000001
43
0.0000000001
44
0.0000000001
40
0
40
0
40
0
40
1
40
1
40
1
10
-190.17099221949988
20
13.558747181895775
30
0
10
-190.03753721729129
20
13.593753419402933
30
0
10
-189.84090222271064
20
13.600619455128921
30
0
0
SPLINE
5
695
100
AcDbEntity
8
0
100
AcDbSpline
70
0
71
2
72
6
73
3
74
0
42
0.000000001
43
0.0000000001
44
0.0000000001
40
0
40
0
40
0
40
1
40
1
40
1
10
-189.84090222271064
20
13.600619455128921
30
0
10
-189.65129014341125
20
13.607490785368391
30
0
10
-189.37039142304232
20
13.607267098143428
30
0
0
SPLINE
5
696
100
AcDbEntity
8
0
100
AcDbSpline
70
0
71
2
72
6
73
3
74
0
42
0.000000001
43
0.0000000001
44
0.0000000001
40
0
40
0
40
0
40
1
40
1
40
1
10
-189.37039142304232
20
13.607267098143428
30
0
10
-189.1386498297264
20
13.607082556064169
30
0
10
-188.98416671788476
20
13.592914592071992
30
0
0
SPLINE
5
697
100
AcDbEntity
8
0
100
AcDbSpline
70
0
71
2
72
6
73
3
74
0
42
0.000000001
43
0.0000000001
44
0.0000000001
40
0
40
0
40
0
40
1
40
1
40
1
10
-188.98416671788476
20
13.592914592071992
30
0
10
-188.83670033297878
20
13.585774539139436
30
0
10
-188.72435762125446
20
13.564617809233347
30
0
0
SPLINE
5
698
100
AcDbEntity
8
0
100
AcDbSpline
70
0
71
2
72
6
73
3
74
0
42
0.000000001
43
0.0000000001
44
0.0000000001
40
0
40
0
40
0
40
1
40
1
40
1
10
-188.72435762125446
20
13.564617809233347
30
0
10
-188.61201490953007
20
13.543461079327257
30
0
10
-188.53480116573814
20
13.501264459143263
30
0
0
SPLINE
5
699
100
AcDbEntity
8
0
100
AcDbSpline
70
0
71
2
72
6
73
3
74
0
42
0.000000001
43
0.0000000001
44
0.0000000001
40
0
40
0
40
0
40
1
40
1
40
1
10
-188.53480116573814
20
13.501264459143263
30
0
10
-188.45758212743272
20
13.466090754240511
30
0
10
-188.37335724900436
20
13.409843605976111
30
0
0
SPLINE
5
700
100
AcDbEntity
8
0
100
AcDbSpline
70
0
71
2
72
6
73
3
74
0
42
0.000000001
43
0.0000000001
44
0.0000000001
40
0
40
0
40
0
40
1
40
1
40
1
10
-188.37335724900436
20
13.409843605976111
30
0
10
-188.19086814771651
20
13.290316402134659
30
0
10
-188.05761446424771
20
13.072513493286666
30
0
0
SPLINE
5
701
100
AcDbEntity
8
0
100
AcDbSpline
70
0
71
2
72
6
73
3
74
0
42
0.000000001
43
0.0000000001
44
0.0000000001
40
0
40
0
40
0
40
1
40
1
40
1
10
-188.05761446424771
20
13.072513493286666
30
0
10
-187.93138309953923
20
12.854716474523764
30
0
10
-187.93163474778601
20
12.538705265097171
30
0
0
SPLINE
5
702
100
AcDbEntity
8
0
100
AcDbSpline
70
0
71
2
72
6
73
3
74
0
42
0.000000001
43
0.0000000001
44
0.0000000001
40
0
40
0
40
0
40
1
40
1
40
1
10
-187.93163474778601
20
12.538705265097171
30
0
10
-187.93188639603275
20
12.22269405567058
30
0
10
-188.05846447570258
20
12.005098355884796
30
0
0
SPLINE
5
703
100
AcDbEntity
8
0
100
AcDbSpline
70
0
71
2
72
6
73
3
74
0
42
0.000000001
43
0.0000000001
44
0.0000000001
40
0
40
0
40
0
40
1
40
1
40
1
10
-188.05846447570258
20
12.005098355884796
30
0
10
-188.19206487460741
20
11.787507950137844
30
0
10
-188.37474410991777
20
11.668271390677283
30
0
0
SPLINE
5
704
100
AcDbEntity
8
0
100
AcDbSpline
70
0
71
2
72
6
73
3
74
0
42
0.000000001
43
0.0000000001
44
0.0000000001
40
0
40
0
40
0
40
1
40
1
40
1
10
-188.37474410991777
20
11.668271390677283
30
0
10
-188.45905846347347
20
11.61215875277099
30
0
10
-188.53633901576575
20
11.570085309572292
30
0
0
SPLINE
5
705
100
AcDbEntity
8
0
100
AcDbSpline
70
0
71
2
72
6
73
3
74
0
42
0.000000001
43
0.0000000001
44
0.0000000001
40
0
40
0
40
0
40
1
40
1
40
1
10
-188.53633901576575
20
11.570085309572292
30
0
10
-188.61361427366322
20
11.535034632643269
30
0
10
-188.72599053847131
20
11.514056554494021
30
0
0
SPLINE
5
706
100
AcDbEntity
8
0
100
AcDbSpline
70
0
71
2
72
6
73
3
74
0
42
0.000000001
43
0.0000000001
44
0.0000000001
40
0
40
0
40
0
40
1
40
1
40
1
10
-188.72599053847131
20
11.514056554494021
30
0
10
-188.83836680304211
20
11.493078774367904
30
0
10
-188.98584996472724
20
11.479151125249663
30
0
0
SPLINE
5
707
100
AcDbEntity
8
0
100
AcDbSpline
70
0
71
2
72
6
73
3
74
0
42
0.000000001
43
0.0000000001
44
0.0000000001
40
0
40
0
40
0
40
1
40
1
40
1
10
-188.98584996472724
20
11.479151125249663
30
0
10
-189.14034985311076
20
11.47225168521417
30
0
10
-189.37209144642668
20
11.472436227293429
30
0
0
SPLINE
5
708
100
AcDbEntity
8
0
100
AcDbSpline
70
0
71
2
72
6
73
3
74
0
42
0.000000001
43
0.0000000001
44
0.0000000001
40
0
40
0
40
0
40
1
40
1
40
1
10
-189.37209144642668
20
11.472436227293429
30
0
10
-189.65299016679563
20
11.472659914518392
30
0
10
-189.84259106185246
20
11.479833371285803
30
0
0
SPLINE
5
709
100
AcDbEntity
8
0
100
AcDbSpline
70
0
71
2
72
6
73
3
74
0
42
0.000000001
43
0.0000000001
44
0.0000000001
40
0
40
0
40
0
40
1
40
1
40
1
10
-189.84259106185246
20
11.479833371285803
30
0
10
-190.03921487195316
20
11.487012420589826
30
0
10
-190.17261395211818
20
11.522231161198025
30
0
0
SPLINE
5
710
100
AcDbEntity
8
0
100
AcDbSpline
70
0
71
2
72
6
73
3
74
0
42
0.000000001
43
0.0000000001
44
0.0000000001
40
0
40
0
40
0
40
1
40
1
40
1
10
-190.17261395211818
20
11.522231161198025
30
0
10
-190.30601273449741
20
11.55744960354577
30
0
10
-190.40427136470163
20
11.627752723178302
30
0
0
SPLINE
5
711
100
AcDbEntity
8
0
100
AcDbSpline
70
0
71
2
72
6
73
3
74
0
42
0.000000001
43
0.0000000001
44
0.0000000001
40
0
40
0
40
0
40
1
40
1
40
1
10
-190.40427136470163
20
11.627752723178302
30
0
10
-190.5025244028439
20
11.70507816180849
30
0
10
-190.60073829572175
20
11.831560876503238
30
0
0
SPLINE
5
712
100
AcDbEntity
8
0
100
AcDbSpline
70
0
71
2
72
6
73
3
74
0
42
0.000000001
43
0.0000000001
44
0.0000000001
40
0
40
0
40
0
40
1
40
1
40
1
10
-190.60073829572175
20
11.831560876503238
30
0
10
-190.70617612412292
20
11.705240335165252
30
0
10
-190.79752957321813
20
11.628065885293253
30
0
0
SPLINE
5
713
100
AcDbEntity
8
0
100
AcDbSpline
70
0
71
2
72
6
73
3
74
0
42
0.000000001
43
0.0000000001
44
0.0000000001
40
0
40
0
40
0
40
1
40
1
40
1
10
-190.79752957321813
20
11.628065885293253
30
0
10
-190.89590034529525
20
11.55791934695552
30
0
10
-191.01531011322493
20
11.522902222872919
30
0
0
SPLINE
5
714
100
AcDbEntity
8
0
100
AcDbSpline
70
0
71
2
72
6
73
3
74
0
42
0.000000001
43
0.0000000001
44
0.0000000001
40
0
40
0
40
0
40
1
40
1
40
1
10
-191.01531011322493
20
11.522902222872919
30
0
10
-191.13472017941507
20
11.487884801004512
30
0
10
-191.2892200677986
20
11.48098536096902
30
0
0
SPLINE
5
715
100
AcDbEntity
8
0
100
AcDbSpline
70
0
71
2
72
6
73
3
74
0
42
0.000000001
43
0.0000000001
44
0.0000000001
40
0
40
0
40
0
40
1
40
1
40
1
10
-191.2892200677986
20
11.48098536096902
30
0
10
-191.44371995618212
20
11.474085920933527
30
0
10
-191.66843893247727
20
11.474264870713499
30
0
0
SPLINE
5
716
100
AcDbEntity
8
0
100
AcDbSpline
70
0
71
2
72
6
73
3
74
0
42
0.000000001
43
0.0000000001
44
0.0000000001
40
0
40
0
40
0
40
1
40
1
40
1
10
-189.98191669127993
20
12.891461881035656
30
0
10
-190.12938837046204
20
12.891579316710102
30
0
10
-190.22778710367962
20
12.786320140303127
30
0
0
SPLINE
5
717
100
AcDbEntity
8
0
100
AcDbSpline
70
0
71
2
72
6
73
3
74
0
42
0.000000001
43
0.0000000001
44
0.0000000001
40
0
40
0
40
0
40
1
40
1
40
1
10
-190.22778710367962
20
12.786320140303127
30
0
10
-190.3332078573971
20
12.681067151767049
30
0
10
-190.3333197010096
20
12.540617791582594
30
0
0
SPLINE
5
718
100
AcDbEntity
8
0
100
AcDbSpline
70
0
71
2
72
6
73
3
74
0
42
0.000000001
43
0.0000000001
44
0.0000000001
40
0
40
0
40
0
40
1
40
1
40
1
10
-190.3333197010096
20
12.540617791582594
30
0
10
-190.3334315446221
20
12.400168431398138
30
0
10
-190.22817855632331
20
12.29474737965753
30
0
0
SPLINE
5
719
100
AcDbEntity
8
0
100
AcDbSpline
70
0
71
2
72
6
73
3
74
0
42
0.000000001
43
0.0000000001
44
0.0000000001
40
0
40
0
40
0
40
1
40
1
40
1
10
-190.22817855632331
20
12.29474737965753
30
0
10
-190.12994758876178
20
12.18933221776469
30
0
10
-189.98247590957965
20
12.189214782090245
30
0
0
LINE
5
720
100
AcDbEntity
8
0
100
AcDbLine
10
-189.9824759095797
20
12.189214782090245
30
0
11
-188.99933009026535
21
12.188431876565545
31
0
0
SPLINE
5
721
100
AcDbEntity
8
0
100
AcDbSpline
70
0
71
2
72
6
73
3
74
0
42
0.000000001
43
0.0000000001
44
0.0000000001
40
0
40
0
40
0
40
1
40
1
40
1
10
-188.99933009026535
20
12.188431876565545
30
0
10
-188.85185811306008
20
12.188314440653777
30
0
10
-188.74643735934262
20
12.293567429189856
30
0
0
SPLINE
5
722
100
AcDbEntity
8
0
100
AcDbSpline
70
0
71
2
72
6
73
3
74
0
42
0.000000001
43
0.0000000001
44
0.0000000001
40
0
40
0
40
0
40
1
40
1
40
1
10
-188.74643735934262
20
12.293567429189856
30
0
10
-188.64803892438547
20
12.398826307811024
30
0
10
-188.647927080773
20
12.539275667995483
30
0
0
SPLINE
5
723
100
AcDbEntity
8
0
100
AcDbSpline
70
0
71
2
72
6
73
3
74
0
42
0.000000001
43
0.0000000001
44
0.0000000001
40
0
40
0
40
0
40
1
40
1
40
1
10
-188.647927080773
20
12.539275667995483
30
0
10
-188.6478152371605
20
12.679725028179938
30
0
10
-188.74604590669892
20
12.785140189835452
30
0
0
SPLINE
5
724
100
AcDbEntity
8
0
100
AcDbSpline
70
0
71
2
72
6
73
3
74
0
42
0.000000001
43
0.0000000001
44
0.0000000001
40
0
40
0
40
0
40
1
40
1
40
1
10
-188.74604590669892
20
12.785140189835452
30
0
10
-188.85129889476036
20
12.89056153959919
30
0
10
-188.9987708719656
20
12.890678975510959
30
0
0
LINE
5
725
100
AcDbEntity
8
0
100
AcDbLine
10
-188.9987708719656
20
12.890678975510959
30
0
11
-189.98191669127993
21
12.891461881035656
31
0
0
LWPOLYLINE
5
726
100
AcDbEntity
8
0
100
AcDbPolyline
90
4
70
1
43
0.0
10
-188.68878687117137
20
14.14043252322829
10
-187.97249483620755
20
14.139862120567306
10
-187.97192443354652
20
14.856154155531165
10
-188.6882164685104
20
14.856724558192148
0
SPLINE
5
727
100
AcDbEntity
8
0
100
AcDbSpline
70
0
71
2
72
6
73
3
74
0
42
0.000000001
43
0.0000000001
44
0.0000000001
40
0
40
0
40
0
40
1
40
1
40
1
10
-191.9391948965856
20
15.393020711069099
30
0
10
-192.19200374491763
20
15.393222029571568
30
0
10
-192.38856574253373
20
15.477648822785977
30
0
0
SPLINE
5
728
100
AcDbEntity
8
0
100
AcDbSpline
70
0
71
2
72
6
73
3
74
0
42
0.000000001
43
0.0000000001
44
0.0000000001
40
0
40
0
40
0
40
1
40
1
40
1
10
-192.38856574253373
20
15.477648822785977
30
0
10
-192.58512214879985
20
15.569097040928654
30
0
10
-192.72545437109568
20
15.716680861983704
30
0
0
SPLINE
5
729
100
AcDbEntity
8
0
100
AcDbSpline
70
0
71
2
72
6
73
3
74
0
42
0.000000001
43
0.0000000001
44
0.0000000001
40
0
40
0
40
0
40
1
40
1
40
1
10
-192.72545437109568
20
15.716680861983704
30
0
10
-192.86578629536834
20
15.86426468280143
30
0
10
-192.93585998622774
20
16.053927687891381
30
0
0
SPLINE
5
730
100
AcDbEntity
8
0
100
AcDbSpline
70
0
71
2
72
6
73
3
74
0
42
0.000000001
43
0.0000000001
44
0.0000000001
40
0
40
0
40
0
40
1
40
1
40
1
10
-192.93585998622774
20
16.053927687891381
30
0
10
-193.01295010671168
20
16.250617709734243
30
0
10
-193.01278234105564
20
16.461292048034057
30
0
0
SPLINE
5
731
100
AcDbEntity
8
0
100
AcDbSpline
70
0
71
2
72
6
73
3
74
0
42
0.000000001
43
0.0000000001
44
0.0000000001
40
0
40
0
40
0
40
1
40
1
40
1
10
-193.01278234105564
20
16.461292048034057
30
0
10
-193.01261457587424
20
16.671965790287611
30
0
10
-192.93521688557462
20
16.861511359940444
30
0
0
SPLINE
5
732
100
AcDbEntity
8
0
100
AcDbSpline
70
0
71
2
72
6
73
3
74
0
42
0.000000001
43
0.0000000001
44
0.0000000001
40
0
40
0
40
0
40
1
40
1
40
1
10
-192.93521688557462
20
16.861511359940444
30
0
10
-192.86483562442493
20
17.058084542392443
30
0
10
-192.72426882832872
20
17.205444675985202
30
0
0
SPLINE
5
733
100
AcDbEntity
8
0
100
AcDbSpline
70
0
71
2
72
6
73
3
74
0
42
0.000000001
43
0.0000000001
44
0.0000000001
40
0
40
0
40
0
40
1
40
1
40
1
10
-192.72426882832872
20
17.205444675985202
30
0
10
-192.58370173468398
20
17.352804213294384
30
0
10
-192.38700552378361
20
17.436917844393843
30
0
0
SPLINE
5
734
100
AcDbEntity
8
0
100
AcDbSpline
70
0
71
2
72
6
73
3
74
0
42
0.000000001
43
0.0000000001
44
0.0000000001
40
0
40
0
40
0
40
1
40
1
40
1
10
-192.38700552378361
20
17.436917844393843
30
0
10
-192.19030372153327
20
17.528052900421571
30
0
10
-191.93749487320122
20
17.527851581919101
30
0
0
LINE
5
735
100
AcDbEntity
8
0
100
AcDbLine
10
-191.93749487320122
20
17.527851581919101
30
0
11
-189.00210264929981
21
17.52551404994357
31
0
0
SPLINE
5
736
100
AcDbEntity
8
0
100
AcDbSpline
70
0
71
2
72
6
73
3
74
0
42
0.000000001
43
0.0000000001
44
0.0000000001
40
0
40
0
40
0
40
1
40
1
40
1
10
-189.00210264929981
20
17.52551404994357
30
0
10
-188.74929350294468
20
17.52531273120378
30
0
10
-188.55273709667856
20
17.433864513061103
30
0
0
SPLINE
5
737
100
AcDbEntity
8
0
100
AcDbSpline
70
0
71
2
72
6
73
3
74
0
42
0.000000001
43
0.0000000001
44
0.0000000001
40
0
40
0
40
0
40
1
40
1
40
1
10
-188.55273709667856
20
17.433864513061103
30
0
10
-188.35617509906245
20
17.349437719846694
30
0
10
-188.21584317431513
20
17.201854495075224
30
0
0
SPLINE
5
738
100
AcDbEntity
8
0
100
AcDbSpline
70
0
71
2
72
6
73
3
74
0
42
0.000000001
43
0.0000000001
44
0.0000000001
40
0
40
0
40
0
40
1
40
1
40
1
10
-188.21584317431513
20
17.201854495075224
30
0
10
-188.07551125004244
20
17.054270674257502
30
0
10
-187.99842053398689
20
16.857580055893735
30
0
0
SPLINE
5
739
100
AcDbEntity
8
0
100
AcDbSpline
70
0
71
2
72
6
73
3
74
0
42
0.000000001
43
0.0000000001
44
0.0000000001
40
0
40
0
40
0
40
1
40
1
40
1
10
-187.99842053398689
20
16.857580055893735
30
0
10
-187.92834654510438
20
16.667917050566455
30
0
10
-187.92851431028578
20
16.457243308312901
30
0
0
SPLINE
5
740
100
AcDbEntity
8
0
100
AcDbSpline
70
0
71
2
72
6
73
3
74
0
42
0.000000001
43
0.0000000001
44
0.0000000001
40
0
40
0
40
0
40
1
40
1
40
1
10
-187.92851431028578
20
16.457243308312901
30
0
10
-187.92868207594182
20
16.246568970013087
30
0
10
-187.99906363464001
20
16.049996383844672
30
0
0
SPLINE
5
741
100
AcDbEntity
8
0
100
AcDbSpline
70
0
71
2
72
6
73
3
74
0
42
0.000000001
43
0.0000000001
44
0.0000000001
40
0
40
0
40
0
40
1
40
1
40
1
10
-187.99906363464001
20
16.049996383844672
30
0
10
-188.07646192098588
20
15.860450814666489
30
0
10
-188.21702871708209
20
15.713090681073725
30
0
0
SPLINE
5
742
100
AcDbEntity
8
0
100
AcDbSpline
70
0
71
2
72
6
73
3
74
0
42
0.000000001
43
0.0000000001
44
0.0000000001
40
0
40
0
40
0
40
1
40
1
40
1
10
-188.21702871708209
20
15.713090681073725
30
0
10
-188.35759551317832
20
15.565730547480964
30
0
10
-188.55429731542867
20
15.474595491453238
30
0
0
SPLINE
5
743
100
AcDbEntity
8
0
100
AcDbSpline
70
0
71
2
72
6
73
3
74
0
42
0.000000001
43
0.0000000001
44
0.0000000001
40
0
40
0
40
0
40
1
40
1
40
1
10
-188.55429731542867
20
15.474595491453238
30
0
10
-188.75099352632904
20
15.390481860353781
30
0
10
-189.0038026726842
20
15.390683179093571
30
0
0
LINE
5
744
100
AcDbEntity
8
0
100
AcDbLine
10
-189.0038026726842
20
15.390683179093571
30
0
11
-191.9391948965856
21
15.393020711069099
31
0
0
SPLINE
5
745
100
AcDbEntity
8
0
100
AcDbSpline
70
0
71
2
72
6
73
3
74
0
42
0.000000001
43
0.0000000001
44
0.0000000001
40
0
40
0
40
0
40
1
40
1
40
1
10
-189.00323226954856
20
16.106975810103688
30
0
10
-188.84873767532255
20
16.106852781892634
30
0
10
-188.74332251390433
20
16.205083153407926
30
0
0
SPLINE
5
746
100
AcDbEntity
8
0
100
AcDbSpline
70
0
71
2
72
6
73
3
74
0
42
0.000000001
43
0.0000000001
44
0.0000000001
40
0
40
0
40
0
40
1
40
1
40
1
10
-188.74332251390433
20
16.205083153407926
30
0
10
-188.64492967148382
20
16.303319116985179
30
0
10
-188.64480664327277
20
16.457813711211209
30
0
0
SPLINE
5
747
100
AcDbEntity
8
0
100
AcDbSpline
70
0
71
2
72
6
73
3
74
0
42
0.000000001
43
0.0000000001
44
0.0000000001
40
0
40
0
40
0
40
1
40
1
40
1
10
-188.64480664327277
20
16.457813711211209
30
0
10
-188.64468361553637
20
16.612307709390983
30
0
10
-188.74291987689941
20
16.710700850071969
30
0
0
SPLINE
5
748
100
AcDbEntity
8
0
100
AcDbSpline
70
0
71
2
72
6
73
3
74
0
42
0.000000001
43
0.0000000001
44
0.0000000001
40
0
40
0
40
0
40
1
40
1
40
1
10
-188.74291987689941
20
16.710700850071969
30
0
10
-188.84817845726013
20
16.809099582814916
30
0
10
-189.00267305148617
20
16.809222611025973
30
0
0
LINE
5
749
100
AcDbEntity
8
0
100
AcDbLine
10
-189.00267305148617
20
16.809222611025973
30
0
11
-191.93806527538757
21
16.8115601430015
31
0
0
SPLINE
5
750
100
AcDbEntity
8
0
100
AcDbSpline
70
0
71
2
72
6
73
3
74
0
42
0.000000001
43
0.0000000001
44
0.0000000001
40
0
40
0
40
0
40
1
40
1
40
1
10
-191.93806527538757
20
16.8115601430015
30
0
10
-192.09255957159047
20
16.811683170975233
30
0
10
-192.19095241448565
20
16.713446611351721
30
0
0
SPLINE
5
751
100
AcDbEntity
8
0
100
AcDbSpline
70
0
71
2
72
6
73
3
74
0
42
0.000000001
43
0.0000000001
44
0.0000000001
40
0
40
0
40
0
40
1
40
1
40
1
10
-192.19095241448565
20
16.713446611351721
30
0
10
-192.2963678744016
20
16.615215644027494
30
0
10
-192.296490902138
20
16.460721645847723
30
0
0
SPLINE
5
752
100
AcDbEntity
8
0
100
AcDbSpline
70
0
71
2
72
6
73
3
74
0
42
0.000000001
43
0.0000000001
44
0.0000000001
40
0
40
0
40
0
40
1
40
1
40
1
10
-192.296490902138
20
16.460721645847723
30
0
10
-192.29661393034911
20
16.30622705162169
30
0
10
-192.19135505149058
20
16.207828914687678
30
0
0
SPLINE
5
753
100
AcDbEntity
8
0
100
AcDbSpline
70
0
71
2
72
6
73
3
74
0
42
0.000000001
43
0.0000000001
44
0.0000000001
40
0
40
0
40
0
40
1
40
1
40
1
10
-192.19135505149058
20
16.207828914687678
30
0
10
-192.09311878965286
20
16.109436370052947
30
0
10
-191.93862449344999
20
16.109313342079219
30
0
0
LINE
5
754
100
AcDbEntity
8
0
100
AcDbLine
10
-191.93862449344999
20
16.109313342079219
30
0
11
-189.00323226954856
21
16.106975810103688
31
0
0
LINE
5
755
100
AcDbEntity
8
0
100
AcDbLine
10
-211.78393676427876
20
11.731154848346053
30
0
11
-213.88300675090449
21
12.547433498038952
31
0
0
LINE
5
756
100
AcDbEntity
8
0
100
AcDbLine
10
-213.88300675090449
20
12.547433498038952
30
0
11
-213.89706287152151
21
12.533399448358624
31
0
0
SPLINE
5
757
100
AcDbEntity
8
0
100
AcDbSpline
70
0
71
2
72
6
73
3
74
0
42
0.000000001
43
0.0000000001
44
0.0000000001
40
0
40
0
40
0
40
1
40
1
40
1
10
-213.89706287152151
20
12.533399448358624
30
0
10
-213.86900096026909
20
12.498264888601579
30
0
10
-213.84799521935849
20
12.421000815065351
30
0
0
SPLINE
5
758
100
AcDbEntity
8
0
100
AcDbSpline
70
0
71
2
72
6
73
3
74
0
42
0.000000001
43
0.0000000001
44
0.0000000001
40
0
40
0
40
0
40
1
40
1
40
1
10
-213.84799521935849
20
12.421000815065351
30
0
10
-213.83400590712316
20
12.35076495037455
30
0
10
-213.83410097407511
20
12.231383143229326
30
0
0
SPLINE
5
759
100
AcDbEntity
8
0
100
AcDbSpline
70
0
71
2
72
6
73
3
74
0
42
0.000000001
43
0.0000000001
44
0.0000000001
40
0
40
0
40
0
40
1
40
1
40
1
10
-213.83410097407511
20
12.231383143229326
30
0
10
-213.83425196307064
20
12.041776357968747
30
0
10
-213.92567281647513
20
11.880332143211831
30
0
0
SPLINE
5
760
100
AcDbEntity
8
0
100
AcDbSpline
70
0
71
2
72
6
73
3
74
0
42
0.000000001
43
0.0000000001
44
0.0000000001
40
0
40
0
40
0
40
1
40
1
40
1
10
-213.92567281647513
20
11.880332143211831
30
0
10
-214.01709366964226
20
11.718888226478047
30
0
10
-214.15761572817485
20
11.627707985970632
30
0
0
SPLINE
5
761
100
AcDbEntity
8
0
100
AcDbSpline
70
0
71
2
72
6
73
3
74
0
42
0.000000001
43
0.0000000001
44
0.0000000001
40
0
40
0
40
0
40
1
40
1
40
1
10
-214.15761572817485
20
11.627707985970632
30
0
10
-214.22787925550833
20
11.57860663147499
30
0
10
-214.30514892134383
20
11.550578273543625
30
0
0
SPLINE
5
762
100
AcDbEntity
8
0
100
AcDbSpline
70
0
71
2
72
6
73
3
74
0
42
0.000000001
43
0.0000000001
44
0.0000000001
40
0
40
0
40
0
40
1
40
1
40
1
10
-214.30514892134383
20
11.550578273543625
30
0
10
-214.38944090617699
20
11.522555507674223
30
0
10
-214.51585681272741
20
11.508611231144336
30
0
0
SPLINE
5
763
100
AcDbEntity
8
0
100
AcDbSpline
70
0
71
2
72
6
73
3
74
0
42
0.000000001
43
0.0000000001
44
0.0000000001
40
0
40
0
40
0
40
1
40
1
40
1
10
-214.51585681272741
20
11.508611231144336
30
0
10
-214.64227801355392
20
11.487644337356338
30
0
10
-214.831890092972
20
11.480772858105304
30
0
0
SPLINE
5
764
100
AcDbEntity
8
0
100
AcDbSpline
70
0
71
2
72
6
73
3
74
0
42
0.000000001
43
0.0000000001
44
0.0000000001
40
0
40
0
40
0
40
1
40
1
40
1
10
-214.831890092972
20
11.480772858105304
30
0
10
-215.02852508743399
20
11.473906971390878
30
0
10
-215.32346874382137
20
11.474141842977092
30
0
0
SPLINE
5
765
100
AcDbEntity
8
0
100
AcDbSpline
70
0
71
2
72
6
73
3
74
0
42
0.000000001
43
0.0000000001
44
0.0000000001
40
0
40
0
40
0
40
1
40
1
40
1
10
-215.32346874382137
20
11.474141842977092
30
0
10
-215.5692552731557
20
11.4743375694176
30
0
10
-215.72374397717797
20
11.48148306540055
30
0
0
SPLINE
5
766
100
AcDbEntity
8
0
100
AcDbSpline
70
0
71
2
72
6
73
3
74
0
42
0.000000001
43
0.0000000001
44
0.0000000001
40
0
40
0
40
0
40
1
40
1
40
1
10
-215.72374397717797
20
11.48148306540055
30
0
10
-215.88525529822107
20
11.48863415368279
30
0
10
-215.9975980097081
20
11.509791181612011
30
0
0
SPLINE
5
767
100
AcDbEntity
8
0
100
AcDbSpline
70
0
71
2
72
6
73
3
74
0
42
0.000000001
43
0.0000000001
44
0.0000000001
40
0
40
0
40
0
40
1
40
1
40
1
10
-215.9975980097081
20
11.509791181612011
30
0
10
-216.10292369647362
20
11.523920000221155
30
0
10
-216.18014862486416
20
11.552071386363574
30
0
0
SPLINE
5
768
100
AcDbEntity
8
0
100
AcDbSpline
70
0
71
2
72
6
73
3
74
0
42
0.000000001
43
0.0000000001
44
0.0000000001
40
0
40
0
40
0
40
1
40
1
40
1
10
-216.18014862486416
20
11.552071386363574
30
0
10
-216.25736766316959
20
11.587245091266327
30
0
10
-216.34159843192035
20
11.636469622747265
30
0
0
SPLINE
5
769
100
AcDbEntity
8
0
100
AcDbSpline
70
0
71
2
72
6
73
3
74
0
42
0.000000001
43
0.0000000001
44
0.0000000001
40
0
40
0
40
0
40
1
40
1
40
1
10
-216.34159843192035
20
11.636469622747265
30
0
10
-216.57322788360065
20
11.777103524773656
30
0
10
-216.69944776568741
20
12.008945777340807
30
0
0
SPLINE
5
770
100
AcDbEntity
8
0
100
AcDbSpline
70
0
71
2
72
6
73
3
74
0
42
0.000000001
43
0.0000000001
44
0.0000000001
40
0
40
0
40
0
40
1
40
1
40
1
10
-216.69944776568741
20
12.008945777340807
30
0
10
-216.8256620557122
20
12.247810348905618
30
0
10
-216.825427184126
20
12.542754005292977
30
0
0
SPLINE
5
771
100
AcDbEntity
8
0
100
AcDbSpline
70
0
71
2
72
6
73
3
74
0
42
0.000000001
43
0.0000000001
44
0.0000000001
40
0
40
0
40
0
40
1
40
1
40
1
10
-216.825427184126
20
12.542754005292977
30
0
10
-216.82519231253977
20
12.837697661680336
30
0
10
-216.69158102729685
20
13.069333003683056
30
0
0
SPLINE
5
772
100
AcDbEntity
8
0
100
AcDbSpline
70
0
71
2
72
6
73
3
74
0
42
0.000000001
43
0.0000000001
44
0.0000000001
40
0
40
0
40
0
40
1
40
1
40
1
10
-216.69158102729685
20
13.069333003683056
30
0
10
-216.56499206128888
20
13.300973639724612
30
0
10
-216.34016124138128
20
13.441244050129097
30
0
0
SPLINE
5
773
100
AcDbEntity
8
0
100
AcDbSpline
70
0
71
2
72
6
73
3
74
0
42
0.000000001
43
0.0000000001
44
0.0000000001
40
0
40
0
40
0
40
1
40
1
40
1
10
-216.34016124138128
20
13.441244050129097
30
0
10
-216.25585218162712
20
13.490334666823538
30
0
10
-216.17857722175276
20
13.525385343989884
30
0
0
SPLINE
5
774
100
AcDbEntity
8
0
100
AcDbSpline
70
0
71
2
72
6
73
3
74
0
42
0.000000001
43
0.0000000001
44
0.0000000001
40
0
40
0
40
0
40
1
40
1
40
1
10
-216.17857722175276
20
13.525385343989884
30
0
10
-216.10130196385529
20
13.560436020918907
30
0
10
-215.99594831606797
20
13.58141969136744
30
0
0
SPLINE
5
775
100
AcDbEntity
8
0
100
AcDbSpline
70
0
71
2
72
6
73
3
74
0
42
0.000000001
43
0.0000000001
44
0.0000000001
40
0
40
0
40
0
40
1
40
1
40
1
10
-215.99594831606797
20
13.58141969136744
30
0
10
-215.88357764355919
20
13.595375152495899
30
0
10
-215.72205513803621
20
13.602269149243671
30
0
0
SPLINE
5
776
100
AcDbEntity
8
0
100
AcDbSpline
70
0
71
2
72
6
73
3
74
0
42
0.000000001
43
0.0000000001
44
0.0000000001
40
0
40
0
40
0
40
1
40
1
40
1
10
-215.72205513803621
20
13.602269149243671
30
0
10
-215.56755524977135
20
13.609168440267599
30
0
10
-215.32176872043695
20
13.608972713827093
30
0
0
SPLINE
5
777
100
AcDbEntity
8
0
100
AcDbSpline
70
0
71
2
72
6
73
3
74
0
42
0.000000001
43
0.0000000001
44
0.0000000001
40
0
40
0
40
0
40
1
40
1
40
1
10
-215.32176872043695
20
13.608972713827093
30
0
10
-215.09002712712106
20
13.608788171747834
30
0
10
-214.93553842298013
20
13.601642824776444
30
0
0
SPLINE
5
778
100
AcDbEntity
8
0
100
AcDbSpline
70
0
71
2
72
6
73
3
74
0
42
0.000000001
43
0.0000000001
44
0.0000000001
40
0
40
0
40
0
40
1
40
1
40
1
10
-214.93553842298013
20
13.601642824776444
30
0
10
-214.78807203807418
20
13.59450277184389
30
0
10
-214.68274635130865
20
13.580373953234744
30
0
0
SPLINE
5
779
100
AcDbEntity
8
0
100
AcDbSpline
70
0
71
2
72
6
73
3
74
0
42
0.000000001
43
0.0000000001
44
0.0000000001
40
0
40
0
40
0
40
1
40
1
40
1
10
-214.68274635130865
20
13.580373953234744
30
0
10
-214.57040363982159
20
13.559216925305524
30
0
10
-214.47913377541261
20
13.53105435480186
30
0
0
SPLINE
5
780
100
AcDbEntity
8
0
100
AcDbSpline
70
0
71
2
72
6
73
3
74
0
42
0.000000001
43
0.0000000001
44
0.0000000001
40
0
40
0
40
0
40
1
40
1
40
1
10
-214.47913377541261
20
13.53105435480186
30
0
10
-214.39488093572518
20
13.509919993618265
30
0
10
-214.29659434461783
20
13.474729214031848
30
0
0
LINE
5
781
100
AcDbEntity
8
0
100
AcDbLine
10
-214.29659434461783
20
13.47472921403185
30
0
11
-211.78329925568761
21
12.531716201397455
31
0
0
LINE
5
782
100
AcDbEntity
8
0
100
AcDbLine
10
-211.78329925568761
20
12.531716201397455
30
0
11
-211.78393676427876
21
11.731154848346053
31
0
0
SPLINE
5
783
100
AcDbEntity
8
0
100
AcDbSpline
70
0
71
2
72
6
73
3
74
0
42
0.000000001
43
0.0000000001
44
0.0000000001
40
0
40
0
40
0
40
1
40
1
40
1
10
-214.82430296349401
20
12.190036832997977
30
0
10
-214.66278605027028
20
12.18990821272496
30
0
10
-214.56438761555049
20
12.295166793323
30
0
0
SPLINE
5
784
100
AcDbEntity
8
0
100
AcDbSpline
70
0
71
2
72
6
73
3
74
0
42
0.000000001
43
0.0000000001
44
0.0000000001
40
0
40
0
40
0
40
1
40
1
40
1
10
-214.56438761555049
20
12.295166793323
30
0
10
-214.46598918059334
20
12.40042567194417
30
0
10
-214.46587733698084
20
12.540875032128627
30
0
0
SPLINE
5
785
100
AcDbEntity
8
0
100
AcDbSpline
70
0
71
2
72
6
73
3
74
0
42
0.000000001
43
0.0000000001
44
0.0000000001
40
0
40
0
40
0
40
1
40
1
40
1
10
-214.46587733698084
20
12.540875032128627
30
0
10
-214.46576549336837
20
12.681324392313083
30
0
10
-214.56399616290679
20
12.786739553968598
30
0
0
SPLINE
5
786
100
AcDbEntity
8
0
100
AcDbSpline
70
0
71
2
72
6
73
3
74
0
42
0.000000001
43
0.0000000001
44
0.0000000001
40
0
40
0
40
0
40
1
40
1
40
1
10
-214.56399616290679
20
12.786739553968598
30
0
10
-214.66222683197057
20
12.892155311670372
30
0
10
-214.82374374519424
20
12.892283931943389
30
0
0
LINE
5
787
100
AcDbEntity
8
0
100
AcDbLine
10
-214.82374374519426
20
12.892283931943391
30
0
11
-215.75070982043479
21
12.893022100023098
31
0
0
SPLINE
5
788
100
AcDbEntity
8
0
100
AcDbSpline
70
0
71
2
72
6
73
3
74
0
42
0.000000001
43
0.0000000001
44
0.0000000001
40
0
40
0
40
0
40
1
40
1
40
1
10
-215.75070982043479
20
12.893022100023096
30
0
10
-215.91222673365849
20
12.893150720296113
30
0
10
-216.01062516885295
20
12.787891543651813
30
0
0
SPLINE
5
789
100
AcDbEntity
8
0
100
AcDbSpline
70
0
71
2
72
6
73
3
74
0
42
0.000000001
43
0.0000000001
44
0.0000000001
40
0
40
0
40
0
40
1
40
1
40
1
10
-216.01062516885295
20
12.787891543651813
30
0
10
-216.10902360357275
20
12.682632963053774
30
0
10
-216.10913544718525
20
12.542183602869317
30
0
0
SPLINE
5
790
100
AcDbEntity
8
0
100
AcDbSpline
70
0
71
2
72
6
73
3
74
0
42
0.000000001
43
0.0000000001
44
0.0000000001
40
0
40
0
40
0
40
1
40
1
40
1
10
-216.10913544718525
20
12.542183602869317
30
0
10
-216.10924729079773
20
12.40173424268486
30
0
10
-216.01101662149662
20
12.296318783006214
30
0
0
SPLINE
5
791
100
AcDbEntity
8
0
100
AcDbSpline
70
0
71
2
72
6
73
3
74
0
42
0.000000001
43
0.0000000001
44
0.0000000001
40
0
40
0
40
0
40
1
40
1
40
1
10
-216.01101662149662
20
12.296318783006214
30
0
10
-215.9127859519582
20
12.190903621350699
30
0
10
-215.75126903873453
20
12.190775001077686
30
0
0
LINE
5
792
100
AcDbEntity
8
0
100
AcDbLine
10
-215.75126903873451
20
12.190775001077686
30
0
11
-214.82430296349401
21
12.190036832997977
31
0
0
LWPOLYLINE
5
793
100
AcDbEntity
8
0
100
AcDbPolyline
90
4
70
1
43
0.0
10
-212.49831068069525
20
14.14043252322829
10
-211.7820186457314
20
14.139862120567306
10
-211.7814482430704
20
14.856154155531165
10
-212.49774027803426
20
14.856724558192148
0
SPLINE
5
794
100
AcDbEntity
8
0
100
AcDbSpline
70
0
71
2
72
6
73
3
74
0
42
0.000000001
43
0.0000000001
44
0.0000000001
40
0
40
0
40
0
40
1
40
1
40
1
10
-215.74871870610949
20
15.393020711069099
30
0
10
-216.00152755444151
20
15.393222029571568
30
0
10
-216.19808955205758
20
15.477648822785977
30
0
0
SPLINE
5
795
100
AcDbEntity
8
0
100
AcDbSpline
70
0
71
2
72
6
73
3
74
0
42
0.000000001
43
0.0000000001
44
0.0000000001
40
0
40
0
40
0
40
1
40
1
40
1
10
-216.19808955205758
20
15.477648822785977
30
0
10
-216.39464595832374
20
15.569097040928654
30
0
10
-216.53497818061953
20
15.716680861983704
30
0
0
SPLINE
5
796
100
AcDbEntity
8
0
100
AcDbSpline
70
0
71
2
72
6
73
3
74
0
42
0.000000001
43
0.0000000001
44
0.0000000001
40
0
40
0
40
0
40
1
40
1
40
1
10
-216.53497818061953
20
15.716680861983704
30
0
10
-216.67531010489222
20
15.86426468280143
30
0
10
-216.74538379575159
20
16.053927687891381
30
0
0
SPLINE
5
797
100
AcDbEntity
8
0
100
AcDbSpline
70
0
71
2
72
6
73
3
74
0
42
0.000000001
43
0.0000000001
44
0.0000000001
40
0
40
0
40
0
40
1
40
1
40
1
10
-216.74538379575159
20
16.053927687891381
30
0
10
-216.82247391623554
20
16.250617709734243
30
0
10
-216.82230615057949
20
16.461292048034057
30
0
0
SPLINE
5
798
100
AcDbEntity
8
0
100
AcDbSpline
70
0
71
2
72
6
73
3
74
0
42
0.000000001
43
0.0000000001
44
0.0000000001
40
0
40
0
40
0
40
1
40
1
40
1
10
-216.82230615057949
20
16.461292048034057
30
0
10
-216.82213838539809
20
16.671965790287611
30
0
10
-216.74474069509847
20
16.861511359940444
30
0
0
SPLINE
5
799
100
AcDbEntity
8
0
100
AcDbSpline
70
0
71
2
72
6
73
3
74
0
42
0.000000001
43
0.0000000001
44
0.0000000001
40
0
40
0
40
0
40
1
40
1
40
1
10
-216.74474069509847
20
16.861511359940444
30
0
10
-216.67435943394878
20
17.058084542392443
30
0
10
-216.53379263785257
20
17.205444675985202
30
0
0
SPLINE
5
800
100
AcDbEntity
8
0
100
AcDbSpline
70
0
71
2
72
6
73
3
74
0
42
0.000000001
43
0.0000000001
44
0.0000000001
40
0
40
0
40
0
40
1
40
1
40
1
10
-216.53379263785257
20
17.205444675985202
30
0
10
-216.39322554420787
20
17.352804213294384
30
0
10
-216.19652933330747
20
17.436917844393843
30
0
0
SPLINE
5
801
100
AcDbEntity
8
0
100
AcDbSpline
70
0
71
2
72
6
73
3
74
0
42
0.000000001
43
0.0000000001
44
0.0000000001
40
0
40
0
40
0
40
1
40
1
40
1
10
-216.19652933330747
20
17.436917844393843
30
0
10
-215.99982753105712
20
17.528052900421571
30
0
10
-215.7470186827251
20
17.527851581919101
30
0
0
LINE
5
802
100
AcDbEntity
8
0
100
AcDbLine
10
-215.7470186827251
20
17.527851581919101
30
0
11
-212.8116264588237
21
17.52551404994357
31
0
0
SPLINE
5
803
100
AcDbEntity
8
0
100
AcDbSpline
70
0
71
2
72
6
73
3
74
0
42
0.000000001
43
0.0000000001
44
0.0000000001
40
0
40
0
40
0
40
1
40
1
40
1
10
-212.8116264588237
20
17.52551404994357
30
0
10
-212.55881731246856
20
17.52531273120378
30
0
10
-212.36226090620244
20
17.433864513061103
30
0
0
SPLINE
5
804
100
AcDbEntity
8
0
100
AcDbSpline
70
0
71
2
72
6
73
3
74
0
42
0.000000001
43
0.0000000001
44
0.0000000001
40
0
40
0
40
0
40
1
40
1
40
1
10
-212.36226090620244
20
17.433864513061103
30
0
10
-212.16569890858634
20
17.349437719846694
30
0
10
-212.02536698383898
20
17.201854495075224
30
0
0
SPLINE
5
805
100
AcDbEntity
8
0
100
AcDbSpline
70
0
71
2
72
6
73
3
74
0
42
0.000000001
43
0.0000000001
44
0.0000000001
40
0
40
0
40
0
40
1
40
1
40
1
10
-212.02536698383898
20
17.201854495075224
30
0
10
-211.88503505956632
20
17.054270674257502
30
0
10
-211.80794434351074
20
16.857580055893735
30
0
0
SPLINE
5
806
100
AcDbEntity
8
0
100
AcDbSpline
70
0
71
2
72
6
73
3
74
0
42
0.000000001
43
0.0000000001
44
0.0000000001
40
0
40
0
40
0
40
1
40
1
40
1
10
-211.80794434351074
20
16.857580055893735
30
0
10
-211.73787035462823
20
16.667917050566455
30
0
10
-211.73803811980963
20
16.457243308312901
30
0
0
SPLINE
5
807
100
AcDbEntity
8
0
100
AcDbSpline
70
0
71
2
72
6
73
3
74
0
42
0.000000001
43
0.0000000001
44
0.0000000001
40
0
40
0
40
0
40
1
40
1
40
1
10
-211.73803811980963
20
16.457243308312901
30
0
10
-211.73820588546567
20
16.246568970013087
30
0
10
-211.80858744416386
20
16.049996383844672
30
0
0
SPLINE
5
808
100
AcDbEntity
8
0
100
AcDbSpline
70
0
71
2
72
6
73
3
74
0
42
0.000000001
43
0.0000000001
44
0.0000000001
40
0
40
0
40
0
40
1
40
1
40
1
10
-211.80858744416386
20
16.049996383844672
30
0
10
-211.88598573050973
20
15.860450814666489
30
0
10
-212.02655252660594
20
15.713090681073725
30
0
0
SPLINE
5
809
100
AcDbEntity
8
0
100
AcDbSpline
70
0
71
2
72
6
73
3
74
0
42
0.000000001
43
0.0000000001
44
0.0000000001
40
0
40
0
40
0
40
1
40
1
40
1
10
-212.02655252660594
20
15.713090681073725
30
0
10
-212.16711932270218
20
15.565730547480964
30
0
10
-212.36382112495252
20
15.474595491453238
30
0
0
SPLINE
5
810
100
AcDbEntity
8
0
100
AcDbSpline
70
0
71
2
72
6
73
3
74
0
42
0.000000001
43
0.0000000001
44
0.0000000001
40
0
40
0
40
0
40
1
40
1
40
1
10
-212.36382112495252
20
15.474595491453238
30
0
10
-212.56051733585292
20
15.390481860353781
30
0
10
-212.81332648220808
20
15.390683179093571
30
0
0
LINE
5
811
100
AcDbEntity
8
0
100
AcDbLine
10
-212.81332648220808
20
15.390683179093571
30
0
11
-215.74871870610949
21
15.393020711069099
31
0
0
SPLINE
5
812
100
AcDbEntity
8
0
100
AcDbSpline
70
0
71
2
72
6
73
3
74
0
42
0.000000001
43
0.0000000001
44
0.0000000001
40
0
40
0
40
0
40
1
40
1
40
1
10
-212.81275607907244
20
16.106975810103688
30
0
10
-212.65826148484643
20
16.106852781892634
30
0
10
-212.55284632342821
20
16.205083153407926
30
0
0
SPLINE
5
813
100
AcDbEntity
8
0
100
AcDbSpline
70
0
71
2
72
6
73
3
74
0
42
0.000000001
43
0.0000000001
44
0.0000000001
40
0
40
0
40
0
40
1
40
1
40
1
10
-212.55284632342821
20
16.205083153407926
30
0
10
-212.4544534810077
20
16.303319116985179
30
0
10
-212.45433045279665
20
16.457813711211209
30
0
0
SPLINE
5
814
100
AcDbEntity
8
0
100
AcDbSpline
70
0
71
2
72
6
73
3
74
0
42
0.000000001
43
0.0000000001
44
0.0000000001
40
0
40
0
40
0
40
1
40
1
40
1
10
-212.45433045279665
20
16.457813711211209
30
0
10
-212.45420742506025
20
16.612307709390983
30
0
10
-212.55244368642326
20
16.710700850071969
30
0
0
SPLINE
5
815
100
AcDbEntity
8
0
100
AcDbSpline
70
0
71
2
72
6
73
3
74
0
42
0.000000001
43
0.0000000001
44
0.0000000001
40
0
40
0
40
0
40
1
40
1
40
1
10
-212.55244368642326
20
16.710700850071969
30
0
10
-212.65770226678399
20
16.809099582814916
30
0
10
-212.81219686101002
20
16.809222611025973
30
0
0
LINE
5
816
100
AcDbEntity
8
0
100
AcDbLine
10
-212.81219686101002
20
16.809222611025973
30
0
11
-215.74758908491145
21
16.8115601430015
31
0
0
SPLINE
5
817
100
AcDbEntity
8
0
100
AcDbSpline
70
0
71
2
72
6
73
3
74
0
42
0.000000001
43
0.0000000001
44
0.0000000001
40
0
40
0
40
0
40
1
40
1
40
1
10
-215.74758908491145
20
16.8115601430015
30
0
10
-215.90208338111435
20
16.811683170975233
30
0
10
-216.0004762240095
20
16.713446611351721
30
0
0
SPLINE
5
818
100
AcDbEntity
8
0
100
AcDbSpline
70
0
71
2
72
6
73
3
74
0
42
0.000000001
43
0.0000000001
44
0.0000000001
40
0
40
0
40
0
40
1
40
1
40
1
10
-216.0004762240095
20
16.713446611351721
30
0
10
-216.10589168392548
20
16.615215644027494
30
0
10
-216.10601471166189
20
16.460721645847723
30
0
0
SPLINE
5
819
100
AcDbEntity
8
0
100
AcDbSpline
70
0
71
2
72
6
73
3
74
0
42
0.000000001
43
0.0000000001
44
0.0000000001
40
0
40
0
40
0
40
1
40
1
40
1
10
-216.10601471166189
20
16.460721645847723
30
0
10
-216.10613773987296
20
16.30622705162169
30
0
10
-216.00087886101446
20
16.207828914687678
30
0
0
SPLINE
5
820
100
AcDbEntity
8
0
100
AcDbSpline
70
0
71
2
72
6
73
3
74
0
42
0.000000001
43
0.0000000001
44
0.0000000001
40
0
40
0
40
0
40
1
40
1
40
1
10
-216.00087886101446
20
16.207828914687678
30
0
10
-215.90264259917674
20
16.109436370052947
30
0
10
-215.74814830297385
20
16.109313342079219
30
0
0
LINE
5
821
100
AcDbEntity
8
0
100
AcDbLine
10
-215.74814830297385
20
16.109313342079219
30
0
11
-212.81275607907244
21
16.106975810103688
31
0
0
LWPOLYLINE
5
822
100
AcDbEntity
8
0
100
AcDbPolyline
90
7
70
1
43
0.0
10
-230.81405158911389
20
19.198211011707684
10
-230.81405158911389
20
12.411693510830304
10
-229.66798391018551
20
12.411693510830304
10
-229.66798391018551
20
20.411694226086041
10
-230.81405158911389
20
20.411694226086041
10
-231.96011911903065
20
19.568997797787091
10
-231.96011911903065
20
18.355514583408734
0
LWPOLYLINE
5
823
100
AcDbEntity
8
0
100
AcDbPolyline
90
4
70
1
43
0.0
10
-227.90393885050457
20
13.557760891735455
10
-227.90393885050457
20
12.411693510830304
10
-226.75787146959942
20
12.411693510830304
10
-226.75787146959942
20
13.557760891735455
0
LWPOLYLINE
5
824
100
AcDbEntity
8
0
100
AcDbPolyline
90
4
70
1
43
0.0
10
-227.90393885050457
20
16.108323213875195
10
-227.90393885050457
20
14.96225553494682
10
-226.75787146959942
20
14.96225553494682
10
-226.75787146959942
20
16.108323213875195
0
LWPOLYLINE
5
825
100
AcDbEntity
8
0
100
AcDbPolyline
90
15
70
1
43
0.0
10
-223.9039384928767
20
13.602705178081891
10
-223.9039384928767
20
12.411693510830304
10
-222.75787051592511
20
12.411693510830304
10
-222.75787051592511
20
13.602705178081891
10
-222.2073095646922
20
13.602705178081891
10
-222.2073095646922
20
14.681356725513837
10
-222.75787051592511
20
14.681356725513837
10
-222.75787051592511
20
16.962255713760754
10
-223.9039384928767
20
16.962255713760754
10
-223.9039384928767
20
14.681356725513837
10
-225.03876980219525
20
14.681356725513837
10
-223.31966873083752
20
20.411694226086041
10
-224.53315194521588
20
20.411694226086041
10
-226.18483777914685
20
14.681356725513837
10
-226.18483777914685
20
13.602705178081891
0
LINE
5
826
100
AcDbEntity
8
0
100
AcDbLine
10
-221.72416385088604
20
12.411693510830304
30
0
11
-221.72416385088604
21
13.490345654308697
31
0
0
LINE
5
827
100
AcDbEntity
8
0
100
AcDbLine
10
-221.72416385088604
20
13.490345654308697
30
0
11
-219.65674694452923
21
17.389222261726758
31
0
0
SPLINE
5
828
100
AcDbEntity
8
0
100
AcDbSpline
70
0
71
2
72
6
73
3
74
0
42
0.000000001
43
0.0000000001
44
0.0000000001
40
0
40
0
40
0
40
1
40
1
40
1
10
-219.65674694452923
20
17.389222261726758
30
0
10
-219.4994443265025
20
17.681356844723126
30
0
10
-219.47697218332928
20
17.894840416729352
30
0
0
SPLINE
5
829
100
AcDbEntity
8
0
100
AcDbSpline
70
0
71
2
72
6
73
3
74
0
42
0.000000001
43
0.0000000001
44
0.0000000001
40
0
40
0
40
0
40
1
40
1
40
1
10
-219.47697218332928
20
17.894840416729352
30
0
10
-219.45450004015606
20
18.119559464275738
30
0
10
-219.45450004015606
20
18.44540196400871
30
0
0
SPLINE
5
830
100
AcDbEntity
8
0
100
AcDbSpline
70
0
71
2
72
6
73
3
74
0
42
0.000000001
43
0.0000000001
44
0.0000000001
40
0
40
0
40
0
40
1
40
1
40
1
10
-219.45450004015606
20
18.44540196400871
30
0
10
-219.45450004015606
20
18.59146970254173
30
0
10
-219.46573670778912
20
18.748772916614911
30
0
0
SPLINE
5
831
100
AcDbEntity
8
0
100
AcDbSpline
70
0
71
2
72
6
73
3
74
0
42
0.000000001
43
0.0000000001
44
0.0000000001
40
0
40
0
40
0
40
1
40
1
40
1
10
-219.46573670778912
20
18.748772916614911
30
0
10
-219.46573670778912
20
18.917312202274701
30
0
10
-219.52191527758282
20
19.040907797634503
30
0
0
SPLINE
5
832
100
AcDbEntity
8
0
100
AcDbSpline
70
0
71
2
72
6
73
3
74
0
42
0.000000001
43
0.0000000001
44
0.0000000001
40
0
40
0
40
0
40
1
40
1
40
1
10
-219.52191527758282
20
19.040907797634503
30
0
10
-219.57809623156231
20
19.164503392994305
30
0
10
-219.69045575533551
20
19.243154702007672
30
0
0
SPLINE
5
833
100
AcDbEntity
8
0
100
AcDbSpline
70
0
71
2
72
6
73
3
74
0
42
0.000000001
43
0.0000000001
44
0.0000000001
40
0
40
0
40
0
40
1
40
1
40
1
10
-219.69045575533551
20
19.243154702007672
30
0
10
-219.8028152791087
20
19.333042678654095
30
0
10
-220.01629765902203
20
19.333042678654095
30
0
0
SPLINE
5
834
100
AcDbEntity
8
0
100
AcDbSpline
70
0
71
2
72
6
73
3
74
0
42
0.000000001
43
0.0000000001
44
0.0000000001
40
0
40
0
40
0
40
1
40
1
40
1
10
-220.01629765902203
20
19.333042678654095
30
0
10
-220.2747243252818
20
19.333042678654095
30
0
10
-220.43202813540142
20
19.186974940121075
30
0
0
SPLINE
5
835
100
AcDbEntity
8
0
100
AcDbSpline
70
0
71
2
72
6
73
3
74
0
42
0.000000001
43
0.0000000001
44
0.0000000001
40
0
40
0
40
0
40
1
40
1
40
1
10
-220.43202813540142
20
19.186974940121075
30
0
10
-220.578095277888
20
19.040907797634503
30
0
10
-220.578095277888
20
18.76000898820152
30
0
0
LINE
5
836
100
AcDbEntity
8
0
100
AcDbLine
10
-220.578095277888
20
18.76000898820152
30
0
11
-220.578095277888
21
18.10832339268913
31
0
0
LINE
5
837
100
AcDbEntity
8
0
100
AcDbLine
10
-220.578095277888
20
18.10832339268913
30
0
11
-221.72416385088604
21
18.10832339268913
31
0
0
LINE
5
838
100
AcDbEntity
8
0
100
AcDbLine
10
-221.72416385088604
20
18.10832339268913
30
0
11
-221.72416385088604
21
18.737536845028302
31
0
0
SPLINE
5
839
100
AcDbEntity
8
0
100
AcDbSpline
70
0
71
2
72
6
73
3
74
0
42
0.000000001
43
0.0000000001
44
0.0000000001
40
0
40
0
40
0
40
1
40
1
40
1
10
-221.72416385088604
20
18.737536845028302
30
0
10
-221.72416385088604
20
19.0970875595211
30
0
10
-221.58933218393963
20
19.41169458371391
30
0
0
SPLINE
5
840
100
AcDbEntity
8
0
100
AcDbSpline
70
0
71
2
72
6
73
3
74
0
42
0.000000001
43
0.0000000001
44
0.0000000001
40
0
40
0
40
0
40
1
40
1
40
1
10
-221.58933218393963
20
19.41169458371391
30
0
10
-221.45450051699322
20
19.726301011860272
30
0
10
-221.21854480181378
20
19.962256130993268
30
0
0
SPLINE
5
841
100
AcDbEntity
8
0
100
AcDbSpline
70
0
71
2
72
6
73
3
74
0
42
0.000000001
43
0.0000000001
44
0.0000000001
40
0
40
0
40
0
40
1
40
1
40
1
10
-221.21854480181378
20
19.962256130993268
30
0
10
-220.99382575426739
20
20.198211250126263
30
0
10
-220.67921932612103
20
20.333042917072675
30
0
0
SPLINE
5
842
100
AcDbEntity
8
0
100
AcDbSpline
70
0
71
2
72
6
73
3
74
0
42
0.000000001
43
0.0000000001
44
0.0000000001
40
0
40
0
40
0
40
1
40
1
40
1
10
-220.67921932612103
20
20.333042917072675
30
0
10
-220.36461289797467
20
20.479110059559247
30
0
10
-220.00506218348187
20
20.479110059559247
30
0
0
SPLINE
5
843
100
AcDbEntity
8
0
100
AcDbSpline
70
0
71
2
72
6
73
3
74
0
42
0.000000001
43
0.0000000001
44
0.0000000001
40
0
40
0
40
0
40
1
40
1
40
1
10
-220.00506218348187
20
20.479110059559247
30
0
10
-219.5556240883891
20
20.479110059559247
30
0
10
-219.24101766024273
20
20.310570773899457
30
0
0
SPLINE
5
844
100
AcDbEntity
8
0
100
AcDbSpline
70
0
71
2
72
6
73
3
74
0
42
0.000000001
43
0.0000000001
44
0.0000000001
40
0
40
0
40
0
40
1
40
1
40
1
10
-219.24101766024273
20
20.310570773899457
30
0
10
-218.91517456446331
20
20.153267559826276
30
0
10
-218.70169099245709
20
19.872368750393292
30
0
0
SPLINE
5
845
100
AcDbEntity
8
0
100
AcDbSpline
70
0
71
2
72
6
73
3
74
0
42
0.000000001
43
0.0000000001
44
0.0000000001
40
0
40
0
40
0
40
1
40
1
40
1
10
-218.70169099245709
20
19.872368750393292
30
0
10
-218.49944408808392
20
19.591469344913861
30
0
10
-218.40955670748394
20
19.231919226467511
30
0
0
SPLINE
5
846
100
AcDbEntity
8
0
100
AcDbSpline
70
0
71
2
72
6
73
3
74
0
42
0.000000001
43
0.0000000001
44
0.0000000001
40
0
40
0
40
0
40
1
40
1
40
1
10
-218.40955670748394
20
19.231919226467511
30
0
10
-218.30843265925091
20
18.872368511974713
30
0
10
-218.30843265925091
20
18.467874107181927
30
0
0
SPLINE
5
847
100
AcDbEntity
8
0
100
AcDbSpline
70
0
71
2
72
6
73
3
74
0
42
0.000000001
43
0.0000000001
44
0.0000000001
40
0
40
0
40
0
40
1
40
1
40
1
10
-218.30843265925091
20
18.467874107181927
30
0
10
-218.30843265925091
20
18.175739226162335
30
0
10
-218.31966813479107
20
17.973491725742718
30
0
0
SPLINE
5
848
100
AcDbEntity
8
0
100
AcDbSpline
70
0
71
2
72
6
73
3
74
0
42
0.000000001
43
0.0000000001
44
0.0000000001
40
0
40
0
40
0
40
1
40
1
40
1
10
-218.31966813479107
20
17.973491725742718
30
0
10
-218.33090480242413
20
17.782480892956158
30
0
10
-218.36461242113751
20
17.602705535709759
30
0
0
SPLINE
5
849
100
AcDbEntity
8
0
100
AcDbSpline
70
0
71
2
72
6
73
3
74
0
42
0.000000001
43
0.0000000001
44
0.0000000001
40
0
40
0
40
0
40
1
40
1
40
1
10
-218.36461242113751
20
17.602705535709759
30
0
10
-218.39832003985089
20
17.422930178463361
30
0
10
-218.4769719449107
20
17.243154821216962
30
0
0
SPLINE
5
850
100
AcDbEntity
8
0
100
AcDbSpline
70
0
71
2
72
6
73
3
74
0
42
0.000000001
43
0.0000000001
44
0.0000000001
40
0
40
0
40
0
40
1
40
1
40
1
10
-218.4769719449107
20
17.243154821216962
30
0
10
-218.55562384997052
20
17.063379463970563
30
0
10
-218.69045551691693
20
16.804952499687573
30
0
0
LINE
5
851
100
AcDbEntity
8
0
100
AcDbLine
10
-218.69045551691687
20
16.804952499687573
30
0
11
-220.37584837351483
21
13.557760891735455
31
0
0
LINE
5
852
100
AcDbEntity
8
0
100
AcDbLine
10
-220.37584837351483
20
13.557760891735455
30
0
11
-218.30843265925091
21
13.557760891735455
31
0
0
LINE
5
853
100
AcDbEntity
8
0
100
AcDbLine
10
-218.30843265925091
20
13.557760891735455
30
0
11
-218.30843265925091
21
12.411693510830304
31
0
0
LINE
5
854
100
AcDbEntity
8
0
100
AcDbLine
10
-218.30843265925091
20
12.411693510830304
30
0
11
-221.72416385088604
21
12.411693510830304
31
0
0
LWPOLYLINE
5
855
100
AcDbEntity
8
0
100
AcDbPolyline
90
7
70
1
43
0.0
10
-240.88229591711539
20
10.322443270265742
10
-234.09578056802667
20
10.317038985106935
10
-234.09486792372164
20
11.463106300653731
10
-242.09486610243178
20
11.469476914909178
10
-242.09577874673684
20
10.323409599362378
10
-241.2539952298165
20
9.1766713711522492
10
-240.04051240019504
20
9.1757050420556148
0
SPLINE
5
856
100
AcDbEntity
8
0
100
AcDbSpline
70
0
71
2
72
6
73
3
74
0
42
0.000000001
43
0.0000000001
44
0.0000000001
40
0
40
0
40
0
40
1
40
1
40
1
10
-240.44184821200361
20
13.142318484072256
30
0
10
-240.84634248854405
20
13.142640593771134
30
0
10
-241.16084204316451
20
13.277722449920335
30
0
0
SPLINE
5
857
100
AcDbEntity
8
0
100
AcDbSpline
70
0
71
2
72
6
73
3
74
0
42
0.000000001
43
0.0000000001
44
0.0000000001
40
0
40
0
40
0
40
1
40
1
40
1
10
-241.16084204316451
20
13.277722449920335
30
0
10
-241.47533205415473
20
13.424040373618897
30
0
10
-241.69986313332328
20
13.660174069694879
30
0
0
SPLINE
5
858
100
AcDbEntity
8
0
100
AcDbSpline
70
0
71
2
72
6
73
3
74
0
42
0.000000001
43
0.0000000001
44
0.0000000001
40
0
40
0
40
0
40
1
40
1
40
1
10
-241.69986313332328
20
13.660174069694879
30
0
10
-241.92439421177988
20
13.896308659840248
30
0
10
-242.0365127140555
20
14.199768395575552
30
0
0
SPLINE
5
859
100
AcDbEntity
8
0
100
AcDbSpline
70
0
71
2
72
6
73
3
74
0
42
0.000000001
43
0.0000000001
44
0.0000000001
40
0
40
0
40
0
40
1
40
1
40
1
10
-242.0365127140555
20
14.199768395575552
30
0
10
-242.1598571442041
20
14.51447374201576
30
0
10
-242.1595887195341
20
14.851552206458454
30
0
0
SPLINE
5
860
100
AcDbEntity
8
0
100
AcDbSpline
70
0
71
2
72
6
73
3
74
0
42
0.000000001
43
0.0000000001
44
0.0000000001
40
0
40
0
40
0
40
1
40
1
40
1
10
-242.1595887195341
20
14.851552206458454
30
0
10
-242.15932029486419
20
15.188630670901148
30
0
10
-242.03548375234604
20
15.491903105318814
30
0
0
SPLINE
5
861
100
AcDbEntity
8
0
100
AcDbSpline
70
0
71
2
72
6
73
3
74
0
42
0.000000001
43
0.0000000001
44
0.0000000001
40
0
40
0
40
0
40
1
40
1
40
1
10
-242.03548375234604
20
15.491903105318814
30
0
10
-241.92287313865012
20
15.806419958348858
30
0
10
-241.69796626451642
20
16.042196648934283
30
0
0
SPLINE
5
862
100
AcDbEntity
8
0
100
AcDbSpline
70
0
71
2
72
6
73
3
74
0
42
0.000000001
43
0.0000000001
44
0.0000000001
40
0
40
0
40
0
40
1
40
1
40
1
10
-241.69796626451642
20
16.042196648934283
30
0
10
-241.47305939133204
20
16.277972147427192
30
0
10
-241.15834569287952
20
16.412553242120673
30
0
0
SPLINE
5
863
100
AcDbEntity
8
0
100
AcDbSpline
70
0
71
2
72
6
73
3
74
0
42
0.000000001
43
0.0000000001
44
0.0000000001
40
0
40
0
40
0
40
1
40
1
40
1
10
-241.15834569287952
20
16.412553242120673
30
0
10
-240.84362245127147
20
16.558369808317256
30
0
10
-240.43912817473097
20
16.558047698618378
30
0
0
LINE
5
864
100
AcDbEntity
8
0
100
AcDbLine
10
-240.43912817473097
20
16.558047698618378
30
0
11
-235.74249942439621
21
16.554307646508235
31
0
0
SPLINE
5
865
100
AcDbEntity
8
0
100
AcDbSpline
70
0
71
2
72
6
73
3
74
0
42
0.000000001
43
0.0000000001
44
0.0000000001
40
0
40
0
40
0
40
1
40
1
40
1
10
-235.74249942439621
20
16.554307646508235
30
0
10
-235.33800574390199
20
16.553985537284003
30
0
10
-235.02351513662816
20
16.407667911133924
30
0
0
SPLINE
5
866
100
AcDbEntity
8
0
100
AcDbSpline
70
0
71
2
72
6
73
3
74
0
42
0.000000001
43
0.0000000001
44
0.0000000001
40
0
40
0
40
0
40
1
40
1
40
1
10
-235.02351513662816
20
16.407667911133924
30
0
10
-234.70901558224509
20
16.272585756961597
30
0
10
-234.48448450283919
20
16.03645235890874
30
0
0
SPLINE
5
867
100
AcDbEntity
8
0
100
AcDbSpline
70
0
71
2
72
6
73
3
74
0
42
0.000000001
43
0.0000000001
44
0.0000000001
40
0
40
0
40
0
40
1
40
1
40
1
10
-234.48448450283919
20
16.03645235890874
30
0
10
-234.25995342438262
20
15.800317768763374
30
0
10
-234.13660839771313
20
15.48561301789478
30
0
0
SPLINE
5
868
100
AcDbEntity
8
0
100
AcDbSpline
70
0
71
2
72
6
73
3
74
0
42
0.000000001
43
0.0000000001
44
0.0000000001
40
0
40
0
40
0
40
1
40
1
40
1
10
-234.13660839771313
20
15.48561301789478
30
0
10
-234.0244904919584
20
15.182152686587864
30
0
10
-234.02475891662834
20
14.845074222145167
30
0
0
SPLINE
5
869
100
AcDbEntity
8
0
100
AcDbSpline
70
0
71
2
72
6
73
3
74
0
42
0.000000001
43
0.0000000001
44
0.0000000001
40
0
40
0
40
0
40
1
40
1
40
1
10
-234.02475891662834
20
14.845074222145167
30
0
10
-234.02502734129831
20
14.507995757702473
30
0
10
-234.13763735942263
20
14.193478308151519
30
0
0
SPLINE
5
870
100
AcDbEntity
8
0
100
AcDbSpline
70
0
71
2
72
6
73
3
74
0
42
0.000000001
43
0.0000000001
44
0.0000000001
40
0
40
0
40
0
40
1
40
1
40
1
10
-234.13763735942263
20
14.193478308151519
30
0
10
-234.26147449751238
20
13.890206470254762
30
0
10
-234.48638137164605
20
13.654429779669337
30
0
0
SPLINE
5
871
100
AcDbEntity
8
0
100
AcDbSpline
70
0
71
2
72
6
73
3
74
0
42
0.000000001
43
0.0000000001
44
0.0000000001
40
0
40
0
40
0
40
1
40
1
40
1
10
-234.48638137164605
20
13.654429779669337
30
0
10
-234.71128824506778
20
13.418653983153298
30
0
10
-235.02601148691315
20
13.272837118933587
30
0
0
SPLINE
5
872
100
AcDbEntity
8
0
100
AcDbSpline
70
0
71
2
72
6
73
3
74
0
42
0.000000001
43
0.0000000001
44
0.0000000001
40
0
40
0
40
0
40
1
40
1
40
1
10
-235.02601148691315
20
13.272837118933587
30
0
10
-235.3407257811746
20
13.138256322737885
30
0
10
-235.74521946166882
20
13.138578431962117
30
0
0
LINE
5
873
100
AcDbEntity
8
0
100
AcDbLine
10
-235.74521946166882
20
13.138578431962117
30
0
11
-240.44184821200361
21
13.142318484072256
31
0
0
SPLINE
5
874
100
AcDbEntity
8
0
100
AcDbSpline
70
0
71
2
72
6
73
3
74
0
42
0.000000001
43
0.0000000001
44
0.0000000001
40
0
40
0
40
0
40
1
40
1
40
1
10
-235.74430681736379
20
14.284645747508913
30
0
10
-235.49711630106688
20
14.284448903035734
30
0
10
-235.3284518040945
20
14.441617854898094
30
0
0
SPLINE
5
875
100
AcDbEntity
8
0
100
AcDbSpline
70
0
71
2
72
6
73
3
74
0
42
0.000000001
43
0.0000000001
44
0.0000000001
40
0
40
0
40
0
40
1
40
1
40
1
10
-235.3284518040945
20
14.441617854898094
30
0
10
-235.17102337514612
20
14.598795754344383
30
0
10
-235.17082653019827
20
14.845986866687531
30
0
0
SPLINE
5
876
100
AcDbEntity
8
0
100
AcDbSpline
70
0
71
2
72
6
73
3
74
0
42
0.000000001
43
0.0000000001
44
0.0000000001
40
0
40
0
40
0
40
1
40
1
40
1
10
-235.17082653019827
20
14.845986866687531
30
0
10
-235.17062968525045
20
15.093177979030678
30
0
10
-235.32780758469673
20
15.250606407979069
30
0
0
SPLINE
5
877
100
AcDbEntity
8
0
100
AcDbSpline
70
0
71
2
72
6
73
3
74
0
42
0.000000001
43
0.0000000001
44
0.0000000001
40
0
40
0
40
0
40
1
40
1
40
1
10
-235.32780758469673
20
15.250606407979069
30
0
10
-235.49622155216701
20
15.408043784511385
30
0
10
-235.74341206846395
20
15.408240628984567
30
0
0
LINE
5
878
100
AcDbEntity
8
0
100
AcDbLine
10
-235.74341206846395
20
15.408240628984567
30
0
11
-240.44004081879871
21
15.411980681094708
31
0
0
SPLINE
5
879
100
AcDbEntity
8
0
100
AcDbSpline
70
0
71
2
72
6
73
3
74
0
42
0.000000001
43
0.0000000001
44
0.0000000001
40
0
40
0
40
0
40
1
40
1
40
1
10
-240.44004081879871
20
15.411980681094706
30
0
10
-240.68723193114184
20
15.412177526042537
30
0
10
-240.84466036009022
20
15.254999626596247
30
0
0
SPLINE
5
880
100
AcDbEntity
8
0
100
AcDbSpline
70
0
71
2
72
6
73
3
74
0
42
0.000000001
43
0.0000000001
44
0.0000000001
40
0
40
0
40
0
40
1
40
1
40
1
10
-240.84466036009022
20
15.254999626596247
30
0
10
-241.01332485706263
20
15.097830674733885
30
0
10
-241.01352170201045
20
14.850639562390739
30
0
0
SPLINE
5
881
100
AcDbEntity
8
0
100
AcDbSpline
70
0
71
2
72
6
73
3
74
0
42
0.000000001
43
0.0000000001
44
0.0000000001
40
0
40
0
40
0
40
1
40
1
40
1
10
-241.01352170201045
20
14.850639562390739
30
0
10
-241.01371854695827
20
14.603448450047591
30
0
10
-240.84530457948799
20
14.446011073515272
30
0
0
SPLINE
5
882
100
AcDbEntity
8
0
100
AcDbSpline
70
0
71
2
72
6
73
3
74
0
42
0.000000001
43
0.0000000001
44
0.0000000001
40
0
40
0
40
0
40
1
40
1
40
1
10
-240.84530457948799
20
14.446011073515272
30
0
10
-240.68812668004171
20
14.288582644566883
30
0
10
-240.44093556769855
20
14.288385799619054
30
0
0
LINE
5
883
100
AcDbEntity
8
0
100
AcDbLine
10
-240.4409355676986
20
14.288385799619054
30
0
11
-235.74430681736379
21
14.284645747508913
31
0
0
LWPOLYLINE
5
884
100
AcDbEntity
8
0
100
AcDbPolyline
90
4
70
1
43
0.0
10
-235.23620171799874
20
17.407837834680308
10
-234.09013470047506
20
17.406925190612593
10
-234.08922205640732
20
18.55299220813626
10
-235.23528907393097
20
18.553904852203974
0
SPLINE
5
885
100
AcDbEntity
8
0
100
AcDbSpline
70
0
71
2
72
6
73
3
74
0
42
0.000000001
43
0.0000000001
44
0.0000000001
40
0
40
0
40
0
40
1
40
1
40
1
10
-240.43685551214563
20
19.411979174403541
30
0
10
-240.8413497886861
20
19.412301284102423
30
0
10
-241.15584934306921
20
19.547383438274753
30
0
0
SPLINE
5
886
100
AcDbEntity
8
0
100
AcDbSpline
70
0
71
2
72
6
73
3
74
0
42
0.000000001
43
0.0000000001
44
0.0000000001
40
0
40
0
40
0
40
1
40
1
40
1
10
-241.15584934306921
20
19.547383438274753
30
0
10
-241.47033935334747
20
19.693702256042705
30
0
10
-241.69487043275336
20
19.929835654095555
30
0
0
SPLINE
5
887
100
AcDbEntity
8
0
100
AcDbSpline
70
0
71
2
72
6
73
3
74
0
42
0.000000001
43
0.0000000001
44
0.0000000001
40
0
40
0
40
0
40
1
40
1
40
1
10
-241.69487043275336
20
19.929835654095555
30
0
10
-241.9194015121592
20
20.165969052148405
30
0
10
-242.03152001348556
20
20.469429979976226
30
0
0
SPLINE
5
888
100
AcDbEntity
8
0
100
AcDbSpline
70
0
71
2
72
6
73
3
74
0
42
0.000000001
43
0.0000000001
44
0.0000000001
40
0
40
0
40
0
40
1
40
1
40
1
10
-242.03152001348556
20
20.469429979976226
30
0
10
-242.15486444315951
20
20.784135922462692
30
0
10
-242.15459601848951
20
21.121214386905386
30
0
0
SPLINE
5
889
100
AcDbEntity
8
0
100
AcDbSpline
70
0
71
2
72
6
73
3
74
0
42
0.000000001
43
0.0000000001
44
0.0000000001
40
0
40
0
40
0
40
1
40
1
40
1
10
-242.15459601848951
20
21.121214386905386
30
0
10
-242.15432759381957
20
21.458292851348084
30
0
10
-242.03049105130145
20
21.761565285765748
30
0
0
SPLINE
5
890
100
AcDbEntity
8
0
100
AcDbSpline
70
0
71
2
72
6
73
3
74
0
42
0.000000001
43
0.0000000001
44
0.0000000001
40
0
40
0
40
0
40
1
40
1
40
1
10
-242.03049105130145
20
21.761565285765748
30
0
10
-241.91788043855482
20
22.076080946703275
30
0
10
-241.69297356442115
20
22.311857637288703
30
0
0
SPLINE
5
891
100
AcDbEntity
8
0
100
AcDbSpline
70
0
71
2
72
6
73
3
74
0
42
0.000000001
43
0.0000000001
44
0.0000000001
40
0
40
0
40
0
40
1
40
1
40
1
10
-241.69297356442115
20
22.311857637288703
30
0
10
-241.46806669028746
20
22.547634327874128
30
0
10
-241.15335299278425
20
22.682214230475086
30
0
0
SPLINE
5
892
100
AcDbEntity
8
0
100
AcDbSpline
70
0
71
2
72
6
73
3
74
0
42
0.000000001
43
0.0000000001
44
0.0000000001
40
0
40
0
40
0
40
1
40
1
40
1
10
-241.15335299278425
20
22.682214230475086
30
0
10
-240.8386297511762
20
22.828030796671676
30
0
10
-240.4341354746357
20
22.827708686972798
30
0
0
LINE
5
893
100
AcDbEntity
8
0
100
AcDbLine
10
-240.4341354746357
20
22.827708686972791
30
0
11
-235.73750672430094
21
22.823968634862656
31
0
0
SPLINE
5
894
100
AcDbEntity
8
0
100
AcDbSpline
70
0
71
2
72
6
73
3
74
0
42
0.000000001
43
0.0000000001
44
0.0000000001
40
0
40
0
40
0
40
1
40
1
40
1
10
-235.73750672430091
20
22.823968634862652
30
0
10
-235.33301304380669
20
22.823646525638424
30
0
10
-235.01852243653289
20
22.677328899488344
30
0
0
SPLINE
5
895
100
AcDbEntity
8
0
100
AcDbSpline
70
0
71
2
72
6
73
3
74
0
42
0.000000001
43
0.0000000001
44
0.0000000001
40
0
40
0
40
0
40
1
40
1
40
1
10
-235.01852243653289
20
22.677328899488344
30
0
10
-234.7040228812005
20
22.542247937408529
30
0
10
-234.47949180274389
20
22.306113347263157
30
0
0
SPLINE
5
896
100
AcDbEntity
8
0
100
AcDbSpline
70
0
71
2
72
6
73
3
74
0
42
0.000000001
43
0.0000000001
44
0.0000000001
40
0
40
0
40
0
40
1
40
1
40
1
10
-234.47949180274389
20
22.306113347263157
30
0
10
-234.25496072428732
20
22.069978757117788
30
0
10
-234.13161569666855
20
21.755275198341714
30
0
0
SPLINE
5
897
100
AcDbEntity
8
0
100
AcDbSpline
70
0
71
2
72
6
73
3
74
0
42
0.000000001
43
0.0000000001
44
0.0000000001
40
0
40
0
40
0
40
1
40
1
40
1
10
-234.13161569666855
20
21.755275198341714
30
0
10
-234.01949779091382
20
21.451814867034798
30
0
10
-234.01976621558376
20
21.114736402592101
30
0
0
SPLINE
5
898
100
AcDbEntity
8
0
100
AcDbSpline
70
0
71
2
72
6
73
3
74
0
42
0.000000001
43
0.0000000001
44
0.0000000001
40
0
40
0
40
0
40
1
40
1
40
1
10
-234.01976621558376
20
21.114736402592101
30
0
10
-234.02003464025373
20
20.777657938149403
30
0
10
-234.13264465885271
20
20.463139892552196
30
0
0
SPLINE
5
899
100
AcDbEntity
8
0
100
AcDbSpline
70
0
71
2
72
6
73
3
74
0
42
0.000000001
43
0.0000000001
44
0.0000000001
40
0
40
0
40
0
40
1
40
1
40
1
10
-234.13264465885271
20
20.463139892552196
30
0
10
-234.25648179789169
20
20.159866862562922
30
0
10
-234.48138867107613
20
19.924091364070012
30
0
0
SPLINE
5
900
100
AcDbEntity
8
0
100
AcDbSpline
70
0
71
2
72
6
73
3
74
0
42
0.000000001
43
0.0000000001
44
0.0000000001
40
0
40
0
40
0
40
1
40
1
40
1
10
-234.48138867107613
20
19.924091364070012
30
0
10
-234.70629554426051
20
19.688315865577103
30
0
10
-235.02101878681785
20
19.542498107288004
30
0
0
SPLINE
5
901
100
AcDbEntity
8
0
100
AcDbSpline
70
0
71
2
72
6
73
3
74
0
42
0.000000001
43
0.0000000001
44
0.0000000001
40
0
40
0
40
0
40
1
40
1
40
1
10
-235.02101878681785
20
19.542498107288004
30
0
10
-235.33573308131665
20
19.40791701306917
30
0
10
-235.74022676181087
20
19.408239122293402
30
0
0
LINE
5
902
100
AcDbEntity
8
0
100
AcDbLine
10
-235.74022676181087
20
19.408239122293402
30
0
11
-240.43685551214563
21
19.411979174403541
31
0
0
SPLINE
5
903
100
AcDbEntity
8
0
100
AcDbSpline
70
0
71
2
72
6
73
3
74
0
42
0.000000001
43
0.0000000001
44
0.0000000001
40
0
40
0
40
0
40
1
40
1
40
1
10
-235.73931411631921
20
20.554307927955847
30
0
10
-235.4921236000223
20
20.554111083482667
30
0
10
-235.32345910447387
20
20.711278247206252
30
0
0
SPLINE
5
904
100
AcDbEntity
8
0
100
AcDbSpline
70
0
71
2
72
6
73
3
74
0
42
0.000000001
43
0.0000000001
44
0.0000000001
40
0
40
0
40
0
40
1
40
1
40
1
10
-235.32345910447387
20
20.711278247206252
30
0
10
-235.16603067505082
20
20.868456742698804
30
0
10
-235.16583382915371
20
21.115649047134468
30
0
0
SPLINE
5
905
100
AcDbEntity
8
0
100
AcDbSpline
70
0
71
2
72
6
73
3
74
0
42
0.000000001
43
0.0000000001
44
0.0000000001
40
0
40
0
40
0
40
1
40
1
40
1
10
-235.16583382915371
20
21.115649047134468
30
0
10
-235.16563698515515
20
21.362838967385098
30
0
10
-235.32281488412679
20
21.520267992379743
30
0
0
SPLINE
5
906
100
AcDbEntity
8
0
100
AcDbSpline
70
0
71
2
72
6
73
3
74
0
42
0.000000001
43
0.0000000001
44
0.0000000001
40
0
40
0
40
0
40
1
40
1
40
1
10
-235.32281488412679
20
21.520267992379743
30
0
10
-235.49122885112243
20
21.677705964958321
30
0
10
-235.73841936741934
20
21.677902809431497
30
0
0
LINE
5
907
100
AcDbEntity
8
0
100
AcDbLine
10
-235.73841936741934
20
21.677902809431497
30
0
11
-240.43504811775409
21
21.68164286154164
31
0
0
SPLINE
5
908
100
AcDbEntity
8
0
100
AcDbSpline
70
0
71
2
72
6
73
3
74
0
42
0.000000001
43
0.0000000001
44
0.0000000001
40
0
40
0
40
0
40
1
40
1
40
1
10
-240.43504811775409
20
21.681642861541643
30
0
10
-240.68223923009725
20
21.68183970648947
30
0
10
-240.83966765952027
20
21.524661210996921
30
0
0
SPLINE
5
909
100
AcDbEntity
8
0
100
AcDbSpline
70
0
71
2
72
6
73
3
74
0
42
0.000000001
43
0.0000000001
44
0.0000000001
40
0
40
0
40
0
40
1
40
1
40
1
10
-240.83966765952027
20
21.524661210996921
30
0
10
-241.00833215696736
20
21.367491663088302
30
0
10
-241.00852900096586
20
21.120301742837672
30
0
0
SPLINE
5
910
100
AcDbEntity
8
0
100
AcDbSpline
70
0
71
2
72
6
73
3
74
0
42
0.000000001
43
0.0000000001
44
0.0000000001
40
0
40
0
40
0
40
1
40
1
40
1
10
-241.00852900096586
20
21.120301742837672
30
0
10
-241.008725846863
20
20.873109438402007
30
0
10
-240.84031187986736
20
20.71567146582343
30
0
0
SPLINE
5
911
100
AcDbEntity
8
0
100
AcDbSpline
70
0
71
2
72
6
73
3
74
0
42
0.000000001
43
0.0000000001
44
0.0000000001
40
0
40
0
40
0
40
1
40
1
40
1
10
-240.84031187986736
20
20.71567146582343
30
0
10
-240.68313397899712
20
20.558244825013816
30
0
10
-240.43594286665396
20
20.558047980065986
30
0
0
LINE
5
912
100
AcDbEntity
8
0
100
AcDbLine
10
-240.43594286665399
20
20.558047980065982
30
0
11
-235.73931411631921
21
20.554307927955847
31
0
0
ENDSEC
0
SECTION
2
OBJECTS
0
DICTIONARY
5
C
100
AcDbDictionary
3
ACAD_GROUP
350
D
3
ACAD_MLINESTYLE
350
17
0
DICTIONARY
5
D
100
AcDbDictionary
0
DICTIONARY
5
1A
330
C
100
AcDbDictionary
0
DICTIONARY
5
17
100
AcDbDictionary
0
ENDSEC
0
EOF
